<svg width="311" height="300" viewBox="0 0 311 300" fill="none" xmlns="http://www.w3.org/2000/svg">
<path d="M155.36 300C240.784 300 310.034 260.018 310.034 210.698C310.034 161.378 240.784 121.397 155.36 121.397C69.9356 121.397 0.685547 161.378 0.685547 210.698C0.685547 260.018 69.9356 300 155.36 300Z" fill="#F0F0F0"/>
<path d="M244.189 241.685C234.046 235.829 234.046 226.336 244.189 220.48C254.332 214.624 270.777 214.624 280.919 220.48C291.062 226.336 291.062 235.829 280.919 241.685C270.777 247.541 254.332 247.541 244.189 241.685Z" fill="#E0E0E0"/>
<path d="M37.8949 242.499L11.2154 227.098C9.71205 226.231 9.71205 224.819 11.2154 223.953L166.402 134.356C167.245 133.929 168.177 133.706 169.123 133.706C170.068 133.706 171.001 133.929 171.844 134.356L198.53 149.757C200.034 150.624 200.034 152.035 198.53 152.902L43.3438 242.499C42.4992 242.926 41.5659 243.149 40.6194 243.149C39.6728 243.149 38.7395 242.926 37.8949 242.499Z" fill="#E0E0E0"/>
<path d="M133.793 215.044L156.73 201.783C159.094 200.418 160.275 198.632 160.275 196.84C160.275 195.048 160.275 193.649 160.275 193.649L136.484 180.231C135.82 179.801 135.266 179.22 134.869 178.535C134.472 177.851 134.243 177.082 134.2 176.292V148.004L94.1543 171.152V199.426C94.2004 200.216 94.4312 200.984 94.8279 201.668C95.2247 202.352 95.7765 202.933 96.4389 203.365L116.685 215.024C121.398 217.775 129.066 217.775 133.793 215.044Z" fill="#0056A1"/>
<g opacity="0.6">
<path opacity="0.6" d="M133.793 215.044L156.73 201.783C159.094 200.418 160.275 198.632 160.275 196.84C160.275 195.048 160.275 193.649 160.275 193.649L136.484 180.231C135.82 179.801 135.266 179.22 134.869 178.535C134.472 177.851 134.243 177.082 134.2 176.292V148.004L94.1543 171.152V199.426C94.2004 200.216 94.4312 200.984 94.8279 201.668C95.2247 202.352 95.7765 202.933 96.4389 203.365L116.685 215.024C121.398 217.775 129.066 217.775 133.793 215.044Z" fill="black"/>
</g>
<path opacity="0.3" d="M103.759 204.436V207.613L96.4196 203.379C95.7574 202.947 95.2061 202.366 94.8103 201.681C94.4145 200.997 94.1855 200.229 94.1416 199.44V171.152L101.77 166.747C101.928 168.683 102.098 170.686 102.262 172.655L96.8988 175.741V197.831C96.9413 198.622 97.1706 199.391 97.5677 200.075C97.9648 200.76 98.5185 201.341 99.1834 201.77L103.759 204.436Z" fill="black"/>
<path d="M96.8984 197.838C96.9435 198.627 97.1738 199.395 97.5707 200.08C97.9676 200.764 98.5199 201.345 99.183 201.777L116.659 211.847C121.385 214.571 129.053 214.578 133.786 211.847L156.763 198.586C161.497 195.855 161.497 191.43 156.763 188.699L139.275 178.629C138.613 178.197 138.062 177.615 137.667 176.931C137.271 176.247 137.041 175.479 136.997 174.69V152.593L96.951 175.74L96.8984 197.838Z" fill="#0056A1"/>
<path opacity="0.3" d="M96.8984 197.838C96.9435 198.627 97.1738 199.395 97.5707 200.08C97.9676 200.764 98.5199 201.345 99.183 201.777L116.659 211.847C121.385 214.571 129.053 214.578 133.786 211.847L156.763 198.586C161.497 195.855 161.497 191.43 156.763 188.699L139.275 178.629C138.613 178.197 138.062 177.615 137.667 176.931C137.271 176.247 137.041 175.479 136.997 174.69V152.593L96.951 175.74L96.8984 197.838Z" fill="black"/>
<path opacity="0.5" d="M143.903 181.327L139.248 178.642C138.587 178.21 138.036 177.628 137.64 176.944C137.245 176.26 137.015 175.492 136.97 174.703V152.593L96.9248 175.74V197.838C96.9699 198.627 97.2002 199.395 97.5971 200.08C97.994 200.764 98.5463 201.345 99.2094 201.777L103.805 204.403L143.903 181.327Z" fill="black"/>
<path d="M160.282 193.656V196.847C160.282 198.639 159.094 200.418 156.737 201.79L133.76 215.044C131.246 216.386 128.437 217.084 125.587 217.073V213.895C128.437 213.906 131.246 213.209 133.76 211.867L156.737 198.599C159.094 197.24 160.282 195.448 160.282 193.656Z" fill="#0056A1"/>
<path opacity="0.5" d="M160.282 193.656V196.847C160.282 198.639 159.094 200.418 156.737 201.79L133.76 215.044C131.246 216.386 128.437 217.084 125.587 217.073V213.895C128.437 213.906 131.246 213.209 133.76 211.867L156.737 198.599C159.094 197.24 160.282 195.448 160.282 193.656Z" fill="black"/>
<path d="M32.5634 225.299C33.4292 225.717 34.381 225.926 35.3422 225.909C36.3035 225.891 37.2473 225.649 38.0976 225.2L193.028 135.754C193.859 135.212 194.55 134.482 195.046 133.623C195.542 132.765 195.829 131.801 195.884 130.811V5.47466C195.854 4.51119 195.597 3.56835 195.134 2.723C194.671 1.87764 194.014 1.15368 193.218 0.610112C192.354 0.191508 191.402 -0.0171493 190.442 0.00110215C189.482 0.0193536 188.539 0.263998 187.691 0.715149L32.7604 90.1875C31.9325 90.7327 31.2453 91.4659 30.7547 92.3273C30.2641 93.1886 29.9841 94.1537 29.9375 95.1439V220.46C29.9668 221.416 30.2196 222.351 30.6756 223.191C31.1316 224.032 31.7782 224.753 32.5634 225.299Z" fill="#0056A1"/>
<path d="M38.1174 225.194L193.048 135.748C193.88 135.207 194.572 134.477 195.068 133.618C195.564 132.759 195.851 131.795 195.904 130.804V5.47489C195.904 3.65642 194.623 2.9146 193.048 3.82711L38.1174 93.2731C37.2863 93.8146 36.5946 94.5444 36.0984 95.4033C35.6023 96.2622 35.3156 97.226 35.2617 98.2165V223.546C35.2617 225.364 36.5419 226.106 38.1174 225.194Z" fill="#0056A1"/>
<path opacity="0.5" d="M38.1174 225.194L193.048 135.748C193.88 135.207 194.572 134.477 195.068 133.618C195.564 132.759 195.851 131.795 195.904 130.804V5.47489C195.904 3.65642 194.623 2.9146 193.048 3.82711L38.1174 93.2731C37.2863 93.8146 36.5946 94.5444 36.0984 95.4033C35.6023 96.2622 35.3156 97.226 35.2617 98.2165V223.546C35.2617 225.364 36.5419 226.106 38.1174 225.194Z" fill="black"/>
<path d="M37.6971 228.45C36.8847 228.804 36.005 228.979 35.1188 228.96C34.2325 228.942 33.3607 228.732 32.5634 228.345C31.7764 227.798 31.1288 227.074 30.6727 226.232C30.2166 225.389 29.9648 224.451 29.9375 223.493V212.083L35.2879 215.182V226.592C35.255 228.253 36.312 229.008 37.6971 228.45Z" fill="#0056A1"/>
<path opacity="0.5" d="M37.6971 228.45C36.8847 228.804 36.005 228.979 35.1188 228.96C34.2325 228.942 33.3607 228.732 32.5634 228.345C31.7764 227.798 31.1288 227.074 30.6727 226.232C30.2166 225.389 29.9648 224.451 29.9375 223.493V212.083L35.2879 215.182V226.592C35.255 228.253 36.312 229.008 37.6971 228.45Z" fill="black"/>
<path d="M35.2549 215.182V226.592C35.2549 228.41 36.5679 229.146 38.1106 228.24L193.041 138.794C193.868 138.254 194.558 137.529 195.054 136.675C195.549 135.821 195.838 134.862 195.897 133.877V122.414L35.2549 215.182Z" fill="#0056A1"/>
<path opacity="0.3" d="M35.2617 215.156V226.592C35.2617 228.41 36.5747 229.146 38.1174 228.24L193.048 138.794C193.874 138.254 194.562 137.528 195.057 136.674C195.552 135.82 195.839 134.862 195.897 133.877V122.414L35.2617 215.156Z" fill="black"/>
<path d="M40.6123 200.838V99.9954C40.6429 99.4013 40.8134 98.8228 41.11 98.3071C41.4067 97.7915 41.821 97.3532 42.3192 97.0281L188.807 12.4269C189.753 11.882 190.521 12.3218 190.521 13.4116V114.307C190.489 114.901 190.317 115.48 190.019 115.996C189.722 116.511 189.306 116.949 188.807 117.274L42.3257 201.856C41.3804 202.4 40.6123 201.954 40.6123 200.838Z" fill="#0056A1"/>
<path d="M40.6123 200.838V99.9954C40.6429 99.4013 40.8134 98.8228 41.11 98.3071C41.4067 97.7915 41.821 97.3532 42.3192 97.0281L188.807 12.4269C189.753 11.882 190.521 12.3218 190.521 13.4116V114.307C190.489 114.901 190.317 115.48 190.019 115.996C189.722 116.511 189.306 116.949 188.807 117.274L42.3257 201.856C41.3804 202.4 40.6123 201.954 40.6123 200.838Z" fill="#263238"/>
<path d="M115.576 172.432C114.796 172.939 114.147 173.623 113.682 174.428C113.216 175.234 112.948 176.138 112.897 177.067C112.897 178.773 114.099 179.469 115.576 178.616C116.357 178.108 117.006 177.423 117.472 176.616C117.937 175.81 118.205 174.904 118.254 173.974C118.254 172.268 117.053 171.578 115.576 172.432Z" fill="#0056A1"/>
<path opacity="0.7" d="M36.1019 95.3932C35.5931 96.2484 35.3023 97.2155 35.255 98.2095V215.182L29.9375 212.083V95.1437C29.9719 94.1464 30.2612 93.1746 30.7778 92.3208L36.1019 95.3932Z" fill="black"/>
<path opacity="0.3" d="M195.871 5.00193C195.668 3.5314 194.48 3.03248 193.042 3.82682L38.1116 93.2729C37.2716 93.7982 36.5782 94.5277 36.0962 95.3933L30.7393 92.3013C31.2245 91.4359 31.9199 90.7066 32.7612 90.1808L187.692 0.741345C188.541 0.290131 189.485 0.0454748 190.446 0.0272249C191.408 0.0089751 192.36 0.217646 193.226 0.636307C193.954 1.13219 194.566 1.77856 195.023 2.53172C195.479 3.28489 195.769 4.12728 195.871 5.00193Z" fill="black"/>
<path d="M204.228 20.4292C203.998 20.3137 203.74 20.263 203.484 20.2827C203.227 20.3024 202.98 20.3916 202.77 20.5408L56.5844 104.991C56.0076 105.373 55.5287 105.885 55.1865 106.486C54.8444 107.087 54.6486 107.76 54.6149 108.451V208.676C54.5944 209.014 54.6616 209.352 54.81 209.657C54.9584 209.962 55.1829 210.223 55.4618 210.416C55.7835 210.593 57.5035 211.591 58.0155 211.867C58.1967 211.959 58.3991 212.001 58.6021 211.99C58.8051 211.978 59.0014 211.913 59.1709 211.801L205.324 127.351C205.901 126.969 206.38 126.457 206.722 125.856C207.064 125.255 207.26 124.582 207.294 123.891V23.147C207.323 22.8924 207.281 22.6347 207.172 22.4028C207.063 22.1709 206.891 21.9739 206.676 21.834C206.348 21.6174 204.595 20.6458 204.228 20.4292Z" fill="#0056A1"/>
<path d="M59.1384 106.409L205.331 21.9916C206.434 21.3351 207.3 21.8734 207.3 23.147V123.891C207.267 124.582 207.071 125.255 206.729 125.856C206.387 126.457 205.908 126.969 205.331 127.351L59.1384 211.801C58.0355 212.458 57.1689 211.401 57.1689 210.127V109.869C57.2036 109.178 57.3999 108.505 57.7419 107.904C58.084 107.304 58.5623 106.791 59.1384 106.409Z" fill="#FAFAFA"/>
<path d="M206.224 22.3723C206.611 22.3723 206.67 22.8581 206.67 23.147V123.891C206.635 124.47 206.465 125.032 206.175 125.533C205.884 126.035 205.48 126.461 204.996 126.78L58.8233 211.23C58.7252 211.293 58.6119 211.33 58.495 211.335C58.1274 211.335 57.8386 210.77 57.8386 210.127V109.869C57.8702 109.29 58.0348 108.727 58.3194 108.223C58.6041 107.718 59.0011 107.286 59.4798 106.96L205.659 22.5561C205.828 22.447 206.023 22.3837 206.224 22.3723ZM206.224 21.7158C205.907 21.7293 205.6 21.8243 205.331 21.9915L59.1384 106.409C58.5623 106.791 58.084 107.303 57.7419 107.904C57.3999 108.505 57.2036 109.178 57.1689 109.869V210.127C57.1689 211.138 57.7335 211.991 58.4819 211.991C58.7137 211.987 58.9402 211.921 59.1384 211.801L205.324 127.351C205.901 126.969 206.38 126.457 206.722 125.856C207.064 125.255 207.26 124.582 207.294 123.891V23.147C207.294 22.241 206.847 21.7158 206.191 21.7158H206.224Z" fill="#E0E0E0"/>
<path d="M55.4223 210.416C55.6389 210.527 57.1948 211.414 57.8775 211.808C57.6324 211.604 57.4382 211.346 57.3105 211.054C57.1829 210.763 57.1253 210.445 57.1423 210.127V116.414L54.582 114.917V208.676C54.5608 209.014 54.627 209.351 54.7742 209.656C54.9213 209.961 55.1446 210.222 55.4223 210.416Z" fill="#F0F0F0"/>
<path d="M207.327 23.1272C207.327 21.8667 206.427 21.3547 205.357 21.9915L59.1384 106.409C58.5623 106.791 58.084 107.303 57.7419 107.904C57.3999 108.505 57.2036 109.178 57.1689 109.869V116.433L207.327 29.692V23.1272Z" fill="#0056A1"/>
<g opacity="0.4">
<path opacity="0.4" d="M205.329 21.9915L59.1369 106.402C58.5501 106.772 58.0668 107.285 57.732 107.893L55.1914 106.415C55.5256 105.829 56.0049 105.339 56.5832 104.991L202.769 20.5407C202.978 20.3905 203.225 20.3001 203.481 20.2793C203.738 20.2585 203.996 20.308 204.227 20.4225C204.581 20.6457 206.242 21.5845 206.669 21.8143C206.448 21.7324 206.21 21.7058 205.977 21.7367C205.744 21.7676 205.521 21.8551 205.329 21.9915Z" fill="white"/>
</g>
<path opacity="0.15" d="M54.582 114.923V108.418C54.609 107.709 54.8194 107.019 55.1926 106.415L57.7397 107.886C57.3719 108.479 57.1659 109.158 57.1423 109.855V116.42L54.582 114.923Z" fill="black"/>
<path d="M176.498 98.7019L88.9425 149.251C88.5167 149.527 88.1622 149.9 87.9078 150.34C87.6534 150.779 87.5063 151.272 87.4785 151.779V176.883C87.5063 177.389 87.6534 177.882 87.9078 178.322C88.1622 178.761 88.5167 179.134 88.9425 179.41L91.4962 180.881C91.9501 181.11 92.4515 181.23 92.9602 181.23C93.4688 181.23 93.9703 181.11 94.4241 180.881L181.966 130.331C182.392 130.054 182.747 129.679 183.001 129.239C183.255 128.799 183.403 128.305 183.43 127.797V102.687C183.403 102.18 183.255 101.687 183.001 101.248C182.747 100.808 182.392 100.436 181.966 100.159L179.406 98.6887C178.954 98.4629 178.456 98.3464 177.95 98.3487C177.445 98.3509 176.948 98.4719 176.498 98.7019Z" fill="#0056A1"/>
<path opacity="0.5" d="M183.431 102.463C183.326 101.708 182.715 101.433 181.98 101.859L94.4244 152.409C93.9927 152.677 93.6376 153.053 93.3938 153.499L87.9121 150.334C88.1578 149.895 88.51 149.525 88.9362 149.258L176.498 98.7083C176.951 98.4783 177.451 98.3584 177.959 98.3584C178.467 98.3584 178.967 98.4783 179.42 98.7083L181.98 100.179C182.37 100.435 182.701 100.771 182.952 101.165C183.202 101.559 183.365 102.001 183.431 102.463Z" fill="white"/>
<path d="M94.1747 181.005C93.746 181.174 93.2865 181.251 92.8261 181.231C92.3658 181.21 91.9149 181.093 91.5028 180.887L88.9425 179.417C88.5174 179.14 88.1635 178.767 87.9092 178.328C87.6549 177.889 87.5073 177.396 87.4785 176.889V151.785C87.4982 151.273 87.6473 150.774 87.9118 150.334L93.3934 153.499C93.1271 153.932 92.9778 154.428 92.9602 154.936V180.047C92.9602 180.881 93.4854 181.268 94.1747 181.005Z" fill="#263238"/>
<path d="M94.4245 152.409L181.98 101.86C182.787 101.393 183.444 101.768 183.444 102.7V127.81C183.416 128.318 183.269 128.812 183.015 129.252C182.76 129.693 182.406 130.067 181.98 130.344L94.4376 180.894C93.6301 181.36 92.9736 180.979 92.9736 180.047V154.943C93 154.436 93.145 153.943 93.397 153.503C93.649 153.063 94.001 152.688 94.4245 152.409Z" fill="#0056A1"/>
<path d="M153.284 112.107L88.9489 149.258C88.5227 149.525 88.1705 149.895 87.9248 150.335L93.4064 153.499C93.6503 153.053 94.0053 152.677 94.4371 152.409L158.773 115.265L153.284 112.107Z" fill="#455A64"/>
<path d="M158.759 115.265L94.4239 152.409C93.998 152.687 93.6435 153.061 93.3892 153.501C93.1348 153.941 92.9878 154.435 92.96 154.943V180.04C92.96 180.972 93.6164 181.353 94.4239 180.887L158.759 143.743V115.265Z" fill="#37474F"/>
<path d="M109.26 149.35L142.459 130.187C143.831 129.393 144.947 129.957 144.947 131.447C144.885 132.284 144.628 133.095 144.194 133.814C143.761 134.532 143.164 135.139 142.452 135.583L109.26 154.753C107.888 155.547 106.766 154.982 106.766 153.492C106.828 152.655 107.086 151.843 107.519 151.124C107.952 150.404 108.549 149.796 109.26 149.35Z" fill="#0056A1"/>
<path d="M116.062 155.698C116.068 155.691 116.076 155.685 116.084 155.681C116.093 155.678 116.102 155.676 116.111 155.676C116.121 155.676 116.13 155.678 116.138 155.681C116.147 155.685 116.154 155.691 116.16 155.698C116.19 155.742 116.204 155.795 116.2 155.849V159.584C116.2 159.945 116.17 160.305 116.108 160.661C116.054 160.986 115.961 161.303 115.832 161.606C115.715 161.884 115.56 162.144 115.373 162.381C115.188 162.6 114.966 162.785 114.716 162.926C114.521 163.053 114.293 163.121 114.06 163.123C113.971 163.116 113.884 163.09 113.805 163.049C113.726 163.007 113.656 162.949 113.6 162.88C113.456 162.687 113.361 162.461 113.324 162.223C113.262 161.906 113.233 161.582 113.239 161.258V157.516C113.239 157.451 113.252 157.386 113.278 157.326C113.295 157.272 113.329 157.225 113.377 157.195L113.791 156.952C113.804 156.939 113.821 156.932 113.84 156.932C113.858 156.932 113.876 156.939 113.889 156.952C113.919 156.996 113.933 157.049 113.928 157.103V160.792C113.923 160.995 113.943 161.198 113.987 161.396C114.006 161.523 114.06 161.641 114.145 161.737C114.175 161.773 114.212 161.8 114.254 161.819C114.296 161.837 114.342 161.845 114.388 161.842C114.5 161.835 114.609 161.799 114.703 161.737C114.82 161.668 114.926 161.581 115.018 161.481C115.121 161.363 115.205 161.231 115.268 161.088C115.342 160.919 115.397 160.743 115.432 160.562C115.47 160.346 115.488 160.126 115.484 159.906V156.21C115.486 156.144 115.502 156.079 115.53 156.019C115.546 155.965 115.581 155.919 115.629 155.888L116.062 155.698Z" fill="#FAFAFA"/>
<path d="M118.636 159.23C118.639 159.181 118.627 159.133 118.603 159.092C118.587 159.075 118.568 159.062 118.546 159.054C118.524 159.046 118.501 159.043 118.478 159.046C118.397 159.035 118.316 159.035 118.235 159.046L117.854 159.118C117.731 159.149 117.603 159.149 117.48 159.118C117.384 159.087 117.301 159.025 117.244 158.941C117.18 158.834 117.137 158.716 117.119 158.593C117.055 158.241 117.055 157.881 117.119 157.529C117.168 157.328 117.239 157.132 117.329 156.945C117.419 156.759 117.529 156.582 117.657 156.42C117.782 156.265 117.933 156.134 118.104 156.033C118.242 155.948 118.396 155.895 118.557 155.875C118.673 155.863 118.79 155.888 118.892 155.947C118.988 156.006 119.064 156.093 119.108 156.197C119.161 156.319 119.19 156.451 119.194 156.584C119.2 156.65 119.187 156.717 119.154 156.774C119.138 156.829 119.103 156.875 119.056 156.906L118.662 157.135C118.644 157.146 118.623 157.151 118.603 157.151C118.582 157.151 118.562 157.146 118.544 157.135L118.458 157.07C118.424 157.043 118.383 157.027 118.34 157.024C118.256 157.033 118.175 157.063 118.104 157.109C118.001 157.171 117.91 157.251 117.835 157.346C117.755 157.449 117.713 157.576 117.716 157.707C117.707 157.756 117.707 157.808 117.716 157.858C117.729 157.876 117.746 157.892 117.765 157.903C117.784 157.914 117.806 157.921 117.828 157.923C117.9 157.935 117.973 157.935 118.045 157.923L118.412 157.858C118.721 157.799 118.931 157.858 119.069 158.028C119.214 158.272 119.28 158.553 119.259 158.836C119.257 159.031 119.231 159.225 119.18 159.413C119.129 159.618 119.054 159.816 118.957 160.004C118.861 160.199 118.739 160.38 118.596 160.543C118.46 160.702 118.298 160.838 118.117 160.943C117.973 161.035 117.808 161.092 117.638 161.107C117.514 161.112 117.393 161.077 117.29 161.009C117.188 160.939 117.111 160.841 117.067 160.726C117.013 160.602 116.987 160.468 116.988 160.333C116.982 160.264 116.995 160.196 117.027 160.136C117.043 160.081 117.078 160.035 117.126 160.004L117.52 159.775C117.572 159.775 117.611 159.742 117.638 159.775L117.723 159.866C117.74 159.886 117.762 159.902 117.785 159.913C117.809 159.924 117.835 159.931 117.861 159.932C117.953 159.933 118.043 159.903 118.117 159.847C118.235 159.779 118.342 159.693 118.432 159.591C118.477 159.537 118.514 159.477 118.544 159.413C118.59 159.361 118.622 159.298 118.636 159.23Z" fill="#FAFAFA"/>
<path d="M119.975 157.451C119.974 157.11 120.002 156.769 120.06 156.433C120.115 156.117 120.201 155.807 120.316 155.508C120.413 155.239 120.545 154.985 120.71 154.753C120.848 154.553 121.027 154.385 121.235 154.26C121.387 154.158 121.573 154.118 121.754 154.149C121.914 154.186 122.055 154.282 122.148 154.418C122.271 154.596 122.358 154.797 122.404 155.009C122.467 155.284 122.498 155.566 122.496 155.849V156.256C122.498 156.325 122.482 156.392 122.45 156.453C122.434 156.507 122.399 156.554 122.351 156.584L120.644 157.576C120.64 157.691 120.656 157.807 120.69 157.917C120.716 157.991 120.761 158.057 120.822 158.107C120.876 158.15 120.943 158.171 121.012 158.166C121.091 158.157 121.168 158.13 121.235 158.088C121.335 158.034 121.423 157.963 121.498 157.878C121.565 157.802 121.622 157.718 121.669 157.628C121.697 157.576 121.727 157.526 121.76 157.477C121.789 157.444 121.822 157.415 121.859 157.392L122.266 157.155C122.28 157.144 122.297 157.138 122.315 157.138C122.333 157.138 122.35 157.144 122.364 157.155C122.382 157.176 122.394 157.2 122.401 157.227C122.408 157.253 122.409 157.28 122.404 157.306C122.397 157.434 122.37 157.561 122.325 157.681C122.268 157.863 122.194 158.039 122.102 158.206C121.999 158.398 121.876 158.579 121.734 158.744C121.593 158.913 121.424 159.058 121.235 159.171C121.08 159.272 120.894 159.317 120.71 159.296C120.549 159.257 120.408 159.158 120.316 159.02C120.187 158.821 120.1 158.597 120.06 158.363C120 158.063 119.972 157.757 119.975 157.451ZM121.235 155.357C121.134 155.411 121.047 155.487 120.979 155.58C120.906 155.672 120.847 155.773 120.802 155.882C120.756 155.99 120.719 156.102 120.69 156.217C120.667 156.32 120.652 156.426 120.644 156.532L121.8 155.875C121.793 155.785 121.78 155.695 121.76 155.606C121.75 155.527 121.719 155.452 121.669 155.389C121.649 155.361 121.624 155.337 121.594 155.319C121.565 155.301 121.532 155.289 121.498 155.284C121.405 155.277 121.311 155.302 121.235 155.357Z" fill="#FAFAFA"/>
<path d="M124.558 153.525C124.359 153.638 124.202 153.814 124.111 154.024C124.009 154.301 123.962 154.595 123.973 154.89V157.26C123.974 157.328 123.961 157.395 123.934 157.457C123.918 157.511 123.883 157.558 123.835 157.589L123.448 157.812C123.442 157.819 123.434 157.824 123.426 157.828C123.417 157.832 123.408 157.834 123.399 157.834C123.39 157.834 123.38 157.832 123.372 157.828C123.363 157.824 123.356 157.819 123.35 157.812C123.32 157.767 123.306 157.714 123.31 157.661V153.413C123.311 153.346 123.324 153.279 123.35 153.216C123.368 153.163 123.402 153.118 123.448 153.085L123.835 152.862C123.849 152.849 123.866 152.842 123.885 152.842C123.903 152.842 123.92 152.849 123.934 152.862C123.964 152.904 123.978 152.955 123.973 153.006V153.216C124.051 153.04 124.148 152.873 124.262 152.717C124.366 152.574 124.5 152.455 124.656 152.37L124.892 152.232C124.905 152.22 124.921 152.213 124.938 152.213C124.955 152.213 124.972 152.22 124.984 152.232C125.016 152.275 125.032 152.329 125.03 152.383V152.98C125.029 153.048 125.013 153.115 124.984 153.177C124.968 153.229 124.936 153.275 124.892 153.308L124.558 153.525Z" fill="#FAFAFA"/>
<path d="M129.455 153.21C129.461 153.203 129.469 153.197 129.477 153.194C129.486 153.19 129.495 153.188 129.504 153.188C129.514 153.188 129.523 153.19 129.531 153.194C129.54 153.197 129.547 153.203 129.553 153.21C129.583 153.255 129.597 153.308 129.593 153.361V154.017C129.592 154.085 129.579 154.152 129.553 154.214C129.531 154.263 129.497 154.306 129.455 154.339L127.21 155.652C127.196 155.665 127.179 155.672 127.161 155.672C127.142 155.672 127.125 155.665 127.111 155.652C127.082 155.61 127.068 155.559 127.072 155.508V149.599C127.072 149.532 127.086 149.465 127.111 149.402C127.13 149.351 127.164 149.307 127.21 149.278L127.623 149.035C127.637 149.022 127.654 149.015 127.673 149.015C127.691 149.015 127.708 149.022 127.722 149.035C127.751 149.077 127.765 149.128 127.761 149.179V154.175L129.455 153.21Z" fill="#FAFAFA"/>
<path d="M131.47 148.352C131.618 148.249 131.797 148.201 131.976 148.214C132.13 148.226 132.273 148.296 132.376 148.411C132.499 148.551 132.588 148.717 132.639 148.897C132.709 149.129 132.749 149.369 132.757 149.612C132.757 149.665 132.757 149.737 132.757 149.822V150.328C132.757 150.406 132.757 150.479 132.757 150.538C132.744 150.823 132.704 151.107 132.639 151.385C132.578 151.655 132.49 151.919 132.376 152.172C132.272 152.408 132.138 152.629 131.976 152.829C131.837 153.01 131.666 153.164 131.47 153.282C131.318 153.381 131.139 153.429 130.958 153.42C130.807 153.407 130.666 153.336 130.564 153.223C130.438 153.087 130.348 152.923 130.302 152.743C130.232 152.511 130.192 152.271 130.184 152.028C130.184 151.975 130.184 151.91 130.184 151.824V151.319C130.184 151.234 130.184 151.161 130.184 151.109C130.191 150.821 130.229 150.535 130.295 150.255C130.359 149.983 130.449 149.717 130.564 149.461C130.669 149.227 130.801 149.007 130.958 148.805C131.097 148.621 131.271 148.467 131.47 148.352ZM132.087 150.045C132.087 149.9 132.063 149.756 132.015 149.619C131.991 149.535 131.94 149.461 131.871 149.409C131.815 149.371 131.747 149.355 131.68 149.363C131.605 149.377 131.534 149.406 131.47 149.448C131.393 149.49 131.322 149.543 131.26 149.605C131.185 149.684 131.121 149.772 131.07 149.868C131.004 149.988 130.955 150.116 130.925 150.249C130.882 150.417 130.856 150.588 130.847 150.761C130.847 150.813 130.847 150.873 130.847 150.945V151.411C130.847 151.483 130.847 151.542 130.847 151.582C130.853 151.727 130.879 151.87 130.925 152.008C130.949 152.092 131 152.166 131.07 152.218C131.097 152.238 131.128 152.251 131.161 152.258C131.194 152.265 131.227 152.265 131.26 152.258C131.335 152.245 131.406 152.218 131.47 152.179C131.546 152.135 131.617 152.082 131.68 152.021C131.754 151.941 131.818 151.853 131.871 151.759C131.934 151.638 131.982 151.51 132.015 151.378C132.058 151.211 132.082 151.039 132.087 150.866C132.091 150.805 132.091 150.743 132.087 150.682V150.223C132.091 150.164 132.091 150.104 132.087 150.045Z" fill="#FAFAFA"/>
<path d="M134.765 152.192C134.849 152.141 134.925 152.077 134.989 152.002C135.068 151.909 135.136 151.808 135.192 151.7C135.257 151.568 135.308 151.429 135.343 151.286C135.384 151.125 135.403 150.96 135.402 150.794V150.459C135.402 150.525 135.337 150.603 135.291 150.695C135.246 150.791 135.193 150.884 135.133 150.971C135.065 151.063 134.99 151.151 134.91 151.234C134.828 151.32 134.732 151.393 134.628 151.45C134.56 151.496 134.484 151.528 134.404 151.544C134.324 151.56 134.241 151.559 134.162 151.542C134.016 151.497 133.89 151.401 133.807 151.273C133.7 151.103 133.622 150.917 133.577 150.722C133.521 150.474 133.49 150.221 133.485 149.967C133.485 149.881 133.485 149.776 133.485 149.652C133.485 149.527 133.485 149.422 133.485 149.33C133.494 149.041 133.524 148.754 133.577 148.47C133.631 148.191 133.708 147.916 133.807 147.649C133.9 147.418 134.019 147.197 134.162 146.993C134.283 146.812 134.442 146.66 134.628 146.546C134.715 146.494 134.81 146.456 134.91 146.435C134.984 146.421 135.059 146.421 135.133 146.435C135.191 146.451 135.245 146.48 135.291 146.52C135.333 146.552 135.37 146.59 135.402 146.632V146.422C135.403 146.354 135.416 146.287 135.442 146.225C135.46 146.174 135.495 146.13 135.54 146.1L135.927 145.87C135.941 145.858 135.958 145.851 135.977 145.851C135.995 145.851 136.013 145.858 136.026 145.87C136.058 145.914 136.074 145.967 136.072 146.021V150.288C136.09 150.927 135.971 151.563 135.724 152.153C135.53 152.617 135.195 153.007 134.765 153.269C134.619 153.36 134.452 153.412 134.28 153.42C134.143 153.428 134.008 153.394 133.892 153.321C133.781 153.238 133.691 153.13 133.63 153.006C133.566 152.857 133.53 152.696 133.525 152.534C133.519 152.465 133.532 152.397 133.564 152.337C133.58 152.282 133.615 152.236 133.663 152.205L134.011 152.008C134.019 152 134.028 151.993 134.039 151.988C134.05 151.984 134.061 151.981 134.073 151.981C134.085 151.981 134.096 151.984 134.107 151.988C134.118 151.993 134.127 152 134.135 152.008C134.168 152.042 134.196 152.08 134.221 152.12C134.261 152.19 134.327 152.242 134.404 152.264C134.483 152.323 134.601 152.258 134.765 152.192ZM134.148 149.008C134.148 149.183 134.148 149.354 134.148 149.52C134.13 149.782 134.204 150.043 134.358 150.256C134.417 150.306 134.491 150.334 134.569 150.334C134.646 150.334 134.72 150.306 134.779 150.256C134.969 150.132 135.118 149.953 135.205 149.743C135.325 149.47 135.392 149.176 135.402 148.877C135.402 148.778 135.402 148.66 135.402 148.522C135.402 148.385 135.402 148.266 135.402 148.181C135.416 147.946 135.346 147.714 135.205 147.525C135.147 147.471 135.071 147.441 134.992 147.441C134.913 147.441 134.837 147.471 134.779 147.525C134.592 147.648 134.446 147.824 134.358 148.03C134.224 148.339 134.152 148.671 134.148 149.008Z" fill="#FAFAFA"/>
<path d="M137.601 143.179C137.614 143.168 137.63 143.162 137.647 143.162C137.664 143.162 137.68 143.168 137.693 143.179C137.727 143.221 137.744 143.275 137.739 143.33V144.045C137.739 144.114 137.723 144.181 137.693 144.242C137.674 144.292 137.643 144.335 137.601 144.367L137.161 144.623C137.155 144.63 137.147 144.636 137.139 144.64C137.13 144.643 137.121 144.645 137.112 144.645C137.102 144.645 137.093 144.643 137.085 144.64C137.076 144.636 137.069 144.63 137.063 144.623C137.045 144.603 137.032 144.581 137.025 144.556C137.017 144.531 137.014 144.505 137.017 144.479V143.763C137.016 143.695 137.032 143.627 137.063 143.566C137.081 143.515 137.115 143.471 137.161 143.441L137.601 143.179ZM137.712 149.343C137.713 149.409 137.699 149.474 137.673 149.534C137.652 149.585 137.618 149.63 137.575 149.665L137.181 149.888C137.175 149.895 137.168 149.901 137.16 149.904C137.152 149.908 137.144 149.91 137.135 149.91C137.126 149.91 137.117 149.908 137.109 149.904C137.101 149.901 137.094 149.895 137.089 149.888C137.054 149.846 137.038 149.792 137.043 149.737V145.49C137.042 145.421 137.058 145.354 137.089 145.293C137.107 145.242 137.139 145.196 137.181 145.161L137.575 144.938C137.588 144.926 137.606 144.919 137.624 144.919C137.642 144.919 137.66 144.926 137.673 144.938C137.702 144.98 137.716 145.031 137.712 145.083V149.343Z" fill="#FAFAFA"/>
<path d="M141.165 147.341C141.165 147.408 141.152 147.475 141.126 147.538C141.108 147.589 141.073 147.633 141.027 147.663L140.634 147.892C140.621 147.904 140.605 147.911 140.588 147.911C140.57 147.911 140.554 147.904 140.542 147.892C140.507 147.85 140.491 147.796 140.496 147.741V145.431C140.516 145.158 140.466 144.884 140.351 144.636C140.259 144.472 140.115 144.446 139.911 144.564C139.708 144.7 139.558 144.902 139.485 145.135C139.375 145.445 139.322 145.772 139.327 146.1V148.418C139.327 148.485 139.313 148.552 139.288 148.614C139.272 148.669 139.237 148.715 139.189 148.746L138.802 148.969C138.796 148.976 138.788 148.982 138.78 148.985C138.771 148.989 138.762 148.991 138.753 148.991C138.743 148.991 138.734 148.989 138.726 148.985C138.717 148.982 138.71 148.976 138.703 148.969C138.673 148.927 138.659 148.876 138.664 148.825V144.577C138.663 144.509 138.677 144.442 138.703 144.38C138.72 144.326 138.755 144.279 138.802 144.249L139.189 144.026C139.195 144.019 139.203 144.013 139.212 144.009C139.22 144.005 139.229 144.003 139.239 144.003C139.248 144.003 139.257 144.005 139.266 144.009C139.274 144.013 139.282 144.019 139.288 144.026C139.317 144.07 139.331 144.123 139.327 144.177V144.38C139.414 144.18 139.519 143.989 139.642 143.809C139.75 143.643 139.897 143.506 140.069 143.409C140.218 143.299 140.404 143.252 140.588 143.277C140.66 143.296 140.728 143.329 140.787 143.375C140.846 143.422 140.894 143.48 140.929 143.546C141.024 143.724 141.087 143.918 141.113 144.118C141.148 144.379 141.165 144.642 141.165 144.905V147.341Z" fill="#FAFAFA"/>
<path d="M174.279 128.23L167.904 131.907L168.895 122.965C168.127 122.558 167.642 121.567 167.642 120.142C167.642 117.602 169.191 114.654 171.095 113.578C172.999 112.501 174.541 113.643 174.541 116.204C174.502 117.71 174.072 119.18 173.294 120.471L174.279 128.23Z" fill="#455A64"/>
<path d="M174.285 128.231L168.672 124.994L167.904 131.913L174.285 128.231Z" fill="#37474F"/>
<path d="M171.082 113.558C169.693 114.496 168.658 115.871 168.141 117.464L173.281 120.431C174.059 119.141 174.489 117.671 174.528 116.164C174.541 113.624 172.999 112.462 171.082 113.558Z" fill="#37474F"/>
<path d="M140.095 83.7867C137.909 82.5262 134.896 82.7035 131.561 84.627C124.904 88.474 119.508 97.8157 119.508 105.503C119.508 109.363 120.873 112.068 123.066 113.315L127.313 115.784C129.493 117.044 132.506 116.86 135.848 114.937C142.504 111.096 147.901 101.748 147.901 94.0606C147.901 90.2202 146.548 87.4958 144.369 86.2682" fill="#0056A1"/>
<path d="M135.842 87.1019C129.185 90.9489 123.789 100.297 123.789 107.978C123.789 115.659 129.185 118.784 135.842 114.937C142.499 111.09 147.902 101.748 147.895 94.0606C147.889 86.3732 142.492 83.2615 135.842 87.1019Z" fill="#0056A1"/>
<path d="M142.492 104.157V105.037C140.898 107.883 138.61 110.281 135.842 112.009C133.249 113.499 130.906 113.663 129.186 112.711V110.899C129.274 109.014 129.812 107.177 130.755 105.543C131.699 103.909 133.02 102.524 134.608 101.505L136.361 100.494C137.91 99.601 139.42 99.4829 140.602 100.172C141.783 100.861 142.492 102.312 142.492 104.157Z" fill="#0056A1"/>
<path opacity="0.4" d="M140.096 83.7864L144.363 86.2679C142.184 85.0009 139.171 85.1781 135.829 87.1016C131.47 89.6225 127.649 94.5002 125.535 99.7258L121.262 97.2509C123.382 91.999 127.17 87.1476 131.555 84.6267C134.903 82.7097 137.917 82.5259 140.096 83.7864Z" fill="white"/>
<path opacity="0.2" d="M127.163 115.685L123.073 113.315C120.88 112.068 119.515 109.376 119.515 105.503L123.788 107.984C123.815 111.726 125.075 114.392 127.163 115.685Z" fill="black"/>
<path opacity="0.1" d="M121.274 97.2512L125.548 99.7262C124.453 102.342 123.865 105.143 123.815 107.978L119.541 105.497C119.594 102.663 120.182 99.8658 121.274 97.2512Z" fill="black"/>
<path d="M134.319 100.08C133.912 100.085 133.511 99.9806 133.157 99.7785C132.731 99.4944 132.39 99.1004 132.169 98.6381C131.948 98.1759 131.857 97.6626 131.904 97.1525C131.959 95.9565 132.301 94.7911 132.899 93.754C133.498 92.717 134.336 91.8383 135.344 91.1917C135.748 90.8685 136.241 90.675 136.758 90.6365C137.274 90.598 137.79 90.7163 138.239 90.9759C138.687 91.2355 139.046 91.6243 139.27 92.0914C139.494 92.5586 139.571 93.0824 139.493 93.5944C139.436 94.7902 139.094 95.9552 138.496 96.9921C137.897 98.029 137.06 98.9078 136.053 99.5553C135.531 99.8805 134.933 100.062 134.319 100.08Z" fill="white"/>
<path d="M140.602 100.166C139.42 99.4763 137.91 99.5945 136.361 100.487L134.608 101.498C133.019 102.518 131.697 103.904 130.754 105.539C129.81 107.175 129.273 109.013 129.186 110.899V112.718C130.906 113.669 133.249 113.505 135.842 112.015C138.61 110.288 140.898 107.89 142.492 105.043V104.164C142.492 102.312 141.81 100.861 140.602 100.166Z" fill="white"/>
<path d="M275.562 213.738C275.562 213.738 276.436 206.07 280.25 200.116C284.064 194.162 289.303 190.452 294.194 190.065C299.084 189.678 303.036 194.181 297.804 197.286C292.572 200.392 283.276 203.53 278.996 215.084L275.562 213.738Z" fill="#0056A1"/>
<path opacity="0.1" d="M275.562 213.738C275.562 213.738 276.436 206.07 280.25 200.116C284.064 194.162 289.303 190.452 294.194 190.065C299.084 189.678 303.036 194.181 297.804 197.286C292.572 200.392 283.276 203.53 278.996 215.084L275.562 213.738Z" fill="black"/>
<path d="M277 211.742H276.948C276.883 211.716 276.832 211.665 276.805 211.602C276.778 211.538 276.777 211.465 276.803 211.401C281.963 198.698 291.784 193.387 296.261 192.363C296.295 192.355 296.33 192.354 296.364 192.36C296.398 192.366 296.431 192.378 296.46 192.396C296.489 192.414 296.514 192.438 296.534 192.466C296.554 192.494 296.569 192.526 296.577 192.56C296.584 192.594 296.585 192.628 296.58 192.662C296.574 192.696 296.562 192.729 296.543 192.758C296.525 192.787 296.501 192.813 296.473 192.833C296.445 192.853 296.413 192.867 296.38 192.875C291.994 193.886 282.364 199.098 277.289 211.604C277.264 211.657 277.221 211.699 277.169 211.724C277.116 211.749 277.057 211.756 277 211.742Z" fill="white"/>
<path d="M303.115 211.893C302.675 212.891 301.586 213.416 300.575 213.823C299.564 214.23 298.461 214.67 297.909 215.616C296.806 217.519 298.618 220.211 297.437 222.056C297.158 222.427 296.808 222.738 296.406 222.971C296.005 223.203 295.56 223.352 295.1 223.408C294.345 223.546 293.576 223.546 292.815 223.611C292.45 223.607 292.086 223.578 291.725 223.526C290.664 223.289 289.555 223.407 288.567 223.861C287.051 224.714 286.598 226.625 285.666 228.102C285.096 228.972 284.346 229.708 283.465 230.261C282.585 230.814 281.596 231.17 280.565 231.305C279.908 231.391 278.595 231.516 277.939 231.128C277.888 231.103 277.839 231.072 277.795 231.036C277.696 230.931 277.578 230.793 277.525 230.721C277.522 230.706 277.522 230.69 277.525 230.675C277.256 229.684 277.696 228.66 277.716 227.636V227.452C277.67 226.264 277.637 225.082 277.611 223.9C277.554 221.712 277.532 219.524 277.545 217.336C277.545 215.917 277.388 214.368 277.992 213.036C278.648 211.565 280.302 211.532 280.926 210.094C281.175 209.517 281.307 208.906 281.55 208.322C281.925 207.473 282.526 206.742 283.288 206.211C284.05 205.68 284.943 205.368 285.869 205.309C288.751 205.164 291.331 207.495 294.213 207.278C294.955 207.219 295.684 206.989 296.419 206.858C298.75 206.418 301.448 207.081 302.761 209.057C303.049 209.464 303.232 209.936 303.294 210.431C303.356 210.926 303.294 211.428 303.115 211.893Z" fill="#0056A1"/>
<path d="M277.236 226.126C277.174 226.108 277.122 226.066 277.09 226.009C277.058 225.953 277.049 225.887 277.066 225.824C281.044 210.896 296.76 208.755 300.456 209.005C300.489 209.006 300.521 209.015 300.55 209.029C300.579 209.043 300.605 209.063 300.627 209.087C300.648 209.112 300.664 209.141 300.675 209.171C300.685 209.202 300.689 209.235 300.686 209.267C300.679 209.331 300.648 209.39 300.599 209.432C300.55 209.473 300.487 209.494 300.423 209.491C296.819 209.235 281.431 211.342 277.538 225.955C277.52 226.017 277.478 226.07 277.422 226.102C277.365 226.134 277.299 226.142 277.236 226.126Z" fill="white"/>
<path d="M294.72 218.563C294.67 218.556 294.624 218.533 294.588 218.498C293.135 217.238 291.422 216.315 289.571 215.794C287.72 215.274 285.777 215.168 283.881 215.484C283.817 215.49 283.753 215.472 283.702 215.433C283.651 215.394 283.616 215.337 283.605 215.274C283.596 215.21 283.612 215.144 283.65 215.092C283.688 215.039 283.745 215.003 283.809 214.992C285.787 214.663 287.813 214.775 289.742 215.321C291.672 215.867 293.457 216.833 294.969 218.15C294.992 218.172 295.011 218.199 295.023 218.229C295.036 218.259 295.042 218.291 295.042 218.324C295.042 218.356 295.036 218.388 295.023 218.418C295.011 218.448 294.992 218.475 294.969 218.498C294.939 218.533 294.899 218.558 294.855 218.57C294.81 218.582 294.763 218.579 294.72 218.563Z" fill="white"/>
<path d="M239.435 33.4345L241.523 34.2354V29.64C241.523 25.99 244.431 25.1168 247.589 26.9419C250.753 28.7669 253.313 33.1981 253.313 36.8482V37.5047C253.753 37.3702 254.218 37.337 254.673 37.4075C255.128 37.478 255.56 37.6503 255.939 37.9117C257.138 38.6935 258.136 39.7472 258.851 40.9872C259.566 42.2271 259.979 43.6183 260.055 45.0477V45.3497L262.97 47.0303C263.759 47.545 264.415 48.2382 264.886 49.0536C265.357 49.869 265.63 50.7839 265.681 51.7242C265.681 53.4573 264.467 54.1597 262.97 53.2931L239.435 39.6974C238.646 39.1838 237.99 38.4908 237.52 37.675C237.049 36.8592 236.779 35.9438 236.73 35.0035C236.73 33.2769 237.932 32.5745 239.435 33.4345Z" fill="#E6E6E6"/>
<path d="M267.396 29.7976L271.184 31.9837C271.163 31.8182 271.152 31.6516 271.151 31.4848V30.3885C271.151 28.419 272.516 27.6444 274.21 28.6225C274.938 29.0681 275.56 29.6661 276.035 30.3753C276.311 27.9201 278.241 27.0076 280.578 28.3534C281.913 29.2224 283.025 30.3938 283.824 31.7727C284.622 33.1517 285.085 34.6993 285.173 36.2903V37.9315C285.19 38.5872 285.058 39.2382 284.786 39.8353L287.937 41.6472C288.428 41.9729 288.836 42.4092 289.128 42.9211C289.42 43.433 289.587 44.0063 289.618 44.5948C289.618 45.678 288.856 46.1178 287.917 45.5795L267.396 33.7628C266.899 33.4394 266.486 33.0032 266.191 32.4897C265.895 31.9763 265.726 31.4002 265.695 30.8086C265.695 29.6992 266.457 29.2593 267.396 29.7976Z" fill="#E6E6E6"/>
<path d="M252.73 129.432C249.973 134.093 247.321 138.144 245.456 140.087C241.918 141.728 233.607 144.262 230.357 144.682C229.786 144.755 229.209 144.62 228.729 144.302C227.449 143.461 226.458 143.323 225.112 142.857C224.055 142.496 223.609 141.991 223.412 142.201C223.208 142.439 223.106 142.748 223.127 143.061C223.148 143.373 223.29 143.666 223.523 143.875C224.028 144.355 224.588 144.773 225.191 145.122C223.749 145.48 222.246 145.507 220.792 145.201C217.976 144.459 216.65 145.812 218.554 148.871C219.21 149.961 221.915 151.713 227.351 151.241C229.29 151.136 231.221 150.917 233.134 150.584C238.347 149.468 244.143 148.392 247.708 147.302C249.034 146.78 250.221 145.958 251.174 144.899C257.168 138.065 259.157 133.194 261.783 128.769L261.56 121.548C257.306 121.403 255.034 125.533 252.73 129.432Z" fill="#FFA8A7"/>
<path d="M262.288 121.403C261.054 121.23 259.797 121.397 258.651 121.887C257.506 122.376 256.516 123.169 255.789 124.18C252.874 127.916 247.714 136.883 247.714 136.883C247.714 136.883 249.401 141.38 253.957 142.135L261.277 132.249C261.277 132.249 264.743 125.382 262.288 121.403Z" fill="#455A64"/>
<path d="M278.116 222.2H273.344V230.708H278.116V222.2Z" fill="#FFA8A7"/>
<path d="M261.572 221.747L256.806 221.918L256.563 212.911L261.572 212.74V221.747Z" fill="#FFA8A7"/>
<path d="M278.786 148.549C278.786 153.289 278.09 191.477 278.09 191.477C278.195 192.842 279.403 195.363 279.16 200.608C278.799 207.731 278.32 226.454 278.32 226.454C277.5 226.873 276.596 227.101 275.676 227.119C274.756 227.137 273.844 226.946 273.009 226.559C273.009 226.559 269.135 200.3 268.282 193.269C267.534 187.105 265.617 166.701 265.617 166.701L263.037 190.82C263.584 193.408 263.782 196.057 263.627 198.698C263.404 201.98 261.868 218.97 261.868 218.97C261.044 219.457 260.119 219.749 259.165 219.825C258.211 219.901 257.251 219.76 256.36 219.41C256.36 219.41 253.642 193.807 253.59 190.801C253.524 187.387 255.178 148.51 255.178 148.51L278.786 148.549Z" fill="#37474F"/>
<path d="M273.343 228.253V227.544C272.884 227.747 271.827 231.962 269.93 233.761C268.426 235.192 266.378 236.84 265.853 238.435C265.328 240.03 268.708 241.008 270.12 240.752C271.748 240.45 274.584 239.249 275.293 238.126C276.002 237.004 276.337 235.376 276.915 234.562C277.492 233.747 278.825 232.842 279.133 231.896C279.23 231.012 279.138 230.117 278.864 229.27C278.641 228.391 278.405 227.426 278.116 227.511V228.049C277.443 228.602 276.597 228.899 275.726 228.89C275.03 228.949 273.337 228.804 273.343 228.253Z" fill="#263238"/>
<path d="M256.754 220.382C256.505 220.382 256.302 220.756 255.757 221.373C254.946 222.225 253.999 222.935 252.953 223.474C251.168 224.406 247.702 225.837 246.119 226.579C245.135 227.038 245.181 228.273 246.198 228.975C247.216 229.678 249.664 230.183 252.605 229.5C254.207 229.126 256.295 227.583 257.621 227.669C258.947 227.754 261.409 227.728 262.387 227.012C263.365 226.297 262.971 224.813 262.696 223.533C262.394 222.128 262.039 219.942 261.573 220.04V220.533C261.002 221.439 258.041 221.806 256.781 221.143L256.754 220.382Z" fill="#263238"/>
<path d="M265.616 166.701C263.134 165.888 260.864 164.531 258.973 162.729C258.973 162.729 260.286 165.23 264.067 167.561L263.253 189.1L265.616 166.701Z" fill="#263238"/>
<path d="M276.121 122.099C276.121 122.099 280.06 123.005 279.777 130.122L278.957 141.446V158.449C275.451 162.427 259.919 162.138 254.568 158.134C254.568 158.134 255.172 138.013 255.533 130.266C255.789 124.765 257.056 121.994 262.466 121.39L269.116 121.679L276.121 122.099Z" fill="#0056A1"/>
<path d="M271.105 107.315C271.128 108.268 270.961 109.216 270.616 110.104C270.271 110.992 269.753 111.803 269.093 112.49C268.432 113.178 267.642 113.727 266.769 114.108C265.895 114.488 264.955 114.692 264.002 114.707C260.063 114.707 257.752 111.307 256.899 107.315C255.323 100.009 260.076 99.9167 264.002 99.9167C265.925 99.9564 267.753 100.758 269.085 102.145C270.417 103.533 271.144 105.392 271.105 107.315Z" fill="#263238"/>
<path d="M274.729 110.302C274.729 110.302 273.64 115.633 273.2 116.513C272.923 117.042 272.453 117.444 271.887 117.635L271.966 113.887L274.729 110.302Z" fill="#263238"/>
<path d="M273.357 102.668C273.357 102.668 274.138 102.471 274.972 103.771C275.681 104.88 275.845 107.375 274.729 110.335L272.674 110.585L273.357 102.668Z" fill="#263238"/>
<path d="M274.111 103.751L276.632 103.797C276.649 103.634 276.633 103.469 276.583 103.313C276.534 103.157 276.453 103.012 276.345 102.889C276.237 102.766 276.105 102.666 275.956 102.596C275.808 102.527 275.647 102.488 275.483 102.484C275.139 102.489 274.808 102.621 274.555 102.855C274.302 103.088 274.144 103.407 274.111 103.751Z" fill="#263238"/>
<path d="M274.421 103.153L276.285 101.361C276.178 101.234 276.045 101.131 275.896 101.059C275.747 100.986 275.584 100.945 275.418 100.938C275.252 100.931 275.087 100.959 274.932 101.019C274.777 101.08 274.637 101.171 274.519 101.289C274.272 101.531 274.125 101.857 274.106 102.202C274.088 102.547 274.2 102.887 274.421 103.153Z" fill="#263238"/>
<path d="M272.057 110.552C272.471 110.808 273.055 109.987 273.567 109.429C274.079 108.871 275.668 108.359 276.495 110.171C277.322 111.983 275.911 113.775 274.729 114.366C272.608 115.416 271.939 113.887 271.939 113.887L271.762 122.329C268.781 126.924 262.019 126.78 264.455 122.106V119.539C263.453 119.706 262.436 119.758 261.422 119.697C259.768 119.434 258.73 118.075 258.225 116.211C257.424 113.217 257.115 110.801 257.798 104.913C258.547 98.4659 265.755 98.3936 269.615 100.974C273.475 103.554 272.057 110.552 272.057 110.552Z" fill="#FFA8A7"/>
<path d="M263.076 103.908C264.796 103.737 266.496 103.383 268.223 103.252C268.595 103.207 268.972 103.224 269.339 103.304C270.652 103.665 270.494 105.201 270.704 106.271C271.065 108.123 271.361 111.254 272.056 111.267C272.267 111.267 273.054 109.908 273.566 109.423C273.848 109.004 274.007 108.515 274.026 108.011C274.157 107.25 274.223 106.468 274.282 105.694C274.334 105.037 274.4 104.381 274.4 103.724C274.43 102.982 274.371 102.24 274.223 101.512C274.058 100.893 273.742 100.324 273.304 99.8576L273.172 99.7132C272.307 98.8085 271.257 98.1009 270.094 97.6387C268.42 97.0116 266.664 96.6291 264.881 96.503C263.101 96.3769 261.328 96.1577 259.57 95.8465C259.469 95.8171 259.362 95.8171 259.262 95.8465C259.19 95.886 259.13 95.9427 259.087 96.0115C259.043 96.0804 259.017 96.1591 259.012 96.2404C258.94 96.6483 258.985 97.0683 259.142 97.4517C259.299 97.8351 259.561 98.1663 259.898 98.4068C258.71 98.4987 257.345 97.8816 256.202 97.5665C256.11 97.5273 256.011 97.5071 255.91 97.5071C255.81 97.5071 255.71 97.5273 255.618 97.5665C255.504 97.6466 255.422 97.7655 255.388 97.9013C255.305 98.2097 255.294 98.5331 255.355 98.8466C255.46 99.7967 255.813 100.703 256.38 101.473C257.264 102.625 258.514 103.442 259.925 103.79C260.963 103.99 262.026 104.03 263.076 103.908Z" fill="#263238"/>
<path d="M264.461 119.539C264.461 119.539 268.15 118.764 269.437 118.049C270.204 117.629 270.826 116.989 271.223 116.21C271.029 116.992 270.683 117.728 270.205 118.377C269.266 119.637 264.461 120.556 264.461 120.556V119.539Z" fill="#F28F8F"/>
<path d="M265.347 109.587C265.34 109.789 265.413 109.987 265.551 110.135C265.689 110.284 265.88 110.373 266.082 110.381C266.243 110.394 266.404 110.359 266.545 110.279C266.685 110.199 266.798 110.079 266.868 109.933C266.939 109.788 266.964 109.625 266.94 109.466C266.917 109.306 266.845 109.157 266.736 109.039C266.626 108.92 266.483 108.838 266.326 108.802C266.169 108.766 266.004 108.779 265.854 108.838C265.704 108.897 265.575 109 265.485 109.134C265.394 109.268 265.346 109.425 265.347 109.587Z" fill="#263238"/>
<path d="M266.529 106.403L268.111 107.315C268.227 107.09 268.253 106.83 268.185 106.587C268.116 106.343 267.959 106.135 267.744 106.002C267.639 105.943 267.523 105.907 267.403 105.895C267.283 105.884 267.163 105.897 267.048 105.935C266.934 105.973 266.829 106.034 266.74 106.114C266.65 106.195 266.579 106.293 266.529 106.403Z" fill="#263238"/>
<path d="M264.79 114.911L263.103 115.567C263.136 115.683 263.194 115.791 263.271 115.883C263.348 115.976 263.444 116.052 263.551 116.106C263.659 116.16 263.777 116.191 263.897 116.198C264.018 116.205 264.138 116.187 264.251 116.145C264.481 116.046 264.664 115.864 264.764 115.634C264.864 115.405 264.873 115.147 264.79 114.911Z" fill="#F28F8F"/>
<path d="M258.559 107.079L260.003 105.924C259.938 105.823 259.853 105.737 259.753 105.671C259.652 105.605 259.54 105.561 259.421 105.542C259.303 105.523 259.182 105.529 259.066 105.559C258.95 105.59 258.842 105.645 258.749 105.72C258.556 105.884 258.43 106.113 258.395 106.363C258.36 106.614 258.418 106.869 258.559 107.079Z" fill="#263238"/>
<path d="M259.197 109.37C259.208 109.514 259.262 109.651 259.35 109.765C259.438 109.879 259.557 109.965 259.693 110.012C259.83 110.059 259.977 110.066 260.116 110.031C260.256 109.996 260.383 109.921 260.481 109.815C260.579 109.71 260.644 109.578 260.668 109.436C260.692 109.293 260.674 109.147 260.617 109.015C260.559 108.883 260.465 108.771 260.344 108.691C260.224 108.612 260.083 108.57 259.939 108.569C259.837 108.573 259.738 108.596 259.645 108.638C259.553 108.681 259.47 108.741 259.401 108.815C259.332 108.89 259.278 108.977 259.243 109.072C259.208 109.168 259.193 109.269 259.197 109.37Z" fill="#263238"/>
<path d="M263.155 108.753L263.069 113.421L260.417 112.817L263.155 108.753Z" fill="#F28F8F"/>
<path d="M200.171 147.847L204.287 145.47L205.915 143.494L201.806 145.871L200.171 147.847Z" fill="#0056A1"/>
<path opacity="0.4" d="M200.171 147.847L204.287 145.47L205.915 143.494L201.806 145.871L200.171 147.847Z" fill="black"/>
<path d="M211.364 154.306L215.48 151.93L218.914 148.89L214.804 151.26L211.364 154.306Z" fill="#0056A1"/>
<path opacity="0.4" d="M211.364 154.306L215.48 151.93L218.914 148.89L214.804 151.26L211.364 154.306Z" fill="black"/>
<path d="M246.33 162.506C247.303 163.81 247.892 165.361 248.03 166.983C247.061 165.676 246.472 164.127 246.33 162.506ZM255.895 162.631C254.509 153.21 249.448 143.895 243.421 140.409C240.526 138.735 237.848 138.676 235.701 139.929L231.828 142.161L231.611 142.293C231.439 142.388 231.272 142.493 231.112 142.608C230.794 142.827 230.495 143.073 230.219 143.343L230.088 143.468C229.97 143.586 229.845 143.724 229.734 143.855C229.622 143.986 229.451 144.19 229.32 144.367C229.041 144.734 228.789 145.12 228.565 145.523C228.447 145.726 228.335 145.943 228.23 146.179L194.402 126.655L190.292 129.025V131.651L190.64 131.848L190.968 132.038V132.564L190.312 132.951V134.474L195.281 144.978L200.192 147.82L201.826 145.851L206.159 148.444L208.647 152.705L211.391 154.287L214.825 151.241L219.039 153.676L220.457 159.525L227.541 163.622C227.891 165.111 228.329 166.577 228.854 168.014C228.9 168.158 228.959 168.309 229.018 168.473C231.368 174.644 235.104 179.929 239.318 182.365C239.823 182.664 240.353 182.921 240.9 183.133C241.19 183.248 241.486 183.346 241.787 183.428C242.049 183.498 242.312 183.557 242.574 183.605C243.404 183.756 244.253 183.756 245.082 183.605L245.424 183.52C245.587 183.487 245.747 183.441 245.903 183.382L246.27 183.238C246.401 183.191 246.526 183.131 246.645 183.06C246.766 183.008 246.884 182.949 246.999 182.883L247.17 182.778C247.201 182.768 247.23 182.752 247.255 182.732C248.194 182.194 250.505 180.855 251.135 180.5C254.26 178.688 256.282 174.106 256.282 167.626C256.277 165.954 256.147 164.284 255.895 162.631Z" fill="#0056A1"/>
<path d="M245.128 170.456C243.5 169.517 242.187 166.734 242.187 164.239C242.187 161.744 243.5 160.477 245.128 161.41C246.756 162.342 248.062 165.132 248.062 167.633C248.062 170.134 246.749 171.395 245.128 170.456ZM251.778 165.001C250.399 155.587 245.338 146.264 239.305 142.785C236.508 141.17 233.922 141.052 231.821 142.161L231.604 142.293C231.432 142.388 231.265 142.493 231.105 142.608C230.787 142.827 230.488 143.073 230.213 143.343L230.081 143.468C229.963 143.586 229.838 143.724 229.727 143.855C229.615 143.986 229.444 144.19 229.313 144.367C229.035 144.734 228.782 145.12 228.558 145.523C228.44 145.726 228.328 145.943 228.223 146.179C227.611 147.448 227.17 148.792 226.91 150.177L190.285 129.025V131.651L190.633 131.848L190.961 132.038V132.564L190.305 132.951V134.474L195.274 144.978L200.185 147.82L201.82 145.851L206.152 148.444L208.64 152.705L211.385 154.287L214.818 151.241L219.033 153.676L220.451 159.525L227.541 163.622C227.891 165.111 228.329 166.577 228.854 168.014C228.9 168.158 228.959 168.309 229.018 168.473C231.368 174.644 235.103 179.929 239.318 182.365C239.823 182.664 240.352 182.921 240.9 183.133C241.19 183.248 241.486 183.346 241.786 183.428C242.049 183.498 242.312 183.557 242.574 183.605C243.403 183.756 244.253 183.756 245.082 183.605L245.423 183.52C245.587 183.487 245.747 183.441 245.903 183.382L246.27 183.238C246.4 183.191 246.526 183.131 246.644 183.06C246.766 183.008 246.884 182.949 246.999 182.883L247.17 182.778C247.2 182.768 247.229 182.752 247.255 182.732C250.248 180.841 252.172 176.325 252.172 170.003C252.161 168.328 252.029 166.656 251.778 165.001Z" fill="#0056A1"/>
<path opacity="0.4" d="M248.062 167.627C248.062 170.128 246.749 171.395 245.128 170.456C243.506 169.517 242.187 166.74 242.187 164.239C242.187 161.738 243.5 160.471 245.128 161.41C245.596 161.695 246.005 162.07 246.329 162.512C246.47 164.134 247.059 165.684 248.029 166.99C248.053 167.201 248.064 167.414 248.062 167.627Z" fill="black"/>
<path opacity="0.4" d="M256.269 167.62C256.269 174.099 254.247 178.681 251.122 180.493C250.465 180.848 248.181 182.187 247.242 182.725C250.236 180.835 252.159 176.318 252.159 169.996C252.152 168.324 252.025 166.654 251.778 165C250.4 155.586 245.338 146.264 239.305 142.785C236.509 141.17 233.922 141.052 231.821 142.161L235.695 139.929C237.841 138.675 240.52 138.734 243.415 140.408C249.448 143.894 254.509 153.21 255.888 162.63C256.138 164.282 256.265 165.949 256.269 167.62Z" fill="white"/>
<path d="M252.158 169.983C252.158 176.305 250.235 180.822 247.241 182.713C248.18 182.174 250.491 180.835 251.121 180.481C254.246 178.669 256.268 174.086 256.268 167.607C256.268 167.371 256.268 167.128 256.268 166.885L252.158 169.261C252.152 169.517 252.158 169.754 252.158 169.983Z" fill="#0056A1"/>
<path opacity="0.1" d="M252.158 169.983C252.158 176.305 250.235 180.822 247.241 182.713C248.18 182.174 250.491 180.835 251.121 180.481C254.246 178.669 256.268 174.086 256.268 167.607C256.268 167.371 256.268 167.128 256.268 166.885L252.158 169.261C252.152 169.517 252.158 169.754 252.158 169.983Z" fill="black"/>
<path opacity="0.15" d="M227.068 152.862V154.195L190.292 132.964L190.968 132.57V132.019L227.068 152.862Z" fill="black"/>
<path opacity="0.15" d="M227.068 153.414V154.195L190.292 132.964L190.968 132.57V132.564L227.068 153.414Z" fill="black"/>
<path opacity="0.15" d="M243.059 180.487C241.666 180.451 240.306 180.046 239.12 179.312C233.127 175.852 228.249 165.559 228.249 156.368C228.249 151.005 229.871 147 232.7 145.365C234.669 144.223 237 144.367 239.449 145.779C245.436 149.239 250.313 159.565 250.313 168.756C250.313 174.113 248.692 178.124 245.863 179.752C245.009 180.239 244.042 180.493 243.059 180.487ZM235.543 145.267C234.668 145.262 233.807 145.488 233.048 145.923C230.468 147.414 228.925 151.32 228.925 156.361C228.925 165.342 233.652 175.399 239.468 178.734C241.694 180.047 243.801 180.166 245.554 179.155C248.134 177.664 249.677 173.765 249.677 168.723C249.677 159.736 244.95 149.685 239.14 146.343C238.054 145.683 236.813 145.321 235.543 145.293V145.267Z" fill="black"/>
<path opacity="0.4" d="M228.197 146.166C227.585 147.435 227.143 148.779 226.884 150.164L190.259 129.012L194.368 126.642L228.197 146.166Z" fill="white"/>
<path d="M275.798 148.221C277.715 144.59 279.908 136.437 280.998 132.321C282.547 126.478 280.039 122.802 277.19 122.651C275.411 122.926 269.548 144.242 269.548 144.242C268.892 144.761 259.983 149.284 257.121 150.42C256.609 150.614 256.044 150.614 255.533 150.42C254.16 149.921 253.222 150.013 251.876 149.882C250.819 149.777 250.287 149.402 250.149 149.626C250.024 149.903 250.008 150.217 250.104 150.505C250.2 150.793 250.402 151.035 250.668 151.181C251.247 151.519 251.864 151.788 252.506 151.982C251.356 152.331 250.156 152.493 248.955 152.462C246.197 152.403 245.206 153.597 247.346 156.401C248.659 158.147 250.832 158.698 255.684 157.024C257.075 156.538 258.966 155.6 260.732 154.963C264.369 153.65 265.327 153.492 268.098 152.554C272.135 151.188 274.945 149.836 275.798 148.221Z" fill="#FFA8A7"/>
<path d="M276.12 122.099C277.794 122.329 279.403 122.703 280.394 124.069C281.385 125.434 282.18 127.351 281.208 132.57C280.464 136.241 279.468 139.856 278.227 143.389C278.227 143.389 274.328 145.057 270.186 140.829L273.035 129.813C273.035 129.813 273.494 122.651 276.12 122.099Z" fill="#455A64"/>
</svg>
