<svg width="16" height="16" viewBox="0 0 16 16" fill="none" xmlns="http://www.w3.org/2000/svg">
<path d="M8.83333 1.33333C8.83333 1.11232 8.74554 0.900358 8.58926 0.744078C8.43297 0.587797 8.22101 0.5 8 0.5C7.77899 0.5 7.56702 0.587797 7.41074 0.744078C7.25446 0.900358 7.16667 1.11232 7.16667 1.33333V7.16667H1.33333C1.11232 7.16667 0.900358 7.25446 0.744078 7.41074C0.587797 7.56702 0.5 7.77899 0.5 8C0.5 8.22101 0.587797 8.43297 0.744078 8.58926C0.900358 8.74554 1.11232 8.83333 1.33333 8.83333H7.16667V14.6667C7.16667 14.8877 7.25446 15.0996 7.41074 15.2559C7.56702 15.4122 7.77899 15.5 8 15.5C8.22101 15.5 8.43297 15.4122 8.58926 15.2559C8.74554 15.0996 8.83333 14.8877 8.83333 14.6667V8.83333H14.6667C14.8877 8.83333 15.0996 8.74554 15.2559 8.58926C15.4122 8.43297 15.5 8.22101 15.5 8C15.5 7.77899 15.4122 7.56702 15.2559 7.41074C15.0996 7.25446 14.8877 7.16667 14.6667 7.16667H8.83333V1.33333Z" fill="white"/>
</svg>
