<svg width="12" height="13" viewBox="0 0 12 13" fill="none" xmlns="http://www.w3.org/2000/svg">
<path d="M5.14769 0H6.31762C6.42162 0 6.47361 0.0445926 6.47361 0.133778V11.9062C6.47361 11.9954 6.42162 12.04 6.31762 12.04H5.14769C5.0437 12.04 4.9917 11.9954 4.9917 11.9062V0.133778C4.9917 0.0445926 5.0437 0 5.14769 0Z" fill="white"/>
<path d="M0.132803 4.9917H11.2882C11.3768 4.9917 11.421 5.0437 11.421 5.14769V6.31762C11.421 6.42162 11.3768 6.47361 11.2882 6.47361H0.132803C0.0442675 6.47361 0 6.42162 0 6.31762V5.14769C0 5.0437 0.0442675 4.9917 0.132803 4.9917Z" fill="white"/>
</svg>
