<svg width="14" height="14" viewBox="0 0 14 14" fill="none" xmlns="http://www.w3.org/2000/svg">
<path d="M12.833 6.16683H7.83301V1.16683C7.83301 0.945816 7.74521 0.733854 7.58893 0.577574C7.43265 0.421294 7.22069 0.333496 6.99967 0.333496C6.77866 0.333496 6.5667 0.421294 6.41042 0.577574C6.25414 0.733854 6.16634 0.945816 6.16634 1.16683V6.16683H1.16634C0.945327 6.16683 0.733366 6.25463 0.577086 6.41091C0.420805 6.56719 0.333008 6.77915 0.333008 7.00016C0.333008 7.22118 0.420805 7.43314 0.577086 7.58942C0.733366 7.7457 0.945327 7.8335 1.16634 7.8335H6.16634V12.8335C6.16634 13.0545 6.25414 13.2665 6.41042 13.4228C6.5667 13.579 6.77866 13.6668 6.99967 13.6668C7.22069 13.6668 7.43265 13.579 7.58893 13.4228C7.74521 13.2665 7.83301 13.0545 7.83301 12.8335V7.8335H12.833C13.054 7.8335 13.266 7.7457 13.4223 7.58942C13.5785 7.43314 13.6663 7.22118 13.6663 7.00016C13.6663 6.77915 13.5785 6.56719 13.4223 6.41091C13.266 6.25463 13.054 6.16683 12.833 6.16683Z" fill="#888888"/>
</svg>
