<svg width="12" height="13" viewBox="0 0 12 13" fill="none" xmlns="http://www.w3.org/2000/svg">
<path d="M5.15625 0H6.32812C6.43229 0 6.48438 0.0446667 6.48438 0.134V11.926C6.48438 12.0153 6.43229 12.06 6.32812 12.06H5.15625C5.05208 12.06 5 12.0153 5 11.926V0.134C5 0.0446667 5.05208 0 5.15625 0Z" fill="#0056A1"/>
<path d="M0.133023 5H11.307C11.3957 5 11.44 5.05208 11.44 5.15625V6.32812C11.44 6.43229 11.3957 6.48438 11.307 6.48438H0.133023C0.0443411 6.48438 0 6.43229 0 6.32812V5.15625C0 5.05208 0.0443411 5 0.133023 5Z" fill="#0056A1"/>
</svg>
