<svg width="20" height="22" viewBox="0 0 20 22" fill="none" xmlns="http://www.w3.org/2000/svg">
<path d="M18.8696 7.00926C16.9317 7.23219 15.1065 8.03603 13.6337 9.31521C13.8735 8.56685 13.9969 7.7861 13.9997 7.00026C13.9345 5.6985 13.601 4.42426 13.0202 3.25741C12.4395 2.09056 11.624 1.05627 10.6248 0.219372C10.4474 0.0773747 10.227 0 9.99978 0C9.77258 0 9.55219 0.0773747 9.37479 0.219372C8.3756 1.05627 7.56003 2.09056 6.97927 3.25741C6.3985 4.42426 6.06506 5.6985 5.99984 7.00026C6.00269 7.7861 6.12613 8.56683 6.36584 9.31521C4.89297 8.03619 3.06781 7.23238 1.12992 7.00926C0.976452 6.98915 0.820404 7.00494 0.674076 7.05538C0.527749 7.10583 0.395121 7.18955 0.286653 7.29996C0.178184 7.41037 0.0968157 7.54445 0.0489765 7.69166C0.00112721 7.83886 -0.0118927 7.99515 0.0109369 8.14824C0.699926 12.8712 5.59985 17.0001 8.99979 17.0001V21C8.99979 21.2652 9.10519 21.5196 9.29269 21.7071C9.48019 21.8947 9.73458 22 9.99978 22C10.265 22 10.5194 21.8947 10.7069 21.7071C10.8944 21.5196 10.9998 21.2652 10.9998 21V17.0001C14.4187 17.0001 19.2176 12.9712 19.9886 8.14824C20.0114 7.99515 19.9984 7.83886 19.9506 7.69166C19.9027 7.54445 19.8213 7.41037 19.7129 7.29996C19.6044 7.18955 19.4718 7.10583 19.3254 7.05538C19.1791 7.00494 19.0231 6.98915 18.8696 7.00926ZM9.99978 2.39134C11.2079 3.63123 11.9194 5.27101 11.9997 7.00026C11.9191 8.72975 11.2077 10.3698 9.99978 11.6102C8.7919 10.3698 8.08041 8.72975 7.99981 7.00026C8.08011 5.27101 8.7917 3.63123 9.99978 2.39134ZM2.4079 9.33021C3.62108 9.7404 4.72155 10.4286 5.62145 11.3398C6.52135 12.251 7.19575 13.3599 7.59082 14.5781C6.39741 14.1326 5.31549 13.4323 4.42038 12.526C3.52527 11.6197 2.83849 10.5291 2.4079 9.33021ZM12.4077 14.5781C12.803 13.36 13.4775 12.2512 14.3773 11.3401C15.2772 10.4289 16.3776 9.7406 17.5907 9.33021C17.16 10.5289 16.4733 11.6193 15.5784 12.5256C14.6835 13.4319 13.6018 14.1323 12.4087 14.5781H12.4077Z" fill="white"/>
</svg>
