<svg width="18" height="18" viewBox="0 0 18 18" fill="none" xmlns="http://www.w3.org/2000/svg">
<path d="M9 0.6667C7.72324 0.664391 6.46302 0.955483 5.31661 1.51751C4.17021 2.07954 3.16827 2.89747 2.38814 3.90817C1.60801 4.91887 1.07055 6.09531 0.817244 7.3467C0.563936 8.59808 0.601555 9.89093 0.927197 11.1255C1.25284 12.36 1.8578 13.5032 2.69538 14.4668C3.53295 15.4305 4.58075 16.1888 5.7579 16.6832C6.93505 17.1776 8.21006 17.3949 9.48452 17.3184C10.759 17.2418 11.9988 16.8735 13.1083 16.2417H13.1667H13.2083C14.8127 15.3284 16.0684 13.9082 16.7783 12.204C17.4882 10.4998 17.6121 8.60811 17.1305 6.82589C16.649 5.04367 15.5892 3.47181 14.1177 2.35705C12.6461 1.24228 10.846 0.647721 9 0.6667ZM9.83333 2.3917C11.3 2.57769 12.6633 3.24595 13.7087 4.29136C14.7541 5.33676 15.4223 6.70002 15.6083 8.1667H9.83333V2.3917ZM9 15.6667C7.31209 15.6552 5.69138 15.0038 4.46495 13.8441C3.23851 12.6843 2.49767 11.1025 2.39191 9.41787C2.28616 7.73323 2.82338 6.07119 3.89515 4.76717C4.96692 3.46314 6.49344 2.61421 8.16666 2.3917V9.00003C8.16995 9.0998 8.18966 9.19835 8.225 9.2917V9.35837V9.4167L11.5583 15.1417C10.7498 15.4878 9.87949 15.6664 9 15.6667ZM13.025 14.3L10.4417 9.83337H15.6083C15.4961 10.7122 15.2099 11.5598 14.7663 12.3268C14.3228 13.0937 13.7308 13.7645 13.025 14.3Z" fill="white"/>
</svg>
