<svg width="20" height="20" viewBox="0 0 20 20" fill="none" xmlns="http://www.w3.org/2000/svg">
<mask id="mask0_12145_12854" style="mask-type:alpha" maskUnits="userSpaceOnUse" x="0" y="0" width="20" height="20">
<rect width="20" height="20" fill="#D9D9D9"/>
</mask>
<g mask="url(#mask0_12145_12854)">
<path d="M17.4993 10.8338H15.8327C15.5966 10.8338 15.3987 10.7539 15.2389 10.5942C15.0792 10.4345 14.9993 10.2365 14.9993 10.0004C14.9993 9.76432 15.0792 9.56641 15.2389 9.40668C15.3987 9.24696 15.5966 9.1671 15.8327 9.1671H17.4993C17.7355 9.1671 17.9334 9.24696 18.0931 9.40668C18.2528 9.56641 18.3327 9.76432 18.3327 10.0004C18.3327 10.2365 18.2528 10.4345 18.0931 10.5942C17.9334 10.7539 17.7355 10.8338 17.4993 10.8338ZM13.8327 14.0004C13.9716 13.806 14.1521 13.6949 14.3743 13.6671C14.5966 13.6393 14.8049 13.6949 14.9993 13.8338L16.3327 14.8338C16.5271 14.9727 16.6382 15.1532 16.666 15.3754C16.6938 15.5977 16.6382 15.806 16.4993 16.0004C16.3605 16.1949 16.1799 16.306 15.9577 16.3338C15.7355 16.3615 15.5271 16.306 15.3327 16.1671L13.9993 15.1671C13.8049 15.0282 13.6938 14.8477 13.666 14.6254C13.6382 14.4032 13.6938 14.1949 13.8327 14.0004ZM16.3327 5.1671L14.9993 6.1671C14.8049 6.30599 14.5966 6.36155 14.3743 6.33377C14.1521 6.30599 13.9716 6.19488 13.8327 6.00043C13.6938 5.80599 13.6382 5.59766 13.666 5.37543C13.6938 5.15321 13.8049 4.97266 13.9993 4.83377L15.3327 3.83377C15.5271 3.69488 15.7355 3.63932 15.9577 3.6671C16.1799 3.69488 16.3605 3.80599 16.4993 4.00043C16.6382 4.19488 16.6938 4.40321 16.666 4.62543C16.6382 4.84766 16.5271 5.02821 16.3327 5.1671ZM4.16602 12.5004H3.33268C2.87435 12.5004 2.48199 12.3372 2.1556 12.0109C1.82921 11.6845 1.66602 11.2921 1.66602 10.8338V9.1671C1.66602 8.70877 1.82921 8.31641 2.1556 7.99002C2.48199 7.66363 2.87435 7.50043 3.33268 7.50043H6.66602L9.56185 5.75043C9.83963 5.58377 10.1209 5.58377 10.4056 5.75043C10.6903 5.9171 10.8327 6.16016 10.8327 6.4796V13.5213C10.8327 13.8407 10.6903 14.0838 10.4056 14.2504C10.1209 14.4171 9.83963 14.4171 9.56185 14.2504L6.66602 12.5004H5.83268V15.0004C5.83268 15.2365 5.75282 15.4345 5.5931 15.5942C5.43338 15.7539 5.23546 15.8338 4.99935 15.8338C4.76324 15.8338 4.56532 15.7539 4.4056 15.5942C4.24588 15.4345 4.16602 15.2365 4.16602 15.0004V12.5004ZM9.16602 12.0421V7.95877L7.12435 9.1671H3.33268V10.8338H7.12435L9.16602 12.0421ZM11.666 12.7921V7.20877C12.041 7.5421 12.3431 7.94835 12.5723 8.42752C12.8014 8.90668 12.916 9.43099 12.916 10.0004C12.916 10.5699 12.8014 11.0942 12.5723 11.5734C12.3431 12.0525 12.041 12.4588 11.666 12.7921Z" fill="#888888"/>
</g>
</svg>
