<svg width="15" height="18" viewBox="0 0 15 18" fill="none" xmlns="http://www.w3.org/2000/svg">
<path d="M13.0667 9.34997L7.91672 14.5083C7.24156 15.1083 6.36267 15.4277 5.45982 15.4011C4.55697 15.3745 3.69838 15.004 3.0597 14.3653C2.42101 13.7266 2.05048 12.8681 2.0239 11.9652C1.99732 11.0624 2.3167 10.1835 2.91672 9.50831L9.58338 2.84164C9.9814 2.46356 10.5094 2.25275 11.0584 2.25275C11.6074 2.25275 12.1354 2.46356 12.5334 2.84164C12.9212 3.23463 13.1386 3.76453 13.1386 4.31664C13.1386 4.86875 12.9212 5.39865 12.5334 5.79164L6.78338 11.5333C6.72648 11.5946 6.65806 11.6441 6.58203 11.6789C6.506 11.7137 6.42386 11.7333 6.34029 11.7364C6.25672 11.7395 6.17335 11.7261 6.09495 11.6969C6.01656 11.6678 5.94467 11.6235 5.88338 11.5666C5.8221 11.5097 5.77263 11.4413 5.73778 11.3653C5.70294 11.2893 5.68342 11.2071 5.68032 11.1235C5.67723 11.04 5.69062 10.9566 5.71974 10.8782C5.74887 10.7998 5.79314 10.7279 5.85005 10.6666L10.1251 6.39997C10.282 6.24305 10.3701 6.03022 10.3701 5.80831C10.3701 5.58639 10.282 5.37356 10.1251 5.21664C9.96813 5.05972 9.7553 4.97156 9.53338 4.97156C9.31147 4.97156 9.09864 5.05972 8.94172 5.21664L4.66672 9.49997C4.45281 9.71223 4.28302 9.96472 4.16716 10.2429C4.0513 10.5211 3.99165 10.8195 3.99165 11.1208C3.99165 11.4222 4.0513 11.7205 4.16716 11.9987C4.28302 12.2769 4.45281 12.5294 4.66672 12.7416C5.10369 13.1579 5.68406 13.3901 6.28755 13.3901C6.89104 13.3901 7.47141 13.1579 7.90838 12.7416L13.6501 6.99164C14.3125 6.28077 14.6731 5.34053 14.6559 4.36903C14.6388 3.39752 14.2452 2.4706 13.5582 1.78353C12.8711 1.09647 11.9442 0.702906 10.9727 0.685765C10.0012 0.668624 9.06093 1.02924 8.35005 1.69164L1.68339 8.35831C0.784384 9.354 0.304242 10.6582 0.342996 11.9991C0.381751 13.3401 0.936413 14.6143 1.89142 15.5564C2.84642 16.4986 4.12811 17.0359 5.46945 17.0564C6.81079 17.0769 8.10833 16.5791 9.09172 15.6666L14.25 10.5166C14.3277 10.4389 14.3894 10.3467 14.4314 10.2452C14.4735 10.1437 14.4951 10.0349 14.4951 9.92497C14.4951 9.81509 14.4735 9.70628 14.4314 9.60476C14.3894 9.50325 14.3277 9.41101 14.25 9.33331C14.1724 9.25561 14.0801 9.19397 13.9786 9.15192C13.8771 9.10987 13.7683 9.08823 13.6584 9.08823C13.5485 9.08823 13.4397 9.10987 13.3382 9.15192C13.2367 9.19397 13.1444 9.25561 13.0667 9.33331V9.34997Z" fill="#888888"/>
</svg>
