<svg width="21" height="21" viewBox="0 0 21 21" fill="none" xmlns="http://www.w3.org/2000/svg">
<path d="M12.9966 13.0511C12.9185 13.2248 12.8771 13.4146 12.8771 13.611C12.8771 13.9757 13.0186 14.3181 13.2756 14.5751L13.8582 15.1577C14.1241 15.4235 14.4732 15.5564 14.8223 15.5564C15.1714 15.5564 15.5207 15.4234 15.7864 15.1577L20.3723 10.572C20.9038 10.0403 20.9037 9.17541 20.3721 8.6438L19.7896 8.06123C19.3783 7.64998 18.7675 7.55721 18.2658 7.78237C17.2791 7.06642 16.2635 6.19317 15.3051 5.23479C14.4403 4.37001 13.6389 3.45163 12.9649 2.55492C13.0583 2.36809 13.108 2.16064 13.108 1.94524C13.108 1.58052 12.9665 1.2381 12.7095 0.981105L12.1269 0.398535C11.87 0.141539 11.5275 0 11.1628 0C10.798 0 10.4556 0.141539 10.1986 0.398535L5.61293 4.9842C5.35593 5.2412 5.21439 5.58357 5.21439 5.94829C5.21439 6.31301 5.35593 6.65543 5.61293 6.91238L6.19554 7.49499C6.46139 7.7608 6.81051 7.89365 7.15968 7.89365C7.36881 7.89365 7.57785 7.84557 7.7691 7.75018C8.15264 8.03846 8.54009 8.34998 8.92569 8.6799L1.19256 15.905C1.18685 15.9103 1.18126 15.9157 1.17576 15.9212C0.274747 16.8222 0.274747 18.2881 1.17576 19.1891L1.58147 19.5948C2.03191 20.0453 2.62368 20.2706 3.2154 20.2706C3.80712 20.2706 4.39893 20.0453 4.84937 19.5948C4.85487 19.5893 4.86029 19.5837 4.86562 19.5781L12.0717 11.8653C12.4018 12.2616 12.7118 12.6586 12.9966 13.0511ZM19.3917 9.60789L14.8223 14.1773L14.2561 13.611L18.8254 9.04161L19.3917 9.60789ZM17.21 8.71251L13.927 11.9956C13.2053 11.0299 12.3502 10.0471 11.4214 9.11835C10.566 8.26293 9.68925 7.48971 8.80701 6.8117L12.0261 3.59257C12.7041 4.47481 13.4773 5.35154 14.3328 6.207C15.2615 7.13573 16.2443 7.99076 17.21 8.71251ZM7.15959 6.51453L6.59335 5.94829L11.1627 1.37891L11.729 1.94515L7.15959 6.51453ZM3.86999 18.6296C3.69407 18.802 3.46204 18.8967 3.21544 18.8967C2.96554 18.8967 2.73054 18.7993 2.55377 18.6226L2.14806 18.2168C1.78557 17.8544 1.78325 17.266 2.14097 16.9006L9.95007 9.60454C10.118 9.76408 10.2846 9.92603 10.4492 10.0906C10.6918 10.3332 10.9285 10.5796 11.159 10.8281L3.86999 18.6296Z" fill="#444444"/>
</svg>
