<svg width="20" height="20" viewBox="0 0 20 20" fill="none" xmlns="http://www.w3.org/2000/svg">
<path d="M9.3335 7.66683H12.6668C12.8878 7.66683 13.0998 7.57903 13.2561 7.42275C13.4124 7.26647 13.5002 7.05451 13.5002 6.8335C13.5002 6.61248 13.4124 6.40052 13.2561 6.24424C13.0998 6.08796 12.8878 6.00016 12.6668 6.00016H11.0002V5.16683C11.0002 4.94582 10.9124 4.73385 10.7561 4.57757C10.5998 4.42129 10.3878 4.3335 10.1668 4.3335C9.94582 4.3335 9.73386 4.42129 9.57757 4.57757C9.42129 4.73385 9.3335 4.94582 9.3335 5.16683V6.00016C8.67046 6.00016 8.03457 6.26355 7.56573 6.7324C7.09689 7.20124 6.8335 7.83712 6.8335 8.50016C6.8335 9.1632 7.09689 9.79909 7.56573 10.2679C8.03457 10.7368 8.67046 11.0002 9.3335 11.0002H11.0002C11.2212 11.0002 11.4331 11.088 11.5894 11.2442C11.7457 11.4005 11.8335 11.6125 11.8335 11.8335C11.8335 12.0545 11.7457 12.2665 11.5894 12.4228C11.4331 12.579 11.2212 12.6668 11.0002 12.6668H7.66683C7.44582 12.6668 7.23385 12.7546 7.07757 12.9109C6.92129 13.0672 6.8335 13.2791 6.8335 13.5002C6.8335 13.7212 6.92129 13.9331 7.07757 14.0894C7.23385 14.2457 7.44582 14.3335 7.66683 14.3335H9.3335V15.1668C9.3335 15.3878 9.42129 15.5998 9.57757 15.7561C9.73386 15.9124 9.94582 16.0002 10.1668 16.0002C10.3878 16.0002 10.5998 15.9124 10.7561 15.7561C10.9124 15.5998 11.0002 15.3878 11.0002 15.1668V14.3335C11.6632 14.3335 12.2991 14.0701 12.7679 13.6013C13.2368 13.1324 13.5002 12.4965 13.5002 11.8335C13.5002 11.1705 13.2368 10.5346 12.7679 10.0657C12.2991 9.59689 11.6632 9.3335 11.0002 9.3335H9.3335C9.11248 9.3335 8.90052 9.2457 8.74424 9.08942C8.58796 8.93314 8.50016 8.72118 8.50016 8.50016C8.50016 8.27915 8.58796 8.06719 8.74424 7.91091C8.90052 7.75463 9.11248 7.66683 9.3335 7.66683Z" fill="#FF6464"/>
<path d="M9.99984 1.6665C8.35166 1.6665 6.7405 2.15525 5.37009 3.07092C3.99968 3.9866 2.93158 5.28809 2.30084 6.81081C1.67011 8.33353 1.50509 10.0091 1.82663 11.6256C2.14817 13.2421 2.94185 14.727 4.10728 15.8924C5.27272 17.0578 6.75758 17.8515 8.37409 18.173C9.9906 18.4946 11.6662 18.3296 13.1889 17.6988C14.7116 17.0681 16.0131 16 16.9288 14.6296C17.8444 13.2592 18.3332 11.648 18.3332 9.99984C18.3332 8.90549 18.1176 7.82186 17.6988 6.81081C17.28 5.79976 16.6662 4.8811 15.8924 4.10728C15.1186 3.33346 14.1999 2.71963 13.1889 2.30084C12.1778 1.88205 11.0942 1.6665 9.99984 1.6665ZM9.99984 16.6665C8.23173 16.6665 6.53604 15.9641 5.2858 14.7139C4.03555 13.4636 3.33317 11.7679 3.33317 9.99984C3.33133 8.51929 3.82735 7.08113 4.74151 5.9165L14.0832 15.2582C12.9186 16.1723 11.4804 16.6683 9.99984 16.6665ZM15.2582 14.0832L5.91651 4.7415C7.08113 3.82735 8.5193 3.33133 9.99984 3.33317C11.768 3.33317 13.4636 4.03555 14.7139 5.28579C15.9641 6.53604 16.6665 8.23173 16.6665 9.99984C16.6683 11.4804 16.1723 12.9185 15.2582 14.0832Z" fill="#FF6464"/>
</svg>
