<svg width="16" height="16" viewBox="0 0 16 16" fill="none" xmlns="http://www.w3.org/2000/svg">
<g clip-path="url(#clip0_4645_67708)">
<path d="M14.7779 8.48015H14.2323H4.17087V3.74041C4.17087 3.11567 4.67911 2.60742 5.30383 2.60742C5.79787 2.60742 6.21882 2.9254 6.37339 3.36739C5.6017 3.50787 5.01459 4.1845 5.01459 4.99616V5.4053C5.01459 5.63829 5.20348 5.82717 5.43646 5.82717H8.28086C8.51385 5.82717 8.70273 5.63829 8.70273 5.4053V4.99616C8.70273 4.14912 8.0634 3.44903 7.242 3.35206C7.06105 2.44742 6.26086 1.76367 5.30383 1.76367C4.21387 1.76367 3.32712 2.65043 3.32712 3.74041V8.48015H1.7673H1.22168C0.988692 8.48015 0.799805 8.66904 0.799805 8.90202C0.799805 9.13501 0.988692 9.3239 1.22168 9.3239H1.42559L1.82066 11.1856C1.96466 11.8643 2.34089 12.4786 2.87999 12.9153C2.91253 12.9416 2.9456 12.9672 2.97913 12.9921L2.62787 13.6089C2.51256 13.8113 2.58321 14.0689 2.78568 14.1842C2.85158 14.2218 2.9233 14.2396 2.99406 14.2396C3.14073 14.2396 3.28327 14.1629 3.36104 14.0264L3.72016 13.3958C4.0609 13.5243 4.42419 13.5925 4.79187 13.5925H11.2077C11.5754 13.5925 11.9387 13.5243 12.2794 13.3958L12.6386 14.0264C12.7164 14.163 12.8589 14.2396 13.0055 14.2396C13.0763 14.2396 13.148 14.2217 13.2139 14.1842C13.4164 14.0689 13.487 13.8113 13.3717 13.6089L13.0205 12.9921C13.054 12.9672 13.0871 12.9416 13.1196 12.9153C13.6587 12.4786 14.035 11.8643 14.179 11.1856L14.574 9.3239H14.7779C15.0109 9.3239 15.1998 9.13501 15.1998 8.90202C15.1998 8.66904 15.0109 8.48015 14.7779 8.48015ZM7.85887 4.98339H5.85845C5.86529 4.54138 6.22697 4.18389 6.67056 4.18389H7.04673C7.49035 4.18389 7.85204 4.54138 7.85887 4.98339ZM13.3536 11.0105C13.1398 12.0177 12.2374 12.7488 11.2077 12.7488H4.79187C3.76221 12.7488 2.85974 12.0177 2.64599 11.0105L2.2881 9.3239H13.7115L13.3536 11.0105Z" fill="#0056A1"/>
<path d="M7.67874 6.41602C7.67838 6.41602 7.67807 6.41602 7.6777 6.41602C7.44471 6.41658 7.2563 6.60589 7.25684 6.8389L7.2585 7.53176C7.25906 7.76439 7.44781 7.95263 7.68034 7.95263H7.68138C7.91437 7.95206 8.10278 7.76275 8.10225 7.52974L8.10059 6.83688C8.10005 6.60423 7.91128 6.41602 7.67874 6.41602Z" fill="#0056A1"/>
<path d="M6.03772 6.41602C5.80521 6.41602 5.61643 6.60423 5.61587 6.83688L5.61421 7.52974C5.61365 7.76275 5.80208 7.95209 6.03507 7.95263H6.03611C6.26862 7.95263 6.4574 7.76441 6.45796 7.53176L6.45962 6.8389C6.46018 6.60589 6.27174 6.41655 6.03876 6.41602C6.03842 6.41602 6.03808 6.41602 6.03772 6.41602Z" fill="#0056A1"/>
</g>
<defs>
<clipPath id="clip0_4645_67708">
<rect width="14.4" height="14.4" fill="white" transform="translate(0.799805 0.800781)"/>
</clipPath>
</defs>
</svg>
