<svg width="18" height="19" viewBox="0 0 18 19" fill="none" xmlns="http://www.w3.org/2000/svg">
<path d="M17.4727 10.0987H16.7906H4.21383V4.17405C4.21383 3.39312 4.84914 2.75781 5.63003 2.75781C6.24758 2.75781 6.77377 3.15529 6.96698 3.70777C6.00237 3.88338 5.26848 4.72917 5.26848 5.74374V6.25516C5.26848 6.54639 5.50459 6.7825 5.79582 6.7825H9.35132C9.64255 6.7825 9.87866 6.54639 9.87866 6.25516V5.74374C9.87866 4.68494 9.07949 3.80983 8.05275 3.68861C7.82655 2.55781 6.82632 1.70312 5.63003 1.70312C4.26758 1.70312 3.15914 2.81157 3.15914 4.17405V10.0987H1.20938H0.527344C0.236109 10.0987 0 10.3348 0 10.6261C0 10.9173 0.236109 11.1534 0.527344 11.1534H0.782227L1.27607 13.4805C1.45607 14.3289 1.92635 15.0967 2.60023 15.6426C2.6409 15.6756 2.68225 15.7075 2.72415 15.7387L2.28509 16.5096C2.14095 16.7627 2.22926 17.0847 2.48235 17.2288C2.56472 17.2757 2.65437 17.298 2.74282 17.298C2.92616 17.298 3.10433 17.2022 3.20154 17.0315L3.65045 16.2433C4.07637 16.4039 4.53048 16.4891 4.99008 16.4891H13.0099C13.4695 16.4891 13.9236 16.4039 14.3496 16.2433L14.7985 17.0315C14.8957 17.2023 15.0738 17.298 15.2572 17.298C15.3457 17.298 15.4353 17.2757 15.5177 17.2288C15.7707 17.0847 15.8591 16.7627 15.7149 16.5096L15.2758 15.7387C15.3178 15.7075 15.3591 15.6756 15.3998 15.6426C16.0736 15.0967 16.5439 14.3289 16.7239 13.4805L17.2178 11.1534H17.4727C17.7639 11.1534 18 10.9173 18 10.6261C18 10.3348 17.7639 10.0987 17.4727 10.0987ZM8.82383 5.72778H6.32331C6.33185 5.17526 6.78396 4.72839 7.33845 4.72839H7.80866C8.36318 4.72839 8.81529 5.17526 8.82383 5.72778ZM15.6922 13.2616C15.4251 14.5207 14.297 15.4345 13.0099 15.4345H4.99008C3.70301 15.4345 2.57491 14.5207 2.30773 13.2616L1.86036 11.1534H16.1396L15.6922 13.2616Z" fill="#888888"/>
<path d="M8.59965 7.51953C8.59919 7.51953 8.5988 7.51953 8.59835 7.51953C8.30711 7.52023 8.0716 7.75687 8.07227 8.04814L8.07434 8.91422C8.07504 9.20499 8.31098 9.44029 8.60165 9.44029H8.60295C8.89419 9.43959 9.1297 9.20295 9.12903 8.91168L9.12696 8.04561C9.12629 7.7548 8.89032 7.51953 8.59965 7.51953Z" fill="#888888"/>
<path d="M6.54696 7.51953C6.25633 7.51953 6.02036 7.7548 6.01965 8.04561L6.01758 8.91168C6.01688 9.20295 6.25242 9.43963 6.54366 9.44029H6.54496C6.83559 9.44029 7.07156 9.20503 7.07227 8.91422L7.07434 8.04814C7.07504 7.75687 6.8395 7.5202 6.54826 7.51953C6.54784 7.51953 6.54742 7.51953 6.54696 7.51953Z" fill="#888888"/>
</svg>
