<svg width="18" height="14" viewBox="0 0 18 14" fill="none" xmlns="http://www.w3.org/2000/svg">
<path d="M17.8263 7.17449C17.9396 6.94774 18 6.69619 18 6.43519C18 5.52152 17.2566 4.77814 16.3429 4.77814H5.32853C4.95756 4.77814 4.60269 4.88213 4.2962 5.07552C3.97568 4.2419 3.16702 3.64846 2.22187 3.64846C1.79395 3.64846 1.39412 3.77035 1.05469 3.98079V0.786743C1.05469 0.495509 0.818578 0.259399 0.527344 0.259399C0.236109 0.259399 0 0.495509 0 0.786743V13.2133C0 13.5046 0.236109 13.7407 0.527344 13.7407H2.78673C3.07796 13.7407 3.31407 13.5046 3.31407 13.2133V10.9164H14.686V13.2133C14.686 13.5045 14.9221 13.7406 15.2133 13.7406H17.4727C17.7639 13.7406 18 13.5045 18 13.2133V7.56483C18 7.40986 17.9327 7.27096 17.8263 7.17449ZM1.05469 9.86173V8.09218H16.9453V9.86173H1.05469ZM11.1712 7.03749C11.0848 6.5884 10.8903 6.1776 10.6159 5.83279H13.9402L12.7355 7.03749H11.1712ZM16.9453 6.43519C16.9453 6.76693 16.6767 7.03752 16.3429 7.03752H14.227L15.4317 5.83282H16.343C16.6751 5.83282 16.9453 6.10304 16.9453 6.43519ZM5.32853 5.83282H8.43514C9.20633 5.83282 9.86119 6.33957 10.0848 7.03752H4.44375V6.7176C4.44375 6.22738 4.84267 5.83282 5.32853 5.83282ZM2.22187 4.70315C2.86548 4.70315 3.38906 5.22677 3.38906 5.87034C3.38906 6.51394 2.86548 7.03756 2.22187 7.03756C1.57827 7.03756 1.05469 6.51391 1.05469 5.8703C1.05469 5.22673 1.5783 4.70315 2.22187 4.70315ZM2.25939 12.6859H1.05469V10.9164H2.25939V12.6859ZM16.9453 12.6859H15.7406V10.9164H16.9453V12.6859Z" fill="#888888"/>
</svg>
