<svg width="16" height="16" viewBox="0 0 16 16" fill="none" xmlns="http://www.w3.org/2000/svg">
<g clip-path="url(#clip0_4645_67702)">
<path d="M15.0609 8.1395C15.1515 7.95809 15.1998 7.75686 15.1998 7.54806C15.1998 6.81711 14.6051 6.22241 13.8742 6.22241H5.06263C4.76585 6.22241 4.48196 6.30561 4.23676 6.46032C3.98035 5.79342 3.33342 5.31867 2.5773 5.31867C2.23497 5.31867 1.9151 5.41618 1.64355 5.58454V3.0293C1.64355 2.79631 1.45467 2.60742 1.22168 2.60742C0.988692 2.60742 0.799805 2.79631 0.799805 3.0293V12.9706C0.799805 13.2035 0.988692 13.3924 1.22168 13.3924H3.02919C3.26218 13.3924 3.45106 13.2035 3.45106 12.9706V11.133H12.5486V12.9705C12.5486 13.2035 12.7375 13.3924 12.9704 13.3924H14.7779C15.0109 13.3924 15.1998 13.2035 15.1998 12.9705V8.45177C15.1998 8.32779 15.146 8.21667 15.0609 8.1395ZM1.64355 10.2893V8.87364H14.3561V10.2893H1.64355ZM9.73675 8.02989C9.66764 7.67062 9.51203 7.34198 9.29249 7.06613H11.952L10.9882 8.02989H9.73675ZM14.3561 7.54806C14.3561 7.81344 14.1412 8.02992 13.8742 8.02992H12.1814L13.1452 7.06616H13.8742C14.1399 7.06616 14.3561 7.28233 14.3561 7.54806ZM5.06263 7.06616H7.54792C8.16487 7.06616 8.68875 7.47155 8.86766 8.02992H4.3548V7.77398C4.3548 7.38181 4.67394 7.06616 5.06263 7.06616ZM2.5773 6.16242C3.09219 6.16242 3.51105 6.58131 3.51105 7.09617C3.51105 7.61106 3.09219 8.02995 2.5773 8.02995C2.06242 8.02995 1.64355 7.61103 1.64355 7.09614C1.64355 6.58129 2.06245 6.16242 2.5773 6.16242ZM2.60731 12.5487H1.64355V11.133H2.60731V12.5487ZM14.3561 12.5487H13.3923V11.133H14.3561V12.5487Z" fill="#0056A1"/>
</g>
<defs>
<clipPath id="clip0_4645_67702">
<rect width="14.4" height="14.4" fill="white" transform="translate(0.799805 0.800781)"/>
</clipPath>
</defs>
</svg>
