<svg width="50" height="50" viewBox="0 0 50 50" fill="none" xmlns="http://www.w3.org/2000/svg">
<rect width="50" height="50" rx="8" fill="#3EC8A7" fill-opacity="0.12"/>
<path d="M29.6541 13.7388L30.2547 12.3477L30.2486 12.3487C28.5941 12.6245 26.9168 12.6335 25.2607 12.3758L26.0575 13.7388H29.6541Z" fill="#3EC8A7"/>
<path d="M25.7162 16.1126H30.0456C30.3723 16.1119 30.6379 15.846 30.6379 15.5192C30.6379 15.1924 30.3723 14.9265 30.0457 14.9258C30.0452 14.9258 30.0447 14.9259 30.0442 14.9259C30.0431 14.9259 30.0419 14.9258 30.0408 14.9258H25.7174C25.3902 14.9258 25.124 15.192 25.124 15.5192C25.124 15.846 25.3895 16.112 25.7162 16.1126Z" fill="#3EC8A7"/>
<path d="M11.0547 36.2102H15.2086V24.3418H11.0547V36.2102ZM12.8349 34.4299V33.8365V33.2431C12.8349 32.9154 13.1007 32.6496 13.4283 32.6496C13.756 32.6496 14.0218 32.9154 14.0218 33.2431V33.8365V34.4299V35.0233C14.0218 35.351 13.756 35.6167 13.4283 35.6167C13.1006 35.6167 12.8349 35.351 12.8349 35.0233V34.4299Z" fill="#3EC8A7"/>
<path d="M21.3883 28.4954H27.6701C28.3039 28.4954 28.8998 28.7424 29.3483 29.1908C29.7967 29.6393 30.0437 30.2353 30.0437 30.869C30.0437 30.9081 30.0424 30.947 30.0405 30.9857C30.0399 30.9977 30.0391 31.0096 30.0384 31.0215C30.0365 31.0498 30.0341 31.0781 30.0313 31.1062C30.0301 31.1181 30.0292 31.1301 30.0278 31.1419C30.0239 31.176 30.0191 31.2099 30.0137 31.2436C30.0107 31.2626 30.0071 31.2814 30.0036 31.3003C30.0007 31.3162 29.9976 31.3321 29.9943 31.3479C29.9915 31.3616 29.9894 31.3754 29.9863 31.389L32.0187 30.7558L34.3778 30.0209C34.6264 29.551 34.757 29.0259 34.7573 28.4894C34.7579 27.4326 34.6521 26.374 34.4429 25.343C33.6778 21.573 31.7243 18.911 30.1534 17.2988H30.046C30.0452 17.2988 30.0445 17.2989 30.0437 17.2989H25.7816C24.4216 18.7327 22.5437 21.6307 21.4792 25.3868C21.2488 26.1997 21.1538 27.1801 21.1964 28.3034L21.3883 28.4954ZM27.9719 23.4513C26.9902 23.4513 26.1916 22.6527 26.1916 21.6711C26.1916 20.8975 26.6878 20.2379 27.3785 19.9929V19.2974C27.3785 18.9697 27.6442 18.704 27.9719 18.704C28.2996 18.704 28.5653 18.9697 28.5653 19.2974V19.8908H29.1587C29.4864 19.8908 29.7521 20.1565 29.7521 20.4842C29.7521 20.812 29.4864 21.0776 29.1587 21.0776H27.9719C27.6447 21.0776 27.3785 21.3438 27.3785 21.671C27.3785 21.9982 27.6447 22.2645 27.9719 22.2645C28.9535 22.2645 29.7521 23.0631 29.7521 24.0447C29.7521 24.8183 29.2559 25.4779 28.5653 25.7229V26.4184C28.5653 26.7461 28.2996 27.0118 27.9719 27.0118C27.6442 27.0118 27.3785 26.7461 27.3785 26.4184V25.825H26.785C26.4574 25.825 26.1916 25.5593 26.1916 25.2316C26.1916 24.9038 26.4574 24.6382 26.785 24.6382H27.9719C28.2991 24.6382 28.5653 24.3719 28.5653 24.0448C28.5653 23.7176 28.2991 23.4513 27.9719 23.4513Z" fill="#3EC8A7"/>
<path d="M37.7081 30.2764C37.6359 30.2764 37.5619 30.283 37.4878 30.296L34.9539 31.0854C34.9538 31.0854 34.9537 31.0855 34.9536 31.0855L30.1963 32.5675L28.4567 33.1095C28.4006 33.1288 28.3475 33.1454 28.2953 33.1596C28.2932 33.1602 28.2913 33.1605 28.2892 33.1611C28.2831 33.1628 28.2771 33.1645 28.2711 33.166L28.2153 33.1796C28.2113 33.1805 28.2074 33.1815 28.2034 33.1823C28.2029 33.1825 28.2024 33.1826 28.2019 33.1827L28.1822 33.1877C28.1596 33.1934 28.1369 33.1974 28.1142 33.2005C27.9689 33.2284 27.8202 33.2434 27.6705 33.2434H21.1428C20.8151 33.2434 20.5494 32.9776 20.5494 32.65C20.5494 32.3223 20.8151 32.0565 21.1428 32.0565H27.6704C27.7594 32.0565 27.847 32.0465 27.9311 32.0271C27.9375 32.0255 27.9439 32.024 27.9503 32.0225L27.9728 32.0171L28.0782 31.9842C28.1625 31.9535 28.2418 31.9136 28.3151 31.8661C28.3185 31.8637 28.3217 31.8611 28.3252 31.8588C28.3642 31.8329 28.4011 31.8049 28.4363 31.7751C28.4396 31.7723 28.4429 31.7697 28.4462 31.7669C28.4597 31.7552 28.4727 31.7431 28.4857 31.7308C28.4936 31.7233 28.5015 31.7158 28.5092 31.7081C28.5193 31.698 28.5292 31.6877 28.539 31.6773C28.5504 31.665 28.5615 31.6524 28.5723 31.6396C28.5784 31.6325 28.5846 31.6256 28.5905 31.6183C28.6264 31.5743 28.6591 31.5277 28.6883 31.4789C28.6896 31.4767 28.6909 31.4745 28.6922 31.4722C28.7056 31.4495 28.7183 31.4263 28.7302 31.4026C28.7318 31.3996 28.7333 31.3965 28.7348 31.3934C28.7469 31.3689 28.7583 31.3439 28.7687 31.3185C28.7692 31.3173 28.7697 31.3161 28.7702 31.3149C28.7922 31.2608 28.8102 31.2048 28.824 31.1475C28.8251 31.1431 28.826 31.1386 28.827 31.1341C28.8322 31.1115 28.8366 31.0886 28.8405 31.0656C28.8418 31.0577 28.8431 31.0499 28.8442 31.0419C28.8473 31.0212 28.8497 31.0003 28.8517 30.9792C28.8524 30.9712 28.8533 30.9632 28.8539 30.9552C28.856 30.9269 28.8573 30.8984 28.8573 30.8697C28.8573 30.553 28.7338 30.255 28.5094 30.0307C28.2852 29.8064 27.9872 29.6829 27.6704 29.6829H21.1431C20.9857 29.6829 20.8343 29.6202 20.723 29.5089L20.1948 28.9808L17.9299 26.7158H16.3955V35.0237H17.5823C17.6484 35.0237 17.714 35.0347 17.7765 35.0563L25.2853 37.6556L38.0701 32.7055C38.0788 32.7021 38.0876 32.6989 38.0965 32.696C38.6043 32.5266 38.9454 32.0534 38.9454 31.5184C38.9454 30.8335 38.3903 30.2764 37.7081 30.2764Z" fill="#3EC8A7"/>
</svg>
