<svg width="250" height="117" viewBox="0 0 250 117" fill="none" xmlns="http://www.w3.org/2000/svg">
<g clip-path="url(#clip0_1408_3419)">
<path d="M27.6821 116.217L27.2531 116.12C32.0367 94.8472 44.0583 75.5292 61.1034 61.7248C73.99 51.3045 89.3167 44.3354 105.64 41.4736C121.964 38.6118 138.747 39.9515 154.41 45.3666C170.073 50.7816 184.1 60.0939 195.171 72.4266C206.241 84.7592 213.991 99.7065 217.69 115.861L217.261 115.958C207.135 71.4973 168.168 40.4451 122.501 40.4451C77.4319 40.4451 37.5548 72.3117 27.6821 116.217Z" fill="white"/>
<path d="M231.2 106.091L231.86 110.928L227.243 111.368L227.902 105.431L231.2 106.091Z" fill="#A0616A"/>
<path d="M209.433 39.6877C209.433 39.6877 209.873 45.6244 209.873 45.8443C209.873 46.0642 206.794 61.2357 206.794 61.2357C206.794 61.2357 202.397 69.591 206.794 69.3711C211.192 69.1513 209.873 61.4556 209.873 61.4556L214.49 48.7027L212.511 39.6877H209.433Z" fill="#A0616A"/>
<path d="M216.689 106.091L216.029 110.928L220.646 111.368L219.987 105.431L216.689 106.091Z" fill="#A0616A"/>
<path d="M211.631 60.7959L210.532 62.3351C210.532 62.3351 209.872 68.9314 210.532 71.1301C211.192 73.3289 212.511 83.4432 212.511 84.1029C212.511 84.7625 212.731 85.2022 212.511 85.4221C212.291 85.642 211.631 85.642 212.071 86.0817C212.511 86.5215 212.511 87.8408 212.511 87.8408V88.9401L215.369 105.211C215.369 105.211 213.61 107.19 214.93 107.19C216.249 107.19 221.086 107.19 220.866 104.991L220.427 104.771C220.427 104.771 219.767 90.2594 219.987 89.5998C220.207 88.9401 219.987 87.6209 219.987 87.6209C219.987 87.6209 219.547 86.9613 219.987 86.7414C220.427 86.5215 220.427 84.7625 220.427 84.7625L222.405 71.35C222.405 71.35 224.164 80.3649 225.264 81.2445C226.363 82.124 226.143 84.3227 226.143 84.3227L227.023 103.672C227.023 103.672 226.143 105.871 227.023 106.31C227.902 106.75 231.64 108.289 231.86 106.091C232.08 103.892 233.179 84.7625 233.179 83.883C233.179 83.0035 232.96 82.5637 233.179 81.9041C233.399 81.2445 232.96 81.2445 233.179 81.2445C233.399 81.2445 232.74 80.5848 232.74 80.1451V69.3711C232.74 69.3711 232.96 67.1723 233.179 66.7326C233.399 66.2928 232.96 65.8531 233.179 65.1935C233.399 64.5338 232.74 62.3351 232.74 62.3351L222.845 59.6965L211.631 60.7959Z" fill="#114069"/>
<path d="M219.327 110.048C219.327 110.048 220.427 108.949 218.887 108.949C217.899 108.969 216.926 109.194 216.029 109.609L214.93 113.566C214.93 113.566 210.422 117.194 215.479 116.755C220.537 116.315 219.767 116.645 219.767 116.645C219.767 116.645 221.306 116.205 221.526 115.765C221.746 115.325 221.086 108.949 221.086 108.949C221.086 108.949 220.427 110.708 219.327 110.048Z" fill="#2F2E41"/>
<path d="M228.782 110.048C228.782 110.048 227.683 108.949 229.222 108.949C230.21 108.969 231.183 109.194 232.08 109.609L233.179 113.566C233.179 113.566 237.687 117.194 232.63 116.755C227.573 116.315 227.683 116.645 227.683 116.645C227.683 116.645 226.143 116.205 225.924 115.765C225.704 115.325 227.023 108.949 227.023 108.949C227.023 108.949 227.683 110.708 228.782 110.048Z" fill="#2F2E41"/>
<path d="M64.8732 39.0132H62.9158V116.334H64.8732V39.0132Z" fill="#3F3D56"/>
<path d="M82.9386 48.8668C83.0632 75.9038 64.0412 97.9098 64.0412 97.9098C64.0412 97.9098 44.8172 76.0801 44.6926 49.043C44.568 22.006 63.59 0 63.59 0C63.59 0 82.814 21.8297 82.9386 48.8668Z" fill="white"/>
<path d="M201.077 84.3228H49.5823V116.425H201.077V84.3228Z" fill="#F2F2F2"/>
<path d="M44.745 87.8407L61.2358 53.3201H192.942L205.255 87.8407H44.745Z" fill="#114069"/>
<path d="M146.988 55.5188H85.8619V75.7475H146.988V55.5188Z" fill="#F2F2F2"/>
<path d="M89.8197 39.0281L80.1451 59.2567H152.704L146.988 39.0281H89.8197Z" fill="#114069"/>
<path d="M139.512 90.6992H91.2489V116.425H139.512V90.6992Z" fill="#CCCCCC"/>
<path d="M81.2445 91.5786H55.5189V116.425H81.2445V91.5786Z" fill="#CCCCCC"/>
<path d="M161.17 93.1179H147.867V116.425H161.17V93.1179Z" fill="#114069"/>
<path d="M250 116.315H0V116.755H250V116.315Z" fill="white"/>
<path d="M40.8486 65.3164H39.5569V116.34H40.8486V65.3164Z" fill="white"/>
<path d="M52.7698 71.8186C52.852 89.6601 40.2995 104.182 40.2995 104.182C40.2995 104.182 27.6138 89.7764 27.5315 71.9349C27.4493 54.0934 40.0018 39.5718 40.0018 39.5718C40.0018 39.5718 52.6876 53.977 52.7698 71.8186Z" fill="white"/>
<path opacity="0.1" d="M52.7698 71.8186C52.852 89.6601 40.2995 104.182 40.2995 104.182C40.2995 104.182 27.6138 89.7764 27.5315 71.9349C27.4493 54.0934 40.0018 39.5718 40.0018 39.5718C40.0018 39.5718 52.6876 53.977 52.7698 71.8186Z" fill="black"/>
<path d="M24.0563 65.3164H22.7645V116.34H24.0563V65.3164Z" fill="white"/>
<path d="M35.9774 71.8186C36.0597 89.6601 23.5072 104.182 23.5072 104.182C23.5072 104.182 10.8214 89.7764 10.7392 71.9349C10.657 54.0934 23.2094 39.5718 23.2094 39.5718C23.2094 39.5718 35.8952 53.977 35.9774 71.8186Z" fill="white"/>
<path d="M182.058 94.437H175.572V100.484H182.058V94.437Z" fill="#114069"/>
<path d="M190.743 94.437H184.257V100.484H190.743V94.437Z" fill="#114069"/>
<path d="M182.058 102.683H175.572V108.949H182.058V102.683Z" fill="#114069"/>
<path d="M190.743 102.683H184.257V108.949H190.743V102.683Z" fill="#114069"/>
<path d="M96.545 61.054H91.4688V65.7861H96.545V61.054Z" fill="#114069"/>
<path d="M103.342 61.054H98.2659V65.7861H103.342V61.054Z" fill="#114069"/>
<path d="M96.545 67.5071H91.4688V72.4113H96.545V67.5071Z" fill="#114069"/>
<path d="M103.342 67.5071H98.2659V72.4113H103.342V67.5071Z" fill="#114069"/>
<path d="M134.584 61.054H129.507V65.7861H134.584V61.054Z" fill="#114069"/>
<path d="M141.381 61.054H136.305V65.7861H141.381V61.054Z" fill="#114069"/>
<path d="M134.584 67.5071H129.507V72.4113H134.584V67.5071Z" fill="#114069"/>
<path d="M141.381 67.5071H136.305V72.4113H141.381V67.5071Z" fill="#114069"/>
<path d="M115.674 61.054H110.598V65.7861H115.674V61.054Z" fill="#114069"/>
<path d="M122.471 61.054H117.395V65.7861H122.471V61.054Z" fill="#114069"/>
<path d="M115.674 67.5071H110.598V72.4113H115.674V67.5071Z" fill="#114069"/>
<path d="M122.471 67.5071H117.395V72.4113H122.471V67.5071Z" fill="#114069"/>
<path d="M154.032 95.4792H150.836V98.4587H154.032V95.4792Z" fill="#F2F2F2"/>
<path d="M158.311 95.4792H155.115V98.4587H158.311V95.4792Z" fill="#F2F2F2"/>
<path d="M154.032 99.542H150.836V102.63H154.032V99.542Z" fill="#F2F2F2"/>
<path d="M158.311 99.542H155.115V102.63H158.311V99.542Z" fill="#F2F2F2"/>
<path d="M159.411 107.3C159.896 107.3 160.29 106.906 160.29 106.421C160.29 105.935 159.896 105.541 159.411 105.541C158.925 105.541 158.531 105.935 158.531 106.421C158.531 106.906 158.925 107.3 159.411 107.3Z" fill="#F2F2F2"/>
<path d="M139.622 93.4478H91.2489V93.8875H139.622V93.4478Z" fill="#F2F2F2"/>
<path d="M139.622 95.4265H91.2489V95.8663H139.622V95.4265Z" fill="#F2F2F2"/>
<path d="M139.622 97.4055H91.2489V97.8453H139.622V97.4055Z" fill="#F2F2F2"/>
<path d="M139.622 99.3843H91.2489V99.824H139.622V99.3843Z" fill="#F2F2F2"/>
<path d="M139.622 101.363H91.2489V101.803H139.622V101.363Z" fill="#F2F2F2"/>
<path d="M139.622 103.342H91.2489V103.782H139.622V103.342Z" fill="#F2F2F2"/>
<path d="M139.622 105.321H91.2489V105.761H139.622V105.321Z" fill="#F2F2F2"/>
<path d="M139.622 107.3H91.2489V107.74H139.622V107.3Z" fill="#F2F2F2"/>
<path d="M139.622 109.279H91.2489V109.719H139.622V109.279Z" fill="#F2F2F2"/>
<path d="M139.622 111.258H91.2489V111.698H139.622V111.258Z" fill="#F2F2F2"/>
<path d="M139.622 113.237H91.2489V113.676H139.622V113.237Z" fill="#F2F2F2"/>
<path d="M81.2445 93.4478H55.5189V93.8875H81.2445V93.4478Z" fill="#F2F2F2"/>
<path d="M81.2445 95.4265H55.5189V95.8663H81.2445V95.4265Z" fill="#F2F2F2"/>
<path d="M81.2445 97.4055H55.5189V97.8453H81.2445V97.4055Z" fill="#F2F2F2"/>
<path d="M81.2445 99.3843H55.5189V99.824H81.2445V99.3843Z" fill="#F2F2F2"/>
<path d="M81.2445 101.363H55.5189V101.803H81.2445V101.363Z" fill="#F2F2F2"/>
<path d="M81.2445 103.342H55.5189V103.782H81.2445V103.342Z" fill="#F2F2F2"/>
<path d="M81.2445 105.321H55.5189V105.761H81.2445V105.321Z" fill="#F2F2F2"/>
<path d="M81.2445 107.3H55.5189V107.74H81.2445V107.3Z" fill="#F2F2F2"/>
<path d="M81.2445 109.279H55.5189V109.719H81.2445V109.279Z" fill="#F2F2F2"/>
<path d="M81.2445 111.258H55.5189V111.698H81.2445V111.258Z" fill="#F2F2F2"/>
<path d="M81.2445 113.237H55.5189V113.676H81.2445V113.237Z" fill="#F2F2F2"/>
<path d="M192.832 71.0202C202.668 71.0202 210.642 63.0464 210.642 53.2102C210.642 43.374 202.668 35.4001 192.832 35.4001C182.996 35.4001 175.022 43.374 175.022 53.2102C175.022 63.0464 182.996 71.0202 192.832 71.0202Z" fill="white"/>
<path d="M204.046 51.4513H194.591V41.9966H191.073V51.4513H181.618V54.9693H191.073V64.424H194.591V54.9693H204.046V51.4513Z" fill="#0056A1"/>
<path d="M214.49 22.3174C217.647 22.3174 220.207 19.7579 220.207 16.6006C220.207 13.4433 217.647 10.8838 214.49 10.8838C211.333 10.8838 208.773 13.4433 208.773 16.6006C208.773 19.7579 211.333 22.3174 214.49 22.3174Z" fill="#A0616A"/>
<path d="M212.511 20.7784C212.511 20.7784 213.39 25.1759 213.39 25.8355C213.39 26.4952 217.128 28.4741 217.128 28.4741L221.306 23.197C221.306 23.197 218.668 19.4591 218.668 18.5796L212.511 20.7784Z" fill="#A0616A"/>
<path d="M215.809 26.4952C215.809 26.4952 213.893 25.9851 213.312 25.1407C213.312 25.1407 207.234 31.1126 207.234 32.212L212.071 40.7872C212.071 40.7872 212.071 43.8654 212.511 44.0853C212.951 44.3052 212.511 44.0853 212.511 44.9648C212.511 45.8443 211.192 51.5611 211.631 52.4406C212.071 53.3201 212.511 52.6605 212.071 53.9798C211.631 55.299 210.532 62.3351 210.532 62.3351C210.532 62.3351 214.49 61.0158 220.207 63.2146C225.923 65.4134 232.74 62.3351 232.74 62.3351C232.74 62.3351 230.981 58.3773 231.42 57.058C231.86 55.7388 230.321 53.3201 230.321 53.3201L229.222 33.0915C229.222 33.0915 230.761 24.0765 229.661 23.6368L227.463 22.7573L220.421 21.8918C220.421 21.8918 218.667 26.2753 215.809 26.4952Z" fill="#D0CDE1"/>
<path d="M209.433 30.6729L207.234 32.212C207.234 32.212 206.135 35.5101 207.234 37.0493C208.333 38.5884 208.773 40.7872 208.773 40.7872L213.171 40.3474L209.433 30.6729Z" fill="#D0CDE1"/>
<path d="M225.704 32.6516C225.704 32.6516 224.43 35.9257 224.696 39.1652C224.745 39.7452 224.94 40.3033 225.264 40.7871L209.665 48.1927C209.665 48.1927 202.617 48.9225 204.376 52.0008C206.135 55.0791 212.511 50.4616 212.511 50.4616C212.511 50.4616 229.222 48.043 230.541 45.6243C231.86 43.2057 232.74 33.0914 232.74 33.0914L225.704 32.6516Z" fill="#A0616A"/>
<path d="M210.125 10.5591L209.133 10.1621C209.133 10.1621 211.207 7.87936 214.092 8.07786L213.28 7.18461C213.28 7.18461 215.264 6.39062 217.067 8.47484C218.014 9.57049 219.111 10.8583 219.795 12.3091H220.857L220.413 13.2851L221.965 14.261L220.372 14.0857C220.523 14.9283 220.472 15.7946 220.222 16.6133L220.265 17.3847C220.265 17.3847 218.419 14.5291 218.419 14.1321V15.1246C218.419 15.1246 217.427 14.2313 217.427 13.6358L216.886 14.3306L216.616 13.2388L213.28 14.3306L213.821 13.4373L211.748 13.7351L212.559 12.6433C212.559 12.6433 210.215 13.9336 210.125 15.0253C210.035 16.1171 208.863 17.5066 208.863 17.5066L208.322 16.5141C208.322 16.5141 207.511 12.0478 210.125 10.5591Z" fill="#2F2E41"/>
<path d="M226.363 23.6367H229.661C229.661 23.6367 232.08 24.0765 232.74 28.474C233.399 32.8715 234.059 33.9709 233.399 33.9709C232.74 33.9709 224.824 33.751 224.824 33.5312C224.824 33.3113 226.363 23.6367 226.363 23.6367Z" fill="#D0CDE1"/>
</g>
<defs>
<clipPath id="clip0_1408_3419">
<rect width="250" height="116.792" fill="white"/>
</clipPath>
</defs>
</svg>
