<svg width="14" height="14" viewBox="0 0 14 14" fill="none" xmlns="http://www.w3.org/2000/svg">
<path d="M11.8458 1.46152H10.4612V0.769212C10.4612 0.585601 10.3883 0.409509 10.2584 0.279676C10.1286 0.149844 9.95252 0.0769043 9.76891 0.0769043C9.58529 0.0769043 9.4092 0.149844 9.27937 0.279676C9.14954 0.409509 9.0766 0.585601 9.0766 0.769212V1.46152H4.92275V0.769212C4.92275 0.585601 4.84981 0.409509 4.71998 0.279676C4.59015 0.149844 4.41406 0.0769043 4.23044 0.0769043C4.04683 0.0769043 3.87074 0.149844 3.74091 0.279676C3.61108 0.409509 3.53814 0.585601 3.53814 0.769212V1.46152H2.15352C1.60269 1.46152 1.07441 1.68034 0.684916 2.06984C0.295417 2.45933 0.0765991 2.98761 0.0765991 3.53844V11.8461C0.0765991 12.397 0.295417 12.9252 0.684916 13.3147C1.07441 13.7042 1.60269 13.9231 2.15352 13.9231H11.8458C12.3967 13.9231 12.9249 13.7042 13.3144 13.3147C13.7039 12.9252 13.9228 12.397 13.9228 11.8461V3.53844C13.9228 2.98761 13.7039 2.45933 13.3144 2.06984C12.9249 1.68034 12.3967 1.46152 11.8458 1.46152ZM12.5381 11.8461C12.5381 12.0297 12.4652 12.2058 12.3354 12.3357C12.2055 12.4655 12.0294 12.5384 11.8458 12.5384H2.15352C1.96991 12.5384 1.79382 12.4655 1.66399 12.3357C1.53415 12.2058 1.46121 12.0297 1.46121 11.8461V6.99998H12.5381V11.8461ZM12.5381 5.61537H1.46121V3.53844C1.46121 3.35483 1.53415 3.17874 1.66399 3.04891C1.79382 2.91907 1.96991 2.84613 2.15352 2.84613H3.53814V3.53844C3.53814 3.72205 3.61108 3.89814 3.74091 4.02798C3.87074 4.15781 4.04683 4.23075 4.23044 4.23075C4.41406 4.23075 4.59015 4.15781 4.71998 4.02798C4.84981 3.89814 4.92275 3.72205 4.92275 3.53844V2.84613H9.0766V3.53844C9.0766 3.72205 9.14954 3.89814 9.27937 4.02798C9.4092 4.15781 9.58529 4.23075 9.76891 4.23075C9.95252 4.23075 10.1286 4.15781 10.2584 4.02798C10.3883 3.89814 10.4612 3.72205 10.4612 3.53844V2.84613H11.8458C12.0294 2.84613 12.2055 2.91907 12.3354 3.04891C12.4652 3.17874 12.5381 3.35483 12.5381 3.53844V5.61537Z" fill="#888888"/>
</svg>
