<svg width="20" height="20" viewBox="0 0 20 20" fill="none" xmlns="http://www.w3.org/2000/svg">
<path d="M16.8197 10.9166C16.6181 10.9166 16.4072 10.8524 16.2056 10.8066C15.7972 10.7166 15.3958 10.5971 15.0047 10.4491C14.5795 10.2944 14.112 10.3024 13.6923 10.4716C13.2727 10.6409 12.9304 10.9593 12.7314 11.3658L12.5297 11.7783C11.6369 11.2816 10.8165 10.6647 10.0914 9.94492C9.3716 9.21985 8.75473 8.39942 8.25806 7.50659L8.64306 7.24992C9.04948 7.05093 9.36794 6.70866 9.53717 6.28897C9.7064 5.86929 9.71443 5.40184 9.55973 4.97659C9.41418 4.58464 9.29475 4.18349 9.20223 3.77575C9.15639 3.57409 9.11973 3.36325 9.09223 3.15242C8.98091 2.50674 8.64272 1.92202 8.13855 1.50356C7.63438 1.0851 6.99736 0.860395 6.34223 0.86992H3.59223C3.19717 0.86621 2.80596 0.947665 2.44521 1.10874C2.08446 1.26981 1.76266 1.50672 1.5017 1.80335C1.24075 2.09997 1.04677 2.44933 0.932965 2.82766C0.819164 3.20599 0.788216 3.60439 0.842226 3.99575C1.33057 7.83602 3.08442 11.4041 5.82674 14.1365C8.56906 16.8689 12.1435 18.6097 15.9856 19.0841H16.3339C17.0099 19.0851 17.6625 18.8371 18.1672 18.3874C18.4572 18.128 18.6889 17.8101 18.8469 17.4545C19.0049 17.099 19.0857 16.714 19.0839 16.3249V13.5749C19.0727 12.9382 18.8408 12.3251 18.4279 11.8403C18.0149 11.3555 17.4466 11.029 16.8197 10.9166ZM17.2781 16.4166C17.2779 16.5467 17.25 16.6754 17.1963 16.7939C17.1425 16.9124 17.0642 17.0182 16.9664 17.1041C16.8643 17.193 16.7445 17.2594 16.615 17.2989C16.4855 17.3384 16.3491 17.3501 16.2147 17.3333C12.7817 16.8931 9.59294 15.3225 7.15138 12.8694C4.70982 10.4162 3.15444 7.21998 2.73056 3.78492C2.71597 3.65065 2.72876 3.51481 2.76814 3.38561C2.80753 3.25642 2.87271 3.13655 2.95973 3.03325C3.04563 2.93547 3.15137 2.85711 3.26991 2.80337C3.38845 2.74963 3.51707 2.72175 3.64723 2.72159H6.39723C6.61039 2.71684 6.81855 2.78656 6.98586 2.91874C7.15317 3.05091 7.26917 3.23728 7.31389 3.44575C7.35056 3.69631 7.39639 3.94381 7.45139 4.18825C7.55729 4.67147 7.69821 5.14634 7.87306 5.60909L6.58973 6.20492C6.48 6.25526 6.3813 6.32679 6.29929 6.41538C6.21728 6.50398 6.15358 6.6079 6.11184 6.72118C6.07011 6.83446 6.05116 6.95487 6.05609 7.0755C6.06102 7.19612 6.08972 7.31459 6.14056 7.42409C7.45983 10.2499 9.73137 12.5215 12.5572 13.8408C12.7804 13.9324 13.0307 13.9324 13.2539 13.8408C13.3682 13.7999 13.4733 13.7367 13.563 13.6548C13.6527 13.573 13.7252 13.4742 13.7764 13.3641L14.3447 12.0808C14.8186 12.2502 15.3023 12.391 15.7931 12.5024C16.0375 12.5574 16.285 12.6033 16.5356 12.6399C16.744 12.6846 16.9304 12.8006 17.0626 12.968C17.1948 13.1353 17.2645 13.3434 17.2597 13.5566L17.2781 16.4166Z" fill="#0056A1"/>
</svg>
