<svg width="112" height="112" viewBox="0 0 112 112" fill="none" xmlns="http://www.w3.org/2000/svg">
<mask id="mask0_13007_12919" style="mask-type:alpha" maskUnits="userSpaceOnUse" x="0" y="0" width="112" height="112">
<rect width="112" height="112" fill="#D9D9D9"/>
</mask>
<g mask="url(#mask0_13007_12919)">
<path d="M39.2 76.1026L56 59.3026L72.8 76.1026L76.1026 72.8L59.3026 56L76.1026 39.2L72.8 35.8974L56 52.6974L39.2 35.8974L35.8974 39.2L52.6974 56L35.8974 72.8L39.2 76.1026ZM56.0156 98C50.2077 98 44.7473 96.8979 39.6345 94.6938C34.5216 92.4896 30.0741 89.4982 26.2919 85.7196C22.5098 81.9409 19.5156 77.4976 17.3094 72.3896C15.1031 67.2814 14 61.8235 14 56.0156C14 50.2077 15.1021 44.7473 17.3062 39.6345C19.5104 34.5216 22.5019 30.0741 26.2804 26.2919C30.059 22.5098 34.5024 19.5156 39.6104 17.3094C44.7186 15.1031 50.1765 14 55.9844 14C61.7923 14 67.2527 15.1021 72.3655 17.3062C77.4784 19.5104 81.9259 22.5018 85.7081 26.2804C89.4902 30.059 92.4844 34.5024 94.6906 39.6104C96.8969 44.7186 98 50.1765 98 55.9844C98 61.7923 96.8979 67.2527 94.6938 72.3655C92.4896 77.4784 89.4982 81.9259 85.7196 85.7081C81.9409 89.4902 77.4976 92.4844 72.3896 94.6906C67.2814 96.8969 61.8235 98 56.0156 98Z" fill="#F24141"/>
</g>
</svg>
