<svg width="17" height="16" viewBox="0 0 17 16" fill="none" xmlns="http://www.w3.org/2000/svg">
<path d="M13.9769 8.83204C13.8003 8.83204 13.6156 8.77584 13.4389 8.73569C13.0815 8.65577 12.7301 8.55114 12.3871 8.42256C12.0146 8.28705 11.6052 8.29409 11.2376 8.44232C10.87 8.59054 10.5702 8.86949 10.3959 9.22547L10.2193 9.59481C9.43949 9.15257 8.71912 8.61297 8.07548 7.98899C7.4515 7.34535 6.9119 6.62498 6.46966 5.84521L6.839 5.6766C7.19498 5.5023 7.47393 5.2025 7.62215 4.83489C7.77038 4.46729 7.77742 4.05785 7.64191 3.68537C7.5144 3.33934 7.40979 2.98529 7.32877 2.62553C7.28863 2.44888 7.25651 2.26421 7.23243 2.08757C7.13492 1.52202 6.8387 1.00986 6.39709 0.643325C5.95549 0.276794 5.39753 0.0799772 4.82369 0.0883204H2.40692C2.06748 0.0878757 1.73179 0.159176 1.42184 0.297547C1.11189 0.435917 0.834681 0.638234 0.608392 0.891233C0.37741 1.1511 0.205422 1.45789 0.104245 1.79052C0.00306863 2.12316 -0.0248985 2.47376 0.0222652 2.81823C0.458719 6.16006 1.98556 9.26454 4.36603 11.6503C6.75176 14.0307 9.85624 15.5576 13.1981 15.994C13.3023 16.002 13.407 16.002 13.5112 15.994C14.1033 15.9949 14.6749 15.7777 15.117 15.3838C15.37 15.1575 15.5723 14.8803 15.7107 14.5704C15.8491 14.2604 15.9204 13.9247 15.9199 13.5853V11.1765C15.9156 10.6218 15.7199 10.0855 15.3659 9.65832C15.0119 9.23115 14.5212 8.93929 13.9769 8.83204ZM14.3703 13.6495C14.3701 13.7616 14.3463 13.8723 14.3007 13.9746C14.2551 14.077 14.1885 14.1686 14.1054 14.2437C14.0174 14.3239 13.9126 14.3835 13.7988 14.4182C13.6849 14.4529 13.5647 14.4618 13.447 14.4444C10.4507 14.0531 7.6662 12.6876 5.52222 10.5583C3.37641 8.41249 1.99906 5.61828 1.604 2.60947C1.58656 2.49171 1.59552 2.37154 1.63024 2.25767C1.66496 2.1438 1.72456 2.03908 1.80473 1.95108C1.8807 1.86689 1.97365 1.79976 2.07744 1.75409C2.18123 1.70842 2.29352 1.68525 2.40692 1.68612H4.81566C5.00126 1.68158 5.1827 1.74151 5.32909 1.85569C5.47548 1.96988 5.57778 2.13127 5.61857 2.31239C5.61857 2.52918 5.69083 2.75399 5.73901 2.97078C5.8318 3.3914 5.95525 3.80466 6.10835 4.20726L4.98427 4.73719C4.79106 4.82588 4.64091 4.98758 4.56675 5.18682C4.48645 5.3823 4.48645 5.60155 4.56675 5.79703C5.72231 8.27222 7.71196 10.2619 10.1871 11.4174C10.3826 11.4977 10.6019 11.4977 10.7974 11.4174C10.9966 11.3433 11.1583 11.1931 11.247 10.9999L11.7528 9.87583C12.1671 10.0269 12.5909 10.1503 13.0214 10.2452C13.2302 10.2933 13.455 10.3335 13.6718 10.3656C13.8529 10.4064 14.0143 10.5087 14.1285 10.6551C14.2427 10.8015 14.3026 10.9829 14.2981 11.1685L14.3703 13.6495ZM9.63314 0C9.44847 0 9.25577 0 9.0711 0C8.85815 0.0181004 8.66112 0.120052 8.52334 0.283426C8.38556 0.4468 8.31833 0.658215 8.33643 0.871161C8.35453 1.08411 8.45648 1.28114 8.61986 1.41892C8.78323 1.55669 8.99465 1.62393 9.20759 1.60583H9.63314C10.9108 1.60583 12.1362 2.11338 13.0396 3.01683C13.9431 3.92029 14.4506 5.14563 14.4506 6.4233C14.4506 6.56783 14.4506 6.70432 14.4506 6.84885C14.4328 7.06066 14.4997 7.2709 14.6367 7.43345C14.7737 7.596 14.9695 7.69761 15.1813 7.71599H15.2455C15.4465 7.71681 15.6405 7.64221 15.7892 7.50693C15.9378 7.37165 16.0303 7.18553 16.0484 6.98534C16.0484 6.80067 16.0484 6.60797 16.0484 6.4233C16.0484 4.72113 15.3728 3.08855 14.1699 1.88418C12.967 0.679806 11.3353 0.00212772 9.63314 0ZM11.239 6.4233C11.239 6.63625 11.3236 6.84047 11.4741 6.99105C11.6247 7.14162 11.8289 7.22622 12.0419 7.22622C12.2548 7.22622 12.459 7.14162 12.6096 6.99105C12.7602 6.84047 12.8448 6.63625 12.8448 6.4233C12.8448 5.57152 12.5064 4.75462 11.9041 4.15232C11.3018 3.55002 10.4849 3.21165 9.63314 3.21165C9.42019 3.21165 9.21597 3.29624 9.06539 3.44682C8.91481 3.5974 8.83022 3.80162 8.83022 4.01457C8.83022 4.22751 8.91481 4.43174 9.06539 4.58231C9.21597 4.73289 9.42019 4.81748 9.63314 4.81748C10.059 4.81748 10.4675 4.98666 10.7686 5.28781C11.0698 5.58896 11.239 5.99741 11.239 6.4233Z" fill="white"/>
</svg>
