<svg width="112" height="112" viewBox="0 0 112 112" fill="none" xmlns="http://www.w3.org/2000/svg">
<mask id="mask0_13007_12890" style="mask-type:alpha" maskUnits="userSpaceOnUse" x="0" y="0" width="112" height="112">
<rect width="112" height="112" fill="#D9D9D9"/>
</mask>
<g mask="url(#mask0_13007_12890)">
<path d="M49.2872 74.2357L79.1359 44.387L75.8333 41.0844L49.2872 67.6305L35.9872 54.3305L32.6846 57.6331L49.2872 74.2357ZM56.0156 97.9998C50.2077 97.9998 44.7473 96.8977 39.6345 94.6935C34.5216 92.4893 30.0741 89.4979 26.2919 85.7193C22.5098 81.9407 19.5156 77.4974 17.3094 72.3893C15.1031 67.2812 14 61.8232 14 56.0154C14 50.2075 15.1021 44.7471 17.3062 39.6342C19.5104 34.5213 22.5019 30.0738 26.2804 26.2916C30.059 22.5095 34.5024 19.5154 39.6104 17.3091C44.7186 15.1029 50.1765 13.9998 55.9844 13.9998C61.7923 13.9998 67.2527 15.1018 72.3655 17.306C77.4784 19.5102 81.9259 22.5016 85.7081 26.2802C89.4902 30.0588 92.4844 34.5021 94.6906 39.6102C96.8969 44.7183 98 50.1763 98 55.9841C98 61.792 96.8979 67.2524 94.6938 72.3653C92.4896 77.4782 89.4982 81.9257 85.7196 85.7079C81.9409 89.49 77.4976 92.4841 72.3896 94.6904C67.2814 96.8966 61.8235 97.9998 56.0156 97.9998Z" fill="#3CBD77"/>
</g>
</svg>
