<svg width="11" height="9" viewBox="0 0 11 9" fill="none" xmlns="http://www.w3.org/2000/svg">
<path d="M8.79846 0.832296L3.89617 5.74601L2.01067 3.86052C1.90823 3.74089 1.78217 3.64374 1.6404 3.57515C1.49863 3.50656 1.34421 3.46802 1.18683 3.46194C1.02946 3.45586 0.872523 3.48238 0.725882 3.53983C0.579242 3.59728 0.446061 3.68442 0.334697 3.79578C0.223333 3.90715 0.136191 4.04033 0.0787408 4.18697C0.0212908 4.33361 -0.00522718 4.49054 0.000851535 4.64792C0.00693025 4.80529 0.0454745 4.95971 0.114065 5.10148C0.182655 5.24325 0.27981 5.36932 0.399432 5.47176L3.08484 8.16859C3.19161 8.2745 3.31825 8.35829 3.45747 8.41516C3.5967 8.47202 3.74578 8.50085 3.89617 8.49998C4.19595 8.49872 4.48323 8.3797 4.69608 8.16859L10.4097 2.45497C10.5168 2.34873 10.6018 2.22235 10.6598 2.0831C10.7179 1.94384 10.7477 1.79448 10.7477 1.64363C10.7477 1.49278 10.7179 1.34342 10.6598 1.20417C10.6018 1.06491 10.5168 0.938527 10.4097 0.832296C10.1956 0.619462 9.90598 0.5 9.60408 0.5C9.30219 0.5 9.01257 0.619462 8.79846 0.832296Z" fill="white"/>
</svg>
