<svg width="16" height="16" viewBox="0 0 16 16" fill="none" xmlns="http://www.w3.org/2000/svg">
<path opacity="1" d="M9.17481 8L15.2498 1.925C15.3863 1.76559 15.4577 1.56052 15.4496 1.35079C15.4415 1.14106 15.3545 0.942114 15.2061 0.793702C15.0577 0.64529 14.8588 0.558345 14.649 0.550244C14.4393 0.542144 14.2342 0.613482 14.0748 0.750004L7.99981 6.825L1.92482 0.741671C1.7654 0.605149 1.56033 0.533811 1.3506 0.541912C1.14087 0.550013 0.941925 0.636956 0.793513 0.785368C0.645101 0.93378 0.558157 1.13273 0.550056 1.34246C0.541955 1.55219 0.613293 1.75725 0.749815 1.91667L6.82482 8L0.741482 14.075C0.654247 14.1497 0.583397 14.2416 0.533377 14.345C0.483358 14.4484 0.455249 14.561 0.450816 14.6758C0.446383 14.7906 0.465722 14.905 0.507617 15.0119C0.549513 15.1189 0.613061 15.216 0.694273 15.2972C0.775486 15.3784 0.872608 15.442 0.979546 15.4839C1.08648 15.5258 1.20093 15.5451 1.31569 15.5407C1.43046 15.5362 1.54307 15.5081 1.64646 15.4581C1.74984 15.4081 1.84178 15.3372 1.91648 15.25L7.99981 9.175L14.0748 15.25C14.2342 15.3865 14.4393 15.4579 14.649 15.4498C14.8588 15.4417 15.0577 15.3547 15.2061 15.2063C15.3545 15.0579 15.4415 14.8589 15.4496 14.6492C15.4577 14.4395 15.3863 14.2344 15.2498 14.075L9.17481 8Z" fill="#fff"/>
</svg>
