<svg width="20" height="20" viewBox="0 0 20 20" fill="none" xmlns="http://www.w3.org/2000/svg">
<g id="supervisor_account">
<mask id="mask0_12145_12803" style="mask-type:alpha" maskUnits="userSpaceOnUse" x="0" y="0" width="20" height="20">
<rect id="Bounding box" width="20" height="20" fill="#0056A1"/>
</mask>
<g mask="url(#mask0_12145_12803)">
<path id="supervisor_account_2" d="M14.166 12.4997C13.5827 12.4997 13.0896 12.2983 12.6868 11.8955C12.2841 11.4927 12.0827 10.9997 12.0827 10.4163C12.0827 9.83301 12.2841 9.33995 12.6868 8.93717C13.0896 8.5344 13.5827 8.33301 14.166 8.33301C14.7493 8.33301 15.2424 8.5344 15.6452 8.93717C16.048 9.33995 16.2493 9.83301 16.2493 10.4163C16.2493 10.9997 16.048 11.4927 15.6452 11.8955C15.2424 12.2983 14.7493 12.4997 14.166 12.4997ZM9.99935 15.833V15.4997C9.99935 15.1663 10.0862 14.8573 10.2598 14.5726C10.4334 14.2879 10.6799 14.083 10.9993 13.958C11.4993 13.7497 12.0167 13.5934 12.5514 13.4893C13.0862 13.3851 13.6243 13.333 14.166 13.333C14.7077 13.333 15.2459 13.3851 15.7806 13.4893C16.3153 13.5934 16.8327 13.7497 17.3327 13.958C17.6521 14.083 17.8987 14.2879 18.0723 14.5726C18.2459 14.8573 18.3327 15.1663 18.3327 15.4997V15.833C18.3327 16.0691 18.2528 16.267 18.0931 16.4268C17.9334 16.5865 17.7355 16.6663 17.4993 16.6663H10.8327C10.5966 16.6663 10.3987 16.5865 10.2389 16.4268C10.0792 16.267 9.99935 16.0691 9.99935 15.833ZM8.33268 9.99967C7.41602 9.99967 6.63129 9.67329 5.97852 9.02051C5.32574 8.36773 4.99935 7.58301 4.99935 6.66634C4.99935 5.74967 5.32574 4.96495 5.97852 4.31217C6.63129 3.6594 7.41602 3.33301 8.33268 3.33301C9.24935 3.33301 10.0341 3.6594 10.6868 4.31217C11.3396 4.96495 11.666 5.74967 11.666 6.66634C11.666 7.58301 11.3396 8.36773 10.6868 9.02051C10.0341 9.67329 9.24935 9.99967 8.33268 9.99967ZM1.66602 14.333C1.66602 13.8608 1.78407 13.4268 2.02018 13.0309C2.25629 12.6351 2.58268 12.333 2.99935 12.1247C3.83268 11.708 4.69727 11.3886 5.5931 11.1663C6.48893 10.9441 7.40213 10.833 8.33268 10.833C8.81879 10.833 9.3049 10.8747 9.79102 10.958C10.2771 11.0413 10.7632 11.1386 11.2493 11.2497L9.83268 12.6663C9.58268 12.5969 9.33268 12.5518 9.08268 12.5309C8.83268 12.5101 8.58268 12.4997 8.33268 12.4997C7.52713 12.4997 6.73893 12.5969 5.9681 12.7913C5.19727 12.9858 4.45768 13.2636 3.74935 13.6247C3.61046 13.6941 3.50629 13.7913 3.43685 13.9163C3.3674 14.0413 3.33268 14.1802 3.33268 14.333V14.9997H8.33268V15.8122C8.33268 15.9927 8.3674 16.1559 8.43685 16.3018C8.50629 16.4476 8.60352 16.5691 8.72852 16.6663H3.33268C2.87435 16.6663 2.48199 16.5031 2.1556 16.1768C1.82921 15.8504 1.66602 15.458 1.66602 14.9997V14.333ZM8.33268 8.33301C8.79102 8.33301 9.18338 8.16981 9.50977 7.84342C9.83615 7.51704 9.99935 7.12467 9.99935 6.66634C9.99935 6.20801 9.83615 5.81565 9.50977 5.48926C9.18338 5.16287 8.79102 4.99967 8.33268 4.99967C7.87435 4.99967 7.48199 5.16287 7.1556 5.48926C6.82921 5.81565 6.66602 6.20801 6.66602 6.66634C6.66602 7.12467 6.82921 7.51704 7.1556 7.84342C7.48199 8.16981 7.87435 8.33301 8.33268 8.33301Z" fill="#0056A1"/>
</g>
</g>
</svg>
