<svg width="17" height="18" viewBox="0 0 17 18" fill="none" xmlns="http://www.w3.org/2000/svg">
<path d="M15.6239 7.05164C15.7262 7.05167 15.8276 7.03153 15.9221 6.99238C16.0167 6.95323 16.1026 6.89583 16.175 6.82347C16.2473 6.75111 16.3047 6.66519 16.3439 6.57064C16.383 6.47609 16.4032 6.37474 16.4031 6.27241V3.93469C16.4032 3.77119 16.3518 3.61181 16.2562 3.47918C16.1606 3.34655 16.0256 3.24739 15.8705 3.19578L8.85731 0.858066C8.69725 0.804798 8.52425 0.804798 8.36419 0.858066L1.35104 3.19578C1.1959 3.24739 1.06094 3.34655 0.965328 3.47918C0.869714 3.61181 0.818292 3.77119 0.818359 3.93469V6.27241C0.818333 6.37474 0.83847 6.47609 0.877621 6.57064C0.916772 6.66519 0.97417 6.75111 1.04653 6.82347C1.1189 6.89583 1.20481 6.95323 1.29937 6.99238C1.39392 7.03153 1.49526 7.05167 1.5976 7.05164H2.37684V12.6499C1.92234 12.81 1.52853 13.1069 1.24949 13.4997C0.970443 13.8926 0.819842 14.3622 0.818359 14.844V16.4025C0.818333 16.5049 0.83847 16.6062 0.877621 16.7007C0.916772 16.7953 0.97417 16.8812 1.04653 16.9536C1.1189 17.0259 1.20481 17.0833 1.29937 17.1225C1.39392 17.1616 1.49526 17.1818 1.5976 17.1818H15.6239C15.7262 17.1818 15.8276 17.1616 15.9221 17.1225C16.0167 17.0833 16.1026 17.0259 16.175 16.9536C16.2473 16.8812 16.3047 16.7953 16.3439 16.7007C16.383 16.6062 16.4032 16.5049 16.4031 16.4025V14.844C16.4017 14.3622 16.2511 13.8926 15.972 13.4997C15.693 13.1069 15.2992 12.81 14.8447 12.6499V7.05164H15.6239ZM14.8447 15.6233H2.37684V14.844C2.37704 14.6374 2.45921 14.4393 2.6053 14.2933C2.75139 14.1472 2.94947 14.065 3.15608 14.0648H14.0654C14.272 14.065 14.4701 14.1472 14.6162 14.2933C14.7623 14.4393 14.8445 14.6374 14.8447 14.844V15.6233ZM3.93532 12.5063V7.05164H5.49379V12.5063H3.93532ZM7.05227 12.5063V7.05164H10.1692V12.5063H7.05227ZM11.7277 12.5063V7.05164H13.2862V12.5063H11.7277ZM2.37684 5.49317V4.49629L8.61075 2.41806L14.8447 4.49629V5.49317H2.37684Z" fill="#0056A1"/>
</svg>
