<svg width="20" height="20" viewBox="0 0 20 20" fill="none" xmlns="http://www.w3.org/2000/svg">
<g id="person">
<mask id="mask0_10329_9471" style="mask-type:alpha" maskUnits="userSpaceOnUse" x="0" y="0" width="20" height="20">
<rect id="Bounding box" width="20" height="20" fill="#D9D9D9"/>
</mask>
<g mask="url(#mask0_10329_9471)">
<path id="Subtract" fill-rule="evenodd" clip-rule="evenodd" d="M7.64648 9.01562C8.29926 9.6684 9.08398 9.99479 10.0007 9.99479C10.9173 9.99479 11.702 9.6684 12.3548 9.01562C13.0076 8.36285 13.334 7.57812 13.334 6.66146C13.334 5.74479 13.0076 4.96007 12.3548 4.30729C11.702 3.65451 10.9173 3.32812 10.0007 3.32812C9.08398 3.32812 8.29926 3.65451 7.64648 4.30729C6.99371 4.96007 6.66732 5.74479 6.66732 6.66146C6.66732 7.57812 6.99371 8.36285 7.64648 9.01562ZM3.33398 14.3281V16.6615H11.5026C11.4017 16.4861 11.3101 16.303 11.2277 16.1121C11.0733 15.7541 10.9642 15.3817 10.9007 14.9948H5.00065V14.3281C5.00065 14.1753 5.03885 14.0365 5.11523 13.9115C5.19162 13.7865 5.29232 13.6892 5.41732 13.6198C6.16732 13.2448 6.92426 12.9635 7.68815 12.776C8.45204 12.5885 9.22287 12.4948 10.0007 12.4948C10.3668 12.4948 10.7314 12.5156 11.0945 12.5571C11.1343 12.4407 11.1787 12.3257 11.2277 12.2121C11.4212 11.7637 11.6657 11.3583 11.9611 10.9959C11.3148 10.884 10.6613 10.8281 10.0007 10.8281C9.08398 10.8281 8.18121 10.9358 7.29232 11.151C6.40343 11.3663 5.52843 11.6892 4.66732 12.1198C4.26454 12.3281 3.94162 12.6302 3.69857 13.026C3.45551 13.4219 3.33398 13.8559 3.33398 14.3281ZM11.1777 7.83854C10.8513 8.16493 10.459 8.32812 10.0007 8.32812C9.54232 8.32812 9.14996 8.16493 8.82357 7.83854C8.49718 7.51215 8.33398 7.11979 8.33398 6.66146C8.33398 6.20312 8.49718 5.81076 8.82357 5.48438C9.14996 5.15799 9.54232 4.99479 10.0007 4.99479C10.459 4.99479 10.8513 5.15799 11.1777 5.48438C11.5041 5.81076 11.6673 6.20312 11.6673 6.66146C11.6673 7.11979 11.5041 7.51215 11.1777 7.83854Z" fill="#0056A1"/>
<path id="visibility" d="M15.8333 15.3024C16.2121 15.3024 16.5341 15.1698 16.7992 14.9047C17.0644 14.6395 17.197 14.3175 17.197 13.9387C17.197 13.56 17.0644 13.238 16.7992 12.9728C16.5341 12.7077 16.2121 12.5751 15.8333 12.5751C15.4545 12.5751 15.1326 12.7077 14.8674 12.9728C14.6023 13.238 14.4697 13.56 14.4697 13.9387C14.4697 14.3175 14.6023 14.6395 14.8674 14.9047C15.1326 15.1698 15.4545 15.3024 15.8333 15.3024ZM15.8333 14.7569C15.6061 14.7569 15.4129 14.6774 15.2538 14.5183C15.0947 14.3592 15.0152 14.166 15.0152 13.9387C15.0152 13.7115 15.0947 13.5183 15.2538 13.3592C15.4129 13.2001 15.6061 13.1206 15.8333 13.1206C16.0606 13.1206 16.2538 13.2001 16.4129 13.3592C16.572 13.5183 16.6515 13.7115 16.6515 13.9387C16.6515 14.166 16.572 14.3592 16.4129 14.5183C16.2538 14.6774 16.0606 14.7569 15.8333 14.7569ZM15.8333 16.2115C15.096 16.2115 14.4242 16.0057 13.8182 15.594C13.2121 15.1824 12.7727 14.6307 12.5 13.9387C12.7727 13.2468 13.2121 12.6951 13.8182 12.2834C14.4242 11.8718 15.096 11.666 15.8333 11.666C16.5707 11.666 17.2424 11.8718 17.8485 12.2834C18.4545 12.6951 18.8939 13.2468 19.1667 13.9387C18.8939 14.6307 18.4545 15.1824 17.8485 15.594C17.2424 16.0057 16.5707 16.2115 15.8333 16.2115Z" fill="#0056A1"/>
</g>
</g>
</svg>
