<svg width="20" height="20" viewBox="0 0 20 20" fill="none" xmlns="http://www.w3.org/2000/svg">
<path d="M17.1998 6.02208C17.1565 5.91049 17.0916 5.80854 17.0089 5.72208L13.3725 2.08572C13.2877 2.00095 13.1871 1.93372 13.0764 1.88784C12.9656 1.84197 12.8469 1.81836 12.727 1.81836C12.485 1.81836 12.2528 1.91453 12.0816 2.08572C11.9104 2.2569 11.8142 2.48908 11.8142 2.73117C11.8142 2.97326 11.9104 3.20544 12.0816 3.37662L14.1725 5.45844H3.63614C3.39504 5.45844 3.16381 5.55422 2.99332 5.72471C2.82283 5.8952 2.72705 6.12643 2.72705 6.36753C2.72705 6.60864 2.82283 6.83987 2.99332 7.01036C3.16381 7.18085 3.39504 7.27662 3.63614 7.27662H14.1725L12.0816 9.35844C11.9964 9.44295 11.9288 9.5435 11.8826 9.65428C11.8364 9.76506 11.8127 9.88389 11.8127 10.0039C11.8127 10.1239 11.8364 10.2427 11.8826 10.3535C11.9288 10.4643 11.9964 10.5648 12.0816 10.6494C12.1661 10.7346 12.2667 10.8022 12.3774 10.8483C12.4882 10.8945 12.607 10.9183 12.727 10.9183C12.8471 10.9183 12.9659 10.8945 13.0767 10.8483C13.1874 10.8022 13.288 10.7346 13.3725 10.6494L17.0089 7.01299C17.0916 6.92653 17.1565 6.82458 17.1998 6.71299C17.2907 6.49166 17.2907 6.24341 17.1998 6.02208Z" fill="white"/>
<path d="M2.79534 13.9872C2.83861 14.0988 2.90349 14.2007 2.98625 14.2872L6.62261 17.9236C6.70738 18.0083 6.808 18.0756 6.91875 18.1214C7.0295 18.1673 7.1482 18.1909 7.26807 18.1909C7.51016 18.1909 7.74234 18.0947 7.91352 17.9236C8.08471 17.7524 8.18088 17.5202 8.18088 17.2781C8.18088 17.036 8.08471 16.8038 7.91352 16.6327L5.82261 14.5508L16.359 14.5508C16.6001 14.5508 16.8313 14.4551 17.0018 14.2846C17.1723 14.1141 17.2681 13.8828 17.2681 13.6417C17.2681 13.4006 17.1723 13.1694 17.0018 12.9989C16.8313 12.8284 16.6001 12.7327 16.359 12.7327L5.82261 12.7327L7.91352 10.6508C7.99873 10.5663 8.06636 10.4658 8.11252 10.355C8.15867 10.2442 8.18243 10.1254 8.18243 10.0054C8.18243 9.88537 8.15867 9.76654 8.11252 9.65576C8.06636 9.54498 7.99873 9.44444 7.91352 9.35993C7.82901 9.27472 7.72846 9.20708 7.61768 9.16093C7.5069 9.11478 7.38808 9.09102 7.26807 9.09102C7.14806 9.09102 7.02923 9.11478 6.91845 9.16093C6.80767 9.20708 6.70713 9.27472 6.62261 9.35993L2.98625 12.9963C2.90349 13.0827 2.83861 13.1847 2.79534 13.2963C2.70442 13.5176 2.70442 13.7659 2.79534 13.9872Z" fill="white"/>
</svg>
