<svg width="16" height="18" viewBox="0 0 16 18" fill="none" xmlns="http://www.w3.org/2000/svg">
<path d="M12.1667 3.99984V1.49984C12.1667 1.27882 12.0789 1.06686 11.9226 0.910582C11.7663 0.754301 11.5543 0.666504 11.3333 0.666504H1.33333C1.11232 0.666504 0.900357 0.754301 0.744078 0.910582C0.587797 1.06686 0.5 1.27882 0.5 1.49984V13.1665C0.5 13.3875 0.587797 13.5995 0.744078 13.7558C0.900357 13.912 1.11232 13.9998 1.33333 13.9998H3.83333V16.4998C3.83333 16.9598 4.20833 17.3332 4.6725 17.3332H14.6608C14.7707 17.3338 14.8797 17.3128 14.9814 17.2712C15.0831 17.2296 15.1756 17.1684 15.2536 17.0909C15.3316 17.0135 15.3935 16.9214 15.4358 16.82C15.4781 16.7185 15.4999 16.6097 15.5 16.4998L15.4975 4.83317C15.4975 4.37317 15.1225 3.99984 14.6583 3.99984H12.1667ZM13.8308 5.6665L13.8333 15.6665H5.5V5.6665H13.8308ZM10.5 3.99984H3.83333V12.3332H2.16667V2.33317H10.5V3.99984Z" fill="white"/>
</svg>
