<svg width="26" height="30" viewBox="0 0 26 30" fill="none" xmlns="http://www.w3.org/2000/svg">
<path d="M0.402344 27.3633C0.402344 28.8172 1.58518 30 3.03906 30H20.6172C22.0711 30 23.2539 28.8172 23.2539 27.3633V27.2461H0.402344V27.3633Z" fill="#2697D7"/>
<path d="M7.43359 6.15237V0.514893L0.917206 7.03128H6.55468C7.03931 7.03128 7.43359 6.637 7.43359 6.15237Z" fill="#2697D7"/>
<path d="M23.2539 2.63672C23.2539 1.18283 22.0711 0 20.6172 0H9.19141V6.15234C9.19141 7.60623 8.00857 8.78906 6.55469 8.78906H0.402344V12.0117H23.2539V2.63672Z" fill="#2697D7"/>
<path d="M24.7188 13.7695H0.402344V25.4883H24.7188C25.2041 25.4883 25.5977 25.0948 25.5977 24.6094V14.6484C25.5977 14.163 25.2041 13.7695 24.7188 13.7695ZM9.76428 21.7816C9.68242 21.8793 9.59348 21.971 9.4999 22.0543C9.02184 22.48 8.40865 22.7051 7.72656 22.7051C6.03039 22.7051 4.65039 21.3251 4.65039 19.6289C4.65039 17.9327 6.03039 16.5527 7.72656 16.5527C8.34297 16.5527 8.93787 16.7346 9.44699 17.0786C9.78215 17.305 9.87033 17.7603 9.64381 18.0954C9.4174 18.4306 8.96213 18.5188 8.62691 18.2923C8.3609 18.1126 8.04953 18.0176 7.72656 18.0176C6.83811 18.0176 6.11523 18.7404 6.11523 19.6289C6.11523 20.5174 6.83811 21.2402 7.72656 21.2402C8.0483 21.2402 8.31719 21.1461 8.52578 20.9603C8.56645 20.9241 8.60553 20.8837 8.64186 20.8404C8.90189 20.5305 9.36373 20.4899 9.67369 20.7499C9.98365 21.0098 10.0242 21.4717 9.76428 21.7816ZM15.3498 21.0878C15.1826 22.0249 14.2937 22.7051 13.2363 22.7051C12.3936 22.7051 11.6017 22.3647 11.0638 21.7713C10.7921 21.4716 10.8149 21.0084 11.1146 20.7367C11.4144 20.4652 11.8776 20.4878 12.1492 20.7875C12.4061 21.071 12.8125 21.2403 13.2363 21.2403C13.6445 21.2403 13.8783 20.9957 13.9078 20.8304C13.9425 20.6363 13.6625 20.4592 13.389 20.3583C12.6591 20.089 12.0107 19.8004 11.9835 19.7883C11.9482 19.7725 11.9142 19.7541 11.8819 19.733C11.34 19.3797 11.0608 18.7603 11.1532 18.1166C11.2512 17.4343 11.7477 16.8793 12.449 16.668C13.7373 16.28 14.8823 16.9586 15.135 17.4312C15.3258 17.7879 15.1912 18.2317 14.8345 18.4224C14.5195 18.591 14.1362 18.5056 13.9196 18.2373C13.8363 18.1765 13.4199 17.9053 12.8715 18.0705C12.7175 18.117 12.6197 18.2096 12.6031 18.3247C12.5965 18.371 12.6009 18.4327 12.6516 18.4819C12.8352 18.5619 13.3475 18.7817 13.8959 18.984C15.1615 19.4507 15.4768 20.3768 15.3498 21.0878ZM21.3122 17.5247L19.7817 22.1319C19.6654 22.4742 19.3488 22.7026 18.9923 22.7051C18.9903 22.7051 18.9884 22.7051 18.9864 22.7051C18.6322 22.7051 18.3153 22.4817 18.1966 22.1475L16.5922 17.5253C16.4596 17.1432 16.6618 16.7259 17.044 16.5932C17.4259 16.4608 17.8434 16.6628 17.976 17.045L18.9734 19.9185L19.922 17.0629C20.0496 16.6789 20.4642 16.4711 20.848 16.5987C21.232 16.7262 21.4398 17.1408 21.3122 17.5247Z" fill="#2697D7"/>
</svg>
