<svg width="30" height="30" viewBox="0 0 30 30" fill="none" xmlns="http://www.w3.org/2000/svg">
<g clip-path="url(#clip0_3_2)">
<path d="M15 0C12.0333 0 9.13319 0.879735 6.66645 2.52796C4.19972 4.17618 2.27713 6.51886 1.14181 9.25975C0.00649941 12.0006 -0.290551 15.0166 0.288228 17.9264C0.867006 20.8361 2.29562 23.5088 4.39341 25.6066C6.49119 27.7044 9.16394 29.133 12.0737 29.7118C14.9834 30.2906 17.9994 29.9935 20.7403 28.8582C23.4812 27.7229 25.8238 25.8003 27.4721 23.3336C29.1203 20.8668 30 17.9667 30 15C30 13.0302 29.612 11.0796 28.8582 9.25975C28.1044 7.43986 26.9995 5.78628 25.6066 4.3934C24.2137 3.00052 22.5601 1.89563 20.7403 1.14181C18.9204 0.387987 16.9698 0 15 0ZM15 27C12.6266 27 10.3066 26.2962 8.33316 24.9776C6.35977 23.6591 4.8217 21.7849 3.91345 19.5922C3.0052 17.3995 2.76756 14.9867 3.23058 12.6589C3.69361 10.3311 4.8365 8.19295 6.51473 6.51472C8.19296 4.83649 10.3312 3.6936 12.6589 3.23058C14.9867 2.76755 17.3995 3.00519 19.5922 3.91345C21.7849 4.8217 23.6591 6.35977 24.9776 8.33316C26.2962 10.3065 27 12.6266 27 15C27 18.1826 25.7357 21.2348 23.4853 23.4853C21.2349 25.7357 18.1826 27 15 27Z" fill="#FF6464"/>
<path d="M10.5 17H19.5C19.8978 17 20.2794 16.842 20.5607 16.5607C20.842 16.2794 21 15.8978 21 15.5C21 15.1022 20.842 14.7206 20.5607 14.4393C20.2794 14.158 19.8978 14 19.5 14H10.5C10.1022 14 9.72064 14.158 9.43934 14.4393C9.15804 14.7206 9 15.1022 9 15.5C9 15.8978 9.15804 16.2794 9.43934 16.5607C9.72064 16.842 10.1022 17 10.5 17Z" fill="#FF6464"/>
</g>
<defs>
<clipPath id="clip0_3_2">
<rect width="30" height="30" fill="white"/>
</clipPath>
</defs>
</svg>
