<svg width="16" height="15" viewBox="0 0 16 15" fill="none" xmlns="http://www.w3.org/2000/svg">
<path d="M7.98191 10.172C7.83891 10.172 7.69912 10.2145 7.58021 10.2939C7.46131 10.3733 7.36864 10.4863 7.31391 10.6184C7.25919 10.7505 7.24487 10.8959 7.27277 11.0361C7.30067 11.1764 7.36953 11.3052 7.47065 11.4063C7.57177 11.5075 7.7006 11.5763 7.84085 11.6042C7.98111 11.6321 8.12648 11.6178 8.2586 11.5631C8.39072 11.5083 8.50364 11.4157 8.58309 11.2968C8.66253 11.1779 8.70494 11.0381 8.70494 10.8951C8.70494 10.7033 8.62876 10.5194 8.49317 10.3838C8.35757 10.2482 8.17367 10.172 7.98191 10.172ZM15.6966 11.2349L9.87625 1.11248C9.68812 0.775194 9.41335 0.494255 9.08033 0.298684C8.74731 0.103112 8.36811 0 7.98191 0C7.59571 0 7.21651 0.103112 6.88349 0.298684C6.55046 0.494255 6.2757 0.775194 6.08757 1.11248L0.303325 11.2349C0.108682 11.5632 0.004093 11.937 0.00011771 12.3186C-0.00385758 12.7002 0.0929213 13.0761 0.280683 13.4084C0.468446 13.7406 0.740544 14.0175 1.06951 14.2109C1.39847 14.4044 1.77266 14.5076 2.15428 14.5102H13.8095C14.1942 14.514 14.573 14.4154 14.907 14.2246C15.2411 14.0337 15.5183 13.7574 15.7104 13.4241C15.9024 13.0908 16.0024 12.7123 16 12.3276C15.9975 11.9429 15.8929 11.5658 15.6966 11.2349ZM14.4458 12.681C14.3824 12.7937 14.29 12.8874 14.1781 12.9523C14.0661 13.0171 13.9389 13.0508 13.8095 13.0497H2.15428C2.02494 13.0508 1.89768 13.0171 1.78577 12.9523C1.67386 12.8874 1.58139 12.7937 1.51802 12.681C1.45456 12.571 1.42115 12.4464 1.42115 12.3194C1.42115 12.1925 1.45456 12.0678 1.51802 11.9579L7.30226 1.83551C7.36294 1.71707 7.45512 1.61768 7.56866 1.54828C7.68219 1.47887 7.81269 1.44215 7.94576 1.44215C8.07883 1.44215 8.20932 1.47887 8.32286 1.54828C8.43639 1.61768 8.52858 1.71707 8.58925 1.83551L14.4096 11.9579C14.4814 12.0663 14.5226 12.1919 14.529 12.3217C14.5353 12.4515 14.5066 12.5806 14.4458 12.6954V12.681ZM7.98191 4.3878C7.79015 4.3878 7.60624 4.46398 7.47065 4.59958C7.33505 4.73517 7.25888 4.91908 7.25888 5.11083V8.00296C7.25888 8.19472 7.33505 8.37862 7.47065 8.51422C7.60624 8.64981 7.79015 8.72599 7.98191 8.72599C8.17367 8.72599 8.35757 8.64981 8.49317 8.51422C8.62876 8.37862 8.70494 8.19472 8.70494 8.00296V5.11083C8.70494 4.91908 8.62876 4.73517 8.49317 4.59958C8.35757 4.46398 8.17367 4.3878 7.98191 4.3878Z" fill="#0056A1"/>
</svg>
