<svg width="20" height="20" viewBox="0 0 20 20" fill="none" xmlns="http://www.w3.org/2000/svg">
<path d="M18.8 13.5833L12.4083 2.98328C12.1499 2.57896 11.7938 2.24622 11.3729 2.01573C10.952 1.78524 10.4799 1.66443 10 1.66443C9.52013 1.66443 9.04799 1.78524 8.6271 2.01573C8.20621 2.24622 7.85012 2.57896 7.59167 2.98328L1.2 13.5833C0.974212 13.9597 0.851491 14.3889 0.844177 14.8277C0.836863 15.2665 0.945213 15.6996 1.15833 16.0833C1.40473 16.5152 1.76138 16.8739 2.19184 17.1228C2.62229 17.3717 3.1111 17.5018 3.60833 17.4999H16.3917C16.8856 17.5052 17.3722 17.3801 17.8024 17.1372C18.2326 16.8943 18.591 16.5423 18.8417 16.1166C19.061 15.7289 19.1729 15.2897 19.1655 14.8443C19.1582 14.3989 19.032 13.9635 18.8 13.5833ZM17.3833 15.2916C17.2832 15.4638 17.1378 15.6053 16.963 15.7007C16.7882 15.7962 16.5906 15.842 16.3917 15.8333H3.60833C3.40935 15.842 3.21176 15.7962 3.03697 15.7007C2.86217 15.6053 2.71682 15.4638 2.61667 15.2916C2.54353 15.1649 2.50502 15.0212 2.50502 14.8749C2.50502 14.7287 2.54353 14.585 2.61667 14.4583L9.01667 3.84995C9.13167 3.69804 9.2803 3.57484 9.45091 3.49001C9.62152 3.40518 9.80947 3.36104 10 3.36104C10.1905 3.36104 10.3785 3.40518 10.5491 3.49001C10.7197 3.57484 10.8683 3.69804 10.9833 3.84995L17.375 14.4499C17.451 14.5769 17.4918 14.7217 17.4932 14.8697C17.4947 15.0176 17.4568 15.1632 17.3833 15.2916Z" fill="white"/>
<path d="M10 14.1667C10.4602 14.1667 10.8333 13.7936 10.8333 13.3333C10.8333 12.8731 10.4602 12.5 10 12.5C9.53977 12.5 9.16667 12.8731 9.16667 13.3333C9.16667 13.7936 9.53977 14.1667 10 14.1667Z" fill="white"/>
<path d="M10 6.66663C9.77899 6.66663 9.56703 6.75442 9.41075 6.9107C9.25447 7.06698 9.16667 7.27895 9.16667 7.49996V10.8333C9.16667 11.0543 9.25447 11.2663 9.41075 11.4225C9.56703 11.5788 9.77899 11.6666 10 11.6666C10.221 11.6666 10.433 11.5788 10.5893 11.4225C10.7455 11.2663 10.8333 11.0543 10.8333 10.8333V7.49996C10.8333 7.27895 10.7455 7.06698 10.5893 6.9107C10.433 6.75442 10.221 6.66663 10 6.66663Z" fill="white"/>
</svg>
