<svg width="25" height="22" viewBox="0 0 25 22" fill="none" xmlns="http://www.w3.org/2000/svg">
<path d="M12 15.3334C11.7857 15.3334 11.5763 15.3969 11.3981 15.5159C11.22 15.635 11.0811 15.8042 10.9991 16.0021C10.9171 16.2001 10.8957 16.4179 10.9375 16.628C10.9793 16.8382 11.0825 17.0312 11.234 17.1827C11.3855 17.3342 11.5785 17.4374 11.7887 17.4792C11.9988 17.521 12.2166 17.4996 12.4146 17.4176C12.6125 17.3356 12.7817 17.1967 12.9008 17.0186C13.0198 16.8404 13.0833 16.631 13.0833 16.4167C13.0833 16.1294 12.9692 15.8538 12.766 15.6507C12.5629 15.4475 12.2873 15.3334 12 15.3334ZM23.5592 16.9259L14.8383 1.7592C14.5565 1.25384 14.1448 0.8329 13.6458 0.539871C13.1468 0.246841 12.5787 0.0923462 12 0.0923462C11.4214 0.0923462 10.8532 0.246841 10.3542 0.539871C9.85524 0.8329 9.44355 1.25384 9.16167 1.7592L0.495006 16.9259C0.203368 17.4177 0.04666 17.9778 0.0407037 18.5496C0.0347474 19.1214 0.179753 19.6846 0.461082 20.1824C0.74241 20.6802 1.1501 21.095 1.643 21.3849C2.13589 21.6748 2.69654 21.8295 3.26834 21.8334H20.7317C21.3081 21.839 21.8756 21.6913 22.3761 21.4054C22.8766 21.1194 23.292 20.7055 23.5797 20.206C23.8675 19.7066 24.0172 19.1396 24.0136 18.5631C24.01 17.9867 23.8532 17.4217 23.5592 16.9259V16.9259ZM21.685 19.0925C21.59 19.2615 21.4515 19.4019 21.2838 19.499C21.1162 19.5962 20.9255 19.6466 20.7317 19.645H3.26834C3.07454 19.6466 2.88386 19.5962 2.71618 19.499C2.5485 19.4019 2.40996 19.2615 2.31501 19.0925C2.21992 18.9278 2.16987 18.741 2.16987 18.5509C2.16987 18.3607 2.21992 18.1739 2.31501 18.0092L10.9817 2.84253C11.0726 2.66508 11.2107 2.51616 11.3808 2.41217C11.5509 2.30818 11.7465 2.25315 11.9458 2.25315C12.1452 2.25315 12.3407 2.30818 12.5109 2.41217C12.681 2.51616 12.8191 2.66508 12.91 2.84253L21.6308 18.0092C21.7383 18.1715 21.8001 18.3598 21.8096 18.5543C21.8191 18.7487 21.7761 18.9421 21.685 19.1142V19.0925ZM12 6.6667C11.7127 6.6667 11.4371 6.78083 11.234 6.984C11.0308 7.18716 10.9167 7.46271 10.9167 7.75003V12.0834C10.9167 12.3707 11.0308 12.6462 11.234 12.8494C11.4371 13.0526 11.7127 13.1667 12 13.1667C12.2873 13.1667 12.5629 13.0526 12.766 12.8494C12.9692 12.6462 13.0833 12.3707 13.0833 12.0834V7.75003C13.0833 7.46271 12.9692 7.18716 12.766 6.984C12.5629 6.78083 12.2873 6.6667 12 6.6667Z" fill="#FF6464"/>
</svg>
