<svg width="18" height="18" viewBox="0 0 18 18" fill="none" xmlns="http://www.w3.org/2000/svg">
<path d="M6.41589 0.000244141H2.53946C1.99915 0.00222061 1.48151 0.225685 1.09945 0.621897C0.717389 1.01811 0.501906 1.55492 0.5 2.11524V6.13524C0.501906 6.69557 0.717389 7.23238 1.09945 7.62859C1.48151 8.0248 1.99915 8.24826 2.53946 8.25024H6.41589C6.9562 8.24826 7.47384 8.0248 7.8559 7.62859C8.23796 7.23238 8.45345 6.69557 8.45535 6.13524V2.11524C8.45345 1.55492 8.23796 1.01811 7.8559 0.621897C7.47384 0.225685 6.9562 0.00222061 6.41589 0.000244141ZM7.00893 6.13524C7.00893 6.29835 6.94645 6.45478 6.83523 6.57011C6.72401 6.68545 6.57317 6.75024 6.41589 6.75024H2.53946C2.38218 6.75024 2.23134 6.68545 2.12012 6.57011C2.00891 6.45478 1.94643 6.29835 1.94643 6.13524V2.11524C1.94643 1.95214 2.00891 1.79571 2.12012 1.68037C2.23134 1.56504 2.38218 1.50024 2.53946 1.50024H6.41589C6.57317 1.50024 6.72401 1.56504 6.83523 1.68037C6.94645 1.79571 7.00893 1.95214 7.00893 2.11524V6.13524Z" fill="white"/>
<path d="M15.8175 0H11.9411C11.4008 0.00197647 10.8831 0.225441 10.5011 0.621652C10.119 1.01786 9.90352 1.55467 9.90161 2.115V6.135C9.90352 6.69532 10.119 7.23213 10.5011 7.62834C10.8831 8.02456 11.4008 8.24802 11.9411 8.25H15.8175C16.3578 8.24802 16.8755 8.02456 17.2575 7.62834C17.6396 7.23213 17.8551 6.69532 17.857 6.135V2.115C17.8551 1.55467 17.6396 1.01786 17.2575 0.621652C16.8755 0.225441 16.3578 0.00197647 15.8175 0ZM16.4105 6.135C16.4105 6.2981 16.3481 6.45453 16.2368 6.56987C16.1256 6.6852 15.9748 6.75 15.8175 6.75H11.9411C11.7838 6.75 11.633 6.6852 11.5217 6.56987C11.4105 6.45453 11.348 6.2981 11.348 6.135V2.115C11.348 1.95189 11.4105 1.79546 11.5217 1.68013C11.633 1.56479 11.7838 1.5 11.9411 1.5H15.8175C15.9748 1.5 16.1256 1.56479 16.2368 1.68013C16.3481 1.79546 16.4105 1.95189 16.4105 2.115V6.135Z" fill="white"/>
<path d="M6.41589 9.75H2.53946C1.99915 9.75198 1.48151 9.97544 1.09945 10.3717C0.717389 10.7679 0.501906 11.3047 0.5 11.865V15.885C0.501906 16.4453 0.717389 16.9821 1.09945 17.3783C1.48151 17.7746 1.99915 17.998 2.53946 18H6.41589C6.9562 17.998 7.47384 17.7746 7.8559 17.3783C8.23796 16.9821 8.45345 16.4453 8.45535 15.885V11.865C8.45345 11.3047 8.23796 10.7679 7.8559 10.3717C7.47384 9.97544 6.9562 9.75198 6.41589 9.75ZM7.00893 15.885C7.00893 16.0481 6.94645 16.2045 6.83523 16.3199C6.72401 16.4352 6.57317 16.5 6.41589 16.5H2.53946C2.38218 16.5 2.23134 16.4352 2.12012 16.3199C2.00891 16.2045 1.94643 16.0481 1.94643 15.885V11.865C1.94643 11.7019 2.00891 11.5455 2.12012 11.4301C2.23134 11.3148 2.38218 11.25 2.53946 11.25H6.41589C6.57317 11.25 6.72401 11.3148 6.83523 11.4301C6.94645 11.5455 7.00893 11.7019 7.00893 11.865V15.885Z" fill="white"/>
<path d="M15.8175 9.75H11.9411C11.4008 9.75198 10.8831 9.97544 10.5011 10.3717C10.119 10.7679 9.90352 11.3047 9.90161 11.865V15.885C9.90352 16.4453 10.119 16.9821 10.5011 17.3783C10.8831 17.7746 11.4008 17.998 11.9411 18H15.8175C16.3578 17.998 16.8755 17.7746 17.2575 17.3783C17.6396 16.9821 17.8551 16.4453 17.857 15.885V11.865C17.8551 11.3047 17.6396 10.7679 17.2575 10.3717C16.8755 9.97544 16.3578 9.75198 15.8175 9.75ZM16.4105 15.885C16.4105 16.0481 16.3481 16.2045 16.2368 16.3199C16.1256 16.4352 15.9748 16.5 15.8175 16.5H11.9411C11.7838 16.5 11.633 16.4352 11.5217 16.3199C11.4105 16.2045 11.348 16.0481 11.348 15.885V11.865C11.348 11.7019 11.4105 11.5455 11.5217 11.4301C11.633 11.3148 11.7838 11.25 11.9411 11.25H15.8175C15.9748 11.25 16.1256 11.3148 16.2368 11.4301C16.3481 11.5455 16.4105 11.7019 16.4105 11.865V15.885Z" fill="white"/>
</svg>
