<svg width="18" height="18" viewBox="0 0 18 18" fill="none" xmlns="http://www.w3.org/2000/svg">
<path d="M14.9227 2.23076H13.2304V1.38461C13.2304 1.16019 13.1412 0.944969 12.9826 0.786285C12.8239 0.6276 12.6087 0.538452 12.3842 0.538452C12.1598 0.538452 11.9446 0.6276 11.7859 0.786285C11.6272 0.944969 11.5381 1.16019 11.5381 1.38461V2.23076H6.46116V1.38461C6.46116 1.16019 6.37201 0.944969 6.21333 0.786285C6.05465 0.6276 5.83942 0.538452 5.61501 0.538452C5.39059 0.538452 5.17537 0.6276 5.01669 0.786285C4.858 0.944969 4.76886 1.16019 4.76886 1.38461V2.23076H3.07655C2.40331 2.23076 1.75764 2.4982 1.28158 2.97426C0.80553 3.45031 0.538086 4.09598 0.538086 4.76922V14.9231C0.538086 15.5963 0.80553 16.242 1.28158 16.718C1.75764 17.1941 2.40331 17.4615 3.07655 17.4615H14.9227C15.5959 17.4615 16.2416 17.1941 16.7177 16.718C17.1937 16.242 17.4612 15.5963 17.4612 14.9231V4.76922C17.4612 4.09598 17.1937 3.45031 16.7177 2.97426C16.2416 2.4982 15.5959 2.23076 14.9227 2.23076ZM15.7689 14.9231C15.7689 15.1475 15.6797 15.3627 15.521 15.5214C15.3623 15.6801 15.1471 15.7692 14.9227 15.7692H3.07655C2.85213 15.7692 2.63691 15.6801 2.47823 15.5214C2.31954 15.3627 2.23039 15.1475 2.23039 14.9231V8.99999H15.7689V14.9231ZM15.7689 7.30768H2.23039V4.76922C2.23039 4.54481 2.31954 4.32959 2.47823 4.1709C2.63691 4.01222 2.85213 3.92307 3.07655 3.92307H4.76886V4.76922C4.76886 4.99364 4.858 5.20886 5.01669 5.36754C5.17537 5.52623 5.39059 5.61538 5.61501 5.61538C5.83942 5.61538 6.05465 5.52623 6.21333 5.36754C6.37201 5.20886 6.46116 4.99364 6.46116 4.76922V3.92307H11.5381V4.76922C11.5381 4.99364 11.6272 5.20886 11.7859 5.36754C11.9446 5.52623 12.1598 5.61538 12.3842 5.61538C12.6087 5.61538 12.8239 5.52623 12.9826 5.36754C13.1412 5.20886 13.2304 4.99364 13.2304 4.76922V3.92307H14.9227C15.1471 3.92307 15.3623 4.01222 15.521 4.1709C15.6797 4.32959 15.7689 4.54481 15.7689 4.76922V7.30768Z" fill="#888888"/>
</svg>
