<svg width="20" height="21" viewBox="0 0 20 21" fill="none" xmlns="http://www.w3.org/2000/svg">
<path d="M8.33333 15.5003C8.55435 15.5003 8.76631 15.4125 8.92259 15.2562C9.07887 15.1 9.16667 14.888 9.16667 14.667V9.66699C9.16667 9.44598 9.07887 9.23402 8.92259 9.07774C8.76631 8.92146 8.55435 8.83366 8.33333 8.83366C8.11232 8.83366 7.90036 8.92146 7.74408 9.07774C7.5878 9.23402 7.5 9.44598 7.5 9.66699V14.667C7.5 14.888 7.5878 15.1 7.74408 15.2562C7.90036 15.4125 8.11232 15.5003 8.33333 15.5003ZM16.6667 5.50033H13.3333V4.66699C13.3333 4.00395 13.0699 3.36807 12.6011 2.89923C12.1323 2.43038 11.4964 2.16699 10.8333 2.16699H9.16667C8.50363 2.16699 7.86774 2.43038 7.3989 2.89923C6.93006 3.36807 6.66667 4.00395 6.66667 4.66699V5.50033H3.33333C3.11232 5.50033 2.90036 5.58812 2.74408 5.7444C2.5878 5.90068 2.5 6.11265 2.5 6.33366C2.5 6.55467 2.5878 6.76663 2.74408 6.92291C2.90036 7.07919 3.11232 7.16699 3.33333 7.16699H4.16667V16.3337C4.16667 16.9967 4.43006 17.6326 4.8989 18.1014C5.36774 18.5703 6.00363 18.8337 6.66667 18.8337H13.3333C13.9964 18.8337 14.6323 18.5703 15.1011 18.1014C15.5699 17.6326 15.8333 16.9967 15.8333 16.3337V7.16699H16.6667C16.8877 7.16699 17.0996 7.07919 17.2559 6.92291C17.4122 6.76663 17.5 6.55467 17.5 6.33366C17.5 6.11265 17.4122 5.90068 17.2559 5.7444C17.0996 5.58812 16.8877 5.50033 16.6667 5.50033ZM8.33333 4.66699C8.33333 4.44598 8.42113 4.23402 8.57741 4.07774C8.73369 3.92146 8.94565 3.83366 9.16667 3.83366H10.8333C11.0543 3.83366 11.2663 3.92146 11.4226 4.07774C11.5789 4.23402 11.6667 4.44598 11.6667 4.66699V5.50033H8.33333V4.66699ZM14.1667 16.3337C14.1667 16.5547 14.0789 16.7666 13.9226 16.9229C13.7663 17.0792 13.5543 17.167 13.3333 17.167H6.66667C6.44565 17.167 6.23369 17.0792 6.07741 16.9229C5.92113 16.7666 5.83333 16.5547 5.83333 16.3337V7.16699H14.1667V16.3337ZM11.6667 15.5003C11.8877 15.5003 12.0996 15.4125 12.2559 15.2562C12.4122 15.1 12.5 14.888 12.5 14.667V9.66699C12.5 9.44598 12.4122 9.23402 12.2559 9.07774C12.0996 8.92146 11.8877 8.83366 11.6667 8.83366C11.4457 8.83366 11.2337 8.92146 11.0774 9.07774C10.9211 9.23402 10.8333 9.44598 10.8333 9.66699V14.667C10.8333 14.888 10.9211 15.1 11.0774 15.2562C11.2337 15.4125 11.4457 15.5003 11.6667 15.5003Z" fill="#0056A1"/>
</svg>
