<svg width="16" height="18" viewBox="0 0 16 18" fill="none" xmlns="http://www.w3.org/2000/svg">
<path d="M6.33333 14C6.55435 14 6.76631 13.9122 6.92259 13.7559C7.07887 13.5996 7.16667 13.3876 7.16667 13.1666V8.16663C7.16667 7.94561 7.07887 7.73365 6.92259 7.57737C6.76631 7.42109 6.55435 7.33329 6.33333 7.33329C6.11232 7.33329 5.90036 7.42109 5.74408 7.57737C5.5878 7.73365 5.5 7.94561 5.5 8.16663V13.1666C5.5 13.3876 5.5878 13.5996 5.74408 13.7559C5.90036 13.9122 6.11232 14 6.33333 14ZM14.6667 3.99996H11.3333V3.16663C11.3333 2.50358 11.0699 1.8677 10.6011 1.39886C10.1323 0.930018 9.49637 0.666626 8.83333 0.666626H7.16667C6.50363 0.666626 5.86774 0.930018 5.3989 1.39886C4.93006 1.8677 4.66667 2.50358 4.66667 3.16663V3.99996H1.33333C1.11232 3.99996 0.900358 4.08776 0.744078 4.24404C0.587797 4.40032 0.5 4.61228 0.5 4.83329C0.5 5.05431 0.587797 5.26627 0.744078 5.42255C0.900358 5.57883 1.11232 5.66663 1.33333 5.66663H2.16667V14.8333C2.16667 15.4963 2.43006 16.1322 2.8989 16.6011C3.36774 17.0699 4.00363 17.3333 4.66667 17.3333H11.3333C11.9964 17.3333 12.6323 17.0699 13.1011 16.6011C13.5699 16.1322 13.8333 15.4963 13.8333 14.8333V5.66663H14.6667C14.8877 5.66663 15.0996 5.57883 15.2559 5.42255C15.4122 5.26627 15.5 5.05431 15.5 4.83329C15.5 4.61228 15.4122 4.40032 15.2559 4.24404C15.0996 4.08776 14.8877 3.99996 14.6667 3.99996ZM6.33333 3.16663C6.33333 2.94561 6.42113 2.73365 6.57741 2.57737C6.73369 2.42109 6.94565 2.33329 7.16667 2.33329H8.83333C9.05435 2.33329 9.26631 2.42109 9.42259 2.57737C9.57887 2.73365 9.66667 2.94561 9.66667 3.16663V3.99996H6.33333V3.16663ZM12.1667 14.8333C12.1667 15.0543 12.0789 15.2663 11.9226 15.4225C11.7663 15.5788 11.5543 15.6666 11.3333 15.6666H4.66667C4.44565 15.6666 4.23369 15.5788 4.07741 15.4225C3.92113 15.2663 3.83333 15.0543 3.83333 14.8333V5.66663H12.1667V14.8333ZM9.66667 14C9.88768 14 10.0996 13.9122 10.2559 13.7559C10.4122 13.5996 10.5 13.3876 10.5 13.1666V8.16663C10.5 7.94561 10.4122 7.73365 10.2559 7.57737C10.0996 7.42109 9.88768 7.33329 9.66667 7.33329C9.44565 7.33329 9.23369 7.42109 9.07741 7.57737C8.92113 7.73365 8.83333 7.94561 8.83333 8.16663V13.1666C8.83333 13.3876 8.92113 13.5996 9.07741 13.7559C9.23369 13.9122 9.44565 14 9.66667 14Z" fill="#888888"/>
</svg>
