<svg width="18" height="16" viewBox="0 0 18 16" fill="none" xmlns="http://www.w3.org/2000/svg">
<path d="M14.8333 0.5H3.16667C2.50363 0.5 1.86774 0.763392 1.3989 1.23223C0.93006 1.70107 0.666668 2.33696 0.666668 3V9.66667C0.666668 10.3297 0.93006 10.9656 1.3989 11.4344C1.86774 11.9033 2.50363 12.1667 3.16667 12.1667H8.16667V13.8333H4.83333C4.61232 13.8333 4.40036 13.9211 4.24408 14.0774C4.0878 14.2337 4 14.4457 4 14.6667C4 14.8877 4.0878 15.0996 4.24408 15.2559C4.40036 15.4122 4.61232 15.5 4.83333 15.5H13.1667C13.3877 15.5 13.5996 15.4122 13.7559 15.2559C13.9122 15.0996 14 14.8877 14 14.6667C14 14.4457 13.9122 14.2337 13.7559 14.0774C13.5996 13.9211 13.3877 13.8333 13.1667 13.8333H9.83333V12.1667H14.8333C15.4964 12.1667 16.1323 11.9033 16.6011 11.4344C17.0699 10.9656 17.3333 10.3297 17.3333 9.66667V3C17.3333 2.33696 17.0699 1.70107 16.6011 1.23223C16.1323 0.763392 15.4964 0.5 14.8333 0.5ZM15.6667 9.66667C15.6667 9.88768 15.5789 10.0996 15.4226 10.2559C15.2663 10.4122 15.0543 10.5 14.8333 10.5H3.16667C2.94565 10.5 2.73369 10.4122 2.57741 10.2559C2.42113 10.0996 2.33333 9.88768 2.33333 9.66667V3C2.33333 2.77899 2.42113 2.56702 2.57741 2.41074C2.73369 2.25446 2.94565 2.16667 3.16667 2.16667H14.8333C15.0543 2.16667 15.2663 2.25446 15.4226 2.41074C15.5789 2.56702 15.6667 2.77899 15.6667 3V9.66667Z" fill="white"/>
</svg>
