<svg width="10" height="18" viewBox="0 0 10 18" fill="none" xmlns="http://www.w3.org/2000/svg">
<path d="M6.66667 8.1665H5.83333V4.83317H7.5C7.72101 4.83317 7.93297 4.92097 8.08926 5.07725C8.24554 5.23353 8.33333 5.44549 8.33333 5.6665C8.33333 5.88752 8.42113 6.09948 8.57741 6.25576C8.73369 6.41204 8.94565 6.49984 9.16667 6.49984C9.38768 6.49984 9.59964 6.41204 9.75592 6.25576C9.9122 6.09948 10 5.88752 10 5.6665C10 5.00346 9.73661 4.36758 9.26777 3.89874C8.79893 3.4299 8.16304 3.1665 7.5 3.1665H5.83333V1.49984C5.83333 1.27882 5.74554 1.06686 5.58926 0.910582C5.43297 0.754301 5.22101 0.666504 5 0.666504C4.77899 0.666504 4.56702 0.754301 4.41074 0.910582C4.25446 1.06686 4.16667 1.27882 4.16667 1.49984V3.1665H3.33333C2.44928 3.1665 1.60143 3.51769 0.976311 4.14281C0.351189 4.76794 0 5.61578 0 6.49984C0 7.38389 0.351189 8.23174 0.976311 8.85686C1.60143 9.48198 2.44928 9.83317 3.33333 9.83317H4.16667V13.1665H2.5C2.27899 13.1665 2.06702 13.0787 1.91074 12.9224C1.75446 12.7661 1.66667 12.5542 1.66667 12.3332C1.66667 12.1122 1.57887 11.9002 1.42259 11.7439C1.26631 11.5876 1.05435 11.4998 0.833333 11.4998C0.61232 11.4998 0.400358 11.5876 0.244078 11.7439C0.0877975 11.9002 0 12.1122 0 12.3332C0 12.9962 0.263392 13.6321 0.732233 14.1009C1.20107 14.5698 1.83696 14.8332 2.5 14.8332H4.16667V16.4998C4.16667 16.7209 4.25446 16.9328 4.41074 17.0891C4.56702 17.2454 4.77899 17.3332 5 17.3332C5.22101 17.3332 5.43297 17.2454 5.58926 17.0891C5.74554 16.9328 5.83333 16.7209 5.83333 16.4998V14.8332H6.66667C7.55072 14.8332 8.39857 14.482 9.02369 13.8569C9.64881 13.2317 10 12.3839 10 11.4998C10 10.6158 9.64881 9.76794 9.02369 9.14281C8.39857 8.51769 7.55072 8.1665 6.66667 8.1665ZM4.16667 8.1665H3.33333C2.89131 8.1665 2.46738 7.99091 2.15482 7.67835C1.84226 7.36579 1.66667 6.94186 1.66667 6.49984C1.66667 6.05781 1.84226 5.63389 2.15482 5.32133C2.46738 5.00877 2.89131 4.83317 3.33333 4.83317H4.16667V8.1665ZM6.66667 13.1665H5.83333V9.83317H6.66667C7.10869 9.83317 7.53262 10.0088 7.84518 10.3213C8.15774 10.6339 8.33333 11.0578 8.33333 11.4998C8.33333 11.9419 8.15774 12.3658 7.84518 12.6783C7.53262 12.9909 7.10869 13.1665 6.66667 13.1665Z" fill="white"/>
</svg>
