<svg width="22" height="24" viewBox="0 0 22 24" fill="none" xmlns="http://www.w3.org/2000/svg">
<path d="M6.55945 13.2655C6.45209 13.372 6.36688 13.4987 6.30872 13.6383C6.25057 13.7779 6.22063 13.9276 6.22063 14.0788C6.22063 14.23 6.25057 14.3797 6.30872 14.5193C6.36688 14.6589 6.45209 14.7856 6.55945 14.8921L9.99582 18.3284C10.1023 18.4358 10.229 18.521 10.3686 18.5792C10.5082 18.6373 10.6579 18.6673 10.8091 18.6673C10.9603 18.6673 11.11 18.6373 11.2496 18.5792C11.3892 18.521 11.5159 18.4358 11.6224 18.3284L15.0587 14.8921C15.2744 14.6764 15.3956 14.3838 15.3956 14.0788C15.3956 13.7738 15.2744 13.4812 15.0587 13.2655C14.843 13.0498 14.5505 12.9287 14.2455 12.9287C13.9404 12.9287 13.6479 13.0498 13.4322 13.2655L11.9545 14.7546V1.4788C11.9545 1.175 11.8339 0.883654 11.619 0.668839C11.4042 0.454025 11.1129 0.333344 10.8091 0.333344C10.5053 0.333344 10.2139 0.454025 9.99913 0.668839C9.78432 0.883654 9.66364 1.175 9.66364 1.4788V14.7546L8.186 13.2655C8.07951 13.1582 7.95283 13.0729 7.81324 13.0148C7.67366 12.9566 7.52394 12.9267 7.37273 12.9267C7.22151 12.9267 7.0718 12.9566 6.93221 13.0148C6.79263 13.0729 6.66594 13.1582 6.55945 13.2655ZM17.6818 8.35153H15.3909C15.0871 8.35153 14.7958 8.47221 14.5809 8.68702C14.3661 8.90184 14.2455 9.19319 14.2455 9.49698C14.2455 9.80077 14.3661 10.0921 14.5809 10.3069C14.7958 10.5218 15.0871 10.6424 15.3909 10.6424H17.6818C17.9856 10.6424 18.277 10.7631 18.4918 10.9779C18.7066 11.1927 18.8273 11.4841 18.8273 11.7879V19.8061C18.8273 20.1099 18.7066 20.4012 18.4918 20.616C18.277 20.8308 17.9856 20.9515 17.6818 20.9515H3.93636C3.63257 20.9515 3.34122 20.8308 3.12641 20.616C2.91159 20.4012 2.79091 20.1099 2.79091 19.8061V11.7879C2.79091 11.4841 2.91159 11.1927 3.12641 10.9779C3.34122 10.7631 3.63257 10.6424 3.93636 10.6424H6.22727C6.53107 10.6424 6.82242 10.5218 7.03723 10.3069C7.25205 10.0921 7.37273 9.80077 7.37273 9.49698C7.37273 9.19319 7.25205 8.90184 7.03723 8.68702C6.82242 8.47221 6.53107 8.35153 6.22727 8.35153H3.93636C3.02498 8.35153 2.15093 8.71357 1.50649 9.35801C0.862045 10.0025 0.5 10.8765 0.5 11.7879V19.8061C0.5 20.7175 0.862045 21.5915 1.50649 22.2359C2.15093 22.8804 3.02498 23.2424 3.93636 23.2424H17.6818C18.5932 23.2424 19.4672 22.8804 20.1117 22.2359C20.7561 21.5915 21.1182 20.7175 21.1182 19.8061V11.7879C21.1182 10.8765 20.7561 10.0025 20.1117 9.35801C19.4672 8.71357 18.5932 8.35153 17.6818 8.35153Z" fill="white"/>
</svg>
