<svg width="17" height="19" viewBox="0 0 17 19" fill="none" xmlns="http://www.w3.org/2000/svg">
<path d="M5.511 10.9943C5.42664 11.0779 5.35969 11.1775 5.314 11.2871C5.26831 11.3968 5.24478 11.5144 5.24478 11.6333C5.24478 11.7521 5.26831 11.8697 5.314 11.9794C5.35969 12.089 5.42664 12.1886 5.511 12.2723L8.211 14.9723C8.29467 15.0566 8.39421 15.1236 8.50388 15.1693C8.61355 15.2149 8.73119 15.2385 8.85 15.2385C8.96881 15.2385 9.08644 15.2149 9.19612 15.1693C9.30579 15.1236 9.40533 15.0566 9.489 14.9723L12.189 12.2723C12.3585 12.1028 12.4537 11.8729 12.4537 11.6333C12.4537 11.3936 12.3585 11.1637 12.189 10.9943C12.0195 10.8248 11.7897 10.7296 11.55 10.7296C11.3103 10.7296 11.0805 10.8248 10.911 10.9943L9.75 12.1643V1.73325C9.75 1.49456 9.65518 1.26564 9.48639 1.09686C9.31761 0.928073 9.08869 0.833252 8.85 0.833252C8.6113 0.833252 8.38239 0.928073 8.2136 1.09686C8.04482 1.26564 7.95 1.49456 7.95 1.73325V12.1643L6.789 10.9943C6.70533 10.9099 6.60579 10.8429 6.49612 10.7972C6.38645 10.7516 6.26881 10.728 6.15 10.728C6.03119 10.728 5.91355 10.7516 5.80388 10.7972C5.69421 10.8429 5.59467 10.9099 5.511 10.9943ZM14.25 7.13325H12.45C12.2113 7.13325 11.9824 7.22807 11.8136 7.39686C11.6448 7.56564 11.55 7.79456 11.55 8.03325C11.55 8.27195 11.6448 8.50086 11.8136 8.66965C11.9824 8.83843 12.2113 8.93325 12.45 8.93325H14.25C14.4887 8.93325 14.7176 9.02807 14.8864 9.19686C15.0552 9.36564 15.15 9.59456 15.15 9.83325V16.1333C15.15 16.3719 15.0552 16.6009 14.8864 16.7696C14.7176 16.9384 14.4887 17.0333 14.25 17.0333H3.45C3.2113 17.0333 2.98239 16.9384 2.8136 16.7696C2.64482 16.6009 2.55 16.3719 2.55 16.1333V9.83325C2.55 9.59456 2.64482 9.36564 2.8136 9.19686C2.98239 9.02807 3.2113 8.93325 3.45 8.93325H5.25C5.48869 8.93325 5.71761 8.83843 5.88639 8.66965C6.05518 8.50086 6.15 8.27195 6.15 8.03325C6.15 7.79456 6.05518 7.56564 5.88639 7.39686C5.71761 7.22807 5.48869 7.13325 5.25 7.13325H3.45C2.73392 7.13325 2.04716 7.41772 1.54081 7.92406C1.03446 8.43041 0.75 9.11717 0.75 9.83325V16.1333C0.75 16.8493 1.03446 17.5361 1.54081 18.0424C2.04716 18.5488 2.73392 18.8333 3.45 18.8333H14.25C14.9661 18.8333 15.6528 18.5488 16.1592 18.0424C16.6655 17.5361 16.95 16.8493 16.95 16.1333V9.83325C16.95 9.11717 16.6655 8.43041 16.1592 7.92406C15.6528 7.41772 14.9661 7.13325 14.25 7.13325Z" fill="white"/>
</svg>
