<svg width="16" height="18" viewBox="0 0 16 18" fill="none" xmlns="http://www.w3.org/2000/svg">
<path d="M4.82818 9.90396C4.75149 9.98002 4.69063 10.0705 4.64909 10.1702C4.60755 10.2699 4.58616 10.3769 4.58616 10.4849C4.58616 10.5929 4.60755 10.6998 4.64909 10.7995C4.69063 10.8992 4.75149 10.9897 4.82818 11.0658L7.28273 13.5203C7.35879 13.597 7.44928 13.6579 7.54898 13.6994C7.64868 13.741 7.75563 13.7623 7.86364 13.7623C7.97165 13.7623 8.07859 13.741 8.17829 13.6994C8.27799 13.6579 8.36848 13.597 8.44455 13.5203L10.8991 11.0658C11.0532 10.9117 11.1397 10.7028 11.1397 10.4849C11.1397 10.267 11.0532 10.058 10.8991 9.90396C10.745 9.74989 10.5361 9.66334 10.3182 9.66334C10.1003 9.66334 9.89134 9.74989 9.73727 9.90396L8.68182 10.9676V1.48487C8.68182 1.26787 8.59562 1.05977 8.44218 0.906327C8.28874 0.752888 8.08063 0.666687 7.86364 0.666687C7.64664 0.666687 7.43853 0.752888 7.28509 0.906327C7.13166 1.05977 7.04545 1.26787 7.04545 1.48487V10.9676L5.99 9.90396C5.91394 9.82727 5.82345 9.76641 5.72374 9.72487C5.62404 9.68333 5.5171 9.66194 5.40909 9.66194C5.30108 9.66194 5.19414 9.68333 5.09444 9.72487C4.99473 9.76641 4.90424 9.82727 4.82818 9.90396ZM12.7727 6.39396H11.1364C10.9194 6.39396 10.7113 6.48016 10.5578 6.6336C10.4044 6.78704 10.3182 6.99515 10.3182 7.21214C10.3182 7.42914 10.4044 7.63725 10.5578 7.79068C10.7113 7.94412 10.9194 8.03032 11.1364 8.03032H12.7727C12.9897 8.03032 13.1978 8.11653 13.3513 8.26996C13.5047 8.4234 13.5909 8.63151 13.5909 8.84851V14.5758C13.5909 14.7928 13.5047 15.0009 13.3513 15.1543C13.1978 15.3078 12.9897 15.394 12.7727 15.394H2.95455C2.73755 15.394 2.52944 15.3078 2.376 15.1543C2.22256 15.0009 2.13636 14.7928 2.13636 14.5758V8.84851C2.13636 8.63151 2.22256 8.4234 2.376 8.26996C2.52944 8.11653 2.73755 8.03032 2.95455 8.03032H4.59091C4.8079 8.03032 5.01601 7.94412 5.16945 7.79068C5.32289 7.63725 5.40909 7.42914 5.40909 7.21214C5.40909 6.99515 5.32289 6.78704 5.16945 6.6336C5.01601 6.48016 4.8079 6.39396 4.59091 6.39396H2.95455C2.30356 6.39396 1.67924 6.65256 1.21892 7.11288C0.758603 7.5732 0.5 8.19752 0.5 8.84851V14.5758C0.5 15.2268 0.758603 15.8511 1.21892 16.3114C1.67924 16.7717 2.30356 17.0303 2.95455 17.0303H12.7727C13.4237 17.0303 14.048 16.7717 14.5084 16.3114C14.9687 15.8511 15.2273 15.2268 15.2273 14.5758V8.84851C15.2273 8.19752 14.9687 7.5732 14.5084 7.11288C14.048 6.65256 13.4237 6.39396 12.7727 6.39396Z" fill="#0056A1"/>
</svg>
