<svg width="12" height="13" viewBox="0 0 12 13" fill="none" xmlns="http://www.w3.org/2000/svg">
<path d="M10.6115 11.5845C10.7908 11.5848 10.9632 11.6531 11.0941 11.7756C11.2249 11.898 11.3044 12.0656 11.3165 12.2445C11.3286 12.4233 11.2724 12.6001 11.1593 12.7391C11.0461 12.8781 10.8844 12.969 10.7068 12.9934L10.6115 13H0.707548C0.528226 12.9999 0.355609 12.9318 0.224578 12.8094C0.0935464 12.687 0.0138697 12.5194 0.00164709 12.3405C-0.0105755 12.1616 0.0455675 11.9847 0.158732 11.8456C0.271896 11.7065 0.433643 11.6155 0.611292 11.5911L0.707548 11.5845H10.6115ZM5.66567 0C5.8367 7.21249e-06 6.00195 0.061946 6.13084 0.174362C6.25974 0.286778 6.34357 0.442066 6.36683 0.611508L6.37343 0.707764L6.37249 8.22967L9.17146 5.42692C9.29123 5.30667 9.45023 5.23346 9.61947 5.22064C9.78871 5.20783 9.95692 5.25625 10.0934 5.35709L10.1727 5.42504C10.2928 5.54493 10.3659 5.70399 10.3785 5.87323C10.3911 6.04246 10.3426 6.21061 10.2416 6.34702L10.1737 6.42629L6.1696 10.437L6.10354 10.4964L6.01672 10.5521L5.98275 10.5719L5.89687 10.6078L5.78363 10.6361L5.71757 10.6436L5.66095 10.6455C5.61337 10.6454 5.56593 10.6403 5.5194 10.6304L5.44202 10.6087C5.35268 10.5797 5.27017 10.5328 5.19949 10.4709L1.15108 6.42723C1.02412 6.3011 0.949652 6.13156 0.942671 5.95273C0.935691 5.7739 0.996714 5.59907 1.11346 5.46343C1.2302 5.32778 1.394 5.2414 1.57187 5.22167C1.74974 5.20194 1.92849 5.25033 2.07212 5.35709L2.15139 5.42598L4.95696 8.2259V0.707764C4.95696 0.520053 5.03153 0.340031 5.16426 0.207299C5.29699 0.0745677 5.47796 0 5.66567 0Z" fill="white"/>
</svg>
