<svg width="16" height="16" viewBox="0 0 16 16" fill="none" xmlns="http://www.w3.org/2000/svg">
<path d="M15.9988 4.1917C15.9994 4.08642 15.9792 3.98206 15.9394 3.8846C15.8996 3.78714 15.841 3.69849 15.7668 3.62374L12.3751 0.231996C12.3003 0.157856 12.2117 0.0992007 12.1142 0.0593919C12.0168 0.0195832 11.9124 -0.000595299 11.8071 1.33704e-05C11.7019 -0.000595299 11.5975 0.0195832 11.5 0.0593919C11.4026 0.0992007 11.3139 0.157856 11.2392 0.231996L8.97534 2.49583L0.231996 11.2392C0.157856 11.3139 0.0992007 11.4026 0.0593919 11.5C0.0195832 11.5975 -0.000595299 11.7019 1.33704e-05 11.8071V15.1989C1.33704e-05 15.411 0.0842925 15.6145 0.23431 15.7645C0.384328 15.9145 0.587796 15.9988 0.799954 15.9988H4.1917C4.30363 16.0049 4.4156 15.9874 4.52033 15.9474C4.62506 15.9075 4.72023 15.8459 4.79965 15.7668L13.495 7.02349L15.7668 4.79965C15.8399 4.72213 15.8993 4.63289 15.9428 4.53568C15.9505 4.47191 15.9505 4.40745 15.9428 4.34369C15.9466 4.30645 15.9466 4.26893 15.9428 4.2317L15.9988 4.1917ZM3.86372 14.3989H1.59989V12.1351L9.5433 4.1917L11.8071 6.45553L3.86372 14.3989ZM12.935 5.32762L10.6712 3.06378L11.8071 1.93587L14.063 4.1917L12.935 5.32762Z" fill="#888888"/>
</svg>
