<svg width="22" height="18" viewBox="0 0 22 18" fill="none" xmlns="http://www.w3.org/2000/svg">
<path d="M18.5834 0.333313H3.41675C2.55479 0.333313 1.72814 0.675723 1.11865 1.28522C0.509158 1.89471 0.166748 2.72136 0.166748 3.58331V14.4166C0.166748 15.2786 0.509158 16.1052 1.11865 16.7147C1.72814 17.3242 2.55479 17.6666 3.41675 17.6666H18.5834C19.4454 17.6666 20.272 17.3242 20.8815 16.7147C21.491 16.1052 21.8334 15.2786 21.8334 14.4166V3.58331C21.8334 2.72136 21.491 1.89471 20.8815 1.28522C20.272 0.675723 19.4454 0.333313 18.5834 0.333313V0.333313ZM3.41675 2.49998H18.5834C18.8707 2.49998 19.1463 2.61412 19.3494 2.81728C19.5526 3.02044 19.6667 3.29599 19.6667 3.58331L11.0001 8.86998L2.33341 3.58331C2.33341 3.29599 2.44755 3.02044 2.65072 2.81728C2.85388 2.61412 3.12943 2.49998 3.41675 2.49998V2.49998ZM19.6667 14.4166C19.6667 14.704 19.5526 14.9795 19.3494 15.1827C19.1463 15.3858 18.8707 15.5 18.5834 15.5H3.41675C3.12943 15.5 2.85388 15.3858 2.65072 15.1827C2.44755 14.9795 2.33341 14.704 2.33341 14.4166V6.05331L10.4367 11.0041C10.6014 11.0992 10.7882 11.1493 10.9784 11.1493C11.1686 11.1493 11.3554 11.0992 11.5201 11.0041L19.6667 6.05331V14.4166Z" fill="#3CBD95"/>
</svg>
