<svg width="30" height="30" viewBox="0 0 30 30" fill="none" xmlns="http://www.w3.org/2000/svg">
<path d="M18.3572 14.3906L7.98001 12.5625V26.0709C7.98013 26.2177 8.00916 26.363 8.06543 26.4985C8.12171 26.6341 8.20413 26.7572 8.30798 26.8609C8.41184 26.9645 8.5351 27.0468 8.67073 27.1028C8.80636 27.1588 8.9517 27.1876 9.09845 27.1875H27.0047C27.1516 27.1879 27.2971 27.1593 27.433 27.1033C27.5688 27.0474 27.6923 26.9652 27.7964 26.8615C27.9004 26.7578 27.983 26.6346 28.0394 26.499C28.0958 26.3633 28.1249 26.2179 28.125 26.0709V21.0938L18.3572 14.3906Z" fill="#185C37"/>
<path d="M18.3572 2.8125H9.09845C8.9517 2.81238 8.80636 2.84116 8.67073 2.89721C8.5351 2.95325 8.41184 3.03546 8.30798 3.13915C8.20413 3.24283 8.12171 3.36595 8.06543 3.50149C8.00916 3.63702 7.98013 3.78231 7.98001 3.92906V8.90625L18.3572 15L23.8519 16.8281L28.125 15V8.90625L18.3572 2.8125Z" fill="#21A366"/>
<path d="M7.98001 8.90625H18.3572V15H7.98001V8.90625Z" fill="#107C41"/>
<path opacity="0.1" d="M15.4069 7.6875H7.98001V22.9219H15.4069C15.7028 22.9204 15.9863 22.8024 16.1958 22.5934C16.4053 22.3844 16.524 22.1012 16.5263 21.8053V8.80406C16.524 8.50813 16.4053 8.22499 16.1958 8.01599C15.9863 7.80699 15.7028 7.68897 15.4069 7.6875Z" fill="black"/>
<path opacity="0.2" d="M14.7966 8.29688H7.98001V23.5312H14.7966C15.0925 23.5298 15.3759 23.4118 15.5855 23.2028C15.795 22.9938 15.9137 22.7106 15.9159 22.4147V9.41344C15.9137 9.11751 15.795 8.83436 15.5855 8.62537C15.3759 8.41637 15.0925 8.29835 14.7966 8.29688Z" fill="black"/>
<path opacity="0.2" d="M14.7966 8.29688H7.98001V22.3125H14.7966C15.0925 22.311 15.3759 22.193 15.5855 21.984C15.795 21.775 15.9137 21.4919 15.9159 21.1959V9.41344C15.9137 9.11751 15.795 8.83436 15.5855 8.62537C15.3759 8.41637 15.0925 8.29835 14.7966 8.29688Z" fill="black"/>
<path opacity="0.2" d="M14.1863 8.29688H7.98001V22.3125H14.1863C14.4822 22.311 14.7656 22.193 14.9752 21.984C15.1847 21.775 15.3034 21.4919 15.3056 21.1959V9.41344C15.3034 9.11751 15.1847 8.83436 14.9752 8.62537C14.7656 8.41637 14.4822 8.29835 14.1863 8.29688Z" fill="black"/>
<path d="M2.99437 8.29688H14.1862C14.4827 8.29663 14.7672 8.41409 14.977 8.62346C15.1869 8.83283 15.3051 9.11697 15.3056 9.41344V20.5866C15.3051 20.883 15.1869 21.1672 14.977 21.3765C14.7672 21.5859 14.4827 21.7034 14.1862 21.7031H2.99437C2.84754 21.7034 2.7021 21.6747 2.56637 21.6187C2.43063 21.5627 2.30726 21.4805 2.2033 21.3768C2.09935 21.2731 2.01684 21.15 1.96051 21.0144C1.90418 20.8788 1.87512 20.7334 1.875 20.5866V9.41344C1.87512 9.26661 1.90418 9.12124 1.96051 8.98564C2.01684 8.85005 2.09935 8.72688 2.2033 8.62319C2.30726 8.5195 2.43063 8.4373 2.56637 8.38131C2.7021 8.32532 2.84754 8.29663 2.99437 8.29688Z" fill="url(#paint0_linear_1521_6483)"/>
<path d="M5.34375 18.6309L7.69781 14.9896L5.54156 11.369H7.27313L8.44969 13.6875C8.55844 13.9068 8.63719 14.07 8.67281 14.1787H8.68875C8.76562 14.0025 8.84719 13.8328 8.9325 13.6668L10.1906 11.3728H11.7844L9.57281 14.9728L11.8406 18.6337H10.1447L8.78531 16.0921C8.72219 15.9829 8.66856 15.8684 8.625 15.75H8.6025C8.56286 15.8653 8.51001 15.9758 8.445 16.079L7.04531 18.6309H5.34375Z" fill="white"/>
<path d="M27.0056 2.8125H18.3572V8.90625H28.125V3.92906C28.1249 3.78223 28.0958 3.63687 28.0395 3.50127C27.9831 3.36567 27.9006 3.24251 27.7967 3.13881C27.6927 3.03512 27.5694 2.95293 27.4336 2.89694C27.2979 2.84095 27.1524 2.81226 27.0056 2.8125Z" fill="#33C481"/>
<path d="M18.3572 15H28.125V21.0938H18.3572V15Z" fill="#107C41"/>
<defs>
<linearGradient id="paint0_linear_1521_6483" x1="4.21312" y1="7.41938" x2="12.9675" y2="22.5806" gradientUnits="userSpaceOnUse">
<stop stop-color="#18884F"/>
<stop offset="0.5" stop-color="#117E43"/>
<stop offset="1" stop-color="#0B6631"/>
</linearGradient>
</defs>
</svg>
