<svg width="16" height="13" viewBox="0 0 16 13" fill="none" xmlns="http://www.w3.org/2000/svg">
<path d="M12 10.8791H1.6V3.67914H3.676C3.676 3.67914 4.2272 2.96234 5.412 2.07914H0.8C0.587827 2.07914 0.384344 2.16342 0.234315 2.31345C0.0842855 2.46348 0 2.66697 0 2.87914L0 11.6791C0 11.8913 0.0842855 12.0948 0.234315 12.2448C0.384344 12.3949 0.587827 12.4791 0.8 12.4791H12.8C13.0122 12.4791 13.2157 12.3949 13.3657 12.2448C13.5157 12.0948 13.6 11.8913 13.6 11.6791V8.68234L12 9.99834V10.8791ZM10.6888 5.31914V8.15994L16 3.99914L10.6888 -6.10352e-05V2.50474C4.24 2.50474 4.24 8.87914 4.24 8.87914C6.0656 5.88074 7.1888 5.31914 10.6888 5.31914Z" fill="white"/>
</svg>
