<svg width="16" height="20" viewBox="0 0 16 20" fill="none" xmlns="http://www.w3.org/2000/svg">
<path d="M5.24996 8.16659H6.16663C6.40974 8.16659 6.6429 8.07001 6.81481 7.8981C6.98671 7.72619 7.08329 7.49303 7.08329 7.24992C7.08329 7.0068 6.98671 6.77365 6.81481 6.60174C6.6429 6.42983 6.40974 6.33325 6.16663 6.33325H5.24996C5.00684 6.33325 4.77369 6.42983 4.60178 6.60174C4.42987 6.77365 4.33329 7.0068 4.33329 7.24992C4.33329 7.49303 4.42987 7.72619 4.60178 7.8981C4.77369 8.07001 5.00684 8.16659 5.24996 8.16659ZM5.24996 9.99992C5.00684 9.99992 4.77369 10.0965 4.60178 10.2684C4.42987 10.4403 4.33329 10.6735 4.33329 10.9166C4.33329 11.1597 4.42987 11.3929 4.60178 11.5648C4.77369 11.7367 5.00684 11.8333 5.24996 11.8333H10.75C10.9931 11.8333 11.2262 11.7367 11.3981 11.5648C11.57 11.3929 11.6666 11.1597 11.6666 10.9166C11.6666 10.6735 11.57 10.4403 11.3981 10.2684C11.2262 10.0965 10.9931 9.99992 10.75 9.99992H5.24996ZM15.3333 7.19492C15.3237 7.11071 15.3053 7.02775 15.2783 6.94742V6.86492C15.2342 6.77067 15.1754 6.68403 15.1041 6.60825L9.60413 1.10825C9.52835 1.03695 9.44171 0.97816 9.34746 0.934085C9.3201 0.930199 9.29232 0.930199 9.26496 0.934085C9.17184 0.880681 9.069 0.846401 8.96246 0.833252H3.41663C2.68728 0.833252 1.98781 1.12298 1.47208 1.63871C0.956357 2.15443 0.666626 2.85391 0.666626 3.58325V16.4166C0.666626 17.1459 0.956357 17.8454 1.47208 18.3611C1.98781 18.8769 2.68728 19.1666 3.41663 19.1666H12.5833C13.3126 19.1666 14.0121 18.8769 14.5278 18.3611C15.0436 17.8454 15.3333 17.1459 15.3333 16.4166V7.24992C15.3333 7.24992 15.3333 7.24992 15.3333 7.19492ZM9.83329 3.95909L12.2075 6.33325H10.75C10.5068 6.33325 10.2737 6.23667 10.1018 6.06477C9.92987 5.89286 9.83329 5.6597 9.83329 5.41659V3.95909ZM13.5 16.4166C13.5 16.6597 13.4034 16.8929 13.2315 17.0648C13.0596 17.2367 12.8264 17.3333 12.5833 17.3333H3.41663C3.17351 17.3333 2.94035 17.2367 2.76844 17.0648C2.59654 16.8929 2.49996 16.6597 2.49996 16.4166V3.58325C2.49996 3.34014 2.59654 3.10698 2.76844 2.93507C2.94035 2.76316 3.17351 2.66659 3.41663 2.66659H7.99996V5.41659C7.99996 6.14593 8.28969 6.8454 8.80541 7.36113C9.32114 7.87685 10.0206 8.16659 10.75 8.16659H13.5V16.4166ZM10.75 13.6666H5.24996C5.00684 13.6666 4.77369 13.7632 4.60178 13.9351C4.42987 14.107 4.33329 14.3401 4.33329 14.5833C4.33329 14.8264 4.42987 15.0595 4.60178 15.2314C4.77369 15.4033 5.00684 15.4999 5.24996 15.4999H10.75C10.9931 15.4999 11.2262 15.4033 11.3981 15.2314C11.57 15.0595 11.6666 14.8264 11.6666 14.5833C11.6666 14.3401 11.57 14.107 11.3981 13.9351C11.2262 13.7632 10.9931 13.6666 10.75 13.6666Z" fill="#0056A1"/>
</svg>
