<svg width="16" height="16" viewBox="0 0 16 16" fill="none" xmlns="http://www.w3.org/2000/svg">
<path d="M8 15.5C7.01481 15.501 6.0391 15.3077 5.12871 14.9311C4.21832 14.5546 3.39114 14.0021 2.6945 13.3055C1.99787 12.6089 1.44546 11.7817 1.0689 10.8713C0.692337 9.96091 0.499017 8.9852 0.500004 8.00001V7.85001C0.53001 6.37956 0.991474 4.95036 1.82704 3.74002C2.66261 2.52968 3.83544 1.59158 5.19977 1.0423C6.5641 0.49302 8.05976 0.356787 9.50088 0.650532C10.942 0.944277 12.265 1.65505 13.3055 2.69451C14.3553 3.74342 15.0703 5.08018 15.3601 6.53562C15.6498 7.99106 15.5013 9.49974 14.9333 10.8707C14.3652 12.2417 13.4033 13.4134 12.1691 14.2374C10.9349 15.0615 9.484 15.5009 8 15.5ZM8 9.05751L9.9425 11L11 9.94251L9.0575 8.00001L11 6.05751L9.9425 5.00001L8 6.94251L6.0575 5.00001L5 6.05751L6.9425 8.00001L5 9.94251L6.0575 11L8 9.05826V9.05751Z" fill="#0056A1"/>
</svg>
