<svg width="20" height="20" viewBox="0 0 20 20" fill="none" xmlns="http://www.w3.org/2000/svg">
<g id="local_fire_department">
<mask id="mask0_12145_12818" style="mask-type:alpha" maskUnits="userSpaceOnUse" x="0" y="0" width="20" height="20">
<rect id="Bounding box" width="20" height="20" fill="#0056A1"/>
</mask>
<g mask="url(#mask0_12145_12818)">
<path id="local_fire_department_2" d="M10.0007 18.3331C8.13954 18.3331 6.56315 17.6873 5.27148 16.3956C3.97982 15.1039 3.33398 13.5275 3.33398 11.6664C3.33398 10.097 3.79926 8.59004 4.72982 7.14559C5.66037 5.70115 6.93815 4.43726 8.56315 3.35393C8.86871 3.14559 9.18468 3.13518 9.51107 3.32268C9.83746 3.51018 10.0007 3.79143 10.0007 4.16643V5.24976C10.0007 5.72198 10.1638 6.11782 10.4902 6.43726C10.8166 6.7567 11.2159 6.91643 11.6882 6.91643C11.9243 6.91643 12.15 6.86434 12.3652 6.76018C12.5805 6.65601 12.7715 6.5067 12.9382 6.31226C13.0493 6.17337 13.1916 6.08657 13.3652 6.05184C13.5388 6.01712 13.702 6.05532 13.8548 6.16643C14.7298 6.79143 15.4173 7.59004 15.9173 8.56226C16.4173 9.53448 16.6673 10.5692 16.6673 11.6664C16.6673 13.5275 16.0215 15.1039 14.7298 16.3956C13.4382 17.6873 11.8618 18.3331 10.0007 18.3331ZM5.00065 11.6664C5.00065 12.3886 5.14648 13.0727 5.43815 13.7185C5.72982 14.3643 6.14648 14.9303 6.68815 15.4164C6.67426 15.347 6.66732 15.2845 6.66732 15.2289V15.0414C6.66732 14.597 6.75065 14.1803 6.91732 13.7914C7.08398 13.4025 7.32704 13.0484 7.64648 12.7289L10.0007 10.4164L12.3548 12.7289C12.6743 13.0484 12.9173 13.4025 13.084 13.7914C13.2507 14.1803 13.334 14.597 13.334 15.0414V15.2289C13.334 15.2845 13.327 15.347 13.3132 15.4164C13.8548 14.9303 14.2715 14.3643 14.5632 13.7185C14.8548 13.0727 15.0007 12.3886 15.0007 11.6664C15.0007 10.972 14.8722 10.3157 14.6152 9.69768C14.3583 9.07962 13.9868 8.52754 13.5007 8.04143C13.2229 8.22198 12.9312 8.3574 12.6257 8.44768C12.3201 8.53795 12.0076 8.58309 11.6882 8.58309C10.827 8.58309 10.0805 8.29837 9.44857 7.72893C8.81662 7.15948 8.45204 6.45809 8.35482 5.62476C7.27148 6.54143 6.44162 7.51712 5.86523 8.55184C5.28885 9.58657 5.00065 10.6248 5.00065 11.6664ZM10.0007 12.7498L8.81315 13.9164C8.66037 14.0692 8.54232 14.2428 8.45898 14.4373C8.37565 14.6317 8.33398 14.8331 8.33398 15.0414C8.33398 15.4859 8.49718 15.8678 8.82357 16.1873C9.14996 16.5067 9.54232 16.6664 10.0007 16.6664C10.459 16.6664 10.8513 16.5067 11.1777 16.1873C11.5041 15.8678 11.6673 15.4859 11.6673 15.0414C11.6673 14.8192 11.6257 14.6143 11.5423 14.4268C11.459 14.2393 11.3409 14.0692 11.1882 13.9164L10.0007 12.7498Z" fill="#0056A1"/>
</g>
</g>
</svg>
