<svg width="20" height="20" viewBox="0 0 20 20" fill="none" xmlns="http://www.w3.org/2000/svg">
<path d="M4.48822 12.0656L3.79901 14.6385L1.27994 14.6918C0.527115 13.2955 0.100098 11.6979 0.100098 10.0002C0.100098 8.35854 0.499348 6.81042 1.20705 5.44727H1.20759L3.45026 5.85843L4.43269 8.08764C4.22707 8.6871 4.115 9.3306 4.115 10.0002C4.11507 10.7269 4.24671 11.4232 4.48822 12.0656Z" fill="#FBBB00"/>
<path d="M19.7272 8.15063C19.8409 8.74951 19.9002 9.36799 19.9002 10.0001C19.9002 10.7089 19.8257 11.4002 19.6837 12.0671C19.2018 14.3365 17.9425 16.3182 16.198 17.7205L16.1975 17.72L13.3727 17.5758L12.9729 15.0801C14.1305 14.4013 15.0351 13.3389 15.5116 12.0671H10.2178V8.15063H15.5888H19.7272Z" fill="#518EF8"/>
<path d="M16.1973 17.7199L16.1978 17.7204C14.5013 19.0841 12.3461 19.9 9.99999 19.9C6.22981 19.9 2.95193 17.7928 1.27979 14.6917L4.48806 12.0654C5.32411 14.2967 7.47656 15.8851 9.99999 15.8851C11.0846 15.8851 12.1008 15.5919 12.9727 15.08L16.1973 17.7199Z" fill="#28B446"/>
<path d="M16.3193 2.37928L13.1121 5.00495C12.2097 4.44088 11.143 4.11503 10.0001 4.11503C7.41959 4.11503 5.22688 5.77627 4.43271 8.08758L1.20757 5.44721H1.20703C2.85469 2.27049 6.17392 0.100098 10.0001 0.100098C12.4023 0.100098 14.6047 0.955756 16.3193 2.37928Z" fill="#F14336"/>
</svg>
