<svg width="22" height="24" viewBox="0 0 22 24" fill="none" xmlns="http://www.w3.org/2000/svg">
<path d="M20.4217 19.7812H19.4374V14.2969H20.4217C20.6654 14.2969 20.8917 14.1707 21.0198 13.9634C21.1479 13.7561 21.1596 13.4973 21.0506 13.2793L19.6443 10.4667C19.5252 10.2285 19.2817 10.078 19.0154 10.078H16.8268L11.703 6.87577V4.92192H14.7498C15.1381 4.92192 15.4529 4.60711 15.4529 4.2188V1.40625C15.4529 1.01794 15.1381 0.703125 14.7498 0.703125H11.703C11.703 0.314812 11.3882 0 10.9999 0C10.6116 0 10.2968 0.314812 10.2968 0.703125V6.87577L5.17307 10.078H2.98447C2.71813 10.078 2.4747 10.2285 2.35559 10.4667L0.949297 13.2793C0.840313 13.4973 0.851984 13.7561 0.980094 13.9634C1.1082 14.1707 1.33452 14.2969 1.57822 14.2969H2.56245V19.7812H1.57813C1.18981 19.7812 0.875 20.0961 0.875 20.4844V23.2968C0.875 23.6851 1.18981 24 1.57813 24H20.4216C20.8099 24 21.1247 23.6851 21.1247 23.2968V20.4844C21.1248 20.0961 20.81 19.7812 20.4217 19.7812ZM18.0312 19.7812H16.6249V14.2969H18.0312V19.7812ZM13.1093 19.7812V14.2969H15.2187V19.7812H13.1093ZM10.2968 19.7812V14.2969H11.703V19.7812H10.2968ZM6.78111 19.7812V14.2969H8.89054V19.7812H6.78111ZM14.0466 2.10938V3.51562H11.703V2.10938H14.0466ZM10.9999 8.09461L14.1734 10.078H7.82638L10.9999 8.09461ZM3.419 11.4842H18.5808L19.284 12.8906H2.71583L3.419 11.4842ZM3.96861 14.2969H5.37486V19.7812H3.96861V14.2969ZM19.7185 22.5937H2.28125V21.1875H19.7185V22.5937H19.7185Z" fill="#fff"/>
</svg>
