<svg width="8" height="12" viewBox="0 0 8 12" fill="none" xmlns="http://www.w3.org/2000/svg">
<path d="M3.3335 3.66683H6.66683C6.88784 3.66683 7.09981 3.57903 7.25609 3.42275C7.41237 3.26647 7.50016 3.05451 7.50016 2.8335C7.50016 2.61248 7.41237 2.40052 7.25609 2.24424C7.09981 2.08796 6.88784 2.00016 6.66683 2.00016H5.00016V1.16683C5.00016 0.945816 4.91237 0.733854 4.75609 0.577574C4.59981 0.421294 4.38784 0.333496 4.16683 0.333496C3.94582 0.333496 3.73386 0.421294 3.57757 0.577574C3.42129 0.733854 3.3335 0.945816 3.3335 1.16683V2.00016C2.67046 2.00016 2.03457 2.26355 1.56573 2.7324C1.09689 3.20124 0.833496 3.83712 0.833496 4.50016C0.833496 5.1632 1.09689 5.79909 1.56573 6.26793C2.03457 6.73677 2.67046 7.00016 3.3335 7.00016H5.00016C5.22118 7.00016 5.43314 7.08796 5.58942 7.24424C5.7457 7.40052 5.8335 7.61248 5.8335 7.8335C5.8335 8.05451 5.7457 8.26647 5.58942 8.42275C5.43314 8.57903 5.22118 8.66683 5.00016 8.66683H1.66683C1.44582 8.66683 1.23385 8.75463 1.07757 8.91091C0.921294 9.06719 0.833496 9.27915 0.833496 9.50016C0.833496 9.72118 0.921294 9.93314 1.07757 10.0894C1.23385 10.2457 1.44582 10.3335 1.66683 10.3335H3.3335V11.1668C3.3335 11.3878 3.42129 11.5998 3.57757 11.7561C3.73386 11.9124 3.94582 12.0002 4.16683 12.0002C4.38784 12.0002 4.59981 11.9124 4.75609 11.7561C4.91237 11.5998 5.00016 11.3878 5.00016 11.1668V10.3335C5.6632 10.3335 6.29909 10.0701 6.76793 9.60126C7.23677 9.13242 7.50016 8.49654 7.50016 7.8335C7.50016 7.17045 7.23677 6.53457 6.76793 6.06573C6.29909 5.59689 5.6632 5.3335 5.00016 5.3335H3.3335C3.11248 5.3335 2.90052 5.2457 2.74424 5.08942C2.58796 4.93314 2.50016 4.72118 2.50016 4.50016C2.50016 4.27915 2.58796 4.06719 2.74424 3.91091C2.90052 3.75463 3.11248 3.66683 3.3335 3.66683Z" fill="#888888"/>
</svg>
