<svg width="25" height="25" viewBox="0 0 25 25" fill="none" xmlns="http://www.w3.org/2000/svg">
<path d="M14.9505 15.6059C14.8583 15.8111 14.8094 16.0354 14.8094 16.2676C14.8094 16.6986 14.9766 17.1032 15.2804 17.407L15.9689 18.0954C16.2831 18.4096 16.6956 18.5666 17.1083 18.5666C17.5208 18.5666 17.9336 18.4095 18.2477 18.0955L23.6673 12.676C24.2954 12.0477 24.2954 11.0255 23.6671 10.3972L22.9787 9.70873C22.4926 9.2227 21.7707 9.11306 21.1778 9.37916C20.0117 8.53304 18.8114 7.50101 17.6788 6.36839C16.6567 5.34637 15.7097 4.26102 14.9131 3.20127C15.0235 2.98047 15.0823 2.7353 15.0823 2.48073C15.0823 2.0497 14.915 1.64503 14.6113 1.3413L13.9228 0.652812C13.6191 0.349089 13.2144 0.181816 12.7833 0.181816C12.3523 0.181816 11.9476 0.349089 11.6439 0.652812L6.22444 6.07223C5.92071 6.37596 5.75344 6.78058 5.75344 7.21161C5.75344 7.64264 5.92071 8.04732 6.22444 8.35099L6.91298 9.03953C7.22716 9.35367 7.63976 9.51068 8.05241 9.51068C8.29956 9.51068 8.54661 9.45386 8.77264 9.34112C9.22592 9.68181 9.68381 10.05 10.1395 10.4399L1.00036 18.9786C0.993611 18.9849 0.987009 18.9913 0.980509 18.9978C-0.0843234 20.0626 -0.0843234 21.7951 0.980509 22.8598L1.45999 23.3393C1.99233 23.8717 2.69169 24.138 3.39099 24.138C4.0903 24.138 4.78971 23.8718 5.32205 23.3393C5.32855 23.3328 5.33495 23.3262 5.34125 23.3195L13.8575 14.2045C14.2476 14.6728 14.614 15.142 14.9505 15.6059ZM22.5085 11.5366L17.1082 16.9368L16.439 16.2675L21.8392 10.8674L22.5085 11.5366ZM19.9301 10.4784L16.0501 14.3585C15.1972 13.2171 14.1867 12.0557 13.089 10.958C12.078 9.94709 11.0419 9.03329 9.99926 8.23201L13.8037 4.42758C14.6049 5.47022 15.5187 6.50636 16.5297 7.51736C17.6273 8.61495 18.7887 9.62545 19.9301 10.4784ZM8.05231 7.88081L7.38311 7.21161L12.7833 1.81144L13.4525 2.48063L8.05231 7.88081ZM4.1646 22.1987C3.9567 22.4023 3.68248 22.5142 3.39105 22.5142C3.0957 22.5142 2.81798 22.3992 2.60906 22.1903L2.12959 21.7108C1.7012 21.2824 1.69845 20.5871 2.12121 20.1553L11.3501 11.5326C11.5486 11.7212 11.7455 11.9126 11.94 12.1071C12.2267 12.3938 12.5065 12.685 12.7789 12.9787L4.1646 22.1987Z" fill="#3CBD95"/>
</svg>
