<svg width="26" height="24" viewBox="0 0 26 24" fill="none" xmlns="http://www.w3.org/2000/svg">
<path d="M23.5138 3.24999C22.1888 1.9215 20.4323 1.11067 18.5617 0.963956C16.6912 0.817243 14.8298 1.34433 13.3138 2.44999C11.7234 1.26704 9.74381 0.730632 7.77372 0.94879C5.80363 1.16695 3.98937 2.12347 2.69629 3.62572C1.4032 5.12798 0.727349 7.06439 0.804822 9.04501C0.882296 11.0256 1.70734 12.9033 3.11382 14.3L10.8763 22.075C11.5263 22.7147 12.4018 23.0733 13.3138 23.0733C14.2258 23.0733 15.1013 22.7147 15.7513 22.075L23.5138 14.3C24.9733 12.8316 25.7925 10.8453 25.7925 8.77499C25.7925 6.70465 24.9733 4.71841 23.5138 3.24999ZM21.7513 12.575L13.9888 20.3375C13.9005 20.4267 13.7954 20.4975 13.6795 20.5458C13.5636 20.5941 13.4394 20.619 13.3138 20.619C13.1883 20.619 13.064 20.5941 12.9481 20.5458C12.8323 20.4975 12.7272 20.4267 12.6388 20.3375L4.87632 12.5375C3.89602 11.5354 3.34708 10.1893 3.34708 8.78749C3.34708 7.38566 3.89602 6.03956 4.87632 5.03749C5.87527 4.05123 7.22254 3.4982 8.62632 3.4982C10.0301 3.4982 11.3774 4.05123 12.3763 5.03749C12.4925 5.15465 12.6308 5.24765 12.7831 5.31111C12.9354 5.37457 13.0988 5.40724 13.2638 5.40724C13.4288 5.40724 13.5922 5.37457 13.7445 5.31111C13.8969 5.24765 14.0351 5.15465 14.1513 5.03749C15.1503 4.05123 16.4975 3.4982 17.9013 3.4982C19.3051 3.4982 20.6524 4.05123 21.6513 5.03749C22.6451 6.02643 23.2121 7.36523 23.2307 8.7671C23.2494 10.169 22.7184 11.5224 21.7513 12.5375V12.575Z" fill="white"/>
</svg>
