<svg width="135" height="103" viewBox="0 0 135 103" fill="none" xmlns="http://www.w3.org/2000/svg">
<path fill-rule="evenodd" clip-rule="evenodd" d="M-61.5678 29.741C-85.3751 11.0106 -104.244 -16.3975 -102.017 -46.4747C-99.9494 -74.3964 -73.5187 -90.9342 -51.3687 -107.99C-30.4356 -124.108 -8.81123 -141.366 17.5693 -138.557C47.3517 -135.385 76.4931 -119.721 89.9398 -92.9395C103.39 -66.1505 95.6782 -35.0715 83.112 -8.01526C70.568 18.993 51.6363 44.1619 22.7637 51.6967C-6.71863 59.3905 -37.5257 48.6561 -61.5678 29.741Z" fill="#F1EEB0"/>
<path fill-rule="evenodd" clip-rule="evenodd" d="M-65.5678 43.741C-89.3751 25.0106 -108.244 -2.39751 -106.017 -32.4747C-103.949 -60.3964 -77.5187 -76.9342 -55.3687 -93.9898C-34.4356 -110.108 -12.8112 -127.366 13.5693 -124.557C43.3517 -121.385 72.4931 -105.721 85.9398 -78.9395C99.3901 -52.1505 91.6782 -21.0715 79.112 5.98474C66.568 32.993 47.6363 58.1619 18.7637 65.6967C-10.7186 73.3905 -41.5257 62.6561 -65.5678 43.741Z" stroke="#F1EEB0" stroke-width="2"/>
</svg>
