<svg width="124" height="59" viewBox="0 0 124 59" fill="none" xmlns="http://www.w3.org/2000/svg">
<path fill-rule="evenodd" clip-rule="evenodd" d="M109.856 206.82C79.6226 208.703 47.2934 200.824 28.9237 176.905C11.8706 154.699 20.5729 124.76 25.737 97.2854C30.6175 71.3204 35.2547 44.0449 56.8048 28.5717C81.1338 11.1032 113.304 3.37962 141.171 14.4024C169.046 25.4282 183.991 53.748 192.636 82.2999C201.266 110.801 203.906 142.185 187.386 167.034C170.518 192.408 140.388 204.918 109.856 206.82Z" fill="#B6E89F"/>
<path fill-rule="evenodd" clip-rule="evenodd" d="M100.033 203.138C69.7994 205.021 37.4702 197.143 19.1005 173.223C2.04731 151.017 10.7496 121.078 15.9138 93.6038C20.7943 67.6388 25.4315 40.3633 46.9816 24.8901C71.3106 7.42153 103.481 -0.302021 131.348 10.7208C159.222 21.7466 174.168 50.0663 182.813 78.6182C191.443 107.119 194.083 138.503 177.563 163.352C160.695 188.727 130.565 201.236 100.033 203.138Z" stroke="#B6E89F" stroke-width="2"/>
</svg>
