<svg width="273" height="78" viewBox="0 0 273 78" fill="none" xmlns="http://www.w3.org/2000/svg">
<path fill-rule="evenodd" clip-rule="evenodd" d="M68.1424 1.89761C46.203 -18.9897 29.9963 -48.0517 35.0436 -77.7859C39.7292 -105.389 67.5987 -119.367 91.2552 -134.263C113.612 -148.34 136.764 -163.487 162.763 -158.208C192.115 -152.247 219.654 -133.912 230.521 -105.983C241.391 -78.0478 230.789 -47.8323 215.733 -22.0784C200.703 3.62983 179.487 26.9058 150.034 31.6905C119.958 36.5763 90.298 22.9909 68.1424 1.89761Z" fill="#EAD0F1"/>
<path fill-rule="evenodd" clip-rule="evenodd" d="M63.1377 11.8976C41.1984 -8.98972 24.9917 -38.0517 30.039 -67.7859C34.7246 -95.3891 62.5941 -109.367 86.2506 -124.263C108.607 -138.34 131.76 -153.487 157.759 -148.208C187.111 -142.247 214.649 -123.912 225.516 -95.9835C236.386 -68.0478 225.784 -37.8323 210.728 -12.0784C195.699 13.6298 174.483 36.9058 145.029 41.6905C114.954 46.5763 85.2934 32.9909 63.1377 11.8976Z" stroke="#EAD0F1" stroke-width="2"/>
</svg>
