<svg width="247" height="51" viewBox="0 0 247 51" fill="none" xmlns="http://www.w3.org/2000/svg">
<path fill-rule="evenodd" clip-rule="evenodd" d="M24.6603 88.8721C32.6981 59.6658 50.6493 31.6478 79.2384 22.0424C105.779 13.1253 131.268 31.0792 155.577 44.8864C178.549 57.9349 202.84 71.179 210.476 96.5862C219.096 125.27 215.953 158.204 196.477 180.981C176.996 203.764 145.358 208.702 115.546 207.605C85.7868 206.511 55.2472 198.816 37.11 175.121C18.5896 150.926 16.5433 118.366 24.6603 88.8721Z" fill="#AFE9F5"/>
<path fill-rule="evenodd" clip-rule="evenodd" d="M33.5202 83.6429C41.558 54.4366 59.5092 26.4186 88.0983 16.8131C114.638 7.89602 140.128 25.8499 164.436 39.6571C187.409 52.7057 211.7 65.9498 219.335 91.3569C227.956 120.04 224.813 152.975 205.337 175.752C185.856 198.534 154.218 203.472 124.406 202.376C94.6467 201.282 64.1071 193.586 45.9698 169.892C27.4495 145.697 25.4031 113.137 33.5202 83.6429Z" stroke="#AFE9F5" stroke-width="2"/>
</svg>
