<svg width="18" height="18" viewBox="0 0 18 18" fill="none" xmlns="http://www.w3.org/2000/svg">
<path d="M9.00033 0.666504C6.86398 0.672597 4.81157 1.49893 3.26699 2.97484V1.49984C3.26699 1.27882 3.1792 1.06686 3.02291 0.910582C2.86663 0.754301 2.65467 0.666504 2.43366 0.666504C2.21265 0.666504 2.00068 0.754301 1.8444 0.910582C1.68812 1.06686 1.60033 1.27882 1.60033 1.49984V5.24984C1.60033 5.47085 1.68812 5.68281 1.8444 5.83909C2.00068 5.99537 2.21265 6.08317 2.43366 6.08317H6.18366C6.40467 6.08317 6.61663 5.99537 6.77291 5.83909C6.92919 5.68281 7.01699 5.47085 7.01699 5.24984C7.01699 5.02882 6.92919 4.81686 6.77291 4.66058C6.61663 4.5043 6.40467 4.4165 6.18366 4.4165H4.18366C5.25514 3.2968 6.68325 2.58538 8.22244 2.40456C9.76163 2.22374 11.3157 2.58482 12.6175 3.42571C13.9193 4.2666 14.8875 5.53476 15.3556 7.01216C15.8237 8.48956 15.7624 10.0839 15.1823 11.521C14.6023 12.9581 13.5396 14.1483 12.1771 14.8868C10.8146 15.6253 9.2374 15.866 7.71662 15.5676C6.19585 15.2692 4.82655 14.4503 3.84415 13.2517C2.86176 12.053 2.32765 10.5496 2.33366 8.99984C2.33366 8.77882 2.24586 8.56686 2.08958 8.41058C1.9333 8.2543 1.72134 8.1665 1.50033 8.1665C1.27931 8.1665 1.06735 8.2543 0.91107 8.41058C0.75479 8.56686 0.666992 8.77882 0.666992 8.99984C0.666992 10.648 1.15573 12.2592 2.07141 13.6296C2.98709 15 4.28858 16.0681 5.8113 16.6988C7.33401 17.3296 9.00957 17.4946 10.6261 17.173C12.2426 16.8515 13.7274 16.0578 14.8929 14.8924C16.0583 13.727 16.852 12.2421 17.1735 10.6256C17.4951 9.00908 17.3301 7.33353 16.6993 5.81081C16.0686 4.28809 15.0005 2.9866 13.6301 2.07092C12.2597 1.15525 10.6485 0.666504 9.00033 0.666504ZM9.00033 5.6665C8.77931 5.6665 8.56735 5.7543 8.41107 5.91058C8.25479 6.06686 8.16699 6.27882 8.16699 6.49984V8.99984C8.16699 9.22085 8.25479 9.43281 8.41107 9.58909C8.56735 9.74537 8.77931 9.83317 9.00033 9.83317H10.667C10.888 9.83317 11.1 9.74537 11.2562 9.58909C11.4125 9.43281 11.5003 9.22085 11.5003 8.99984C11.5003 8.77882 11.4125 8.56686 11.2562 8.41058C11.1 8.2543 10.888 8.1665 10.667 8.1665H9.83366V6.49984C9.83366 6.27882 9.74586 6.06686 9.58958 5.91058C9.4333 5.7543 9.22134 5.6665 9.00033 5.6665Z" fill="white"/>
</svg>
