<svg width="16" height="16" viewBox="0 0 16 16" fill="none" xmlns="http://www.w3.org/2000/svg">
<path d="M15.7269 6.59941L8.52649 0.199C8.38049 0.0707366 8.19279 0 7.99845 0C7.80411 0 7.61642 0.0707366 7.47042 0.199L0.269964 6.59941C0.147585 6.70766 0.0612849 6.85079 0.0226676 7.00955C-0.0159497 7.16831 -0.00503302 7.33509 0.0539501 7.48746C0.111968 7.63782 0.214044 7.76715 0.346808 7.85852C0.479572 7.94988 0.636834 7.99902 0.797997 7.99949H1.59805V15.1999C1.59805 15.4121 1.68234 15.6156 1.83238 15.7657C1.98242 15.9157 2.18591 16 2.3981 16H13.5988C13.811 16 14.0145 15.9157 14.1645 15.7657C14.3146 15.6156 14.3989 15.4121 14.3989 15.1999V7.99949H15.1989C15.3601 7.99902 15.5173 7.94988 15.6501 7.85852C15.7829 7.76715 15.8849 7.63782 15.943 7.48746C16.0019 7.33509 16.0129 7.16831 15.9742 7.00955C15.9356 6.85079 15.8493 6.70766 15.7269 6.59941ZM8.7985 14.3999H7.1984V11.9997C7.1984 11.7876 7.28269 11.5841 7.43273 11.434C7.58277 11.284 7.78627 11.1997 7.99845 11.1997C8.21064 11.1997 8.41413 11.284 8.56417 11.434C8.71421 11.5841 8.7985 11.7876 8.7985 11.9997V14.3999ZM12.7988 14.3999H10.3986V11.9997C10.3986 11.3632 10.1457 10.7527 9.69562 10.3026C9.2455 9.85247 8.63501 9.5996 7.99845 9.5996C7.36189 9.5996 6.7514 9.85247 6.30129 10.3026C5.85117 10.7527 5.5983 11.3632 5.5983 11.9997V14.3999H3.19815V7.99949H12.7988V14.3999ZM2.90213 6.39939L7.99845 1.87111L13.0948 6.39939H2.90213Z" fill="white"/>
</svg>
