<svg width="20" height="20" viewBox="0 0 20 20" fill="none" xmlns="http://www.w3.org/2000/svg">
<path d="M19.6587 8.24926L10.6581 0.24875C10.4756 0.0884208 10.241 0 9.99807 0C9.75514 0 9.52052 0.0884208 9.33803 0.24875L0.337455 8.24926C0.184481 8.38458 0.0766061 8.56349 0.0283345 8.76194C-0.0199372 8.96039 -0.00629127 9.16886 0.0674376 9.35933C0.13996 9.54727 0.267555 9.70894 0.43351 9.82314C0.599465 9.93735 0.796043 9.99877 0.997497 9.99937H1.99756V18.9999C1.99756 19.2652 2.10292 19.5195 2.29047 19.7071C2.47802 19.8946 2.73239 20 2.99762 20H16.9985C17.2637 20 17.5181 19.8946 17.7057 19.7071C17.8932 19.5195 17.9986 19.2652 17.9986 18.9999V9.99937H18.9986C19.2001 9.99877 19.3967 9.93735 19.5626 9.82314C19.7286 9.70894 19.8562 9.54727 19.9287 9.35933C20.0024 9.16886 20.0161 8.96039 19.9678 8.76194C19.9195 8.56349 19.8117 8.38458 19.6587 8.24926ZM10.9981 17.9999H8.998V14.9997C8.998 14.7345 9.10337 14.4801 9.29092 14.2925C9.47846 14.105 9.73283 13.9996 9.99807 13.9996C10.2633 13.9996 10.5177 14.105 10.7052 14.2925C10.8928 14.4801 10.9981 14.7345 10.9981 14.9997V17.9999ZM15.9984 17.9999H12.9983V14.9997C12.9983 14.204 12.6822 13.4409 12.1195 12.8782C11.5569 12.3156 10.7938 11.9995 9.99807 11.9995C9.20237 11.9995 8.43926 12.3156 7.87661 12.8782C7.31397 13.4409 6.99788 14.204 6.99788 14.9997V17.9999H3.99769V9.99937H15.9984V17.9999ZM3.62766 7.99924L9.99807 2.33888L16.3685 7.99924H3.62766Z" fill="#A590C5"/>
</svg>
