<svg width="13" height="13" viewBox="0 0 13 13" fill="none" xmlns="http://www.w3.org/2000/svg">
<path d="M12.7781 5.36202L6.92777 0.161688C6.80915 0.0574735 6.65664 0 6.49874 0C6.34084 0 6.18834 0.0574735 6.06972 0.161688L0.219346 5.36202C0.119913 5.44998 0.049794 5.56627 0.0184174 5.69526C-0.0129592 5.82425 -0.00408933 5.95976 0.0438344 6.08356C0.0909743 6.20573 0.173911 6.31081 0.281782 6.38504C0.389652 6.45928 0.517428 6.4992 0.648373 6.49959H1.29841V12.35C1.29841 12.5224 1.3669 12.6877 1.48881 12.8096C1.61071 12.9315 1.77605 13 1.94846 13H11.049C11.2214 13 11.3868 12.9315 11.5087 12.8096C11.6306 12.6877 11.6991 12.5224 11.6991 12.35V6.49959H12.3491C12.4801 6.4992 12.6078 6.45928 12.7157 6.38504C12.8236 6.31081 12.9065 6.20573 12.9537 6.08356C13.0016 5.95976 13.0104 5.82425 12.9791 5.69526C12.9477 5.56627 12.8776 5.44998 12.7781 5.36202ZM7.14879 11.6999H5.8487V9.74979C5.8487 9.57739 5.91719 9.41205 6.0391 9.29015C6.161 9.16824 6.32634 9.09975 6.49874 9.09975C6.67115 9.09975 6.83649 9.16824 6.95839 9.29015C7.0803 9.41205 7.14879 9.57739 7.14879 9.74979V11.6999ZM10.399 11.6999H8.44887V9.74979C8.44887 9.23259 8.24341 8.73657 7.87769 8.37085C7.51197 8.00513 7.01595 7.79967 6.49874 7.79967C5.98154 7.79967 5.48552 8.00513 5.1198 8.37085C4.75408 8.73657 4.54862 9.23259 4.54862 9.74979V11.6999H2.5985V6.49959H10.399V11.6999ZM2.35798 5.19951L6.49874 1.52027L10.6395 5.19951H2.35798Z" fill="white"/>
</svg>
