<svg width="50" height="50" viewBox="0 0 50 50" fill="none" xmlns="http://www.w3.org/2000/svg">
<rect width="50" height="50" rx="8" fill="#FF5B5B" fill-opacity="0.12"/>
<mask id="mask0_2412_138178" style="mask-type:alpha" maskUnits="userSpaceOnUse" x="11" y="11" width="28" height="28">
<rect x="11" y="11" width="28" height="28" fill="#FF5B5B"/>
</mask>
<g mask="url(#mask0_2412_138178)">
<path d="M15.638 34.0998L14.6464 33.6915C14.0436 33.4387 13.6401 33.0012 13.4359 32.379C13.2318 31.7568 13.2658 31.1443 13.538 30.5415L15.638 25.9915V34.0998ZM20.3047 36.6665C19.663 36.6665 19.1137 36.438 18.6568 35.9811C18.1998 35.5241 17.9714 34.9748 17.9714 34.3332V27.3332L21.063 35.9082C21.1214 36.0443 21.1797 36.1755 21.238 36.3019C21.2964 36.4283 21.3741 36.5498 21.4714 36.6665H20.3047ZM26.313 36.5498C25.6908 36.7832 25.088 36.754 24.5047 36.4623C23.9214 36.1707 23.513 35.7137 23.2797 35.0915L18.088 20.8582C17.8547 20.2359 17.8741 19.6283 18.1464 19.0352C18.4186 18.4422 18.8658 18.0387 19.488 17.8248L28.2964 14.6165C28.9186 14.3832 29.5214 14.4123 30.1047 14.704C30.688 14.9957 31.0964 15.4526 31.3297 16.0748L36.5214 30.3082C36.7547 30.9304 36.7352 31.538 36.463 32.1311C36.1908 32.7241 35.7436 33.1276 35.1214 33.3415L26.313 36.5498ZM23.8047 22.6665C24.1352 22.6665 24.4123 22.5547 24.6359 22.3311C24.8595 22.1075 24.9714 21.8304 24.9714 21.4998C24.9714 21.1693 24.8595 20.8922 24.6359 20.6686C24.4123 20.445 24.1352 20.3332 23.8047 20.3332C23.4741 20.3332 23.197 20.445 22.9734 20.6686C22.7498 20.8922 22.638 21.1693 22.638 21.4998C22.638 21.8304 22.7498 22.1075 22.9734 22.3311C23.197 22.5547 23.4741 22.6665 23.8047 22.6665Z" fill="#FF5B5B"/>
</g>
</svg>
