<svg width="41" height="40" viewBox="0 0 41 40" fill="none" xmlns="http://www.w3.org/2000/svg">
<mask id="mask0_8750_12443" style="mask-type:alpha" maskUnits="userSpaceOnUse" x="0" y="0" width="41" height="40">
<rect x="0.5" width="40" height="40" fill="#D9D9D9"/>
</mask>
<g mask="url(#mask0_8750_12443)">
<path d="M12.584 27.9167H23.4172V25.4168H12.584V27.9167ZM12.584 21.2501H28.4172V18.7502H12.584V21.2501ZM12.584 14.5834H28.4172V12.0835H12.584V14.5834ZM9.34682 34.1667C8.50493 34.1667 7.79232 33.8751 7.20898 33.2917C6.62565 32.7084 6.33398 31.9958 6.33398 31.1539V8.84633C6.33398 8.00444 6.62565 7.29183 7.20898 6.7085C7.79232 6.12516 8.50493 5.8335 9.34682 5.8335H31.6544C32.4963 5.8335 33.2089 6.12516 33.7922 6.7085C34.3756 7.29183 34.6672 8.00444 34.6672 8.84633V31.1539C34.6672 31.9958 34.3756 32.7084 33.7922 33.2917C33.2089 33.8751 32.4963 34.1667 31.6544 34.1667H9.34682ZM9.34682 31.6668H31.6544C31.7826 31.6668 31.9002 31.6134 32.007 31.5065C32.1139 31.3997 32.1673 31.2821 32.1673 31.1539V8.84633C32.1673 8.71811 32.1139 8.60057 32.007 8.49371C31.9002 8.38687 31.7826 8.33346 31.6544 8.33346H9.34682C9.2186 8.33346 9.10105 8.38687 8.99419 8.49371C8.88736 8.60057 8.83394 8.71811 8.83394 8.84633V31.1539C8.83394 31.2821 8.88736 31.3997 8.99419 31.5065C9.10105 31.6134 9.2186 31.6668 9.34682 31.6668Z" fill="white"/>
</g>
</svg>
