<svg width="48" height="48" viewBox="0 0 48 48" fill="none" xmlns="http://www.w3.org/2000/svg">
<g id="ri:alert-fill">
<path id="Vector" d="M25.7319 5.99991L44.7839 38.9999C44.9595 39.304 45.0519 39.6488 45.0519 39.9999C45.0519 40.351 44.9595 40.6959 44.784 40.9999C44.6084 41.3039 44.356 41.5564 44.0519 41.7319C43.7479 41.9075 43.403 41.9999 43.0519 41.9999H4.94795C4.59688 41.9999 4.252 41.9075 3.94797 41.7319C3.64393 41.5564 3.39147 41.3039 3.21593 40.9999C3.0404 40.6959 2.948 40.351 2.948 39.9999C2.948 39.6488 3.04041 39.304 3.21595 38.9999L22.2679 5.99991C22.4435 5.6959 22.696 5.44344 23 5.26792C23.304 5.0924 23.6489 5 23.9999 5C24.351 5 24.6959 5.0924 24.9999 5.26792C25.3039 5.44344 25.5564 5.6959 25.7319 5.99991ZM21.9999 31.9999V35.9999H25.9999V31.9999H21.9999ZM21.9999 17.9999V27.9999H25.9999V17.9999H21.9999Z" fill="#EC8850"/>
</g>
</svg>
