<svg width="50" height="50" viewBox="0 0 50 50" fill="none" xmlns="http://www.w3.org/2000/svg">
<rect width="50" height="50" rx="8" fill="#BB56FF" fill-opacity="0.12"/>
<mask id="mask0_2412_137979" style="mask-type:alpha" maskUnits="userSpaceOnUse" x="11" y="11" width="28" height="28">
<rect x="11" y="11" width="28" height="28" fill="#D9D9D9"/>
</mask>
<g mask="url(#mask0_2412_137979)">
<path d="M16.834 29.6663V23.833C16.834 23.5025 16.9458 23.2254 17.1694 23.0018C17.393 22.7781 17.6701 22.6663 18.0007 22.6663C18.3312 22.6663 18.6083 22.7781 18.8319 23.0018C19.0555 23.2254 19.1673 23.5025 19.1673 23.833V29.6663C19.1673 29.9969 19.0555 30.274 18.8319 30.4976C18.6083 30.7212 18.3312 30.833 18.0007 30.833C17.6701 30.833 17.393 30.7212 17.1694 30.4976C16.9458 30.274 16.834 29.9969 16.834 29.6663ZM23.834 29.6663V23.833C23.834 23.5025 23.9458 23.2254 24.1694 23.0018C24.393 22.7781 24.6701 22.6663 25.0007 22.6663C25.3312 22.6663 25.6083 22.7781 25.8319 23.0018C26.0555 23.2254 26.1673 23.5025 26.1673 23.833V29.6663C26.1673 29.9969 26.0555 30.274 25.8319 30.4976C25.6083 30.7212 25.3312 30.833 25.0007 30.833C24.6701 30.833 24.393 30.7212 24.1694 30.4976C23.9458 30.274 23.834 29.9969 23.834 29.6663ZM14.5007 35.4997C14.1701 35.4997 13.893 35.3879 13.6694 35.1643C13.4458 34.9406 13.334 34.6636 13.334 34.333C13.334 34.0025 13.4458 33.7254 13.6694 33.5018C13.893 33.2781 14.1701 33.1663 14.5007 33.1663H35.5007C35.8312 33.1663 36.1083 33.2781 36.3319 33.5018C36.5555 33.7254 36.6673 34.0025 36.6673 34.333C36.6673 34.6636 36.5555 34.9406 36.3319 35.1643C36.1083 35.3879 35.8312 35.4997 35.5007 35.4997H14.5007ZM30.834 29.6663V23.833C30.834 23.5025 30.9458 23.2254 31.1694 23.0018C31.393 22.7781 31.6701 22.6663 32.0007 22.6663C32.3312 22.6663 32.6083 22.7781 32.8319 23.0018C33.0555 23.2254 33.1673 23.5025 33.1673 23.833V29.6663C33.1673 29.9969 33.0555 30.274 32.8319 30.4976C32.6083 30.7212 32.3312 30.833 32.0007 30.833C31.6701 30.833 31.393 30.7212 31.1694 30.4976C30.9458 30.274 30.834 29.9969 30.834 29.6663ZM35.5007 20.333H14.384C14.0923 20.333 13.8444 20.2309 13.6402 20.0268C13.4361 19.8226 13.334 19.5747 13.334 19.283V18.6413C13.334 18.4275 13.3875 18.2427 13.4944 18.0872C13.6013 17.9316 13.7423 17.8052 13.9173 17.708L23.9507 12.6913C24.2812 12.5358 24.6312 12.458 25.0007 12.458C25.3701 12.458 25.7201 12.5358 26.0507 12.6913L36.0257 17.6788C36.2395 17.7761 36.4 17.9219 36.5069 18.1163C36.6138 18.3108 36.6673 18.515 36.6673 18.7288V19.1663C36.6673 19.4969 36.5555 19.774 36.3319 19.9976C36.1083 20.2212 35.8312 20.333 35.5007 20.333Z" fill="#BB56FF"/>
</g>
</svg>
