<svg width="20" height="20" viewBox="0 0 20 20" fill="none" xmlns="http://www.w3.org/2000/svg">
<path d="M18.0285 18.7532H12.1187C11.6993 18.7532 11.3561 18.4101 11.3561 17.9907C11.3561 17.5712 11.6993 17.2281 12.1187 17.2281H17.266V2.32H8.76341V6.66661C8.76341 7.08602 8.42025 7.42917 8.00084 7.42917C7.58143 7.42917 7.23828 7.08602 7.23828 6.66661V1.59557C7.23828 1.17616 7.58143 0.833008 8.00084 0.833008H18.0285C18.4479 0.833008 18.7911 1.17616 18.7911 1.59557V18.0288C18.7911 18.4101 18.4479 18.7532 18.0285 18.7532Z" fill="#0056A1"/>
<path d="M11.6242 18.7532H8.19271C7.7733 18.7532 7.43014 18.4101 7.43014 17.9906V13.7966H5.79064V17.9906C5.79064 18.4101 5.44748 18.7532 5.02807 18.7532H1.59655C1.17714 18.7532 0.833984 18.4101 0.833984 17.9906V8.99241C0.833984 8.72552 0.986497 8.49675 1.21527 8.34424L6.21005 5.37024C6.43881 5.21773 6.74384 5.21773 6.97261 5.37024L11.9674 8.34424C12.1962 8.49675 12.3487 8.72552 12.3487 8.99241V18.0288C12.3868 18.4101 12.0436 18.7532 11.6242 18.7532ZM8.95527 17.2662H10.8998V9.41182L6.62945 6.85724L2.35911 9.41182V17.2662H4.30364V13.0721C4.30364 12.6527 4.64679 12.3096 5.0662 12.3096H8.19271C8.61212 12.3096 8.95527 12.6527 8.95527 13.0721V17.2662Z" fill="#0056A1"/>
</svg>
