<svg width="28" height="29" viewBox="0 0 28 29" fill="none" xmlns="http://www.w3.org/2000/svg">
<mask id="mask0_1813_14143" style="mask-type:alpha" maskUnits="userSpaceOnUse" x="0" y="0" width="28" height="29">
<rect y="0.360352" width="28" height="28" fill="#D9D9D9"/>
</mask>
<g mask="url(#mask0_1813_14143)">
<path d="M8.34616 25.5109C7.77929 25.5109 7.29731 25.3124 6.90019 24.9153C6.50308 24.5182 6.30452 24.0362 6.30452 23.4693C6.30452 22.9024 6.50308 22.4204 6.90019 22.0233C7.29731 21.6262 7.77929 21.4276 8.34616 21.4276C8.91304 21.4276 9.39504 21.6262 9.79215 22.0233C10.1893 22.4204 10.3878 22.9024 10.3878 23.4693C10.3878 24.0362 10.1893 24.5182 9.79215 24.9153C9.39504 25.3124 8.91304 25.5109 8.34616 25.5109ZM19.6538 25.5109C19.087 25.5109 18.605 25.3124 18.2078 24.9153C17.8107 24.5182 17.6122 24.0362 17.6122 23.4693C17.6122 22.9024 17.8107 22.4204 18.2078 22.0233C18.605 21.6262 19.087 21.4276 19.6538 21.4276C20.2207 21.4276 20.7027 21.6262 21.0998 22.0233C21.4969 22.4204 21.6955 22.9024 21.6955 23.4693C21.6955 24.0362 21.4969 24.5182 21.0998 24.9153C20.7027 25.3124 20.2207 25.5109 19.6538 25.5109ZM7.01794 7.06866L9.975 13.261H17.9285C17.9958 13.261 18.0557 13.2441 18.108 13.2105C18.1604 13.1768 18.2052 13.1301 18.2426 13.0703L21.3724 7.38275C21.4173 7.30048 21.4211 7.22757 21.3837 7.164C21.3463 7.10042 21.2827 7.06863 21.1929 7.06863L7.01794 7.06866ZM6.17884 5.31872H22.3775C22.8546 5.31872 23.2155 5.52175 23.46 5.92783C23.7046 6.33393 23.7162 6.74862 23.4948 7.17191L19.757 13.943C19.5656 14.2795 19.3124 14.5417 18.9976 14.7294C18.6827 14.9171 18.3376 15.0109 17.9622 15.0109H9.45L8.09935 17.4789C8.03952 17.5686 8.03765 17.6659 8.09375 17.7706C8.14985 17.8753 8.23398 17.9276 8.34616 17.9276H20.8205C21.0688 17.9276 21.2767 18.0114 21.4442 18.1789C21.6117 18.3464 21.6955 18.5543 21.6955 18.8026C21.6955 19.0509 21.6117 19.2588 21.4442 19.4263C21.2767 19.5938 21.0688 19.6776 20.8205 19.6776H8.34616C7.5684 19.6776 6.98395 19.3422 6.5928 18.6714C6.20168 18.0005 6.18784 17.3308 6.5513 16.6622L8.21607 13.6693L3.97119 4.73529H2.62503C2.37672 4.73529 2.16882 4.65154 2.00133 4.48402C1.83378 4.31651 1.75 4.10861 1.75 3.86032C1.75 3.61204 1.83377 3.40414 2.0013 3.23662C2.16881 3.06911 2.37671 2.98535 2.625 2.98535H4.40863C4.60757 2.98535 4.79304 3.03808 4.96504 3.14352C5.13705 3.24897 5.26793 3.39742 5.35768 3.58887L6.17884 5.31872Z" fill="white"/>
</g>
</svg>
