<svg width="22" height="22" viewBox="0 0 22 22" fill="none" xmlns="http://www.w3.org/2000/svg">
<mask id="mask0_13035_13078" style="mask-type:alpha" maskUnits="userSpaceOnUse" x="0" y="0" width="22" height="22">
<rect width="22" height="22" fill="#D9D9D9"/>
</mask>
<g mask="url(#mask0_13035_13078)">
<path d="M4.86604 19.7079C4.403 19.7079 4.01107 19.5475 3.69023 19.2267C3.3694 18.9058 3.20898 18.5139 3.20898 18.0509V5.7817C3.20898 5.31866 3.3694 4.92672 3.69023 4.60589C4.01107 4.28506 4.403 4.12464 4.86604 4.12464H6.13528V2.18555H7.54551V4.12464H14.491V2.18555H15.866V4.12464H17.1352C17.5983 4.12464 17.9902 4.28506 18.311 4.60589C18.6319 4.92672 18.7923 5.31866 18.7923 5.7817V18.0509C18.7923 18.5139 18.6319 18.9058 18.311 19.2267C17.9902 19.5475 17.5983 19.7079 17.1352 19.7079H4.86604ZM4.86604 18.333H17.1352C17.2057 18.333 17.2704 18.3036 17.3292 18.2448C17.3879 18.186 17.4173 18.1214 17.4173 18.0509V9.44837H4.58396V18.0509C4.58396 18.1214 4.61334 18.186 4.6721 18.2448C4.73087 18.3036 4.79552 18.333 4.86604 18.333ZM4.58396 8.07339H17.4173V5.7817C17.4173 5.71118 17.3879 5.64653 17.3292 5.58776C17.2704 5.529 17.2057 5.49962 17.1352 5.49962H4.86604C4.79552 5.49962 4.73087 5.529 4.6721 5.58776C4.61334 5.64653 4.58396 5.71118 4.58396 5.7817V8.07339ZM11.0006 12.9035C10.7762 12.9035 10.5849 12.8244 10.4268 12.6664C10.2688 12.5083 10.1897 12.317 10.1897 12.0926C10.1897 11.8681 10.2688 11.6769 10.4268 11.5188C10.5849 11.3607 10.7762 11.2817 11.0006 11.2817C11.2251 11.2817 11.4164 11.3607 11.5744 11.5188C11.7325 11.6769 11.8115 11.8681 11.8115 12.0926C11.8115 12.317 11.7325 12.5083 11.5744 12.6664C11.4164 12.8244 11.2251 12.9035 11.0006 12.9035ZM7.33396 12.9035C7.1095 12.9035 6.91824 12.8244 6.76017 12.6664C6.60211 12.5083 6.52308 12.317 6.52308 12.0926C6.52308 11.8681 6.60211 11.6769 6.76017 11.5188C6.91824 11.3607 7.1095 11.2817 7.33396 11.2817C7.55842 11.2817 7.74969 11.3607 7.90775 11.5188C8.06581 11.6769 8.14485 11.8681 8.14485 12.0926C8.14485 12.317 8.06581 12.5083 7.90775 12.6664C7.74969 12.8244 7.55842 12.9035 7.33396 12.9035ZM14.6673 12.9035C14.4428 12.9035 14.2516 12.8244 14.0935 12.6664C13.9354 12.5083 13.8564 12.317 13.8564 12.0926C13.8564 11.8681 13.9354 11.6769 14.0935 11.5188C14.2516 11.3607 14.4428 11.2817 14.6673 11.2817C14.8918 11.2817 15.083 11.3607 15.2411 11.5188C15.3991 11.6769 15.4782 11.8681 15.4782 12.0926C15.4782 12.317 15.3991 12.5083 15.2411 12.6664C15.083 12.8244 14.8918 12.9035 14.6673 12.9035ZM11.0006 16.4996C10.7762 16.4996 10.5849 16.4206 10.4268 16.2625C10.2688 16.1045 10.1897 15.9132 10.1897 15.6887C10.1897 15.4643 10.2688 15.273 10.4268 15.1149C10.5849 14.9569 10.7762 14.8778 11.0006 14.8778C11.2251 14.8778 11.4164 14.9569 11.5744 15.1149C11.7325 15.273 11.8115 15.4643 11.8115 15.6887C11.8115 15.9132 11.7325 16.1045 11.5744 16.2625C11.4164 16.4206 11.2251 16.4996 11.0006 16.4996ZM7.33396 16.4996C7.1095 16.4996 6.91824 16.4206 6.76017 16.2625C6.60211 16.1045 6.52308 15.9132 6.52308 15.6887C6.52308 15.4643 6.60211 15.273 6.76017 15.1149C6.91824 14.9569 7.1095 14.8778 7.33396 14.8778C7.55842 14.8778 7.74969 14.9569 7.90775 15.1149C8.06581 15.273 8.14485 15.4643 8.14485 15.6887C8.14485 15.9132 8.06581 16.1045 7.90775 16.2625C7.74969 16.4206 7.55842 16.4996 7.33396 16.4996ZM14.6673 16.4996C14.4428 16.4996 14.2516 16.4206 14.0935 16.2625C13.9354 16.1045 13.8564 15.9132 13.8564 15.6887C13.8564 15.4643 13.9354 15.273 14.0935 15.1149C14.2516 14.9569 14.4428 14.8778 14.6673 14.8778C14.8918 14.8778 15.083 14.9569 15.2411 15.1149C15.3991 15.273 15.4782 15.4643 15.4782 15.6887C15.4782 15.9132 15.3991 16.1045 15.2411 16.2625C15.083 16.4206 14.8918 16.4996 14.6673 16.4996Z" fill="#333333"/>
</g>
</svg>
