<svg width="64" height="64" viewBox="0 0 64 64" fill="none" xmlns="http://www.w3.org/2000/svg">
<path d="M15.1111 32.6484C14.0373 32.6484 14.1156 34.2605 15.1886 34.2605H26.9106C28.0285 34.2605 28.0285 32.6449 26.9106 32.6484C23.4845 32.6712 18.1845 32.6484 15.1111 32.6484Z" fill="#0056A1"/>
<path d="M15.1111 39.8557C14.0373 39.8557 14.1156 41.4671 15.1886 41.4671H23.0258C24.1437 41.4671 24.1437 39.8486 23.0258 39.8557C19.6039 39.8778 18.1845 39.8557 15.1111 39.8557Z" fill="#0056A1"/>
<path d="M15.1111 47.0627C14.0373 47.0627 14.1156 48.6784 15.1886 48.6784H23.0258C24.1437 48.6784 24.1437 47.0599 23.0258 47.0627C19.6039 47.0855 18.1845 47.0627 15.1111 47.0627Z" fill="#0056A1"/>
<path d="M15.1111 25.4414C14.0373 25.4414 14.1156 27.0521 15.1886 27.0521H30.5259C31.6437 27.0521 31.6437 25.4336 30.5259 25.4414C27.0997 25.4635 18.1845 25.4414 15.1111 25.4414Z" fill="#0056A1"/>
<path fill-rule="evenodd" clip-rule="evenodd" d="M19.9154 3.58179C19.6821 3.58179 19.4596 3.68561 19.3045 3.85983L7.55983 17.3638C7.43325 17.5125 7.36285 17.7016 7.36285 17.8943V59.6045C7.36285 60.049 7.72268 60.4124 8.16712 60.4124H28.1337C28.5931 60.4337 28.9785 60.0668 28.9785 59.6081C28.9785 59.1487 28.5938 58.7825 28.1337 58.8003H8.97352V18.6972H21.3376C21.7821 18.6972 22.1447 18.3381 22.1447 17.8936V8.65628C22.149 8.20045 21.7778 7.83281 21.3269 7.84134C20.8853 7.84845 20.5298 8.21183 20.5341 8.65628V17.0858H9.9385L20.2816 5.19245H47.5748V23.4673C47.5527 23.926 47.9189 24.3107 48.3776 24.3107C48.837 24.3107 49.2039 23.926 49.1861 23.4673V4.39388C49.1861 3.94943 48.8263 3.58605 48.3819 3.58179H19.9154Z" fill="#0056A1"/>
<path fill-rule="evenodd" clip-rule="evenodd" d="M31.2149 41.467H54.944V54.523C54.944 56.8661 53.0773 58.7335 50.73 58.7335H35.4261C33.0773 58.7335 31.2149 56.8669 31.2149 54.523V41.467ZM43.082 32.3115C44.9109 32.3115 46.3154 33.6413 46.3154 35.2114V39.8564H39.8485V35.2114C39.8485 33.6413 41.2487 32.3115 43.082 32.3115ZM43.082 27.3301C47.6224 27.3301 51.2334 30.73 51.2334 34.8743V39.8557H47.9268V35.2107C47.9268 32.6884 45.7117 30.7008 43.082 30.7008C40.4523 30.7008 38.2336 32.6884 38.2336 35.2107V39.8557H34.9269V34.8743C34.9262 30.73 38.5415 27.3301 43.082 27.3301ZM43.082 25.7195C37.7266 25.7195 33.3156 29.797 33.3156 34.875V39.8564H30.4085C29.9641 39.8606 29.6043 40.2197 29.6043 40.6635V54.5238C29.6043 57.7337 32.2112 60.3456 35.4269 60.3456H50.7307C53.9421 60.3456 56.5554 57.7344 56.5554 54.5238V40.6628C56.5554 40.219 56.1927 39.8557 55.7483 39.8557H52.8441V34.8743C52.8448 29.797 48.4331 25.7195 43.082 25.7195Z" fill="#0056A1"/>
<path fill-rule="evenodd" clip-rule="evenodd" d="M43.082 45.9412C44.2084 45.9412 45.1641 46.9339 45.1641 48.2452C45.1641 49.0267 44.7972 49.7485 44.2269 50.1667C43.9716 50.3523 43.845 50.6701 43.9118 50.9773L44.5789 54.2591H41.5858L42.2528 50.9773C42.3154 50.6701 42.1931 50.3523 41.9378 50.1667C41.3639 49.7485 40.9977 49.0303 40.9977 48.2452C40.997 46.9339 41.9527 45.9412 43.082 45.9412ZM43.082 44.3306C41.0155 44.3306 39.3863 46.1226 39.3863 48.2452C39.3863 49.2522 39.9972 50.06 40.645 50.7853L39.8045 54.9076C39.7042 55.4033 40.0861 55.8705 40.5931 55.8705H45.5637C46.075 55.8733 46.4555 55.4075 46.3552 54.9076L45.5147 50.7811C46.1632 50.0557 46.7741 49.2479 46.7741 48.2452C46.7748 46.1226 45.1442 44.3306 43.082 44.3306Z" fill="#0056A1"/>
</svg>
