<svg width="18" height="19" viewBox="0 0 18 19" fill="none" xmlns="http://www.w3.org/2000/svg">
<mask id="mask0_9447_17335" style="mask-type:alpha" maskUnits="userSpaceOnUse" x="0" y="0" width="18" height="19">
<rect y="0.5" width="18" height="18" fill="#D9D9D9"/>
</mask>
<g mask="url(#mask0_9447_17335)">
<path d="M4.5 11.4148H10.5V9.90527H4.5V11.4148ZM4.5 9.15048H13.5V7.64092H4.5V9.15048ZM4.5 6.88613H13.5V5.37656H4.5V6.88613ZM1.5 17.4531V3.86699C1.5 3.45186 1.64688 3.09648 1.94063 2.80086C2.23438 2.50523 2.5875 2.35742 3 2.35742H15C15.4125 2.35742 15.7656 2.50523 16.0594 2.80086C16.3531 3.09648 16.5 3.45186 16.5 3.86699V12.9244C16.5 13.3395 16.3531 13.6949 16.0594 13.9905C15.7656 14.2862 15.4125 14.434 15 14.434H4.5L1.5 17.4531ZM3.8625 12.9244H15V3.86699H3V13.7735L3.8625 12.9244Z" fill="#0056A1"/>
</g>
</svg>
