<svg width="16" height="16" viewBox="0 0 16 16" fill="none" xmlns="http://www.w3.org/2000/svg">
<mask id="mask0_9530_6081" style="mask-type:alpha" maskUnits="userSpaceOnUse" x="0" y="0" width="16" height="16">
<rect width="16" height="16" fill="#D9D9D9"/>
</mask>
<g mask="url(#mask0_9530_6081)">
<path d="M3.33333 14.6663C2.96667 14.6663 2.65278 14.5358 2.39167 14.2747C2.13056 14.0136 2 13.6997 2 13.333V3.99967C2 3.63301 2.13056 3.31912 2.39167 3.05801C2.65278 2.7969 2.96667 2.66634 3.33333 2.66634H4V1.33301H5.33333V2.66634H10.6667V1.33301H12V2.66634H12.6667C13.0333 2.66634 13.3472 2.7969 13.6083 3.05801C13.8694 3.31912 14 3.63301 14 3.99967V13.333C14 13.6997 13.8694 14.0136 13.6083 14.2747C13.3472 14.5358 13.0333 14.6663 12.6667 14.6663H3.33333ZM3.33333 13.333H12.6667V6.66634H3.33333V13.333ZM3.33333 5.33301H12.6667V3.99967H3.33333V5.33301ZM8 9.33301C7.81111 9.33301 7.65278 9.26912 7.525 9.14134C7.39722 9.01356 7.33333 8.85523 7.33333 8.66634C7.33333 8.47745 7.39722 8.31912 7.525 8.19134C7.65278 8.06356 7.81111 7.99967 8 7.99967C8.18889 7.99967 8.34722 8.06356 8.475 8.19134C8.60278 8.31912 8.66667 8.47745 8.66667 8.66634C8.66667 8.85523 8.60278 9.01356 8.475 9.14134C8.34722 9.26912 8.18889 9.33301 8 9.33301ZM5.33333 9.33301C5.14444 9.33301 4.98611 9.26912 4.85833 9.14134C4.73056 9.01356 4.66667 8.85523 4.66667 8.66634C4.66667 8.47745 4.73056 8.31912 4.85833 8.19134C4.98611 8.06356 5.14444 7.99967 5.33333 7.99967C5.52222 7.99967 5.68056 8.06356 5.80833 8.19134C5.93611 8.31912 6 8.47745 6 8.66634C6 8.85523 5.93611 9.01356 5.80833 9.14134C5.68056 9.26912 5.52222 9.33301 5.33333 9.33301ZM10.6667 9.33301C10.4778 9.33301 10.3194 9.26912 10.1917 9.14134C10.0639 9.01356 10 8.85523 10 8.66634C10 8.47745 10.0639 8.31912 10.1917 8.19134C10.3194 8.06356 10.4778 7.99967 10.6667 7.99967C10.8556 7.99967 11.0139 8.06356 11.1417 8.19134C11.2694 8.31912 11.3333 8.47745 11.3333 8.66634C11.3333 8.85523 11.2694 9.01356 11.1417 9.14134C11.0139 9.26912 10.8556 9.33301 10.6667 9.33301ZM8 11.9997C7.81111 11.9997 7.65278 11.9358 7.525 11.808C7.39722 11.6802 7.33333 11.5219 7.33333 11.333C7.33333 11.1441 7.39722 10.9858 7.525 10.858C7.65278 10.7302 7.81111 10.6663 8 10.6663C8.18889 10.6663 8.34722 10.7302 8.475 10.858C8.60278 10.9858 8.66667 11.1441 8.66667 11.333C8.66667 11.5219 8.60278 11.6802 8.475 11.808C8.34722 11.9358 8.18889 11.9997 8 11.9997ZM5.33333 11.9997C5.14444 11.9997 4.98611 11.9358 4.85833 11.808C4.73056 11.6802 4.66667 11.5219 4.66667 11.333C4.66667 11.1441 4.73056 10.9858 4.85833 10.858C4.98611 10.7302 5.14444 10.6663 5.33333 10.6663C5.52222 10.6663 5.68056 10.7302 5.80833 10.858C5.93611 10.9858 6 11.1441 6 11.333C6 11.5219 5.93611 11.6802 5.80833 11.808C5.68056 11.9358 5.52222 11.9997 5.33333 11.9997ZM10.6667 11.9997C10.4778 11.9997 10.3194 11.9358 10.1917 11.808C10.0639 11.6802 10 11.5219 10 11.333C10 11.1441 10.0639 10.9858 10.1917 10.858C10.3194 10.7302 10.4778 10.6663 10.6667 10.6663C10.8556 10.6663 11.0139 10.7302 11.1417 10.858C11.2694 10.9858 11.3333 11.1441 11.3333 11.333C11.3333 11.5219 11.2694 11.6802 11.1417 11.808C11.0139 11.9358 10.8556 11.9997 10.6667 11.9997Z" fill="#888888"/>
</g>
</svg>
