<svg width="30" height="30" viewBox="0 0 30 30" fill="none" xmlns="http://www.w3.org/2000/svg">
<g id="Close">
<path id="Vector" d="M16.3063 14.956L22.7863 8.47596C22.9319 8.30592 23.008 8.08718 22.9993 7.86347C22.9907 7.63976 22.898 7.42755 22.7397 7.26924C22.5813 7.11093 22.3691 7.01819 22.1454 7.00955C21.9217 7.00091 21.703 7.077 21.5329 7.22263L15.0529 13.7026L8.57293 7.21374C8.40288 7.06812 8.18415 6.99202 7.96044 7.00066C7.73672 7.0093 7.52451 7.10204 7.36621 7.26035C7.2079 7.41866 7.11516 7.63087 7.10652 7.85458C7.09788 8.07829 7.17397 8.29703 7.31959 8.46707L13.7996 14.956L7.31071 21.436C7.21766 21.5156 7.14208 21.6137 7.08873 21.724C7.03537 21.8343 7.00539 21.9544 7.00066 22.0768C6.99593 22.1992 7.01656 22.3213 7.06125 22.4354C7.10594 22.5494 7.17372 22.653 7.26035 22.7397C7.34698 22.8263 7.45057 22.8941 7.56464 22.9387C7.67871 22.9834 7.80078 23.0041 7.9232 22.9993C8.04561 22.9946 8.16573 22.9646 8.27601 22.9113C8.38629 22.8579 8.48435 22.7823 8.56404 22.6893L15.0529 16.2093L21.5329 22.6893C21.703 22.8349 21.9217 22.911 22.1454 22.9024C22.3691 22.8937 22.5813 22.801 22.7397 22.6427C22.898 22.4844 22.9907 22.2722 22.9993 22.0485C23.008 21.8247 22.9319 21.606 22.7863 21.436L16.3063 14.956Z" fill="white"/>
</g>
</svg>
