<svg width="20" height="21" viewBox="0 0 20 21" fill="none" xmlns="http://www.w3.org/2000/svg">
<mask id="mask0_4776_65359" style="mask-type:alpha" maskUnits="userSpaceOnUse" x="-1" y="0" width="25" height="25">
<rect x="-0.00125122" y="0.473" width="24" height="24" fill="#D9D9D9"/>
</mask>
<g mask="url(#mask0_4776_65359)">
<path d="M7.49875 15.473C7.04042 15.473 6.64805 15.3098 6.32167 14.9834C5.99528 14.657 5.83208 14.2647 5.83208 13.8063V3.80633C5.83208 3.348 5.99528 2.95564 6.32167 2.62925C6.64805 2.30286 7.04042 2.13967 7.49875 2.13967H14.9987C15.4571 2.13967 15.8494 2.30286 16.1758 2.62925C16.5022 2.95564 16.6654 3.348 16.6654 3.80633V13.8063C16.6654 14.2647 16.5022 14.657 16.1758 14.9834C15.8494 15.3098 15.4571 15.473 14.9987 15.473H7.49875ZM7.49875 13.8063H14.9987V3.80633H7.49875V13.8063ZM4.16542 18.8063C3.70708 18.8063 3.31472 18.6431 2.98833 18.3167C2.66194 17.9904 2.49875 17.598 2.49875 17.1397V5.473H4.16542V17.1397H13.3321V18.8063H4.16542Z" fill="white"/>
</g>
</svg>
