<svg width="16" height="16" viewBox="0 0 16 16" fill="none" xmlns="http://www.w3.org/2000/svg">
<mask id="mask0_6508_16431" style="mask-type:luminance" maskUnits="userSpaceOnUse" x="0" y="0" width="16" height="16">
<path d="M0 1.90735e-06H16V16H0V1.90735e-06Z" fill="white"/>
</mask>
<g mask="url(#mask0_6508_16431)">
<path d="M6.78149 11.1562C6.78149 8.74 8.74024 6.78125 11.1565 6.78125C12.6257 6.78125 13.9256 7.50547 14.719 8.61631V1.40625C14.719 0.888469 14.2992 0.46875 13.7815 0.46875H1.40649C0.888744 0.46875 0.468994 0.888469 0.468994 1.40625V13.7812C0.468994 14.299 0.888744 14.7188 1.40649 14.7188H8.61656C7.50571 13.9253 6.78149 12.6254 6.78149 11.1562Z" stroke="white" stroke-width="0.9375" stroke-miterlimit="10" stroke-linecap="round" stroke-linejoin="round"/>
<path d="M7.59399 7.59375H0.468994" stroke="white" stroke-width="0.9375" stroke-miterlimit="10" stroke-linecap="round" stroke-linejoin="round"/>
<path d="M2.93774 4.03125H5.12524" stroke="white" stroke-width="0.9375" stroke-miterlimit="10" stroke-linecap="round" stroke-linejoin="round"/>
<path d="M4.03149 5.125V2.9375" stroke="white" stroke-width="0.9375" stroke-miterlimit="10" stroke-linecap="round" stroke-linejoin="round"/>
<path d="M10.219 4.03125H12.094" stroke="white" stroke-width="0.9375" stroke-miterlimit="10" stroke-linecap="round" stroke-linejoin="round"/>
<path d="M10.0627 11.9375H12.2502" stroke="white" stroke-width="0.9375" stroke-miterlimit="10" stroke-linecap="round" stroke-linejoin="round"/>
<path d="M10.0627 10.375H12.2502" stroke="white" stroke-width="0.9375" stroke-miterlimit="10" stroke-linecap="round" stroke-linejoin="round"/>
<path d="M3.25024 10.375L4.81274 11.9375" stroke="white" stroke-width="0.9375" stroke-miterlimit="10" stroke-linecap="round" stroke-linejoin="round"/>
<path d="M3.25024 11.9375L4.81274 10.375" stroke="white" stroke-width="0.9375" stroke-miterlimit="10" stroke-linecap="round" stroke-linejoin="round"/>
<path d="M15.5315 11.1563C15.5315 13.5725 13.5727 15.5312 11.1565 15.5312C8.74024 15.5312 6.78149 13.5725 6.78149 11.1563C6.78149 8.74 8.74024 6.78125 11.1565 6.78125C13.5727 6.78125 15.5315 8.74 15.5315 11.1563Z" stroke="white" stroke-width="0.9375" stroke-miterlimit="10" stroke-linecap="round" stroke-linejoin="round"/>
<path d="M7.59351 8.61523V0.467672" stroke="white" stroke-width="0.9375" stroke-miterlimit="10" stroke-linecap="round" stroke-linejoin="round"/>
</g>
</svg>
