<svg width="25" height="24" viewBox="0 0 25 24" fill="none" xmlns="http://www.w3.org/2000/svg">
<mask id="mask0_3745_31950" style="mask-type:alpha" maskUnits="userSpaceOnUse" x="0" y="0" width="25" height="24">
<rect x="0.5" width="24" height="24" fill="#D9D9D9"/>
</mask>
<g mask="url(#mask0_3745_31950)">
<path d="M11.7923 18.8078H13.1578V17.5962C13.9334 17.4911 14.6357 17.1997 15.2645 16.722C15.8933 16.2445 16.2078 15.5205 16.2078 14.55C16.2078 13.85 16.0013 13.2308 15.5885 12.6923C15.1757 12.1539 14.3692 11.6681 13.1692 11.2348C12.1179 10.8758 11.4198 10.5648 11.075 10.302C10.7302 10.0392 10.5578 9.67183 10.5578 9.2C10.5578 8.72817 10.7343 8.34483 11.0875 8.05C11.4407 7.75517 11.9282 7.60775 12.55 7.60775C13.0705 7.60775 13.4903 7.7305 13.8095 7.976C14.1288 8.2215 14.3744 8.5295 14.5462 8.9L15.7807 8.40375C15.5717 7.87175 15.2311 7.41633 14.7587 7.0375C14.2863 6.65867 13.7692 6.44742 13.2078 6.40375V5.19225H11.8422V6.40375C10.9897 6.56792 10.335 6.91375 9.878 7.44125C9.42083 7.96892 9.19225 8.55517 9.19225 9.2C9.19225 9.95133 9.41983 10.5558 9.875 11.0135C10.3302 11.4712 11.0718 11.8846 12.1 12.2537C13.1628 12.6436 13.8888 12.9933 14.278 13.303C14.667 13.6125 14.8615 14.0282 14.8615 14.55C14.8615 15.177 14.6353 15.6324 14.1827 15.9163C13.7301 16.2003 13.2192 16.3422 12.65 16.3422C12.0872 16.3422 11.5837 16.1731 11.1395 15.8348C10.6952 15.4963 10.3537 15.0013 10.1152 14.35L8.85 14.8655C9.109 15.6077 9.48108 16.1973 9.96625 16.6345C10.4516 17.0717 11.0603 17.3756 11.7923 17.5462V18.8078ZM12.5 21.5C11.1872 21.5 9.95292 21.2503 8.79725 20.751C7.64142 20.2517 6.63592 19.5744 5.78075 18.7193C4.92558 17.8641 4.24833 16.8586 3.749 15.7028C3.24967 14.5471 3 13.3128 3 12C3 10.6872 3.24967 9.45292 3.749 8.29725C4.24833 7.14142 4.92558 6.13592 5.78075 5.28075C6.63592 4.42558 7.64142 3.74833 8.79725 3.249C9.95292 2.74967 11.1872 2.5 12.5 2.5C13.8128 2.5 15.0471 2.74967 16.2028 3.249C17.3586 3.74833 18.3641 4.42558 19.2193 5.28075C20.0744 6.13592 20.7517 7.14142 21.251 8.29725C21.7503 9.45292 22 10.6872 22 12C22 13.3128 21.7503 14.5471 21.251 15.7028C20.7517 16.8586 20.0744 17.8641 19.2193 18.7193C18.3641 19.5744 17.3586 20.2517 16.2028 20.751C15.0471 21.2503 13.8128 21.5 12.5 21.5ZM12.5 20C14.7333 20 16.625 19.225 18.175 17.675C19.725 16.125 20.5 14.2333 20.5 12C20.5 9.76667 19.725 7.875 18.175 6.325C16.625 4.775 14.7333 4 12.5 4C10.2667 4 8.375 4.775 6.825 6.325C5.275 7.875 4.5 9.76667 4.5 12C4.5 14.2333 5.275 16.125 6.825 17.675C8.375 19.225 10.2667 20 12.5 20Z" fill="#FF9500"/>
</g>
</svg>
