<svg width="18" height="18" viewBox="0 0 18 18" fill="none" xmlns="http://www.w3.org/2000/svg">
<g id="monetization_on">
<mask id="mask0_9714_18033" style="mask-type:alpha" maskUnits="userSpaceOnUse" x="0" y="0" width="18" height="18">
<rect id="Bounding box" width="18" height="18" fill="#D9D9D9"/>
</mask>
<g mask="url(#mask0_9714_18033)">
<path id="monetization_on_2" d="M8.32427 14.25H9.63677V13.3125C10.2618 13.2 10.7993 12.9563 11.2493 12.5813C11.6993 12.2063 11.9243 11.65 11.9243 10.9125C11.9243 10.3875 11.7743 9.90625 11.4743 9.46875C11.1743 9.03125 10.5743 8.65 9.67427 8.325C8.92427 8.075 8.40552 7.85625 8.11802 7.66875C7.83052 7.48125 7.68677 7.225 7.68677 6.9C7.68677 6.575 7.80239 6.31875 8.03364 6.13125C8.26489 5.94375 8.59927 5.85 9.03677 5.85C9.43677 5.85 9.74927 5.94688 9.97427 6.14062C10.1993 6.33437 10.3618 6.575 10.4618 6.8625L11.6618 6.375C11.5243 5.9375 11.2711 5.55625 10.9024 5.23125C10.5336 4.90625 10.1243 4.725 9.67427 4.6875V3.75H8.36177V4.6875C7.73677 4.825 7.24927 5.1 6.89927 5.5125C6.54927 5.925 6.37427 6.3875 6.37427 6.9C6.37427 7.4875 6.54614 7.9625 6.88989 8.325C7.23364 8.6875 7.77427 9 8.51177 9.2625C9.29927 9.55 9.84614 9.80625 10.1524 10.0312C10.4586 10.2563 10.6118 10.55 10.6118 10.9125C10.6118 11.325 10.4649 11.6281 10.1711 11.8219C9.87739 12.0156 9.52427 12.1125 9.11177 12.1125C8.69927 12.1125 8.33364 11.9844 8.01489 11.7281C7.69614 11.4719 7.46177 11.0875 7.31177 10.575L6.07427 11.0625C6.24927 11.6625 6.52114 12.1469 6.88989 12.5156C7.25864 12.8844 7.73677 13.1375 8.32427 13.275V14.25ZM8.99927 16.5C7.96177 16.5 6.98677 16.3031 6.07427 15.9094C5.16177 15.5156 4.36802 14.9813 3.69302 14.3063C3.01802 13.6313 2.48364 12.8375 2.08989 11.925C1.69614 11.0125 1.49927 10.0375 1.49927 9C1.49927 7.9625 1.69614 6.9875 2.08989 6.075C2.48364 5.1625 3.01802 4.36875 3.69302 3.69375C4.36802 3.01875 5.16177 2.48438 6.07427 2.09063C6.98677 1.69687 7.96177 1.5 8.99927 1.5C10.0368 1.5 11.0118 1.69687 11.9243 2.09063C12.8368 2.48438 13.6305 3.01875 14.3055 3.69375C14.9805 4.36875 15.5149 5.1625 15.9086 6.075C16.3024 6.9875 16.4993 7.9625 16.4993 9C16.4993 10.0375 16.3024 11.0125 15.9086 11.925C15.5149 12.8375 14.9805 13.6313 14.3055 14.3063C13.6305 14.9813 12.8368 15.5156 11.9243 15.9094C11.0118 16.3031 10.0368 16.5 8.99927 16.5ZM8.99927 15C10.6743 15 12.093 14.4187 13.2555 13.2563C14.418 12.0938 14.9993 10.675 14.9993 9C14.9993 7.325 14.418 5.90625 13.2555 4.74375C12.093 3.58125 10.6743 3 8.99927 3C7.32427 3 5.90552 3.58125 4.74302 4.74375C3.58052 5.90625 2.99927 7.325 2.99927 9C2.99927 10.675 3.58052 12.0938 4.74302 13.2563C5.90552 14.4187 7.32427 15 8.99927 15Z" fill="#0056A1"/>
</g>
</g>
</svg>
