<svg width="14" height="14" viewBox="0 0 14 14" fill="none" xmlns="http://www.w3.org/2000/svg">
<path d="M5.55426 7.93791L2.73293 10.7646V9.91658C2.73293 9.77513 2.67674 9.63948 2.57672 9.53946C2.4767 9.43944 2.34104 9.38325 2.19959 9.38325C2.05814 9.38325 1.92249 9.43944 1.82247 9.53946C1.72245 9.63948 1.66626 9.77513 1.66626 9.91658L1.66626 12.0499C1.6671 12.1196 1.6816 12.1885 1.70893 12.2526C1.76305 12.3829 1.86661 12.4865 1.99693 12.5406C2.06104 12.5679 2.1299 12.5824 2.19959 12.5832H4.33293C4.47438 12.5832 4.61003 12.5271 4.71005 12.427C4.81007 12.327 4.86626 12.1914 4.86626 12.0499C4.86626 11.9085 4.81007 11.7728 4.71005 11.6728C4.61003 11.5728 4.47438 11.5166 4.33293 11.5166H3.48493L6.31159 8.69525C6.41202 8.59482 6.46844 8.45861 6.46844 8.31658C6.46844 8.17455 6.41202 8.03834 6.31159 7.93791C6.21116 7.83748 6.07495 7.78106 5.93293 7.78106C5.7909 7.78106 5.65469 7.83748 5.55426 7.93791ZM12.2903 2.24725C12.2361 2.11693 12.1326 2.01337 12.0023 1.95925C11.9381 1.93192 11.8693 1.91742 11.7996 1.91658L9.66626 1.91658C9.52481 1.91658 9.38915 1.97277 9.28914 2.07279C9.18912 2.17281 9.13293 2.30846 9.13293 2.44991C9.13293 2.59136 9.18912 2.72702 9.28914 2.82704C9.38915 2.92706 9.52481 2.98325 9.66626 2.98325H10.5143L7.68759 5.80458C7.6376 5.85416 7.59793 5.91315 7.57085 5.97814C7.54377 6.04313 7.52983 6.11284 7.52983 6.18325C7.52983 6.25365 7.54377 6.32336 7.57085 6.38835C7.59793 6.45335 7.6376 6.51233 7.68759 6.56191C7.73717 6.6119 7.79616 6.65158 7.86115 6.67866C7.92614 6.70573 7.99585 6.71967 8.06626 6.71967C8.13667 6.71967 8.20638 6.70573 8.27137 6.67866C8.33636 6.65158 8.39535 6.6119 8.44493 6.56191L11.2663 3.73525V4.58325C11.2663 4.7247 11.3224 4.86035 11.4225 4.96037C11.5225 5.06039 11.6581 5.11658 11.7996 5.11658C11.941 5.11658 12.0767 5.06039 12.1767 4.96037C12.2767 4.86035 12.3329 4.7247 12.3329 4.58325V2.44991C12.3321 2.38022 12.3176 2.31137 12.2903 2.24725Z" fill="#337AB7"/>
</svg>
