<svg width="17" height="17" viewBox="0 0 17 17" fill="none" xmlns="http://www.w3.org/2000/svg">
<path d="M15.002 5.16175C15.0025 5.074 14.9857 4.98702 14.9525 4.90578C14.9193 4.82455 14.8704 4.75066 14.8086 4.68836L11.9816 1.86134C11.9193 1.79954 11.8454 1.75065 11.7642 1.71747C11.683 1.68429 11.596 1.66747 11.5082 1.66798C11.4205 1.66747 11.3335 1.68429 11.2523 1.71747C11.171 1.75065 11.0971 1.79954 11.0348 1.86134L9.14794 3.74824L1.86036 11.0358C1.79857 11.0981 1.74968 11.172 1.7165 11.2532C1.68331 11.3345 1.6665 11.4215 1.667 11.5092V14.3362C1.667 14.5131 1.73725 14.6827 1.86229 14.8077C1.98733 14.9327 2.15692 15.003 2.33375 15.003H5.16077C5.25407 15.0081 5.34739 14.9935 5.43469 14.9602C5.52198 14.9268 5.6013 14.8756 5.6675 14.8096L12.9151 7.52205L14.8086 5.66848C14.8695 5.60386 14.9191 5.52949 14.9553 5.44845C14.9618 5.39531 14.9618 5.34158 14.9553 5.28843C14.9585 5.2574 14.9585 5.22613 14.9553 5.19509L15.002 5.16175ZM4.88741 13.6695H3.0005V11.7826L9.62133 5.16175L11.5082 7.04865L4.88741 13.6695ZM12.4484 6.10854L10.5615 4.22163L11.5082 3.28152L13.3885 5.16175L12.4484 6.10854Z" fill="black"/>
</svg>
