<svg width="18" height="18" viewBox="0 0 18 18" fill="none" xmlns="http://www.w3.org/2000/svg">
<mask id="mask0_15169_14942" style="mask-type:alpha" maskUnits="userSpaceOnUse" x="0" y="0" width="18" height="18">
<rect width="18" height="18" fill="#D9D9D9"/>
</mask>
<g mask="url(#mask0_15169_14942)">
<path d="M4.49951 17.248H2.24951C1.83701 17.248 1.48389 17.1012 1.19014 16.8074C0.896387 16.5137 0.749512 16.1605 0.749512 15.748V13.498H2.24951V15.748H4.49951V17.248ZM13.4995 17.248V15.748H15.7495V13.498H17.2495V15.748C17.2495 16.1605 17.1026 16.5137 16.8089 16.8074C16.5151 17.1012 16.162 17.248 15.7495 17.248H13.4995ZM8.99951 13.873C7.49951 13.873 6.14014 13.4293 4.92139 12.5418C3.70264 11.6543 2.81201 10.473 2.24951 8.99805C2.81201 7.52305 3.70264 6.3418 4.92139 5.4543C6.14014 4.5668 7.49951 4.12305 8.99951 4.12305C10.4995 4.12305 11.8589 4.5668 13.0776 5.4543C14.2964 6.3418 15.187 7.52305 15.7495 8.99805C15.187 10.473 14.2964 11.6543 13.0776 12.5418C11.8589 13.4293 10.4995 13.873 8.99951 13.873ZM8.99951 12.373C10.0995 12.373 11.1058 12.073 12.0183 11.473C12.9308 10.873 13.6308 10.048 14.1183 8.99805C13.6308 7.94805 12.9308 7.12305 12.0183 6.52305C11.1058 5.92305 10.0995 5.62305 8.99951 5.62305C7.89951 5.62305 6.89326 5.92305 5.98076 6.52305C5.06826 7.12305 4.36826 7.94805 3.88076 8.99805C4.36826 10.048 5.06826 10.873 5.98076 11.473C6.89326 12.073 7.89951 12.373 8.99951 12.373ZM8.99951 11.623C9.72451 11.623 10.3433 11.3668 10.8558 10.8543C11.3683 10.3418 11.6245 9.72305 11.6245 8.99805C11.6245 8.27305 11.3683 7.6543 10.8558 7.1418C10.3433 6.6293 9.72451 6.37305 8.99951 6.37305C8.27451 6.37305 7.65576 6.6293 7.14326 7.1418C6.63076 7.6543 6.37451 8.27305 6.37451 8.99805C6.37451 9.72305 6.63076 10.3418 7.14326 10.8543C7.65576 11.3668 8.27451 11.623 8.99951 11.623ZM8.99951 10.123C8.68701 10.123 8.42139 10.0137 8.20264 9.79492C7.98389 9.57617 7.87451 9.31055 7.87451 8.99805C7.87451 8.68555 7.98389 8.41992 8.20264 8.20117C8.42139 7.98242 8.68701 7.87305 8.99951 7.87305C9.31201 7.87305 9.57764 7.98242 9.79639 8.20117C10.0151 8.41992 10.1245 8.68555 10.1245 8.99805C10.1245 9.31055 10.0151 9.57617 9.79639 9.79492C9.57764 10.0137 9.31201 10.123 8.99951 10.123ZM0.749512 4.49805V2.24805C0.749512 1.83555 0.896387 1.48242 1.19014 1.18867C1.48389 0.894922 1.83701 0.748047 2.24951 0.748047H4.49951V2.24805H2.24951V4.49805H0.749512ZM15.7495 4.49805V2.24805H13.4995V0.748047H15.7495C16.162 0.748047 16.5151 0.894922 16.8089 1.18867C17.1026 1.48242 17.2495 1.83555 17.2495 2.24805V4.49805H15.7495Z" fill="#fff"/>
</g>
</svg>
