<svg width="20" height="20" viewBox="0 0 20 20" fill="none" xmlns="http://www.w3.org/2000/svg">
<mask id="mask0_8750_12317" style="mask-type:alpha" maskUnits="userSpaceOnUse" x="0" y="0" width="20" height="20">
<rect width="20" height="20" fill="#D9D9D9"/>
</mask>
<g mask="url(#mask0_8750_12317)">
<path d="M5.00065 18.3332C4.54232 18.3332 4.14996 18.17 3.82357 17.8436C3.49718 17.5172 3.33398 17.1248 3.33398 16.6665V3.33317C3.33398 2.87484 3.49718 2.48248 3.82357 2.15609C4.14996 1.8297 4.54232 1.6665 5.00065 1.6665H11.6673L16.6673 6.6665V9.99984H15.0007V7.49984H10.834V3.33317H5.00065V16.6665H10.0007V18.3332H5.00065ZM15.2507 12.104L16.1465 12.9998L12.9173 16.2082V17.0832H13.7923L17.0215 13.8748L17.8965 14.7498L14.3132 18.3332H11.6673V15.6873L15.2507 12.104ZM17.8965 14.7498L15.2507 12.104L16.459 10.8957C16.6118 10.7429 16.8062 10.6665 17.0423 10.6665C17.2784 10.6665 17.4729 10.7429 17.6257 10.8957L19.1048 12.3748C19.2576 12.5276 19.334 12.7221 19.334 12.9582C19.334 13.1943 19.2576 13.3887 19.1048 13.5415L17.8965 14.7498Z" fill="#888888"/>
</g>
</svg>
