<svg width="18" height="18" viewBox="0 0 18 18" fill="none" xmlns="http://www.w3.org/2000/svg">
<mask id="mask0_8629_11149" style="mask-type:alpha" maskUnits="userSpaceOnUse" x="0" y="0" width="18" height="18">
<rect width="18" height="18" fill="#D9D9D9"/>
</mask>
<g mask="url(#mask0_8629_11149)">
<path d="M4.5 16.5005C4.0875 16.5005 3.73438 16.3536 3.44062 16.0599C3.14688 15.7661 3 15.413 3 15.0005V3.00049C3 2.58799 3.14688 2.23486 3.44062 1.94111C3.73438 1.64736 4.0875 1.50049 4.5 1.50049H10.5L15 6.00049V9.00049H13.5V6.75049H9.75V3.00049H4.5V15.0005H9V16.5005H4.5ZM13.725 10.8942L14.5312 11.7005L11.625 14.588V15.3755H12.4125L15.3187 12.488L16.1062 13.2755L12.8812 16.5005H10.5V14.1192L13.725 10.8942ZM16.1062 13.2755L13.725 10.8942L14.8125 9.80674C14.95 9.66924 15.125 9.60049 15.3375 9.60049C15.55 9.60049 15.725 9.66924 15.8625 9.80674L17.1937 11.138C17.3313 11.2755 17.4 11.4505 17.4 11.663C17.4 11.8755 17.3313 12.0505 17.1937 12.188L16.1062 13.2755Z" fill="white"/>
</g>
</svg>
