<svg width="41" height="40" viewBox="0 0 41 40" fill="none" xmlns="http://www.w3.org/2000/svg">
<mask id="mask0_8750_12474" style="mask-type:alpha" maskUnits="userSpaceOnUse" x="0" y="0" width="41" height="40">
<rect x="0.5" width="40" height="40" fill="#D9D9D9"/>
</mask>
<g mask="url(#mask0_8750_12474)">
<path d="M11.0128 35.8331C10.1709 35.8331 9.45833 35.5414 8.875 34.9581C8.29167 34.3748 8 33.6621 8 32.8203V7.17934C8 6.33745 8.29167 5.62484 8.875 5.0415C9.45833 4.45817 10.1709 4.1665 11.0128 4.1665H24.25L32.9999 12.9164V19.2465H30.5V14.1664H23V6.66646H11.0128C10.8846 6.66646 10.7671 6.71988 10.6602 6.82671C10.5534 6.93358 10.5 7.05112 10.5 7.17934V32.8203C10.5 32.9485 10.5534 33.066 10.6602 33.1729C10.7671 33.2797 10.8846 33.3331 11.0128 33.3331H19.891V35.8331H11.0128ZM30.2307 24.2402L31.6537 25.6472L25.2114 32.0639V33.8139H26.9614L33.4037 27.3972L34.8011 28.7946L27.7948 35.801H23.2243V31.2466L30.2307 24.2402ZM34.8011 28.7946L30.2307 24.2402L32.4069 22.0639C32.6911 21.7904 33.0453 21.6537 33.4694 21.6537C33.8936 21.6537 34.2424 21.7904 34.5159 22.0639L36.9774 24.5254C37.2509 24.7989 37.3877 25.1477 37.3877 25.5719C37.3877 25.996 37.2509 26.3502 36.9774 26.6344L34.8011 28.7946Z" fill="white"/>
</g>
</svg>
