<svg width="20" height="20" viewBox="0 0 20 20" fill="none" xmlns="http://www.w3.org/2000/svg">
<g id="plus" clip-path="url(#clip0_10200_14909)">
<g id="exit_to_app">
<mask id="mask0_10200_14909" style="mask-type:alpha" maskUnits="userSpaceOnUse" x="0" y="0" width="20" height="20">
<rect id="Bounding box" width="20" height="20" fill="#D9D9D9"/>
</mask>
<g mask="url(#mask0_10200_14909)">
<path id="exit_to_app_2" d="M4.42316 17.0826C4.00222 17.0826 3.64591 16.9368 3.35425 16.6451C3.06258 16.3535 2.91675 15.9972 2.91675 15.5762V12.6115H4.16673V15.5762C4.16673 15.6403 4.19344 15.6991 4.24685 15.7525C4.30028 15.806 4.35905 15.8327 4.42316 15.8327H15.577C15.6411 15.8327 15.6998 15.806 15.7533 15.7525C15.8067 15.6991 15.8334 15.6403 15.8334 15.5762V4.42243C15.8334 4.35832 15.8067 4.29955 15.7533 4.24612C15.6998 4.1927 15.6411 4.166 15.577 4.166H4.42316C4.35905 4.166 4.30028 4.1927 4.24685 4.24612C4.19344 4.29955 4.16673 4.35832 4.16673 4.42243V7.38714H2.91675V4.42243C2.91675 4.00149 3.06258 3.64518 3.35425 3.35352C3.64591 3.06185 4.00222 2.91602 4.42316 2.91602H15.577C15.9979 2.91602 16.3542 3.06185 16.6459 3.35352C16.9375 3.64518 17.0834 4.00149 17.0834 4.42243V15.5762C17.0834 15.9972 16.9375 16.3535 16.6459 16.6451C16.3542 16.9368 15.9979 17.0826 15.577 17.0826H4.42316ZM8.89431 13.7172L8.01612 12.8134L10.2052 10.6243H2.91675V9.37435H10.2052L8.01612 7.18525L8.89431 6.28141L12.6122 9.99933L8.89431 13.7172Z" fill="#0056A1"/>
</g>
</g>
</g>
<defs>
<clipPath id="clip0_10200_14909">
<rect width="20" height="20" fill="white"/>
</clipPath>
</defs>
</svg>
