<svg width="16" height="16" viewBox="0 0 16 16" fill="none" xmlns="http://www.w3.org/2000/svg">
<path d="M14.3987 4.95102C14.3991 4.86679 14.383 4.7833 14.3512 4.70533C14.3193 4.62736 14.2724 4.55645 14.2131 4.49665L11.4997 1.78325C11.4399 1.72394 11.369 1.67702 11.291 1.64517C11.213 1.61332 11.1295 1.59718 11.0453 1.59767C10.9611 1.59718 10.8776 1.61332 10.7996 1.64517C10.7217 1.67702 10.6507 1.72394 10.5909 1.78325L8.77988 3.59432L1.78521 10.589C1.72589 10.6488 1.67897 10.7197 1.64712 10.7977C1.61528 10.8757 1.59913 10.9591 1.59962 11.0434V13.7568C1.59962 13.9265 1.66704 14.0893 1.78706 14.2093C1.90707 14.3293 2.06985 14.3967 2.23957 14.3967H4.95297C5.04252 14.4016 5.13209 14.3876 5.21587 14.3556C5.29966 14.3236 5.37579 14.2744 5.43933 14.2111L12.3956 7.21645L14.2131 5.43738C14.2715 5.37536 14.3191 5.30397 14.3539 5.2262C14.36 5.17519 14.36 5.12362 14.3539 5.07261C14.3569 5.04282 14.3569 5.0128 14.3539 4.98301L14.3987 4.95102ZM4.69059 13.1168H2.87952V11.3057L9.23425 4.95102L11.0453 6.76208L4.69059 13.1168ZM11.9476 5.85975L10.1366 4.04868L11.0453 3.14635L12.85 4.95102L11.9476 5.85975Z" fill="white"/>
</svg>
