<svg width="20" height="20" viewBox="0 0 20 20" fill="none" xmlns="http://www.w3.org/2000/svg">
<g clip-path="url(#clip0_10516_14548)">
<mask id="mask0_10516_14548" style="mask-type:alpha" maskUnits="userSpaceOnUse" x="0" y="0" width="20" height="20">
<rect width="20" height="20" transform="matrix(0 1 1 0 0 0)" fill="#D9D9D9"/>
</mask>
<g mask="url(#mask0_10516_14548)">
<path d="M17.0826 8.42243C17.0826 8.00149 16.9368 7.64518 16.6451 7.35352C16.3535 7.06185 15.9972 6.91602 15.5762 6.91602H12.6115V8.16599H15.5762C15.6403 8.16599 15.6991 8.1927 15.7525 8.24612C15.806 8.29955 15.8327 8.35832 15.8327 8.42243L15.8327 15.5762C15.8327 15.6403 15.806 15.6991 15.7525 15.7525C15.6991 15.806 15.6403 15.8327 15.5762 15.8327H4.42243C4.35832 15.8327 4.29955 15.806 4.24612 15.7525C4.1927 15.6991 4.166 15.6403 4.166 15.5762L4.166 8.42243C4.166 8.35832 4.1927 8.29955 4.24612 8.24612C4.29955 8.1927 4.35832 8.16599 4.42243 8.16599H7.38714V6.91602H4.42243C4.00149 6.91602 3.64518 7.06185 3.35352 7.35352C3.06185 7.64518 2.91602 8.00149 2.91602 8.42243L2.91602 15.5762C2.91602 15.9972 3.06185 16.3535 3.35352 16.6451C3.64518 16.9368 4.00149 17.0826 4.42243 17.0826H15.5762C15.9972 17.0826 16.3535 16.9368 16.6451 16.6451C16.9368 16.3535 17.0826 15.9972 17.0826 15.5762V8.42243ZM13.7172 4.63393L12.8134 5.51212L10.6243 3.32301V12.6115H9.37435V3.32301L7.18525 5.51212L6.28141 4.63393L9.99933 0.916016L13.7172 4.63393Z" fill="#0056A1"/>
</g>
<mask id="mask1_10516_14548" style="mask-type:alpha" maskUnits="userSpaceOnUse" x="0" y="0" width="20" height="20">
<rect width="20" height="20" transform="matrix(0 1 1 0 0 0)" fill="#D9D9D9"/>
</mask>
<g mask="url(#mask1_10516_14548)">
<path d="M2.5 8.61068C2.5 8.15234 2.66319 7.75998 2.98958 7.43359C3.31597 7.1072 3.70833 6.94401 4.16667 6.94401H7.5L7.5 8.61068H4.16667L4.16667 15.8329H15.8333L15.8333 8.61068H12.5V6.94401H15.8333C16.2917 6.94401 16.684 7.1072 17.0104 7.43359C17.3368 7.75998 17.5 8.15234 17.5 8.61068V15.8329C17.5 16.2912 17.3368 16.6836 17.0104 17.01C16.684 17.3364 16.2917 17.4996 15.8333 17.4996H4.16667C3.70833 17.4996 3.31597 17.3364 2.98958 17.01C2.66319 16.6836 2.5 16.2912 2.5 15.8329L2.5 8.61068ZM5.83333 4.44401L7.04167 5.61068L9.16667 3.48568C9.16667 7.16854 9.16667 9.23337 9.16667 12.9162H10.8333V3.48568L12.9583 5.61068L14.1667 4.44401L10 0.277344L5.83333 4.44401Z" fill="#0056A1"/>
</g>
</g>
<defs>
<clipPath id="clip0_10516_14548">
<rect width="20" height="20" fill="white" transform="matrix(0 1 1 0 0 0)"/>
</clipPath>
</defs>
</svg>
