<svg width="18" height="18" viewBox="0 0 18 18" fill="none" xmlns="http://www.w3.org/2000/svg">
<mask id="mask0_10556_22544" style="mask-type:alpha" maskUnits="userSpaceOnUse" x="0" y="0" width="18" height="18">
<rect width="18" height="18" transform="matrix(0 1 1 0 0 0)" fill="#D9D9D9"/>
</mask>
<g mask="url(#mask0_10556_22544)">
<path d="M15.75 6.75C15.75 6.3375 15.6031 5.98437 15.3094 5.69063C15.0156 5.39688 14.6625 5.25 14.25 5.25L11.25 5.25V6.75H14.25V14.25H3.75L3.75 6.75H6.75V5.25H3.75C3.3375 5.25 2.98438 5.39688 2.69063 5.69063C2.39687 5.98438 2.25 6.3375 2.25 6.75L2.25 14.25C2.25 14.6625 2.39687 15.0156 2.69063 15.3094C2.98438 15.6031 3.3375 15.75 3.75 15.75H14.25C14.6625 15.75 15.0156 15.6031 15.3094 15.3094C15.6031 15.0156 15.75 14.6625 15.75 14.25V6.75ZM12.75 8.875L11.6625 7.825L9.75 9.7375C9.75 6.42292 9.75 4.56457 9.75 1.25H8.25V9.7375L6.3375 7.825L5.25 8.875L9 12.625L12.75 8.875Z" fill="white"/>
</g>
</svg>
