<svg width="14" height="14" viewBox="0 0 14 14" fill="none" xmlns="http://www.w3.org/2000/svg">
<path d="M6.48737 13.25C6.27792 13.25 6.10272 13.1794 5.96174 13.0383C5.82063 12.8974 5.75008 12.7222 5.75008 12.5127V7.68917L1.08508 1.76292C0.924799 1.54917 0.901535 1.32694 1.01529 1.09625C1.12917 0.865417 1.32126 0.75 1.59154 0.75H12.4086C12.6789 0.75 12.871 0.865417 12.9849 1.09625C13.0986 1.32694 13.0754 1.54917 12.9151 1.76292L8.25008 7.68917V12.5127C8.25008 12.7222 8.17952 12.8974 8.03841 13.0383C7.89744 13.1794 7.72223 13.25 7.51278 13.25H6.48737ZM7.00008 7.25L11.1251 2H2.87508L7.00008 7.25Z" fill="#0056A1"/>
</svg>
