<svg width="14" height="14" viewBox="0 0 14 14" fill="none" xmlns="http://www.w3.org/2000/svg">
<path d="M1.75 13.75C1.3375 13.75 0.98425 13.6033 0.69025 13.3097C0.39675 13.0157 0.25 12.6625 0.25 12.25V1.75C0.25 1.3375 0.39675 0.98425 0.69025 0.69025C0.98425 0.39675 1.3375 0.25 1.75 0.25H12.25C12.6625 0.25 13.0157 0.39675 13.3097 0.69025C13.6033 0.98425 13.75 1.3375 13.75 1.75V12.25C13.75 12.6625 13.6033 13.0157 13.3097 13.3097C13.0157 13.6033 12.6625 13.75 12.25 13.75H1.75ZM7.75 7.75V12.25H12.25V7.75H7.75ZM7.75 6.25H12.25V1.75H7.75V6.25ZM6.25 6.25V1.75H1.75V6.25H6.25ZM6.25 7.75H1.75V12.25H6.25V7.75Z" fill="white"/>
</svg>
