<svg width="32" height="32" viewBox="0 0 32 32" fill="none" xmlns="http://www.w3.org/2000/svg">
<mask id="mask0_163_61" style="mask-type:alpha" maskUnits="userSpaceOnUse" x="0" y="0" width="32" height="32">
<rect width="32" height="32" fill="#D9D9D9"/>
</mask>
<g mask="url(#mask0_163_61)">
<path d="M22.8207 11.846H25.1793V9.48734H22.8207V11.846ZM22.8207 17.1793H25.1793V14.8207H22.8207V17.1793ZM22.8207 22.5127H25.1793V20.154H22.8207V22.5127ZM22 27.3333V25.3333H28V6.66667H15.5897V9.05901L13.5897 7.61301V4.66667H30V27.3333H22ZM2 27.3333V15L10.6667 8.82067L19.3333 15V27.3333H12.1797V21H9.15367V27.3333H2ZM4 25.3333H7.154V19H14.1793V25.3333H17.3333V16L10.6667 11.2923L4 16V25.3333Z" fill="white"/>
</g>
</svg>
