<svg width="20" height="20" viewBox="0 0 20 20" fill="none" xmlns="http://www.w3.org/2000/svg">
<mask id="mask0_4784_65386" style="mask-type:alpha" maskUnits="userSpaceOnUse" x="0" y="0" width="20" height="20">
<rect width="20" height="20" fill="#D9D9D9"/>
</mask>
<g mask="url(#mask0_4784_65386)">
<path d="M4.16667 17.5C3.70833 17.5 3.31597 17.3368 2.98958 17.0104C2.66319 16.684 2.5 16.2917 2.5 15.8333V4.16667C2.5 3.70833 2.66319 3.31597 2.98958 2.98958C3.31597 2.66319 3.70833 2.5 4.16667 2.5H15.8333C16.2917 2.5 16.684 2.66319 17.0104 2.98958C17.3368 3.31597 17.5 3.70833 17.5 4.16667V15.8333C17.5 16.2917 17.3368 16.684 17.0104 17.0104C16.684 17.3368 16.2917 17.5 15.8333 17.5H4.16667ZM4.16667 15.8333H15.8333V4.16667H4.16667V15.8333ZM5 14.1667H15L11.875 10L9.375 13.3333L7.5 10.8333L5 14.1667ZM7.08333 8.33333C7.43056 8.33333 7.72569 8.21181 7.96875 7.96875C8.21181 7.72569 8.33333 7.43056 8.33333 7.08333C8.33333 6.73611 8.21181 6.44097 7.96875 6.19792C7.72569 5.95486 7.43056 5.83333 7.08333 5.83333C6.73611 5.83333 6.44097 5.95486 6.19792 6.19792C5.95486 6.44097 5.83333 6.73611 5.83333 7.08333C5.83333 7.43056 5.95486 7.72569 6.19792 7.96875C6.44097 8.21181 6.73611 8.33333 7.08333 8.33333Z" fill="#888888"/>
</g>
</svg>
