<svg width="20" height="20" viewBox="0 0 20 20" fill="none" xmlns="http://www.w3.org/2000/svg">
<g clip-path="url(#clip0_10516_14540)">
<mask id="mask0_10516_14540" style="mask-type:alpha" maskUnits="userSpaceOnUse" x="0" y="0" width="20" height="20">
<rect width="20" height="20" transform="matrix(0 1 1 0 0 0)" fill="#D9D9D9"/>
</mask>
<g mask="url(#mask0_10516_14540)">
<path d="M17.0826 7.42243C17.0826 7.00149 16.9368 6.64518 16.6451 6.35352C16.3535 6.06185 15.9972 5.91602 15.5762 5.91602L12.6115 5.91602V7.16599H15.5762C15.6403 7.16599 15.6991 7.1927 15.7525 7.24612C15.806 7.29955 15.8327 7.35832 15.8327 7.42243V15.5762C15.8327 15.6403 15.806 15.6991 15.7525 15.7525C15.6991 15.806 15.6403 15.8327 15.5762 15.8327H4.42243C4.35832 15.8327 4.29955 15.806 4.24612 15.7525C4.1927 15.6991 4.166 15.6403 4.166 15.5762L4.166 7.42243C4.166 7.35832 4.1927 7.29955 4.24612 7.24612C4.29955 7.1927 4.35832 7.16599 4.42243 7.16599H7.38714V5.91602H4.42243C4.00149 5.91602 3.64518 6.06185 3.35352 6.35352C3.06185 6.64518 2.91602 7.00149 2.91602 7.42243L2.91602 15.5762C2.91602 15.9972 3.06185 16.3535 3.35352 16.6451C3.64518 16.9368 4.00149 17.0826 4.42243 17.0826H15.5762C15.9972 17.0826 16.3535 16.9368 16.6451 16.6451C16.9368 16.3535 17.0826 15.9972 17.0826 15.5762V7.42243ZM13.7172 9.89358L12.8134 9.01539L10.6243 11.2045V1.91602H9.37435V11.2045L7.18525 9.01539L6.28141 9.89358L9.99933 13.6115L13.7172 9.89358Z" fill="#0056A1"/>
</g>
<mask id="mask1_10516_14540" style="mask-type:alpha" maskUnits="userSpaceOnUse" x="0" y="0" width="18" height="18">
<rect width="18" height="18" transform="matrix(0 1 1 0 0 0)" fill="#D9D9D9"/>
</mask>
<g mask="url(#mask1_10516_14540)">
<path d="M17.5 7.49978C17.5 7.04145 17.3368 6.64909 17.0104 6.3227C16.684 5.99631 16.2917 5.83312 15.8333 5.83312H12.5V7.49978H15.8333V15.8331H4.16667L4.16667 7.49978H7.5V5.83312H4.16667C3.70833 5.83312 3.31597 5.99631 2.98958 6.3227C2.66319 6.64909 2.5 7.04145 2.5 7.49978L2.5 15.8331C2.5 16.2914 2.66319 16.6838 2.98958 17.0102C3.31597 17.3366 3.70833 17.4998 4.16667 17.4998H15.8333C16.2917 17.4998 16.684 17.3366 17.0104 17.0102C17.3368 16.6838 17.5 16.2914 17.5 15.8331V7.49978ZM14.1667 9.86089L12.9583 8.69423L10.8333 10.8192C10.8333 7.13637 10.8333 5.07153 10.8333 1.38867H9.16667V10.8192L7.04167 8.69423L5.83333 9.86089L10 14.0276L14.1667 9.86089Z" fill="#0056A1"/>
</g>
</g>
<defs>
<clipPath id="clip0_10516_14540">
<rect width="20" height="20" fill="white" transform="matrix(0 1 1 0 0 0)"/>
</clipPath>
</defs>
</svg>
