<svg width="18" height="18" viewBox="0 0 18 18" fill="none" xmlns="http://www.w3.org/2000/svg">
<g id="info">
<mask id="mask0_12253_12715" style="mask-type:alpha" maskUnits="userSpaceOnUse" x="0" y="0" width="18" height="18">
<rect id="Bounding box" width="18" height="18" fill="#D9D9D9"/>
</mask>
<g mask="url(#mask0_12253_12715)">
<path id="info_2" d="M8.25 12.751H9.75V8.25098H8.25V12.751ZM9 6.75098C9.2125 6.75098 9.39063 6.6791 9.53438 6.53535C9.67813 6.3916 9.75 6.21348 9.75 6.00098C9.75 5.78848 9.67813 5.61035 9.53438 5.4666C9.39063 5.32285 9.2125 5.25098 9 5.25098C8.7875 5.25098 8.60938 5.32285 8.46563 5.4666C8.32188 5.61035 8.25 5.78848 8.25 6.00098C8.25 6.21348 8.32188 6.3916 8.46563 6.53535C8.60938 6.6791 8.7875 6.75098 9 6.75098ZM9 16.501C7.9625 16.501 6.9875 16.3041 6.075 15.9104C5.1625 15.5166 4.36875 14.9822 3.69375 14.3072C3.01875 13.6322 2.48438 12.8385 2.09063 11.926C1.69687 11.0135 1.5 10.0385 1.5 9.00098C1.5 7.96348 1.69687 6.98848 2.09063 6.07598C2.48438 5.16348 3.01875 4.36973 3.69375 3.69473C4.36875 3.01973 5.1625 2.48535 6.075 2.0916C6.9875 1.69785 7.9625 1.50098 9 1.50098C10.0375 1.50098 11.0125 1.69785 11.925 2.0916C12.8375 2.48535 13.6313 3.01973 14.3063 3.69473C14.9813 4.36973 15.5156 5.16348 15.9094 6.07598C16.3031 6.98848 16.5 7.96348 16.5 9.00098C16.5 10.0385 16.3031 11.0135 15.9094 11.926C15.5156 12.8385 14.9813 13.6322 14.3063 14.3072C13.6313 14.9822 12.8375 15.5166 11.925 15.9104C11.0125 16.3041 10.0375 16.501 9 16.501Z" fill="#888888"/>
</g>
</g>
</svg>
