<svg width="30" height="30" viewBox="0 0 30 30" fill="none" xmlns="http://www.w3.org/2000/svg">
<circle opacity="0.4" cx="15" cy="15" r="14.5" stroke="#0056A1"/>
<path d="M23.3327 15.0007C23.3327 19.584 19.5827 23.334 14.9993 23.334C10.416 23.334 6.66602 19.584 6.66602 15.0007C6.66602 10.4173 10.416 6.66732 14.9993 6.66732C19.5827 6.66732 23.3327 10.4173 23.3327 15.0007ZM8.33268 15.0007C8.33268 18.6673 11.3327 21.6673 14.9993 21.6673C18.666 21.6673 21.666 18.6673 21.666 15.0007C21.666 11.334 18.666 8.33398 14.9993 8.33398C11.3327 8.33398 8.33268 11.334 8.33268 15.0007Z" fill="#0056A1"/>
<path d="M23.3329 15.4167C23.3329 15.5833 23.2495 15.75 23.1662 15.9167C22.2495 17.1667 20.9995 18.25 19.5829 18.9167C18.1662 19.6667 16.5829 20 14.9995 20C13.4162 20 11.8329 19.5833 10.4162 18.9167C8.99953 18.1667 7.74953 17.1667 6.83286 15.9167C6.58286 15.5833 6.66619 15 6.99953 14.75C7.33286 14.5 7.91619 14.5833 8.16619 14.9167C8.91619 16 9.99953 16.8333 11.1662 17.4167C12.3329 18.0833 13.6662 18.3333 14.9995 18.3333C16.3329 18.3333 17.6662 18 18.8329 17.4167C19.9995 16.8333 21.0829 15.9167 21.8329 14.9167C22.0829 14.5833 22.6662 14.5 22.9995 14.75C23.2495 14.9167 23.3329 15.1667 23.3329 15.4167Z" fill="#0056A1"/>
<path d="M23.3329 14.5825C23.3329 14.8325 23.2495 15.0825 22.9995 15.2492C22.6662 15.4992 22.0829 15.4158 21.8329 15.0825C21.0829 13.9992 19.9995 13.1658 18.8329 12.5825C17.6662 11.9992 16.3329 11.6658 14.9995 11.6658C13.6662 11.6658 12.3329 11.9992 11.1662 12.5825C9.99953 13.1658 8.91619 14.0825 8.16619 15.0825C7.91619 15.4158 7.33286 15.4992 6.99953 15.2492C6.66619 14.9992 6.58286 14.4158 6.83286 14.0825C7.74953 12.8325 8.99953 11.7492 10.4162 11.0825C11.8329 10.3325 13.4162 9.99917 14.9995 9.99917C16.5829 9.99917 18.1662 10.4158 19.5829 11.0825C20.9995 11.8325 22.2495 12.8325 23.1662 14.0825C23.2495 14.2492 23.3329 14.4158 23.3329 14.5825Z" fill="#0056A1"/>
<path d="M23.3327 15.0007C23.3327 15.5007 22.9993 15.834 22.4993 15.834L7.49935 15.834C6.99935 15.834 6.66602 15.5007 6.66602 15.0007C6.66602 14.5007 6.99935 14.1673 7.49935 14.1673H22.4993C22.9993 14.1673 23.3327 14.5007 23.3327 15.0007Z" fill="#0056A1"/>
</svg>
