<svg width="41" height="40" viewBox="0 0 41 40" fill="none" xmlns="http://www.w3.org/2000/svg">
<mask id="mask0_8750_12415" style="mask-type:alpha" maskUnits="userSpaceOnUse" x="0" y="0" width="41" height="40">
<rect x="0.5" width="40" height="40" fill="#D9D9D9"/>
</mask>
<g mask="url(#mask0_8750_12415)">
<path d="M16.7513 25.0642L27.232 18.3335L16.7513 11.6027V25.0642ZM14.668 34.1667V30.8334H7.6808C6.83891 30.8334 6.1263 30.5417 5.54297 29.9584C4.95964 29.3751 4.66797 28.6625 4.66797 27.8206V8.84633C4.66797 8.00444 4.95964 7.29183 5.54297 6.7085C6.1263 6.12516 6.83891 5.8335 7.6808 5.8335H33.3217C34.1636 5.8335 34.8762 6.12516 35.4596 6.7085C36.0429 7.29183 36.3346 8.00444 36.3346 8.84633V27.8206C36.3346 28.6625 36.0429 29.3751 35.4596 29.9584C34.8762 30.5417 34.1636 30.8334 33.3217 30.8334H26.3346V34.1667H14.668ZM7.6808 28.3335H33.3217C33.4499 28.3335 33.5675 28.28 33.6743 28.1732C33.7812 28.0663 33.8346 27.9488 33.8346 27.8206V8.84633C33.8346 8.71811 33.7812 8.60057 33.6743 8.49371C33.5675 8.38687 33.4499 8.33346 33.3217 8.33346H7.6808C7.55258 8.33346 7.43504 8.38687 7.32818 8.49371C7.22134 8.60057 7.16793 8.71811 7.16793 8.84633V27.8206C7.16793 27.9488 7.22134 28.0663 7.32818 28.1732C7.43504 28.28 7.55258 28.3335 7.6808 28.3335Z" fill="white"/>
</g>
</svg>
