<svg width="20" height="20" viewBox="0 0 20 20" fill="none" xmlns="http://www.w3.org/2000/svg">
<mask id="mask0_8750_12302" style="mask-type:alpha" maskUnits="userSpaceOnUse" x="0" y="0" width="20" height="20">
<rect width="20" height="20" fill="#D9D9D9"/>
</mask>
<g mask="url(#mask0_8750_12302)">
<path d="M7.91602 12.9167L13.7493 9.16667L7.91602 5.41667V12.9167ZM6.66602 17.5V15.8333H3.33268C2.87435 15.8333 2.48199 15.6701 2.1556 15.3438C1.82921 15.0174 1.66602 14.625 1.66602 14.1667V4.16667C1.66602 3.70833 1.82921 3.31597 2.1556 2.98958C2.48199 2.66319 2.87435 2.5 3.33268 2.5H16.666C17.1243 2.5 17.5167 2.66319 17.8431 2.98958C18.1695 3.31597 18.3327 3.70833 18.3327 4.16667V14.1667C18.3327 14.625 18.1695 15.0174 17.8431 15.3438C17.5167 15.6701 17.1243 15.8333 16.666 15.8333H13.3327V17.5H6.66602ZM3.33268 14.1667H16.666V4.16667H3.33268V14.1667Z" fill="#0056A1"/>
</g>
</svg>
