<svg width="14" height="12" viewBox="0 0 14 12" fill="none" xmlns="http://www.w3.org/2000/svg">
<path d="M4.75 11.25V9.75H13.75V11.25H4.75ZM4.75 6.75V5.25H13.75V6.75H4.75ZM4.75 2.25V0.75H13.75V2.25H4.75ZM1.75 12C1.3375 12 0.98425 11.8533 0.69025 11.5597C0.39675 11.2657 0.25 10.9125 0.25 10.5C0.25 10.0875 0.39675 9.73425 0.69025 9.44025C0.98425 9.14675 1.3375 9 1.75 9C2.1625 9 2.5155 9.14675 2.809 9.44025C3.103 9.73425 3.25 10.0875 3.25 10.5C3.25 10.9125 3.103 11.2657 2.809 11.5597C2.5155 11.8533 2.1625 12 1.75 12ZM1.75 7.5C1.3375 7.5 0.98425 7.353 0.69025 7.059C0.39675 6.7655 0.25 6.4125 0.25 6C0.25 5.5875 0.39675 5.23425 0.69025 4.94025C0.98425 4.64675 1.3375 4.5 1.75 4.5C2.1625 4.5 2.5155 4.64675 2.809 4.94025C3.103 5.23425 3.25 5.5875 3.25 6C3.25 6.4125 3.103 6.7655 2.809 7.059C2.5155 7.353 2.1625 7.5 1.75 7.5ZM1.75 3C1.3375 3 0.98425 2.853 0.69025 2.559C0.39675 2.2655 0.25 1.9125 0.25 1.5C0.25 1.0875 0.39675 0.7345 0.69025 0.441C0.98425 0.147 1.3375 0 1.75 0C2.1625 0 2.5155 0.147 2.809 0.441C3.103 0.7345 3.25 1.0875 3.25 1.5C3.25 1.9125 3.103 2.2655 2.809 2.559C2.5155 2.853 2.1625 3 1.75 3Z" fill="white"/>
</svg>
