<svg width="24" height="24" viewBox="0 0 24 24" fill="none" xmlns="http://www.w3.org/2000/svg">
<path d="M21.1705 3.61902L12.1423 0.810508C12.0495 0.781914 11.9501 0.781914 11.8573 0.810508L2.8292 3.61902C2.62834 3.6816 2.4917 3.86723 2.4917 4.07746V9.57871C2.4917 15.5625 6.24334 21.0282 11.8273 23.179C11.8829 23.2004 11.9412 23.2111 11.9998 23.2111C12.0584 23.2111 12.1168 23.2004 12.1723 23.179C17.7561 21.0282 21.5079 15.5628 21.5079 9.57871V4.07746C21.5079 3.86723 21.3711 3.6816 21.1705 3.61902ZM20.548 9.57871C20.548 15.1067 17.1209 20.1612 11.9998 22.2153C6.87896 20.161 3.4517 15.1067 3.4517 9.57871V4.4309L11.9998 1.77168L20.548 4.4309V9.57871ZM11.6542 8.14562H12.3454C12.8878 8.14562 13.3294 8.57764 13.339 9.12004V10.08H10.6606V9.12004C10.6702 8.57764 11.1118 8.14562 11.6542 8.14562ZM11.8558 2.82244L4.74703 5.03043C4.55022 5.09283 4.41103 5.28004 4.41103 5.49124V9.58082C4.41103 14.5104 7.31021 19.0224 11.7982 21.0864C11.8654 21.1152 11.9326 21.1296 11.9998 21.1296C12.067 21.1296 12.1342 21.1152 12.2014 21.0864C16.6894 19.0224 19.5886 14.5104 19.5886 9.58082V5.49124C19.5886 5.28004 19.4494 5.09283 19.2526 5.03043L12.1438 2.82244C12.0478 2.79364 11.9518 2.79364 11.8558 2.82244ZM12.3454 7.18563C13.4158 7.18563 14.2942 8.05442 14.299 9.12484V10.0896C14.6494 10.1184 14.923 10.416 14.923 10.776V14.3424C14.923 14.7264 14.611 15.0384 14.227 15.0384H9.77262C9.38862 15.0384 9.07661 14.7264 9.07661 14.3424V10.776C9.07661 10.416 9.35021 10.1184 9.70063 10.0896V9.12484C9.70541 8.05442 10.5838 7.18563 11.6542 7.18563H12.3454ZM12.8881 12.2527C12.8881 12.5655 12.7248 12.8397 12.4798 12.9981V13.2741C12.4798 13.5392 12.2649 13.7541 11.9998 13.7541C11.7347 13.7541 11.5198 13.5392 11.5198 13.2741V12.9982C11.2748 12.8398 11.1113 12.5655 11.1113 12.2527C11.1113 11.7629 11.51 11.3642 11.9998 11.3642C12.4897 11.3642 12.8881 11.7629 12.8881 12.2527Z" fill="#0056A1"/>
</svg>
