<svg width="14" height="18" viewBox="0 0 14 18" fill="none" xmlns="http://www.w3.org/2000/svg">
<path d="M11.1663 6.50033V4.83366C11.1663 3.72859 10.7274 2.66878 9.94595 1.88738C9.16455 1.10598 8.10474 0.666992 6.99967 0.666992C5.89461 0.666992 4.8348 1.10598 4.0534 1.88738C3.27199 2.66878 2.83301 3.72859 2.83301 4.83366V6.50033C2.16997 6.50033 1.53408 6.76372 1.06524 7.23256C0.5964 7.7014 0.333008 8.33728 0.333008 9.00033V14.8337C0.333008 15.4967 0.5964 16.1326 1.06524 16.6014C1.53408 17.0703 2.16997 17.3337 2.83301 17.3337H11.1663C11.8294 17.3337 12.4653 17.0703 12.9341 16.6014C13.4029 16.1326 13.6663 15.4967 13.6663 14.8337V9.00033C13.6663 8.33728 13.4029 7.7014 12.9341 7.23256C12.4653 6.76372 11.8294 6.50033 11.1663 6.50033ZM4.49967 4.83366C4.49967 4.17062 4.76307 3.53473 5.23191 3.06589C5.70075 2.59705 6.33663 2.33366 6.99967 2.33366C7.66272 2.33366 8.2986 2.59705 8.76744 3.06589C9.23628 3.53473 9.49967 4.17062 9.49967 4.83366V6.50033H4.49967V4.83366ZM11.9997 14.8337C11.9997 15.0547 11.9119 15.2666 11.7556 15.4229C11.5993 15.5792 11.3874 15.667 11.1663 15.667H2.83301C2.61199 15.667 2.40003 15.5792 2.24375 15.4229C2.08747 15.2666 1.99967 15.0547 1.99967 14.8337V9.00033C1.99967 8.77931 2.08747 8.56735 2.24375 8.41107C2.40003 8.25479 2.61199 8.16699 2.83301 8.16699H11.1663C11.3874 8.16699 11.5993 8.25479 11.7556 8.41107C11.9119 8.56735 11.9997 8.77931 11.9997 9.00033V14.8337Z" fill="#888888"/>
</svg>
