<svg width="20" height="21" viewBox="0 0 20 21" fill="none" xmlns="http://www.w3.org/2000/svg">
<g id="pin 2">
<g id="Group">
<g id="Group_2">
<g id="Group_3">
<path id="Vector" d="M9.99958 10.007C11.5405 10.007 12.7941 8.75337 12.7941 7.21251C12.7941 5.67164 11.5405 4.41797 9.99958 4.41797C8.45868 4.41797 7.20508 5.67161 7.20508 7.21247C7.20508 8.75334 8.45868 10.007 9.99958 10.007ZM9.99958 5.79796C10.7795 5.79796 11.4141 6.43253 11.4141 7.21247C11.4141 7.99241 10.7795 8.62699 9.99958 8.62699C9.21964 8.62699 8.58507 7.99241 8.58507 7.21247C8.58507 6.43253 9.21964 5.79796 9.99958 5.79796Z" fill="#0056A1"/>
<path id="Vector_2" d="M16.3121 12.9377H13.4564C15.1234 10.9269 15.9685 9.11378 15.9685 7.54391V7.21102C15.9685 3.91983 13.2911 1.24219 10 1.24219C6.70892 1.24219 4.03145 3.91979 4.03145 7.21105V7.54395C4.03145 9.11382 4.87661 10.9269 6.54365 12.9378H3.68791L1 18.9408H19L16.3121 12.9377ZM5.41151 7.54395V7.21105H5.41148C5.41148 4.68075 7.46991 2.62218 10 2.62218C12.5301 2.62218 14.5885 4.68075 14.5885 7.21105V7.54395C14.5885 8.84027 13.7388 10.5083 12.1311 12.3678C11.3135 13.3134 10.4864 14.0886 9.99986 14.5217C9.51671 14.0919 8.69757 13.3243 7.88226 12.3832C6.26588 10.5175 5.41151 8.84413 5.41151 7.54395ZM4.582 14.3178H7.78913C8.74749 15.2994 9.52205 15.9331 9.56438 15.9676L10 16.3222L10.4356 15.9676C10.478 15.9331 11.2525 15.2993 12.2108 14.3178H15.418L16.8701 17.5608H3.12991L4.582 14.3178Z" fill="#0056A1"/>
</g>
</g>
</g>
</g>
</svg>
