<svg width="24" height="24" viewBox="0 0 24 24" fill="none" xmlns="http://www.w3.org/2000/svg">
<mask id="mask0_5271_1165" style="mask-type:alpha" maskUnits="userSpaceOnUse" x="0" y="0" width="24" height="24">
<rect width="24" height="24" fill="#D9D9D9"/>
</mask>
<g mask="url(#mask0_5271_1165)">
<path d="M12 12.3597C12.55 12.3597 13.0208 12.1631 13.4125 11.7699C13.8042 11.3768 14 10.9042 14 10.3521C14 9.8 13.8042 9.32738 13.4125 8.93423C13.0208 8.54108 12.55 8.3445 12 8.3445C11.45 8.3445 10.9792 8.54108 10.5875 8.93423C10.1958 9.32738 10 9.8 10 10.3521C10 10.9042 10.1958 11.3768 10.5875 11.7699C10.9792 12.1631 11.45 12.3597 12 12.3597ZM12 19.7375C14.0333 17.8638 15.5417 16.1615 16.525 14.6307C17.5083 13.0999 18 11.7407 18 10.5528C18 8.72929 17.4208 7.23616 16.2625 6.07343C15.1042 4.91071 13.6833 4.32935 12 4.32935C10.3167 4.32935 8.89583 4.91071 7.7375 6.07343C6.57917 7.23616 6 8.72929 6 10.5528C6 11.7407 6.49167 13.0999 7.475 14.6307C8.45833 16.1615 9.96667 17.8638 12 19.7375ZM12 22.3975C9.31667 20.1056 7.3125 17.9767 5.9875 16.0109C4.6625 14.0452 4 12.2258 4 10.5528C4 8.04337 4.80417 6.04416 6.4125 4.55521C8.02083 3.06625 9.88333 2.32178 12 2.32178C14.1167 2.32178 15.9792 3.06625 17.5875 4.55521C19.1958 6.04416 20 8.04337 20 10.5528C20 12.2258 19.3375 14.0452 18.0125 16.0109C16.6875 17.9767 14.6833 20.1056 12 22.3975Z" fill="white"/>
</g>
</svg>
