<svg width="18" height="18" viewBox="0 0 18 18" fill="none" xmlns="http://www.w3.org/2000/svg">
<mask id="mask0_8629_11067" style="mask-type:alpha" maskUnits="userSpaceOnUse" x="0" y="0" width="18" height="18">
<rect width="18" height="18" fill="#D9D9D9"/>
</mask>
<g mask="url(#mask0_8629_11067)">
<path d="M7.12305 11.625L12.373 8.25L7.12305 4.875V11.625ZM5.99805 15.75V14.25H2.99805C2.58555 14.25 2.23242 14.1031 1.93867 13.8094C1.64492 13.5156 1.49805 13.1625 1.49805 12.75V3.75C1.49805 3.3375 1.64492 2.98438 1.93867 2.69063C2.23242 2.39688 2.58555 2.25 2.99805 2.25H14.998C15.4105 2.25 15.7637 2.39688 16.0574 2.69063C16.3512 2.98438 16.498 3.3375 16.498 3.75V12.75C16.498 13.1625 16.3512 13.5156 16.0574 13.8094C15.7637 14.1031 15.4105 14.25 14.998 14.25H11.998V15.75H5.99805ZM2.99805 12.75H14.998V3.75H2.99805V12.75Z" fill="white"/>
</g>
</svg>
