<svg width="30" height="30" viewBox="0 0 30 30" fill="none" xmlns="http://www.w3.org/2000/svg">
<circle opacity="0.4" cx="15" cy="15" r="14.5" stroke="#0056A1"/>
<path d="M14.9993 23.3327C10.416 23.3327 6.66602 19.5827 6.66602 14.9993C6.66602 10.416 10.416 6.66602 14.9993 6.66602C19.5827 6.66602 23.3327 10.416 23.3327 14.9993C23.3327 19.5827 19.5827 23.3327 14.9993 23.3327ZM14.9993 8.33268C11.3327 8.33268 8.33268 11.3327 8.33268 14.9993C8.33268 18.666 11.3327 21.666 14.9993 21.666C18.666 21.666 21.666 18.666 21.666 14.9993C21.666 11.3327 18.666 8.33268 14.9993 8.33268Z" fill="#0056A1"/>
<path d="M14.5833 23.3329C14.4167 23.3329 14.25 23.2495 14.0833 23.1662C12.8333 22.2495 11.75 20.9995 11.0833 19.5829C10.3333 18.1662 10 16.5829 10 14.9995C10 13.4162 10.4167 11.8329 11.0833 10.4162C11.8333 8.99953 12.8333 7.74953 14.0833 6.83286C14.4167 6.58286 15 6.66619 15.25 6.99953C15.5 7.33286 15.4167 7.91619 15.0833 8.16619C14 8.91619 13.1667 9.99953 12.5833 11.1662C11.9167 12.3329 11.6667 13.6662 11.6667 14.9995C11.6667 16.3329 12 17.6662 12.5833 18.8329C13.1667 19.9995 14.0833 21.0829 15.0833 21.8329C15.4167 22.0829 15.5 22.6662 15.25 22.9995C15.0833 23.2495 14.8333 23.3329 14.5833 23.3329Z" fill="#0056A1"/>
<path d="M15.4175 23.3329C15.1675 23.3329 14.9175 23.2495 14.7508 22.9995C14.5008 22.6662 14.5842 22.0829 14.9175 21.8329C16.0008 21.0829 16.8342 19.9995 17.4175 18.8329C18.0008 17.6662 18.3342 16.3329 18.3342 14.9995C18.3342 13.6662 18.0008 12.3329 17.4175 11.1662C16.8342 9.99953 15.9175 8.91619 14.9175 8.16619C14.5842 7.91619 14.5008 7.33286 14.7508 6.99953C15.0008 6.66619 15.5842 6.58286 15.9175 6.83286C17.1675 7.74953 18.2508 8.99953 18.9175 10.4162C19.6675 11.8329 20.0008 13.4162 20.0008 14.9995C20.0008 16.5829 19.5842 18.1662 18.9175 19.5829C18.1675 20.9995 17.1675 22.2495 15.9175 23.1662C15.7508 23.2495 15.5842 23.3329 15.4175 23.3329Z" fill="#0056A1"/>
<path d="M14.9993 23.3327C14.4993 23.3327 14.166 22.9993 14.166 22.4993V7.49935C14.166 6.99935 14.4993 6.66602 14.9993 6.66602C15.4993 6.66602 15.8327 6.99935 15.8327 7.49935V22.4993C15.8327 22.9993 15.4993 23.3327 14.9993 23.3327Z" fill="#0056A1"/>
</svg>
