<svg width="18" height="14" viewBox="0 0 18 14" fill="none" xmlns="http://www.w3.org/2000/svg">
<path d="M2.33329 13.6663C1.87496 13.6663 1.4826 13.5031 1.15621 13.1768C0.82982 12.8504 0.666626 12.458 0.666626 11.9997V1.99967C0.666626 1.54134 0.82982 1.14898 1.15621 0.822591C1.4826 0.496202 1.87496 0.333008 2.33329 0.333008H15.6666C16.125 0.333008 16.5173 0.496202 16.8437 0.822591C17.1701 1.14898 17.3333 1.54134 17.3333 1.99967V11.9997C17.3333 12.458 17.1701 12.8504 16.8437 13.1768C16.5173 13.5031 16.125 13.6663 15.6666 13.6663H2.33329ZM8.99996 7.83301L2.33329 3.66634V11.9997H15.6666V3.66634L8.99996 7.83301ZM8.99996 6.16634L15.6666 1.99967H2.33329L8.99996 6.16634ZM2.33329 3.66634V1.99967V11.9997V3.66634Z" fill="#939393"/>
</svg>
