<svg width="20" height="20" viewBox="0 0 20 20" fill="none" xmlns="http://www.w3.org/2000/svg">
<mask id="mask0_4237_57747" style="mask-type:alpha" maskUnits="userSpaceOnUse" x="0" y="0" width="20" height="20">
<rect width="20" height="20" fill="#D9D9D9"/>
</mask>
<g mask="url(#mask0_4237_57747)">
<path d="M12.0137 16.88L7.49935 15.3015L3.93622 16.68C3.80845 16.7311 3.6849 16.7472 3.5656 16.7284C3.44643 16.7095 3.33664 16.6686 3.23622 16.6057C3.13581 16.5427 3.05734 16.4577 3.00081 16.3507C2.94428 16.2437 2.91602 16.121 2.91602 15.9825V5.06711C2.91602 4.89836 2.96011 4.74919 3.04831 4.61961C3.13636 4.48989 3.26004 4.39565 3.41935 4.3369L7.00581 3.12044C7.08178 3.09266 7.16088 3.07183 7.2431 3.05794C7.32532 3.04405 7.41074 3.03711 7.49935 3.03711C7.58796 3.03711 7.67338 3.04405 7.7556 3.05794C7.83782 3.07183 7.91692 3.09266 7.99289 3.12044L12.4993 4.69898L16.0625 3.32044C16.1903 3.26933 16.3138 3.25322 16.4331 3.27211C16.5523 3.291 16.6621 3.3319 16.7625 3.39482C16.8629 3.45773 16.9414 3.54273 16.9979 3.64982C17.0544 3.75676 17.0827 3.87947 17.0827 4.01794V14.9692C17.0827 15.1384 17.0346 15.287 16.9385 15.4152C16.8423 15.5434 16.7119 15.6369 16.5475 15.6957L12.985 16.8879C12.9069 16.9157 12.8279 16.9352 12.7479 16.9465C12.6679 16.9577 12.5848 16.9634 12.4987 16.9634C12.4126 16.9634 12.3298 16.9564 12.2502 16.9425C12.1706 16.9286 12.0918 16.9078 12.0137 16.88ZM11.8743 15.5227V5.77273L8.12435 4.46169V14.2117L11.8743 15.5227ZM13.1243 15.5227L15.8327 14.6252V4.75023L13.1243 5.77273V15.5227ZM4.16602 15.2502L6.87435 14.2117V4.46169L4.16602 5.37523V15.2502Z" fill="#0056A1"/>
</g>
</svg>
