<svg width="50" height="50" viewBox="0 0 50 50" fill="none" xmlns="http://www.w3.org/2000/svg">
<rect width="50" height="50" rx="8" fill="#FF823C" fill-opacity="0.12"/>
<mask id="mask0_2412_138084" style="mask-type:alpha" maskUnits="userSpaceOnUse" x="11" y="11" width="28" height="28">
<rect x="11" y="11" width="28" height="28" fill="#D9D9D9"/>
</mask>
<g mask="url(#mask0_2412_138084)">
<path d="M17.9132 35.4997C17.4659 35.4997 17.0333 35.3441 16.6152 35.033C16.1972 34.7219 15.9201 34.3427 15.784 33.8955C15.2979 32.2622 14.8993 30.8476 14.5882 29.6518C14.277 28.4559 14.0291 27.4059 13.8444 26.5018C13.6597 25.5976 13.5284 24.7955 13.4507 24.0955C13.3729 23.3955 13.334 22.7247 13.334 22.083C13.334 20.2941 13.9562 18.7775 15.2007 17.533C16.4451 16.2886 17.9618 15.6663 19.7507 15.6663H25.584C26.109 14.9663 26.775 14.4025 27.5819 13.9747C28.3888 13.5469 29.2784 13.333 30.2507 13.333C30.7368 13.333 31.15 13.5031 31.4902 13.8434C31.8305 14.1837 32.0007 14.5969 32.0007 15.083C32.0007 15.1997 31.9861 15.3163 31.9569 15.433C31.9277 15.5497 31.8937 15.6566 31.8548 15.7538C31.777 15.9677 31.7041 16.1816 31.6361 16.3955C31.568 16.6094 31.5145 16.8427 31.4757 17.0955L34.1298 19.7497H35.5007C35.8312 19.7497 36.1083 19.8615 36.3319 20.0851C36.5555 20.3087 36.6673 20.5858 36.6673 20.9163V27.0413C36.6673 27.2941 36.5944 27.5177 36.4486 27.7122C36.3027 27.9066 36.1034 28.0525 35.8507 28.1497L33.3715 28.9663L31.9132 33.8372C31.7576 34.3427 31.4757 34.7462 31.0673 35.0476C30.659 35.349 30.1923 35.4997 29.6673 35.4997H27.334C26.6923 35.4997 26.143 35.2712 25.6861 34.8143C25.2291 34.3573 25.0007 33.808 25.0007 33.1663H22.6673C22.6673 33.808 22.4388 34.3573 21.9819 34.8143C21.525 35.2712 20.9757 35.4997 20.334 35.4997H17.9132ZM29.6673 23.833C29.9979 23.833 30.275 23.7212 30.4986 23.4976C30.7222 23.274 30.834 22.9969 30.834 22.6663C30.834 22.3358 30.7222 22.0587 30.4986 21.8351C30.275 21.6115 29.9979 21.4997 29.6673 21.4997C29.3368 21.4997 29.0597 21.6115 28.8361 21.8351C28.6125 22.0587 28.5007 22.3358 28.5007 22.6663C28.5007 22.9969 28.6125 23.274 28.8361 23.4976C29.0597 23.7212 29.3368 23.833 29.6673 23.833ZM25.0007 21.4997C25.3312 21.4997 25.6083 21.3879 25.8319 21.1643C26.0555 20.9406 26.1673 20.6636 26.1673 20.333C26.1673 20.0025 26.0555 19.7254 25.8319 19.5018C25.6083 19.2781 25.3312 19.1663 25.0007 19.1663H21.5007C21.1701 19.1663 20.893 19.2781 20.6694 19.5018C20.4458 19.7254 20.334 20.0025 20.334 20.333C20.334 20.6636 20.4458 20.9406 20.6694 21.1643C20.893 21.3879 21.1701 21.4997 21.5007 21.4997H25.0007Z" fill="#FF823C"/>
</g>
</svg>
