<svg width="16" height="20" viewBox="0 0 16 20" fill="none" xmlns="http://www.w3.org/2000/svg">
<path fill-rule="evenodd" clip-rule="evenodd" d="M3 0H9.61625C9.94774 7.07968e-05 10.2656 0.131813 10.5 0.36625L15.1337 5C15.3682 5.23437 15.4999 5.55226 15.5 5.88375V17.5C15.5 18.163 15.2366 18.7989 14.7678 19.2678C14.2989 19.7366 13.663 20 13 20H3C2.33696 20 1.70107 19.7366 1.23223 19.2678C0.763392 18.7989 0.5 18.163 0.5 17.5V2.5C0.5 1.83696 0.763392 1.20107 1.23223 0.732233C1.70107 0.263392 2.33696 0 3 0ZM9.875 1.875V4.375C9.875 4.70652 10.0067 5.02446 10.2411 5.25888C10.4755 5.4933 10.7935 5.625 11.125 5.625H13.625L9.875 1.875ZM3.20625 17.085C3.31875 17.31 3.49375 17.5138 3.75375 17.6087C4.0125 17.7025 4.26875 17.6588 4.47875 17.5713C4.87625 17.4088 5.2725 17.0262 5.63625 16.5887C6.0525 16.0875 6.49 15.43 6.9125 14.7013C7.72816 14.4595 8.56344 14.2897 9.40875 14.1937C9.78375 14.6725 10.1712 15.085 10.5462 15.3813C10.8962 15.6562 11.3 15.885 11.7137 15.9025C11.9391 15.9137 12.1623 15.8533 12.3512 15.73C12.545 15.6037 12.6888 15.4213 12.7937 15.21C12.9062 14.9838 12.975 14.7475 12.9662 14.5062C12.9583 14.2684 12.8702 14.0402 12.7162 13.8587C12.4338 13.5212 11.9712 13.3587 11.5162 13.2775C10.9643 13.192 10.4043 13.171 9.8475 13.215C9.37732 12.5503 8.96736 11.845 8.6225 11.1075C8.935 10.2825 9.16875 9.5025 9.2725 8.865C9.3175 8.5925 9.34125 8.3325 9.3325 8.0975C9.33095 7.86423 9.27668 7.63434 9.17375 7.425C9.11445 7.30947 9.03018 7.20859 8.92705 7.12967C8.82392 7.05076 8.70451 6.99579 8.5775 6.96875C8.325 6.915 8.065 6.96875 7.82625 7.065C7.355 7.2525 7.10625 7.6525 7.0125 8.09375C6.92125 8.51875 6.9625 9.01375 7.07 9.51375C7.18 10.0212 7.3675 10.5738 7.6075 11.1325C7.22361 12.0872 6.78024 13.017 6.28 13.9163C5.6358 14.1189 5.01485 14.3892 4.4275 14.7225C3.965 14.9975 3.55375 15.3225 3.30625 15.7062C3.04375 16.1137 2.9625 16.5988 3.20625 17.085Z" fill="#FF6464"/>
</svg>
