<svg width="28" height="28" viewBox="0 0 28 28" fill="none" xmlns="http://www.w3.org/2000/svg">
<g id="play_circle">
<mask id="mask0_9447_17727" style="mask-type:alpha" maskUnits="userSpaceOnUse" x="0" y="0" width="28" height="28">
<rect id="Bounding box" width="28" height="28" fill="#D9D9D9"/>
</mask>
<g mask="url(#mask0_9447_17727)">
<path id="play_circle_2" d="M11.084 19.2497L19.2507 13.9997L11.084 8.74967V19.2497ZM14.0007 25.6663C12.3868 25.6663 10.8701 25.3601 9.45065 24.7476C8.03121 24.1351 6.79648 23.3038 5.74648 22.2538C4.69648 21.2038 3.86523 19.9691 3.25273 18.5497C2.64023 17.1302 2.33398 15.6136 2.33398 13.9997C2.33398 12.3858 2.64023 10.8691 3.25273 9.44968C3.86523 8.03023 4.69648 6.79551 5.74648 5.74551C6.79648 4.69551 8.03121 3.86426 9.45065 3.25176C10.8701 2.63926 12.3868 2.33301 14.0007 2.33301C15.6145 2.33301 17.1312 2.63926 18.5507 3.25176C19.9701 3.86426 21.2048 4.69551 22.2548 5.74551C23.3048 6.79551 24.1361 8.03023 24.7486 9.44968C25.3611 10.8691 25.6673 12.3858 25.6673 13.9997C25.6673 15.6136 25.3611 17.1302 24.7486 18.5497C24.1361 19.9691 23.3048 21.2038 22.2548 22.2538C21.2048 23.3038 19.9701 24.1351 18.5507 24.7476C17.1312 25.3601 15.6145 25.6663 14.0007 25.6663Z" fill="#0056A1"/>
</g>
</g>
</svg>
