<svg width="20" height="21" viewBox="0 0 20 21" fill="none" xmlns="http://www.w3.org/2000/svg">
<g id="publish">
<mask id="mask0_12095_21160" style="mask-type:alpha" maskUnits="userSpaceOnUse" x="0" y="0" width="20" height="21">
<rect id="Bounding box" y="0.5" width="20" height="20" fill="#D9D9D9"/>
</mask>
<g mask="url(#mask0_12095_21160)">
<path id="publish_2" d="M9.16732 10.3747L7.60482 11.9372C7.43815 12.1038 7.24023 12.1837 7.01107 12.1768C6.7819 12.1698 6.58398 12.083 6.41732 11.9163C6.26454 11.7497 6.18468 11.5552 6.17773 11.333C6.17079 11.1108 6.25065 10.9163 6.41732 10.7497L9.41732 7.74967C9.50065 7.66634 9.59093 7.60731 9.68815 7.57259C9.78537 7.53787 9.88954 7.52051 10.0007 7.52051C10.1118 7.52051 10.2159 7.53787 10.3132 7.57259C10.4104 7.60731 10.5007 7.66634 10.584 7.74967L13.584 10.7497C13.7507 10.9163 13.8305 11.1108 13.8236 11.333C13.8166 11.5552 13.7368 11.7497 13.584 11.9163C13.4173 12.083 13.2194 12.1698 12.9902 12.1768C12.7611 12.1837 12.5632 12.1038 12.3965 11.9372L10.834 10.3747V16.333C10.834 16.5691 10.7541 16.767 10.5944 16.9268C10.4347 17.0865 10.2368 17.1663 10.0007 17.1663C9.76454 17.1663 9.56662 17.0865 9.4069 16.9268C9.24718 16.767 9.16732 16.5691 9.16732 16.333V10.3747ZM3.33398 7.16634V5.49967C3.33398 5.04134 3.49718 4.64898 3.82357 4.32259C4.14996 3.9962 4.54232 3.83301 5.00065 3.83301H15.0007C15.459 3.83301 15.8513 3.9962 16.1777 4.32259C16.5041 4.64898 16.6673 5.04134 16.6673 5.49967V7.16634C16.6673 7.40245 16.5875 7.60037 16.4277 7.76009C16.268 7.91981 16.0701 7.99967 15.834 7.99967C15.5979 7.99967 15.4 7.91981 15.2402 7.76009C15.0805 7.60037 15.0007 7.40245 15.0007 7.16634V5.49967H5.00065V7.16634C5.00065 7.40245 4.92079 7.60037 4.76107 7.76009C4.60135 7.91981 4.40343 7.99967 4.16732 7.99967C3.93121 7.99967 3.73329 7.91981 3.57357 7.76009C3.41385 7.60037 3.33398 7.40245 3.33398 7.16634Z" fill="#888888"/>
</g>
</g>
</svg>
