<svg width="18" height="24" viewBox="0 0 18 24" fill="none" xmlns="http://www.w3.org/2000/svg">
<g clip-path="url(#clip0_1846_54908)">
<path d="M13.125 3H15C16.6547 3 18 4.34531 18 6V21C18 22.6547 16.6547 24 15 24H3C1.34531 24 0 22.6547 0 21V6C0 4.34531 1.34531 3 3 3H4.875H5.325C5.67188 1.28906 7.18594 0 9 0C10.8141 0 12.3281 1.28906 12.675 3H13.125ZM3 5.25C2.5875 5.25 2.25 5.5875 2.25 6V21C2.25 21.4125 2.5875 21.75 3 21.75H15C15.4125 21.75 15.75 21.4125 15.75 21V6C15.75 5.5875 15.4125 5.25 15 5.25H14.25V6.375C14.25 6.99844 13.7484 7.5 13.125 7.5H9H4.875C4.25156 7.5 3.75 6.99844 3.75 6.375V5.25H3ZM9 4.875C9.29837 4.875 9.58452 4.75647 9.7955 4.5455C10.0065 4.33452 10.125 4.04837 10.125 3.75C10.125 3.45163 10.0065 3.16548 9.7955 2.9545C9.58452 2.74353 9.29837 2.625 9 2.625C8.70163 2.625 8.41548 2.74353 8.2045 2.9545C7.99353 3.16548 7.875 3.45163 7.875 3.75C7.875 4.04837 7.99353 4.33452 8.2045 4.5455C8.41548 4.75647 8.70163 4.875 9 4.875Z" fill="white"/>
</g>
<defs>
<clipPath id="clip0_1846_54908">
<rect width="18" height="24" fill="white"/>
</clipPath>
</defs>
</svg>
