<svg width="16" height="16" viewBox="0 0 16 16" fill="none" xmlns="http://www.w3.org/2000/svg">
<mask id="mask0_5267_68571" style="mask-type:alpha" maskUnits="userSpaceOnUse" x="0" y="0" width="16" height="16">
<rect width="16" height="16" fill="#D9D9D9"/>
</mask>
<g mask="url(#mask0_5267_68571)">
<path d="M3.33333 14.0013C2.96667 14.0013 2.65278 13.8707 2.39167 13.6096C2.13056 13.3485 2 13.0346 2 12.668V3.33464C2 2.96797 2.13056 2.65408 2.39167 2.39297C2.65278 2.13186 2.96667 2.0013 3.33333 2.0013H6.13333C6.27778 1.6013 6.51944 1.27908 6.85833 1.03464C7.19722 0.790191 7.57778 0.667969 8 0.667969C8.42222 0.667969 8.80278 0.790191 9.14167 1.03464C9.48056 1.27908 9.72222 1.6013 9.86667 2.0013H12.6667C13.0333 2.0013 13.3472 2.13186 13.6083 2.39297C13.8694 2.65408 14 2.96797 14 3.33464V12.668C14 13.0346 13.8694 13.3485 13.6083 13.6096C13.3472 13.8707 13.0333 14.0013 12.6667 14.0013H3.33333ZM3.33333 12.668H12.6667V3.33464H3.33333V12.668ZM4.66667 11.3346H9.33333V10.0013H4.66667V11.3346ZM4.66667 8.66797H11.3333V7.33463H4.66667V8.66797ZM4.66667 6.0013H11.3333V4.66797H4.66667V6.0013ZM8 2.83464C8.14444 2.83464 8.26389 2.78741 8.35833 2.69297C8.45278 2.59852 8.5 2.47908 8.5 2.33464C8.5 2.19019 8.45278 2.07075 8.35833 1.9763C8.26389 1.88186 8.14444 1.83464 8 1.83464C7.85556 1.83464 7.73611 1.88186 7.64167 1.9763C7.54722 2.07075 7.5 2.19019 7.5 2.33464C7.5 2.47908 7.54722 2.59852 7.64167 2.69297C7.73611 2.78741 7.85556 2.83464 8 2.83464Z" fill="white"/>
</g>
</svg>
