<svg width="18" height="14" viewBox="0 0 18 14" fill="none" xmlns="http://www.w3.org/2000/svg">
<path d="M9.04167 13.6663C7.18056 13.6663 5.59722 13.0205 4.29167 11.7288C2.98611 10.4372 2.33333 8.86079 2.33333 6.99967V6.85384L1.58333 7.60384C1.43056 7.75662 1.23611 7.83301 1 7.83301C0.763889 7.83301 0.569445 7.75662 0.416667 7.60384C0.263889 7.45106 0.1875 7.25662 0.1875 7.02051C0.1875 6.7844 0.263889 6.58995 0.416667 6.43717L2.58333 4.27051C2.75 4.10384 2.94444 4.02051 3.16667 4.02051C3.38889 4.02051 3.58333 4.10384 3.75 4.27051L5.91667 6.43717C6.06944 6.58995 6.14583 6.7844 6.14583 7.02051C6.14583 7.25662 6.06944 7.45106 5.91667 7.60384C5.76389 7.75662 5.56944 7.83301 5.33333 7.83301C5.09722 7.83301 4.90278 7.75662 4.75 7.60384L4 6.85384V6.99967C4 8.38856 4.48972 9.56912 5.46917 10.5413C6.44861 11.5136 7.63944 11.9997 9.04167 11.9997C9.26389 11.9997 9.48278 11.9858 9.69833 11.958C9.91389 11.9302 10.1256 11.8816 10.3333 11.8122C10.5694 11.7427 10.7917 11.7497 11 11.833C11.2083 11.9163 11.3681 12.0622 11.4792 12.2705C11.5903 12.4927 11.6008 12.7113 11.5108 12.9263C11.4208 13.1413 11.2575 13.2838 11.0208 13.3538C10.7014 13.465 10.375 13.545 10.0417 13.5938C9.70833 13.6427 9.375 13.6669 9.04167 13.6663ZM8.95833 1.99967C8.73611 1.99967 8.5175 2.01356 8.3025 2.04134C8.0875 2.06912 7.87556 2.11773 7.66667 2.18717C7.43056 2.25662 7.205 2.24967 6.99 2.16634C6.775 2.08301 6.61167 1.93717 6.5 1.72884C6.38833 1.52051 6.37778 1.30884 6.46833 1.09384C6.55889 0.878841 6.71528 0.736341 6.9375 0.666341C7.27083 0.55523 7.60417 0.471897 7.9375 0.416341C8.27083 0.360786 8.61111 0.333008 8.95833 0.333008C10.8194 0.333008 12.4028 0.978841 13.7083 2.27051C15.0139 3.56217 15.6667 5.13856 15.6667 6.99967V7.14551L16.4167 6.39551C16.5694 6.24273 16.7639 6.16634 17 6.16634C17.2361 6.16634 17.4306 6.24273 17.5833 6.39551C17.7361 6.54829 17.8125 6.74273 17.8125 6.97884C17.8125 7.21495 17.7361 7.4094 17.5833 7.56217L15.4167 9.72884C15.25 9.89551 15.0556 9.97884 14.8333 9.97884C14.6111 9.97884 14.4167 9.89551 14.25 9.72884L12.0833 7.56217C11.9306 7.4094 11.8542 7.21495 11.8542 6.97884C11.8542 6.74273 11.9306 6.54829 12.0833 6.39551C12.2361 6.24273 12.4306 6.16634 12.6667 6.16634C12.9028 6.16634 13.0972 6.24273 13.25 6.39551L14 7.14551V6.99967C14 5.61079 13.5103 4.43023 12.5308 3.45801C11.5514 2.48579 10.3606 1.99967 8.95833 1.99967Z" fill="#888888"/>
</svg>
