<svg width="50" height="50" viewBox="0 0 50 50" fill="none" xmlns="http://www.w3.org/2000/svg">
<rect width="50" height="50" rx="8" fill="#25B7ED" fill-opacity="0.12"/>
<mask id="mask0_2412_137870" style="mask-type:alpha" maskUnits="userSpaceOnUse" x="11" y="11" width="28" height="28">
<rect x="11" y="11" width="28" height="28" fill="#D9D9D9"/>
</mask>
<g mask="url(#mask0_2412_137870)">
<path d="M33.167 28.5004C33.167 27.8782 32.9823 27.2559 32.6128 26.6337C32.2434 26.0115 31.7087 25.5643 31.0087 25.2921L21.9087 21.6754L21.5003 21.5587C21.3642 21.5198 21.2087 21.5004 21.0337 21.5004H19.167V19.7796C19.167 19.3907 19.2545 19.0309 19.4295 18.7004C19.6045 18.3698 19.8475 18.0976 20.1587 17.8837L25.992 13.7129C26.2059 13.5573 26.4246 13.4455 26.6482 13.3775C26.8719 13.3094 27.1003 13.2754 27.3337 13.2754C27.567 13.2754 27.8003 13.3094 28.0337 13.3775C28.267 13.4455 28.4809 13.5573 28.6753 13.7129L34.5087 17.8837C34.8198 18.0976 35.0628 18.3698 35.2378 18.7004C35.4128 19.0309 35.5003 19.3907 35.5003 19.7796V28.5004H33.167ZM28.5003 20.3337C28.6559 20.3337 28.792 20.2754 28.9087 20.1587C29.0253 20.0421 29.0837 19.9059 29.0837 19.7504C29.0837 19.5948 29.0253 19.4587 28.9087 19.3421C28.792 19.2254 28.6559 19.1671 28.5003 19.1671C28.3448 19.1671 28.2087 19.2254 28.092 19.3421C27.9753 19.4587 27.917 19.5948 27.917 19.7504C27.917 19.9059 27.9753 20.0421 28.092 20.1587C28.2087 20.2754 28.3448 20.3337 28.5003 20.3337ZM26.167 20.3337C26.3225 20.3337 26.4587 20.2754 26.5753 20.1587C26.692 20.0421 26.7503 19.9059 26.7503 19.7504C26.7503 19.5948 26.692 19.4587 26.5753 19.3421C26.4587 19.2254 26.3225 19.1671 26.167 19.1671C26.0114 19.1671 25.8753 19.2254 25.7587 19.3421C25.642 19.4587 25.5837 19.5948 25.5837 19.7504C25.5837 19.9059 25.642 20.0421 25.7587 20.1587C25.8753 20.2754 26.0114 20.3337 26.167 20.3337ZM28.5003 22.6671C28.6559 22.6671 28.792 22.6087 28.9087 22.4921C29.0253 22.3754 29.0837 22.2393 29.0837 22.0837C29.0837 21.9282 29.0253 21.7921 28.9087 21.6754C28.792 21.5587 28.6559 21.5004 28.5003 21.5004C28.3448 21.5004 28.2087 21.5587 28.092 21.6754C27.9753 21.7921 27.917 21.9282 27.917 22.0837C27.917 22.2393 27.9753 22.3754 28.092 22.4921C28.2087 22.6087 28.3448 22.6671 28.5003 22.6671ZM26.167 22.6671C26.3225 22.6671 26.4587 22.6087 26.5753 22.4921C26.692 22.3754 26.7503 22.2393 26.7503 22.0837C26.7503 21.9282 26.692 21.7921 26.5753 21.6754C26.4587 21.5587 26.3225 21.5004 26.167 21.5004C26.0114 21.5004 25.8753 21.5587 25.7587 21.6754C25.642 21.7921 25.5837 21.9282 25.5837 22.0837C25.5837 22.2393 25.642 22.3754 25.7587 22.4921C25.8753 22.6087 26.0114 22.6671 26.167 22.6671ZM26.6045 36.4629C26.8184 36.5212 27.0663 36.5455 27.3482 36.5358C27.6302 36.5261 27.8684 36.4823 28.0628 36.4046L36.667 33.1671C36.667 32.5059 36.4337 31.9518 35.967 31.5046C35.5003 31.0573 34.9559 30.8337 34.3337 30.8337H26.342C26.2837 30.8337 26.2156 30.8289 26.1378 30.8191C26.06 30.8094 26.0017 30.7948 25.9628 30.7754L24.242 30.1629C24.0864 30.1046 23.9795 30.0073 23.9212 29.8712C23.8628 29.7351 23.8531 29.5893 23.892 29.4337C23.9309 29.2976 24.0281 29.1907 24.1837 29.1129C24.3392 29.0351 24.4948 29.0254 24.6503 29.0837L25.9628 29.5796C26.0406 29.6184 26.1038 29.6428 26.1524 29.6525C26.201 29.6622 26.2739 29.6671 26.3712 29.6671H29.4337C29.8031 29.6671 30.1288 29.5407 30.4107 29.2879C30.6927 29.0351 30.8337 28.7046 30.8337 28.2962C30.8337 28.024 30.751 27.7615 30.5857 27.5087C30.4205 27.2559 30.2017 27.0809 29.9295 26.9837L21.8503 23.9796C21.7142 23.9407 21.5781 23.9066 21.442 23.8775C21.3059 23.8483 21.1698 23.8337 21.0337 23.8337H19.167V34.3629L26.6045 36.4629ZM12.167 34.3337C12.167 34.9754 12.3955 35.5247 12.8524 35.9816C13.3094 36.4386 13.8587 36.6671 14.5003 36.6671C15.142 36.6671 15.6913 36.4386 16.1482 35.9816C16.6052 35.5247 16.8337 34.9754 16.8337 34.3337V26.1671C16.8337 25.5254 16.6052 24.9761 16.1482 24.5191C15.6913 24.0622 15.142 23.8337 14.5003 23.8337C13.8587 23.8337 13.3094 24.0622 12.8524 24.5191C12.3955 24.9761 12.167 25.5254 12.167 26.1671V34.3337Z" fill="#25B7ED"/>
</g>
</svg>
