<svg width="48" height="48" viewBox="0 0 48 48" fill="none" xmlns="http://www.w3.org/2000/svg">
<path d="M21 25C21 23.346 19.654 22 18 22C16.346 22 15 23.346 15 25C15 26.654 16.346 28 18 28C19.654 28 21 26.654 21 25ZM18 26C17.449 26 17 25.552 17 25C17 24.448 17.449 24 18 24C18.551 24 19 24.449 19 25C19 25.551 18.551 26 18 26Z" fill="#0056A1"/>
<path d="M30 22C28.346 22 27 23.346 27 25C27 26.654 28.346 28 30 28C31.654 28 33 26.654 33 25C33 23.346 31.654 22 30 22ZM30 26C29.449 26 29 25.552 29 25C29 24.448 29.449 24 30 24C30.551 24 31 24.449 31 25C31 25.551 30.551 26 30 26Z" fill="#0056A1"/>
<path d="M28.5431 33.9099C25.7281 35.3569 22.2721 35.3569 19.4571 33.9099C18.9651 33.6569 18.3631 33.8509 18.1101 34.3429C17.8571 34.8349 18.0511 35.4369 18.5431 35.6899C20.2121 36.5469 22.0991 37.0009 24.0001 37.0009C25.9011 37.0009 27.7881 36.5479 29.4571 35.6899C29.9481 35.4369 30.1421 34.8349 29.8901 34.3429C29.6381 33.8509 29.0351 33.6569 28.5431 33.9099Z" fill="#0056A1"/>
<path d="M45 22H42V19C42 16.243 39.757 14 37 14H25V9.858C26.72 9.411 28 7.858 28 6C28 3.794 26.206 2 24 2C21.794 2 20 3.794 20 6C20 7.858 21.28 9.411 23 9.858V14H11C8.243 14 6 16.243 6 19V22H3C1.346 22 0 23.346 0 25V34C0 35.654 1.346 37 3 37H6V40C6 42.757 8.243 45 11 45H37C39.757 45 42 42.757 42 40V37H45C46.654 37 48 35.654 48 34V25C48 23.346 46.654 22 45 22ZM22 6C22 4.897 22.897 4 24 4C25.103 4 26 4.897 26 6C26 7.103 25.103 8 24 8C22.897 8 22 7.103 22 6ZM3 35C2.449 35 2 34.552 2 34V25C2 24.449 2.449 24 3 24H6V35H3ZM40 40C40 41.654 38.654 43 37 43H11C9.346 43 8 41.654 8 40V19C8 17.346 9.346 16 11 16H37C38.654 16 40 17.346 40 19V40ZM46 34C46 34.552 45.551 35 45 35H42V24H45C45.551 24 46 24.449 46 25V34Z" fill="#0056A1"/>
</svg>
