<svg width="25" height="24" viewBox="0 0 25 24" fill="none" xmlns="http://www.w3.org/2000/svg">
<mask id="mask0_378_6601" style="mask-type:alpha" maskUnits="userSpaceOnUse" x="0" y="0" width="25" height="24">
<rect x="0.5" width="24" height="24" fill="#D9D9D9"/>
</mask>
<g mask="url(#mask0_378_6601)">
<path d="M21.4578 14.202L14.702 20.9578C14.5203 21.1384 14.3159 21.274 14.0887 21.3645C13.8616 21.4548 13.6351 21.5 13.4093 21.5C13.1833 21.5 12.9572 21.4548 12.7312 21.3645C12.5052 21.274 12.3019 21.1384 12.1213 20.9578L3.527 12.373C3.3565 12.209 3.226 12.0165 3.1355 11.7955C3.04517 11.5745 3 11.342 3 11.098V4.31725C3 3.81758 3.17658 3.38975 3.52975 3.03375C3.88308 2.67792 4.31225 2.5 4.81725 2.5H11.598C11.8395 2.5 12.0734 2.549 12.2998 2.647C12.5263 2.74483 12.7225 2.87658 12.8885 3.04225L21.4578 11.627C21.6409 11.8087 21.7745 12.013 21.8585 12.24C21.9425 12.4672 21.9845 12.6949 21.9845 12.9233C21.9845 13.1516 21.9425 13.3761 21.8585 13.5968C21.7745 13.8176 21.6409 14.0193 21.4578 14.202ZM13.6328 19.9038L20.3885 13.148C20.4525 13.084 20.4845 13.0087 20.4845 12.922C20.4845 12.8355 20.4525 12.7602 20.3885 12.6962L11.7078 4.0095H4.81725C4.72758 4.0095 4.65225 4.03842 4.59125 4.09625C4.53042 4.15392 4.5 4.22758 4.5 4.31725V11.0828C4.5 11.1213 4.50642 11.1597 4.51925 11.198C4.53208 11.2365 4.5545 11.2718 4.5865 11.3038L13.1808 19.9038C13.2449 19.9679 13.3203 20 13.4068 20C13.4933 20 13.5686 19.9679 13.6328 19.9038ZM7.025 7.77875C7.37367 7.77875 7.66983 7.65725 7.9135 7.41425C8.157 7.17125 8.27875 6.87608 8.27875 6.52875C8.27875 6.17892 8.15725 5.88158 7.91425 5.63675C7.67125 5.39175 7.37608 5.26925 7.02875 5.26925C6.67892 5.26925 6.38158 5.39133 6.13675 5.6355C5.89175 5.87967 5.76925 6.17617 5.76925 6.525C5.76925 6.87367 5.89133 7.16983 6.1355 7.4135C6.37967 7.657 6.67617 7.77875 7.025 7.77875Z" fill="#333333"/>
</g>
</svg>
