<svg width="20" height="20" viewBox="0 0 20 20" fill="none" xmlns="http://www.w3.org/2000/svg">
<mask id="mask0_8750_12307" style="mask-type:alpha" maskUnits="userSpaceOnUse" x="0" y="0" width="20" height="20">
<rect width="20" height="20" fill="#D9D9D9"/>
</mask>
<g mask="url(#mask0_8750_12307)">
<path d="M7.91602 13.7502L13.7493 10.0002L7.91602 6.25016V13.7502ZM3.33268 16.6668C2.87435 16.6668 2.48199 16.5036 2.1556 16.1772C1.82921 15.8509 1.66602 15.4585 1.66602 15.0002V5.00016C1.66602 4.54183 1.82921 4.14947 2.1556 3.82308C2.48199 3.49669 2.87435 3.3335 3.33268 3.3335H16.666C17.1243 3.3335 17.5167 3.49669 17.8431 3.82308C18.1695 4.14947 18.3327 4.54183 18.3327 5.00016V15.0002C18.3327 15.4585 18.1695 15.8509 17.8431 16.1772C17.5167 16.5036 17.1243 16.6668 16.666 16.6668H3.33268ZM3.33268 15.0002H16.666V5.00016H3.33268V15.0002Z" fill="#0056A1"/>
</g>
</svg>
