<svg width="24" height="24" viewBox="0 0 24 24" fill="none" xmlns="http://www.w3.org/2000/svg">
<g id="Group 2366">
<circle id="Ellipse 126" cx="12" cy="12" r="12" fill="#0056A1"/>
<g id="assignment">
<mask id="mask0_11211_44615" style="mask-type:alpha" maskUnits="userSpaceOnUse" x="4" y="4" width="16" height="16">
<rect id="Bounding box" x="4" y="4" width="16" height="16" fill="#D9D9D9"/>
</mask>
<g mask="url(#mask0_11211_44615)">
<path id="assignment_2" d="M7.33333 18.0013C6.96667 18.0013 6.65278 17.8707 6.39167 17.6096C6.13056 17.3485 6 17.0346 6 16.668V7.33464C6 6.96797 6.13056 6.65408 6.39167 6.39297C6.65278 6.13186 6.96667 6.0013 7.33333 6.0013H10.1333C10.2778 5.6013 10.5194 5.27908 10.8583 5.03464C11.1972 4.79019 11.5778 4.66797 12 4.66797C12.4222 4.66797 12.8028 4.79019 13.1417 5.03464C13.4806 5.27908 13.7222 5.6013 13.8667 6.0013H16.6667C17.0333 6.0013 17.3472 6.13186 17.6083 6.39297C17.8694 6.65408 18 6.96797 18 7.33464V16.668C18 17.0346 17.8694 17.3485 17.6083 17.6096C17.3472 17.8707 17.0333 18.0013 16.6667 18.0013H7.33333ZM7.33333 16.668H16.6667V7.33464H7.33333V16.668ZM8.66667 15.3346H13.3333V14.0013H8.66667V15.3346ZM8.66667 12.668H15.3333V11.3346H8.66667V12.668ZM8.66667 10.0013H15.3333V8.66797H8.66667V10.0013ZM12 6.83464C12.1444 6.83464 12.2639 6.78741 12.3583 6.69297C12.4528 6.59852 12.5 6.47908 12.5 6.33464C12.5 6.19019 12.4528 6.07075 12.3583 5.9763C12.2639 5.88186 12.1444 5.83464 12 5.83464C11.8556 5.83464 11.7361 5.88186 11.6417 5.9763C11.5472 6.07075 11.5 6.19019 11.5 6.33464C11.5 6.47908 11.5472 6.59852 11.6417 6.69297C11.7361 6.78741 11.8556 6.83464 12 6.83464Z" fill="white"/>
</g>
</g>
</g>
</svg>
