<svg width="40" height="40" viewBox="0 0 40 40" fill="none" xmlns="http://www.w3.org/2000/svg">
<mask id="mask0_8750_12429" style="mask-type:alpha" maskUnits="userSpaceOnUse" x="0" y="0" width="40" height="40">
<rect width="40" height="40" fill="#D9D9D9"/>
</mask>
<g mask="url(#mask0_8750_12429)">
<path d="M16.2494 26.7307L26.73 20L16.2494 13.2693V26.7307ZM7.17885 32.4999C6.33696 32.4999 5.62435 32.2083 5.04102 31.6249C4.45768 31.0416 4.16602 30.329 4.16602 29.4871V10.5128C4.16602 9.67095 4.45768 8.95833 5.04102 8.375C5.62435 7.79167 6.33696 7.5 7.17885 7.5H32.8198C33.6617 7.5 34.3743 7.79167 34.9576 8.375C35.5409 8.95833 35.8326 9.67095 35.8326 10.5128V29.4871C35.8326 30.329 35.5409 31.0416 34.9576 31.6249C34.3743 32.2083 33.6617 32.4999 32.8198 32.4999H7.17885ZM7.17885 30H32.8198C32.948 30 33.0655 29.9465 33.1724 29.8397C33.2792 29.7328 33.3326 29.6153 33.3326 29.4871V10.5128C33.3326 10.3846 33.2792 10.2671 33.1724 10.1602C33.0655 10.0534 32.948 9.99996 32.8198 9.99996H7.17885C7.05063 9.99996 6.93309 10.0534 6.82622 10.1602C6.71939 10.2671 6.66597 10.3846 6.66597 10.5128V29.4871C6.66597 29.6153 6.71939 29.7328 6.82622 29.8397C6.93309 29.9465 7.05063 30 7.17885 30Z" fill="white"/>
</g>
</svg>
