<svg width="50" height="50" viewBox="0 0 50 50" fill="none" xmlns="http://www.w3.org/2000/svg">
<rect width="50" height="50" rx="8" fill="#3E71E4" fill-opacity="0.16"/>
<mask id="mask0_2412_137765" style="mask-type:alpha" maskUnits="userSpaceOnUse" x="11" y="11" width="28" height="28">
<rect x="11" y="11" width="28" height="28" fill="#D9D9D9"/>
</mask>
<g mask="url(#mask0_2412_137765)">
<path d="M35.9673 27.6247L27.6257 35.9663C27.3923 36.1997 27.1298 36.3747 26.8382 36.4913C26.5465 36.608 26.2548 36.6663 25.9632 36.6663C25.6715 36.6663 25.3798 36.608 25.0882 36.4913C24.7965 36.3747 24.534 36.1997 24.3007 35.9663L14.0048 25.6705C13.7909 25.4566 13.6257 25.2087 13.509 24.9268C13.3923 24.6448 13.334 24.3483 13.334 24.0372V15.6663C13.334 15.0247 13.5625 14.4754 14.0194 14.0184C14.4763 13.5615 15.0257 13.333 15.6673 13.333H24.0382C24.3493 13.333 24.6507 13.3962 24.9423 13.5226C25.234 13.649 25.4868 13.8191 25.7007 14.033L35.9673 24.3288C36.2006 24.5622 36.3708 24.8247 36.4777 25.1163C36.5847 25.408 36.6382 25.6997 36.6382 25.9913C36.6382 26.283 36.5847 26.5698 36.4777 26.8518C36.3708 27.1337 36.2006 27.3913 35.9673 27.6247ZM18.584 20.333C19.0701 20.333 19.4833 20.1629 19.8236 19.8226C20.1638 19.4823 20.334 19.0691 20.334 18.583C20.334 18.0969 20.1638 17.6837 19.8236 17.3434C19.4833 17.0031 19.0701 16.833 18.584 16.833C18.0979 16.833 17.6847 17.0031 17.3444 17.3434C17.0041 17.6837 16.834 18.0969 16.834 18.583C16.834 19.0691 17.0041 19.4823 17.3444 19.8226C17.6847 20.1629 18.0979 20.333 18.584 20.333Z" fill="#3E71E4"/>
</g>
</svg>
