<svg width="21" height="20" viewBox="0 0 21 20" fill="none" xmlns="http://www.w3.org/2000/svg">
<g id="format_list_bulleted">
<mask id="mask0_9716_18049" style="mask-type:alpha" maskUnits="userSpaceOnUse" x="0" y="0" width="21" height="20">
<rect id="Bounding box" x="0.3125" width="20" height="20" fill="#D9D9D9"/>
</mask>
<g mask="url(#mask0_9716_18049)">
<path id="format_list_bulleted_2" d="M7.8125 15.834V14.1673H17.8125V15.834H7.8125ZM7.8125 10.834V9.16732H17.8125V10.834H7.8125ZM7.8125 5.83398V4.16732H17.8125V5.83398H7.8125ZM4.47917 16.6673C4.02083 16.6673 3.62847 16.5041 3.30208 16.1777C2.97569 15.8513 2.8125 15.459 2.8125 15.0007C2.8125 14.5423 2.97569 14.15 3.30208 13.8236C3.62847 13.4972 4.02083 13.334 4.47917 13.334C4.9375 13.334 5.32986 13.4972 5.65625 13.8236C5.98264 14.15 6.14583 14.5423 6.14583 15.0007C6.14583 15.459 5.98264 15.8513 5.65625 16.1777C5.32986 16.5041 4.9375 16.6673 4.47917 16.6673ZM4.47917 11.6673C4.02083 11.6673 3.62847 11.5041 3.30208 11.1777C2.97569 10.8513 2.8125 10.459 2.8125 10.0007C2.8125 9.54232 2.97569 9.14996 3.30208 8.82357C3.62847 8.49718 4.02083 8.33398 4.47917 8.33398C4.9375 8.33398 5.32986 8.49718 5.65625 8.82357C5.98264 9.14996 6.14583 9.54232 6.14583 10.0007C6.14583 10.459 5.98264 10.8513 5.65625 11.1777C5.32986 11.5041 4.9375 11.6673 4.47917 11.6673ZM4.47917 6.66732C4.02083 6.66732 3.62847 6.50412 3.30208 6.17773C2.97569 5.85135 2.8125 5.45898 2.8125 5.00065C2.8125 4.54232 2.97569 4.14996 3.30208 3.82357C3.62847 3.49718 4.02083 3.33398 4.47917 3.33398C4.9375 3.33398 5.32986 3.49718 5.65625 3.82357C5.98264 4.14996 6.14583 4.54232 6.14583 5.00065C6.14583 5.45898 5.98264 5.85135 5.65625 6.17773C5.32986 6.50412 4.9375 6.66732 4.47917 6.66732Z" fill="#0056A1"/>
</g>
</g>
</svg>
