<svg width="24" height="24" viewBox="0 0 24 24" fill="none" xmlns="http://www.w3.org/2000/svg">
<circle opacity="0.4" cx="12" cy="12" r="11.5" stroke="#0056A1"/>
<mask id="mask0_14843_22519" style="mask-type:alpha" maskUnits="userSpaceOnUse" x="2" y="1" width="20" height="20">
<rect x="2" y="1" width="20" height="20" fill="#D9D9D9"/>
</mask>
<g mask="url(#mask0_14843_22519)">
<path fill-rule="evenodd" clip-rule="evenodd" d="M9.64648 10.0156C10.2993 10.6684 11.084 10.9948 12.0007 10.9948C12.9173 10.9948 13.702 10.6684 14.3548 10.0156C15.0076 9.36285 15.334 8.57812 15.334 7.66146C15.334 6.74479 15.0076 5.96007 14.3548 5.30729C13.702 4.65451 12.9173 4.32812 12.0007 4.32812C11.084 4.32812 10.2993 4.65451 9.64648 5.30729C8.99371 5.96007 8.66732 6.74479 8.66732 7.66146C8.66732 8.57812 8.99371 9.36285 9.64648 10.0156ZM5.33398 15.3281V17.6615H13.5026C13.4017 17.4861 13.3101 17.303 13.2277 17.1121C13.0733 16.7541 12.9642 16.3817 12.9007 15.9948H7.00065V15.3281C7.00065 15.1753 7.03885 15.0365 7.11523 14.9115C7.19162 14.7865 7.29232 14.6892 7.41732 14.6198C8.16732 14.2448 8.92426 13.9635 9.68815 13.776C10.452 13.5885 11.2229 13.4948 12.0007 13.4948C12.3668 13.4948 12.7314 13.5156 13.0945 13.5571C13.1343 13.4407 13.1787 13.3257 13.2277 13.2121C13.4212 12.7637 13.6657 12.3583 13.9611 11.9959C13.3148 11.884 12.6613 11.8281 12.0007 11.8281C11.084 11.8281 10.1812 11.9358 9.29232 12.151C8.40343 12.3663 7.52843 12.6892 6.66732 13.1198C6.26454 13.3281 5.94162 13.6302 5.69857 14.026C5.45551 14.4219 5.33398 14.8559 5.33398 15.3281ZM13.1777 8.83854C12.8513 9.16493 12.459 9.32812 12.0007 9.32812C11.5423 9.32812 11.15 9.16493 10.8236 8.83854C10.4972 8.51215 10.334 8.11979 10.334 7.66146C10.334 7.20312 10.4972 6.81076 10.8236 6.48438C11.15 6.15799 11.5423 5.99479 12.0007 5.99479C12.459 5.99479 12.8513 6.15799 13.1777 6.48438C13.5041 6.81076 13.6673 7.20312 13.6673 7.66146C13.6673 8.11979 13.5041 8.51215 13.1777 8.83854Z" fill="#0056A1"/>
<path d="M17.8333 16.3024C18.2121 16.3024 18.5341 16.1698 18.7992 15.9047C19.0644 15.6395 19.197 15.3175 19.197 14.9387C19.197 14.56 19.0644 14.238 18.7992 13.9728C18.5341 13.7077 18.2121 13.5751 17.8333 13.5751C17.4545 13.5751 17.1326 13.7077 16.8674 13.9728C16.6023 14.238 16.4697 14.56 16.4697 14.9387C16.4697 15.3175 16.6023 15.6395 16.8674 15.9047C17.1326 16.1698 17.4545 16.3024 17.8333 16.3024ZM17.8333 15.7569C17.6061 15.7569 17.4129 15.6774 17.2538 15.5183C17.0947 15.3592 17.0152 15.166 17.0152 14.9387C17.0152 14.7115 17.0947 14.5183 17.2538 14.3592C17.4129 14.2001 17.6061 14.1206 17.8333 14.1206C18.0606 14.1206 18.2538 14.2001 18.4129 14.3592C18.572 14.5183 18.6515 14.7115 18.6515 14.9387C18.6515 15.166 18.572 15.3592 18.4129 15.5183C18.2538 15.6774 18.0606 15.7569 17.8333 15.7569ZM17.8333 17.2115C17.096 17.2115 16.4242 17.0057 15.8182 16.594C15.2121 16.1824 14.7727 15.6307 14.5 14.9387C14.7727 14.2468 15.2121 13.6951 15.8182 13.2834C16.4242 12.8718 17.096 12.666 17.8333 12.666C18.5707 12.666 19.2424 12.8718 19.8485 13.2834C20.4545 13.6951 20.8939 14.2468 21.1667 14.9387C20.8939 15.6307 20.4545 16.1824 19.8485 16.594C19.2424 17.0057 18.5707 17.2115 17.8333 17.2115Z" fill="#0056A1"/>
</g>
</svg>
