<svg width="18" height="18" viewBox="0 0 18 18" fill="none" xmlns="http://www.w3.org/2000/svg">
<mask id="mask0_10556_22549" style="mask-type:alpha" maskUnits="userSpaceOnUse" x="0" y="0" width="18" height="18">
<rect width="18" height="18" transform="matrix(0 1 1 0 0 0)" fill="#D9D9D9"/>
</mask>
<g mask="url(#mask0_10556_22549)">
<path d="M2.25 7.75C2.25 7.3375 2.39687 6.98438 2.69062 6.69063C2.98437 6.39688 3.3375 6.25 3.75 6.25H6.75L6.75 7.75H3.75L3.75 14.25H14.25V7.75H11.25V6.25H14.25C14.6625 6.25 15.0156 6.39688 15.3094 6.69063C15.6031 6.98437 15.75 7.3375 15.75 7.75V14.25C15.75 14.6625 15.6031 15.0156 15.3094 15.3094C15.0156 15.6031 14.6625 15.75 14.25 15.75H3.75C3.3375 15.75 2.98437 15.6031 2.69062 15.3094C2.39687 15.0156 2.25 14.6625 2.25 14.25L2.25 7.75ZM5.25 4L6.3375 5.05L8.25 3.1375C8.25 6.45208 8.25 8.31042 8.25 11.625H9.75V3.1375L11.6625 5.05L12.75 4L9 0.25L5.25 4Z" fill="white"/>
</g>
</svg>
