<svg width="20" height="21" viewBox="0 0 20 21" fill="none" xmlns="http://www.w3.org/2000/svg">
<g id="Unpublish">
<mask id="mask0_12095_21163" style="mask-type:alpha" maskUnits="userSpaceOnUse" x="0" y="0" width="20" height="21">
<rect id="Bounding box" y="0.5" width="20" height="20" fill="#D9D9D9"/>
</mask>
<g mask="url(#mask0_12095_21163)">
<path id="publish" d="M3.33398 7.16634V5.49967C3.33398 5.04134 3.49718 4.64898 3.82357 4.32259C4.14996 3.9962 4.54232 3.83301 5.00065 3.83301H15.0007C15.459 3.83301 15.8513 3.9962 16.1777 4.32259C16.5041 4.64898 16.6673 5.04134 16.6673 5.49967V7.16634C16.6673 7.40245 16.5875 7.60037 16.4277 7.76009C16.268 7.91981 16.0701 7.99967 15.834 7.99967C15.5979 7.99967 15.4 7.91981 15.2402 7.76009C15.0805 7.60037 15.0007 7.40245 15.0007 7.16634V5.49967H5.00065V7.16634C5.00065 7.40245 4.92079 7.60037 4.76107 7.76009C4.60135 7.91981 4.40343 7.99967 4.16732 7.99967C3.93121 7.99967 3.73329 7.91981 3.57357 7.76009C3.41385 7.60037 3.33398 7.40245 3.33398 7.16634Z" fill="#888888"/>
<path id="publish_2" d="M12.3967 13.0618L10.8342 14.6243L10.8342 8.66602C10.8342 8.4299 10.7544 8.23199 10.5946 8.07227C10.4349 7.91254 10.237 7.83268 10.0009 7.83268C9.76478 7.83268 9.56686 7.91254 9.40714 8.07227C9.24741 8.23199 9.16755 8.4299 9.16755 8.66602L9.16755 14.6243L7.60505 13.0618C7.43839 12.8952 7.24047 12.8153 7.0113 12.8223C6.78214 12.8292 6.58422 12.916 6.41755 13.0827C6.26477 13.2493 6.18491 13.4438 6.17797 13.666C6.17102 13.8882 6.25089 14.0827 6.41755 14.2493L9.41755 17.2493C9.50089 17.3327 9.59116 17.3917 9.68839 17.4264C9.78561 17.4612 9.88977 17.4785 10.0009 17.4785C10.112 17.4785 10.2162 17.4612 10.3134 17.4264C10.4106 17.3917 10.5009 17.3327 10.5842 17.2493L13.5842 14.2493C13.7509 14.0827 13.8307 13.8882 13.8238 13.666C13.8169 13.4438 13.737 13.2493 13.5842 13.0827C13.4176 12.916 13.2196 12.8292 12.9905 12.8223C12.7613 12.8153 12.5634 12.8952 12.3967 13.0618Z" fill="#888888"/>
</g>
</g>
</svg>
