<svg width="18" height="18" viewBox="0 0 18 18" fill="none" xmlns="http://www.w3.org/2000/svg">
<mask id="mask0_10556_22554" style="mask-type:alpha" maskUnits="userSpaceOnUse" x="0" y="0" width="18" height="18">
<rect width="18" height="18" fill="#D9D9D9"/>
</mask>
<g mask="url(#mask0_10556_22554)">
<path d="M9.00098 15.0039C8.58848 15.0039 8.23535 14.857 7.9416 14.5633C7.64785 14.2695 7.50098 13.9164 7.50098 13.5039C7.50098 13.0914 7.64785 12.7383 7.9416 12.4445C8.23535 12.1508 8.58848 12.0039 9.00098 12.0039C9.41348 12.0039 9.7666 12.1508 10.0604 12.4445C10.3541 12.7383 10.501 13.0914 10.501 13.5039C10.501 13.9164 10.3541 14.2695 10.0604 14.5633C9.7666 14.857 9.41348 15.0039 9.00098 15.0039ZM9.00098 10.5039C8.58848 10.5039 8.23535 10.357 7.9416 10.0633C7.64785 9.76953 7.50098 9.41641 7.50098 9.00391C7.50098 8.59141 7.64785 8.23828 7.9416 7.94453C8.23535 7.65078 8.58848 7.50391 9.00098 7.50391C9.41348 7.50391 9.7666 7.65078 10.0604 7.94453C10.3541 8.23828 10.501 8.59141 10.501 9.00391C10.501 9.41641 10.3541 9.76953 10.0604 10.0633C9.7666 10.357 9.41348 10.5039 9.00098 10.5039ZM9.00098 6.00391C8.58848 6.00391 8.23535 5.85703 7.9416 5.56328C7.64785 5.26953 7.50098 4.91641 7.50098 4.50391C7.50098 4.09141 7.64785 3.73828 7.9416 3.44453C8.23535 3.15078 8.58848 3.00391 9.00098 3.00391C9.41348 3.00391 9.7666 3.15078 10.0604 3.44453C10.3541 3.73828 10.501 4.09141 10.501 4.50391C10.501 4.91641 10.3541 5.26953 10.0604 5.56328C9.7666 5.85703 9.41348 6.00391 9.00098 6.00391Z" fill="white"/>
</g>
</svg>
