<svg width="22" height="22" viewBox="0 0 22 22" fill="none" xmlns="http://www.w3.org/2000/svg">
<mask id="mask0_13035_13085" style="mask-type:alpha" maskUnits="userSpaceOnUse" x="0" y="0" width="22" height="22">
<rect width="22" height="22" fill="#D9D9D9"/>
</mask>
<g mask="url(#mask0_13035_13085)">
<path d="M14.183 15.15L15.149 14.184L11.6868 10.7216V6.41697H10.3118V11.2788L14.183 15.15ZM11.0009 19.7086C9.79642 19.7086 8.66431 19.4801 7.60452 19.0229C6.54472 18.5658 5.62284 17.9455 4.83889 17.1619C4.05493 16.3783 3.43429 15.4568 2.97698 14.3975C2.51967 13.3382 2.29102 12.2063 2.29102 11.0018C2.29102 9.7974 2.51957 8.66529 2.97668 7.6055C3.43379 6.54569 4.05415 5.62382 4.83774 4.83987C5.62136 4.0559 6.54283 3.43527 7.60216 2.97796C8.66147 2.52065 9.79335 2.29199 10.9978 2.29199C12.2022 2.29199 13.3343 2.52055 14.3941 2.97766C15.4539 3.43477 16.3758 4.05512 17.1598 4.83872C17.9437 5.62233 18.5644 6.54381 19.0217 7.60314C19.479 8.66245 19.7076 9.79433 19.7076 10.9988C19.7076 12.2032 19.4791 13.3353 19.022 14.3951C18.5649 15.4549 17.9445 16.3768 17.1609 17.1607C16.3773 17.9447 15.4558 18.5653 14.3965 19.0226C13.3372 19.48 12.2053 19.7086 11.0009 19.7086ZM10.9993 18.3336C13.0313 18.3336 14.7615 17.6194 16.19 16.1909C17.6184 14.7625 18.3327 13.0322 18.3327 11.0003C18.3327 8.96836 17.6184 7.23815 16.19 5.80968C14.7615 4.38121 13.0313 3.66697 10.9993 3.66697C8.96738 3.66697 7.23717 4.38121 5.8087 5.80968C4.38023 7.23815 3.66599 8.96836 3.66599 11.0003C3.66599 13.0322 4.38023 14.7625 5.8087 16.1909C7.23717 17.6194 8.96738 18.3336 10.9993 18.3336Z" fill="#333333"/>
</g>
</svg>
