<svg width="16" height="16" viewBox="0 0 16 16" fill="none" xmlns="http://www.w3.org/2000/svg">
<mask id="mask0_9530_6086" style="mask-type:alpha" maskUnits="userSpaceOnUse" x="0" y="0" width="16" height="16">
<rect width="16" height="16" fill="#D9D9D9"/>
</mask>
<g mask="url(#mask0_9530_6086)">
<path d="M10.1987 11.133L11.132 10.1997L8.66536 7.73301V4.66634H7.33203V8.26634L10.1987 11.133ZM7.9987 14.6663C7.07648 14.6663 6.20981 14.4913 5.3987 14.1413C4.58759 13.7913 3.88203 13.3163 3.28203 12.7163C2.68203 12.1163 2.20703 11.4108 1.85703 10.5997C1.50703 9.78856 1.33203 8.9219 1.33203 7.99967C1.33203 7.07745 1.50703 6.21079 1.85703 5.39967C2.20703 4.58856 2.68203 3.88301 3.28203 3.28301C3.88203 2.68301 4.58759 2.20801 5.3987 1.85801C6.20981 1.50801 7.07648 1.33301 7.9987 1.33301C8.92092 1.33301 9.78759 1.50801 10.5987 1.85801C11.4098 2.20801 12.1154 2.68301 12.7154 3.28301C13.3154 3.88301 13.7904 4.58856 14.1404 5.39967C14.4904 6.21079 14.6654 7.07745 14.6654 7.99967C14.6654 8.9219 14.4904 9.78856 14.1404 10.5997C13.7904 11.4108 13.3154 12.1163 12.7154 12.7163C12.1154 13.3163 11.4098 13.7913 10.5987 14.1413C9.78759 14.4913 8.92092 14.6663 7.9987 14.6663ZM7.9987 13.333C9.47648 13.333 10.7348 12.8136 11.7737 11.7747C12.8126 10.7358 13.332 9.47745 13.332 7.99967C13.332 6.5219 12.8126 5.26356 11.7737 4.22467C10.7348 3.18579 9.47648 2.66634 7.9987 2.66634C6.52092 2.66634 5.26259 3.18579 4.2237 4.22467C3.18481 5.26356 2.66536 6.5219 2.66536 7.99967C2.66536 9.47745 3.18481 10.7358 4.2237 11.7747C5.26259 12.8136 6.52092 13.333 7.9987 13.333Z" fill="#888888"/>
</g>
</svg>
