<svg width="48" height="48" viewBox="0 0 48 48" fill="none" xmlns="http://www.w3.org/2000/svg">
<g clip-path="url(#clip0_14249_13317)">
<path d="M0 44.4239L24 3L48 44.4239H0ZM4.45307 41.8349H43.5469L24 8.17799L4.45307 41.8349ZM24 38.2518C24.4522 38.2518 24.8311 38.099 25.1366 37.7935C25.4421 37.488 25.594 37.1092 25.5922 36.657C25.5905 36.2047 25.4378 35.8268 25.134 35.523C24.8302 35.2192 24.4522 35.0656 24 35.0621C23.5478 35.0587 23.1698 35.2114 22.866 35.5204C22.5622 35.8293 22.4095 36.2082 22.4078 36.657C22.406 37.1057 22.5588 37.4846 22.866 37.7935C23.1732 38.1025 23.5512 38.2552 24 38.2518ZM22.7055 32.4757H25.2945V19.5307H22.7055V32.4757Z" fill="#EC8850"/>
</g>
<defs>
<clipPath id="clip0_14249_13317">
<rect width="48" height="48" fill="white"/>
</clipPath>
</defs>
</svg>
