<svg width="30" height="31" viewBox="0 0 30 31" fill="none" xmlns="http://www.w3.org/2000/svg">
<path d="M27.6667 30.1216L17.1667 19.8128C16.3333 20.4674 15.375 20.9855 14.2917 21.3673C13.2083 21.7491 12.0556 21.94 10.8333 21.94C7.80556 21.94 5.24306 20.9105 3.14583 18.8515C1.04861 16.7925 0 14.2766 0 11.304C0 8.33137 1.04861 5.81554 3.14583 3.75651C5.24306 1.69748 7.80556 0.667969 10.8333 0.667969C13.8611 0.667969 16.4236 1.69748 18.5208 3.75651C20.6181 5.81554 21.6667 8.33137 21.6667 11.304C21.6667 12.504 21.4722 13.6358 21.0833 14.6994C20.6944 15.763 20.1667 16.7038 19.5 17.522L30 27.8308L27.6667 30.1216ZM10.8333 18.6674C12.9167 18.6674 14.6875 17.9515 16.1458 16.5198C17.6042 15.088 18.3333 13.3494 18.3333 11.304C18.3333 9.25861 17.6042 7.52003 16.1458 6.08826C14.6875 4.65648 12.9167 3.9406 10.8333 3.9406C8.75 3.9406 6.97917 4.65648 5.52083 6.08826C4.0625 7.52003 3.33333 9.25861 3.33333 11.304C3.33333 13.3494 4.0625 15.088 5.52083 16.5198C6.97917 17.9515 8.75 18.6674 10.8333 18.6674ZM9.16667 16.2129V12.9403H5.83333V9.66769H9.16667V6.39507H12.5V9.66769H15.8333V12.9403H12.5V16.2129H9.16667Z" fill="white"/>
</svg>
