<svg width="24" height="24" viewBox="0 0 24 24" fill="none" xmlns="http://www.w3.org/2000/svg">
<path d="M23.2969 14.1562H22.9801L22.1196 7.27219C22.0756 6.9203 21.7765 6.65625 21.4219 6.65625H19.0781C18.7235 6.65625 18.4244 6.9203 18.3804 7.27219L17.5199 14.1562H16.4176L15.5571 7.27219C15.5131 6.9203 15.214 6.65625 14.8594 6.65625H12.5156C12.161 6.65625 11.8619 6.9203 11.8179 7.27219L10.9574 14.1562H9.9375V9.23438C9.9375 8.84606 9.62269 8.53125 9.23438 8.53125H0.703125C0.314812 8.53125 0 8.84606 0 9.23438V23.2969C0 23.6852 0.314812 24 0.703125 24H23.2969C23.6852 24 24 23.6852 24 23.2969V14.8594C24 14.4711 23.6852 14.1562 23.2969 14.1562ZM19.6988 8.0625H20.8012L21.5629 14.1562H18.9371L19.6988 8.0625ZM13.1363 8.0625H14.2387L15.0004 14.1562H12.3746L13.1363 8.0625ZM1.40625 9.9375H8.53125V14.8594V22.5938H7.07812V19.5469C7.07812 19.1586 6.76331 18.8438 6.375 18.8438H3.5625C3.17419 18.8438 2.85938 19.1586 2.85938 19.5469V22.5938H1.40625V9.9375ZM4.26562 22.5938V20.25H5.67188V22.5938H4.26562ZM13.6875 22.5938V21.1875H18.8438V22.5938H13.6875ZM22.5938 22.5938H20.25V20.4844C20.25 20.0961 19.9352 19.7812 19.5469 19.7812H12.9844C12.5961 19.7812 12.2812 20.0961 12.2812 20.4844V22.5938H9.9375V15.5625H22.5938V22.5938Z" fill="#fff"/>
<path d="M16.7344 16.9688H15.7969C15.4086 16.9688 15.0938 17.2836 15.0938 17.6719C15.0938 18.0602 15.4086 18.375 15.7969 18.375H16.7344C17.1227 18.375 17.4375 18.0602 17.4375 17.6719C17.4375 17.2836 17.1227 16.9688 16.7344 16.9688Z" fill="#fff"/>
<path d="M20.4844 16.9688H19.5469C19.1586 16.9688 18.8438 17.2836 18.8438 17.6719C18.8438 18.0602 19.1586 18.375 19.5469 18.375H20.4844C20.8727 18.375 21.1875 18.0602 21.1875 17.6719C21.1875 17.2836 20.8727 16.9688 20.4844 16.9688Z" fill="#fff"/>
<path d="M9.23438 2.8125H18.8438C19.2315 2.8125 19.5469 3.12792 19.5469 3.51562V4.92188C19.5469 5.31019 19.8617 5.625 20.25 5.625C20.6383 5.625 20.9531 5.31019 20.9531 4.92188V3.51562C20.9531 2.35252 20.0069 1.40625 18.8438 1.40625H9.23438C8.84667 1.40625 8.53125 1.09083 8.53125 0.703125C8.53125 0.314812 8.21644 0 7.82812 0C7.43981 0 7.125 0.314812 7.125 0.703125C7.125 1.86623 8.07127 2.8125 9.23438 2.8125Z" fill="#fff"/>
<path d="M6.42188 5.625H13.6875C14.0758 5.625 14.3906 5.31019 14.3906 4.92188C14.3906 4.53356 14.0758 4.21875 13.6875 4.21875H6.42188C6.03417 4.21875 5.71875 3.90333 5.71875 3.51562C5.71875 3.12731 5.40394 2.8125 5.01562 2.8125C4.62731 2.8125 4.3125 3.12731 4.3125 3.51562C4.3125 4.67873 5.25877 5.625 6.42188 5.625Z" fill="#fff"/>
<path d="M6.375 17.4375C6.76331 17.4375 7.07812 17.1227 7.07812 16.7344V15.7969C7.07812 15.4086 6.76331 15.0938 6.375 15.0938C5.98669 15.0938 5.67188 15.4086 5.67188 15.7969V16.7344C5.67188 17.1227 5.98669 17.4375 6.375 17.4375Z" fill="#fff"/>
<path d="M3.5625 17.4375C3.95081 17.4375 4.26562 17.1227 4.26562 16.7344V15.7969C4.26562 15.4086 3.95081 15.0938 3.5625 15.0938C3.17419 15.0938 2.85938 15.4086 2.85938 15.7969V16.7344C2.85938 17.1227 3.17419 17.4375 3.5625 17.4375Z" fill="#fff"/>
<path d="M6.375 13.6875C6.76331 13.6875 7.07812 13.3727 7.07812 12.9844V12.0469C7.07812 11.6586 6.76331 11.3438 6.375 11.3438C5.98669 11.3438 5.67188 11.6586 5.67188 12.0469V12.9844C5.67188 13.3727 5.98669 13.6875 6.375 13.6875Z" fill="#fff"/>
<path d="M3.5625 13.6875C3.95081 13.6875 4.26562 13.3727 4.26562 12.9844V12.0469C4.26562 11.6586 3.95081 11.3438 3.5625 11.3438C3.17419 11.3438 2.85938 11.6586 2.85938 12.0469V12.9844C2.85938 13.3727 3.17419 13.6875 3.5625 13.6875Z" fill="#fff"/>
<path d="M12.9844 16.9688H12.0469C11.6586 16.9688 11.3438 17.2836 11.3438 17.6719C11.3438 18.0602 11.6586 18.375 12.0469 18.375H12.9844C13.3727 18.375 13.6875 18.0602 13.6875 17.6719C13.6875 17.2836 13.3727 16.9688 12.9844 16.9688Z" fill="#fff"/>
</svg>
