<svg width="15" height="15" viewBox="0 0 15 15" fill="none" xmlns="http://www.w3.org/2000/svg">
<path d="M7.19922 14.5C8.58369 14.5 9.93706 14.0895 11.0882 13.3203C12.2394 12.5511 13.1366 11.4579 13.6664 10.1788C14.1962 8.8997 14.3348 7.49224 14.0647 6.13437C13.7946 4.7765 13.1279 3.52922 12.149 2.55026C11.17 1.57129 9.92272 0.904603 8.56485 0.634506C7.20698 0.36441 5.79952 0.503033 4.52043 1.03285C3.24135 1.56266 2.1481 2.45987 1.37893 3.61101C0.609761 4.76215 0.199219 6.11553 0.199219 7.5C0.199219 9.35652 0.936716 11.137 2.24947 12.4497C3.56223 13.7625 5.3427 14.5 7.19922 14.5ZM7.19922 3.12267C7.38381 3.12267 7.56426 3.17741 7.71775 3.27996C7.87124 3.38252 7.99086 3.52829 8.0615 3.69883C8.13215 3.86938 8.15063 4.05704 8.11462 4.23809C8.0786 4.41914 7.98971 4.58544 7.85918 4.71597C7.72865 4.8465 7.56235 4.93539 7.3813 4.9714C7.20025 5.00741 7.01259 4.98893 6.84205 4.91829C6.6715 4.84765 6.52573 4.72802 6.42318 4.57453C6.32062 4.42105 6.26588 4.2406 6.26588 4.056C6.26588 3.80847 6.36422 3.57107 6.53925 3.39604C6.71428 3.221 6.95168 3.12267 7.19922 3.12267ZM6.26588 7.5C6.26588 7.25247 6.36422 7.01507 6.53925 6.84004C6.71428 6.665 6.95168 6.56667 7.19922 6.56667C7.44675 6.56667 7.68415 6.665 7.85918 6.84004C8.03422 7.01507 8.13255 7.25247 8.13255 7.5V11.2333C8.13255 11.4809 8.03422 11.7183 7.85918 11.8933C7.68415 12.0683 7.44675 12.1667 7.19922 12.1667C6.95168 12.1667 6.71428 12.0683 6.53925 11.8933C6.36422 11.7183 6.26588 11.4809 6.26588 11.2333V7.5Z" fill="#888888"/>
</svg>
