<svg width="18" height="18" viewBox="0 0 18 18" fill="none" xmlns="http://www.w3.org/2000/svg">
<circle cx="9" cy="9" r="9" fill="#0056A1"/>
<path d="M10.4594 3C11.2634 3 11.6654 3.5472 11.6654 4.1742C11.6654 4.9572 10.967 5.6814 10.058 5.6814C9.29663 5.6814 8.85263 5.2314 8.87363 4.4874C8.87363 3.8616 9.40223 3 10.4594 3ZM7.98563 15C7.35083 15 6.88583 14.6088 7.32983 12.8856L8.05823 9.8304C8.18483 9.342 8.20583 9.1458 8.05823 9.1458C7.86803 9.1458 7.04483 9.483 6.55703 9.816L6.24023 9.288C7.78343 7.9764 9.55883 7.2078 10.3208 7.2078C10.955 7.2078 11.0606 7.9716 10.7438 9.1458L9.90923 12.357C9.76163 12.924 9.82463 13.1196 9.97283 13.1196C10.163 13.1196 10.787 12.8844 11.4002 12.3954L11.7602 12.8838C10.259 14.412 8.61923 15 7.98563 15Z" fill="white"/>
</svg>
