<svg width="6" height="10" viewBox="0 0 6 10" fill="none" xmlns="http://www.w3.org/2000/svg">
<path d="M4.2162 0C4.8862 0 5.2212 0.456 5.2212 0.9785C5.2212 1.631 4.6392 2.2345 3.8817 2.2345C3.2472 2.2345 2.8772 1.8595 2.8947 1.2395C2.8947 0.718 3.3352 0 4.2162 0ZM2.1547 10C1.6257 10 1.2382 9.674 1.6082 8.238L2.2152 5.692C2.3207 5.285 2.3382 5.1215 2.2152 5.1215C2.0567 5.1215 1.3707 5.4025 0.964195 5.68L0.700195 5.24C1.9862 4.147 3.4657 3.5065 4.1007 3.5065C4.6292 3.5065 4.7172 4.143 4.4532 5.1215L3.7577 7.7975C3.6347 8.27 3.6872 8.433 3.8107 8.433C3.9692 8.433 4.4892 8.237 5.0002 7.8295L5.3002 8.2365C4.0492 9.51 2.6827 10 2.1547 10Z" fill="#888888"/>
</svg>
