<svg width="20" height="20" viewBox="0 0 20 20" fill="none" xmlns="http://www.w3.org/2000/svg">
<mask id="mask0_6891_11018" style="mask-type:alpha" maskUnits="userSpaceOnUse" x="0" y="0" width="20" height="20">
<rect width="20" height="20" fill="#D9D9D9"/>
</mask>
<g mask="url(#mask0_6891_11018)">
<path d="M9.16602 14.167H10.8327V9.16699H9.16602V14.167ZM9.99935 7.50033C10.2355 7.50033 10.4334 7.42046 10.5931 7.26074C10.7528 7.10102 10.8327 6.9031 10.8327 6.66699C10.8327 6.43088 10.7528 6.23296 10.5931 6.07324C10.4334 5.91352 10.2355 5.83366 9.99935 5.83366C9.76324 5.83366 9.56532 5.91352 9.4056 6.07324C9.24588 6.23296 9.16602 6.43088 9.16602 6.66699C9.16602 6.9031 9.24588 7.10102 9.4056 7.26074C9.56532 7.42046 9.76324 7.50033 9.99935 7.50033ZM9.99935 18.3337C8.84657 18.3337 7.76324 18.1149 6.74935 17.6774C5.73546 17.2399 4.85352 16.6462 4.10352 15.8962C3.35352 15.1462 2.75977 14.2642 2.32227 13.2503C1.88477 12.2364 1.66602 11.1531 1.66602 10.0003C1.66602 8.84755 1.88477 7.76421 2.32227 6.75033C2.75977 5.73644 3.35352 4.85449 4.10352 4.10449C4.85352 3.35449 5.73546 2.76074 6.74935 2.32324C7.76324 1.88574 8.84657 1.66699 9.99935 1.66699C11.1521 1.66699 12.2355 1.88574 13.2493 2.32324C14.2632 2.76074 15.1452 3.35449 15.8952 4.10449C16.6452 4.85449 17.2389 5.73644 17.6764 6.75033C18.1139 7.76421 18.3327 8.84755 18.3327 10.0003C18.3327 11.1531 18.1139 12.2364 17.6764 13.2503C17.2389 14.2642 16.6452 15.1462 15.8952 15.8962C15.1452 16.6462 14.2632 17.2399 13.2493 17.6774C12.2355 18.1149 11.1521 18.3337 9.99935 18.3337Z" fill="#888888"/>
</g>
</svg>
