<svg width="20" height="20" viewBox="0 0 20 20" fill="none" xmlns="http://www.w3.org/2000/svg">
<path d="M9.99992 5.41658C9.75681 5.41658 9.52365 5.51316 9.35174 5.68507C9.17983 5.85698 9.08326 6.09014 9.08326 6.33325V9.99992C9.08326 10.243 9.17983 10.4762 9.35174 10.6481C9.52365 10.82 9.75681 10.9166 9.99992 10.9166C10.243 10.9166 10.4762 10.82 10.6481 10.6481C10.82 10.4762 10.9166 10.243 10.9166 9.99992V6.33325C10.9166 6.09014 10.82 5.85698 10.6481 5.68507C10.4762 5.51316 10.243 5.41658 9.99992 5.41658ZM10.8433 13.3183C10.8232 13.2598 10.7954 13.2044 10.7608 13.1533L10.6508 13.0158C10.5219 12.8886 10.3582 12.8024 10.1803 12.7681C10.0025 12.7339 9.81852 12.7531 9.65159 12.8233C9.5405 12.8697 9.43819 12.9348 9.34909 13.0158C9.26413 13.1014 9.19692 13.203 9.1513 13.3147C9.10568 13.4264 9.08256 13.5459 9.08326 13.6666C9.0847 13.7864 9.10962 13.9047 9.15659 14.0149C9.19776 14.1287 9.26344 14.232 9.34898 14.3175C9.43453 14.4031 9.53784 14.4687 9.65159 14.5099C9.76131 14.5584 9.87996 14.5835 9.99992 14.5835C10.1199 14.5835 10.2385 14.5584 10.3483 14.5099C10.462 14.4687 10.5653 14.4031 10.6509 14.3175C10.7364 14.232 10.8021 14.1287 10.8433 14.0149C10.8902 13.9047 10.9151 13.7864 10.9166 13.6666C10.9211 13.6056 10.9211 13.5443 10.9166 13.4833C10.9008 13.4248 10.8761 13.3691 10.8433 13.3183ZM9.99992 0.833252C8.18693 0.833252 6.41465 1.37087 4.9072 2.37811C3.39974 3.38536 2.22483 4.817 1.53103 6.49199C0.837224 8.16698 0.655693 10.0101 1.00939 11.7882C1.36309 13.5664 2.23613 15.1997 3.51811 16.4817C4.80009 17.7637 6.43344 18.6368 8.2116 18.9904C9.98975 19.3441 11.8329 19.1626 13.5079 18.4688C15.1828 17.775 16.6145 16.6001 17.6217 15.0926C18.629 13.5852 19.1666 11.8129 19.1666 9.99992C19.1666 8.79613 18.9295 7.60414 18.4688 6.49199C18.0082 5.37984 17.3329 4.36931 16.4817 3.51811C15.6305 2.6669 14.62 1.99169 13.5079 1.53102C12.3957 1.07035 11.2037 0.833252 9.99992 0.833252ZM9.99992 17.3333C8.54953 17.3333 7.1317 16.9032 5.92574 16.0974C4.71978 15.2916 3.77985 14.1463 3.22481 12.8063C2.66976 11.4663 2.52454 9.99178 2.8075 8.56926C3.09046 7.14673 3.78889 5.84005 4.81447 4.81447C5.84006 3.78888 7.14673 3.09045 8.56926 2.80749C9.99179 2.52454 11.4663 2.66976 12.8063 3.2248C14.1463 3.77984 15.2916 4.71978 16.0974 5.92574C16.9032 7.1317 17.3333 8.54952 17.3333 9.99992C17.3333 11.9448 16.5606 13.8101 15.1854 15.1854C13.8101 16.5606 11.9448 17.3333 9.99992 17.3333Z" fill="#888888"/>
</svg>
