<svg width="18" height="18" viewBox="0 0 18 18" fill="none" xmlns="http://www.w3.org/2000/svg">
<path d="M13.166 17.3332H3.16602C2.50297 17.3332 1.86709 17.0698 1.39825 16.6009C0.929408 16.1321 0.666016 15.4962 0.666016 14.8332V6.49985C0.666016 5.83681 0.929408 5.20092 1.39825 4.73208C1.86709 4.26324 2.50297 3.99985 3.16602 3.99985H3.99935C4.01337 3.29371 4.25131 2.61028 4.67886 2.04812C5.10641 1.48597 5.70147 1.07414 6.37821 0.872044C7.05496 0.669948 7.7784 0.688029 8.4442 0.923679C9.11 1.15933 9.68375 1.60037 10.0827 2.18318C10.4564 2.7158 10.6598 3.34923 10.666 3.99985H13.166C13.387 3.99985 13.599 4.08765 13.7553 4.24393C13.9116 4.40021 13.9993 4.61217 13.9993 4.83318V7.33318C14.7055 7.3472 15.3889 7.58514 15.9511 8.01269C16.5132 8.44024 16.9251 9.03531 17.1272 9.71205C17.3293 10.3888 17.3112 11.1122 17.0755 11.778C16.8399 12.4438 16.3988 13.0176 15.816 13.4165C15.2834 13.7902 14.65 13.9936 13.9993 13.9998V16.4998C13.9993 16.7209 13.9116 16.9328 13.7553 17.0891C13.599 17.2454 13.387 17.3332 13.166 17.3332ZM3.16602 5.66652C2.945 5.66652 2.73304 5.75431 2.57676 5.91059C2.42048 6.06687 2.33268 6.27883 2.33268 6.49985V14.8332C2.33268 15.0542 2.42048 15.2662 2.57676 15.4224C2.73304 15.5787 2.945 15.6665 3.16602 15.6665H12.3327V13.0165C12.332 12.8829 12.3634 12.7511 12.4243 12.6321C12.4852 12.5132 12.5738 12.4107 12.6827 12.3332C12.7912 12.2558 12.9167 12.2056 13.0487 12.1867C13.1806 12.1679 13.3152 12.1809 13.441 12.2248C13.6785 12.3217 13.9372 12.355 14.1914 12.3214C14.4457 12.2878 14.6869 12.1884 14.891 12.0332C15.0942 11.9093 15.2685 11.7432 15.4022 11.5463C15.5359 11.3494 15.6258 11.1261 15.666 10.8915C15.6982 10.6549 15.6791 10.4141 15.6101 10.1855C15.541 9.95693 15.4237 9.74582 15.266 9.56651C15.0527 9.30744 14.7623 9.12326 14.437 9.04082C14.1117 8.95837 13.7686 8.98197 13.4577 9.10818C13.3318 9.15209 13.1973 9.16516 13.0653 9.14631C12.9334 9.12746 12.8079 9.07724 12.6994 8.99985C12.5905 8.92235 12.5019 8.81982 12.441 8.70089C12.3801 8.58196 12.3486 8.45013 12.3493 8.31652V5.66652H9.68268C9.54572 5.67428 9.40897 5.64811 9.28455 5.59033C9.16014 5.53256 9.0519 5.44496 8.96947 5.33532C8.88703 5.22567 8.83293 5.09738 8.81198 4.96181C8.79102 4.82624 8.80386 4.6876 8.84935 4.55818C8.94623 4.32069 8.97951 4.06204 8.9459 3.80775C8.91229 3.55347 8.81295 3.31235 8.65768 3.10818C8.53464 2.89915 8.36615 2.72049 8.16468 2.58543C7.96321 2.45036 7.73393 2.36237 7.49384 2.32795C7.25374 2.29354 7.00897 2.31359 6.77768 2.38662C6.54638 2.45966 6.33448 2.5838 6.15768 2.74985C5.9935 2.91269 5.86499 3.10792 5.78035 3.32313C5.6957 3.53833 5.65677 3.76879 5.66602 3.99985C5.66795 4.19099 5.70466 4.38019 5.77435 4.55818C5.8184 4.6842 5.83154 4.81895 5.81265 4.9511C5.79377 5.08325 5.74341 5.20893 5.66581 5.31756C5.58822 5.42619 5.48567 5.51459 5.36679 5.57532C5.24791 5.63604 5.11617 5.66732 4.98268 5.66652H3.16602Z" fill="#0056A1"/>
</svg>
