<svg width="20" height="20" viewBox="0 0 20 20" fill="none" xmlns="http://www.w3.org/2000/svg">
<path d="M10.1008 13.1075L6.54418 16.6642C6.11356 17.0798 5.53847 17.312 4.94001 17.312C4.34156 17.312 3.76646 17.0798 3.33585 16.6642C3.12465 16.4538 2.95707 16.2038 2.84273 15.9285C2.72838 15.6532 2.66952 15.3581 2.66952 15.06C2.66952 14.7619 2.72838 14.4668 2.84273 14.1915C2.95707 13.9162 3.12465 13.6662 3.33585 13.4558L6.89251 9.89917C7.06512 9.72656 7.1621 9.49244 7.1621 9.24833C7.1621 9.00422 7.06512 8.77011 6.89251 8.5975C6.7199 8.42489 6.48579 8.32792 6.24168 8.32792C5.99757 8.32792 5.76346 8.42489 5.59085 8.5975L2.03418 12.1633C1.31767 12.9432 0.930165 13.9698 0.952581 15.0286C0.974997 16.0874 1.4056 17.0967 2.15448 17.8455C2.90335 18.5944 3.91258 19.025 4.97141 19.0474C6.03023 19.0698 7.05679 18.6823 7.83668 17.9658L11.4025 14.4092C11.5751 14.2366 11.6721 14.0024 11.6721 13.7583C11.6721 13.5142 11.5751 13.2801 11.4025 13.1075C11.2299 12.9349 10.9958 12.8379 10.7517 12.8379C10.5076 12.8379 10.2735 12.9349 10.1008 13.1075ZM17.9658 2.03417C17.1947 1.26784 16.1517 0.837723 15.0646 0.837723C13.9775 0.837723 12.9345 1.26784 12.1633 2.03417L8.59751 5.59083C8.51204 5.6763 8.44425 5.77777 8.39799 5.88944C8.35174 6.00111 8.32793 6.1208 8.32793 6.24167C8.32793 6.36254 8.35174 6.48223 8.39799 6.5939C8.44425 6.70557 8.51204 6.80703 8.59751 6.8925C8.68298 6.97797 8.78445 7.04577 8.89612 7.09202C9.00779 7.13828 9.12748 7.16208 9.24835 7.16208C9.36922 7.16208 9.4889 7.13828 9.60058 7.09202C9.71224 7.04577 9.81371 6.97797 9.89918 6.8925L13.4558 3.33583C13.8865 2.92024 14.4616 2.68799 15.06 2.68799C15.6585 2.68799 16.2336 2.92024 16.6642 3.33583C16.8754 3.5462 17.043 3.79619 17.1573 4.07148C17.2716 4.34676 17.3305 4.64191 17.3305 4.94C17.3305 5.23809 17.2716 5.53324 17.1573 5.80853C17.043 6.08381 16.8754 6.3338 16.6642 6.54417L13.1075 10.1008C13.0216 10.186 12.9534 10.2874 12.9069 10.3991C12.8603 10.5108 12.8364 10.6307 12.8364 10.7517C12.8364 10.8727 12.8603 10.9925 12.9069 11.1042C12.9534 11.2159 13.0216 11.3173 13.1075 11.4025C13.1927 11.4884 13.2941 11.5566 13.4058 11.6032C13.5175 11.6497 13.6373 11.6736 13.7583 11.6736C13.8794 11.6736 13.9992 11.6497 14.1109 11.6032C14.2226 11.5566 14.324 11.4884 14.4092 11.4025L17.9658 7.83667C18.7322 7.06555 19.1623 6.02256 19.1623 4.93542C19.1623 3.84827 18.7322 2.80528 17.9658 2.03417ZM7.09418 12.9058C7.17983 12.9908 7.28141 13.058 7.3931 13.1036C7.50478 13.1492 7.62437 13.1724 7.74501 13.1717C7.86565 13.1724 7.98524 13.1492 8.09693 13.1036C8.20861 13.058 8.31019 12.9908 8.39585 12.9058L12.9058 8.39583C13.0785 8.22322 13.1754 7.98911 13.1754 7.745C13.1754 7.50089 13.0785 7.26678 12.9058 7.09417C12.7332 6.92156 12.4991 6.82458 12.255 6.82458C12.0109 6.82458 11.7768 6.92156 11.6042 7.09417L7.09418 11.6042C7.00826 11.6894 6.94007 11.7908 6.89353 11.9025C6.84699 12.0142 6.82303 12.134 6.82303 12.255C6.82303 12.376 6.84699 12.4958 6.89353 12.6075C6.94007 12.7192 7.00826 12.8206 7.09418 12.9058Z" fill="#0056A1"/>
</svg>
