<svg width="16" height="18" viewBox="0 0 16 18" fill="none" xmlns="http://www.w3.org/2000/svg">
<path d="M13.4971 2.22994C12.0693 0.802135 10.1327 -1.50444e-08 8.1135 0C6.09427 1.50444e-08 4.15775 0.802135 2.72994 2.22994C1.30213 3.65775 0.5 5.59428 0.5 7.6135C0.5 9.63273 1.30213 11.5693 2.72994 12.9971L7.4585 17.7346C7.54191 17.8187 7.64115 17.8854 7.75049 17.931C7.85983 17.9765 7.97711 18 8.09556 18C8.214 18 8.33128 17.9765 8.44062 17.931C8.54996 17.8854 8.6492 17.8187 8.73261 17.7346L13.4971 12.9522C14.9189 11.5303 15.7177 9.60188 15.7177 7.59107C15.7177 5.58026 14.9189 3.65181 13.4971 2.22994ZM12.214 11.6691L8.1135 15.7875L4.01302 11.6691C3.20293 10.8583 2.65141 9.82547 2.42819 8.70124C2.20497 7.57701 2.32006 6.41184 2.75893 5.35302C3.19779 4.29419 3.94072 3.38925 4.8938 2.75258C5.84688 2.11591 6.96733 1.77609 8.1135 1.77609C9.25967 1.77609 10.3801 2.11591 11.3332 2.75258C12.2863 3.38925 13.0292 4.29419 13.4681 5.35302C13.9069 6.41184 14.022 7.57701 13.7988 8.70124C13.5756 9.82547 13.0241 10.8583 12.214 11.6691ZM5.42172 4.85891C4.69738 5.58549 4.29063 6.5696 4.29063 7.59556C4.29063 8.62151 4.69738 9.60562 5.42172 10.3322C5.95986 10.8713 6.64521 11.2394 7.39179 11.3904C8.13837 11.5415 8.91292 11.4687 9.61827 11.1811C10.3236 10.8936 10.9284 10.4042 11.3566 9.77433C11.7849 9.14442 12.0176 8.40208 12.0256 7.64042C12.0296 7.13186 11.9316 6.62765 11.7374 6.1576C11.5433 5.68755 11.2568 5.26121 10.895 4.90378C10.5394 4.54001 10.1154 4.25016 9.6473 4.0509C9.17924 3.85164 8.67639 3.74692 8.1677 3.74275C7.659 3.73858 7.15451 3.83505 6.68324 4.02661C6.21198 4.21816 5.78325 4.50102 5.42172 4.85891ZM9.62987 9.05809C9.28985 9.4033 8.84047 9.61969 8.35857 9.67025C7.87666 9.72081 7.39216 9.6024 6.9879 9.33528C6.58363 9.06815 6.2847 8.6689 6.14223 8.20577C5.99975 7.74264 6.02257 7.2444 6.20679 6.79624C6.391 6.34807 6.72517 5.97781 7.15216 5.74876C7.57916 5.51971 8.07245 5.44609 8.54772 5.54049C9.02298 5.63489 9.4507 5.89144 9.75774 6.26629C10.0648 6.64114 10.2321 7.11101 10.231 7.59556C10.218 8.14941 9.98563 8.67543 9.58501 9.05809H9.62987Z" fill="white"/>
</svg>
