<svg width="17" height="20" viewBox="0 0 17 20" fill="none" xmlns="http://www.w3.org/2000/svg">
<path d="M14.4511 2.61449C12.8935 1.05688 10.7809 0.181824 8.5781 0.181824C6.37531 0.181824 4.26273 1.05688 2.70513 2.61449C1.14752 4.1721 0.272461 6.28467 0.272461 8.48746C0.272461 10.6903 1.14752 12.8028 2.70513 14.3604L7.86355 19.5287C7.95455 19.6204 8.06281 19.6932 8.18209 19.7429C8.30137 19.7926 8.4293 19.8182 8.55852 19.8182C8.68774 19.8182 8.81568 19.7926 8.93496 19.7429C9.05424 19.6932 9.16249 19.6204 9.25349 19.5287L14.4511 14.3115C16.0022 12.7604 16.8736 10.6566 16.8736 8.46299C16.8736 6.26938 16.0022 4.16562 14.4511 2.61449ZM13.0513 12.9118L8.5781 17.4046L4.10485 12.9118C3.22111 12.0272 2.61945 10.9005 2.37594 9.67409C2.13243 8.44766 2.25799 7.17656 2.73675 6.02148C3.21551 4.8664 4.02597 3.87918 5.0657 3.18463C6.10542 2.49008 7.32773 2.11938 8.5781 2.11938C9.82847 2.11938 11.0508 2.49008 12.0905 3.18463C13.1302 3.87918 13.9407 4.8664 14.4194 6.02148C14.8982 7.17656 15.0238 8.44766 14.7803 9.67409C14.5367 10.9005 13.9351 12.0272 13.0513 12.9118ZM5.64161 5.48246C4.85142 6.27508 4.4077 7.34866 4.4077 8.46789C4.4077 9.58711 4.85142 10.6607 5.64161 11.4533C6.22868 12.0414 6.97633 12.443 7.79078 12.6077C8.60522 12.7725 9.45019 12.6931 10.2197 12.3794C10.9891 12.0658 11.6489 11.5319 12.1161 10.8447C12.5833 10.1576 12.8371 9.34773 12.8458 8.51683C12.8502 7.96203 12.7433 7.41198 12.5315 6.8992C12.3197 6.38642 12.0072 5.92132 11.6125 5.5314C11.2245 5.13456 10.7619 4.81836 10.2513 4.60099C9.74072 4.38362 9.19216 4.26937 8.63722 4.26482C8.08228 4.26027 7.53193 4.36551 7.01782 4.57448C6.50371 4.78345 6.036 5.09203 5.64161 5.48246ZM10.2323 10.0634C9.86139 10.44 9.37116 10.676 8.84544 10.7312C8.31973 10.7863 7.79118 10.6572 7.35016 10.3658C6.90915 10.0744 6.58305 9.6388 6.42762 9.13357C6.27219 8.62834 6.29708 8.08481 6.49805 7.5959C6.69901 7.10699 7.06356 6.70307 7.52937 6.4532C7.99518 6.20332 8.53332 6.12301 9.05179 6.22599C9.57026 6.32897 10.0369 6.60885 10.3718 7.01778C10.7068 7.42671 10.8893 7.93929 10.8881 8.46789C10.8739 9.07209 10.6204 9.64593 10.1834 10.0634H10.2323Z" fill="#0056A1"/>
</svg>
