<svg width="14" height="18" viewBox="0 0 14 18" fill="none" xmlns="http://www.w3.org/2000/svg">
<path d="M11.8565 2.8454C10.5585 1.54739 8.79804 0.818176 6.96238 0.818176C5.12672 0.818176 3.36624 1.54739 2.06824 2.8454C0.770229 4.1434 0.0410156 5.90388 0.0410156 7.73954C0.0410156 9.5752 0.770229 11.3357 2.06824 12.6337L6.36693 16.9405C6.44276 17.017 6.53297 17.0777 6.63237 17.1191C6.73177 17.1605 6.83839 17.1818 6.94607 17.1818C7.05375 17.1818 7.16036 17.1605 7.25976 17.1191C7.35916 17.0777 7.44938 17.017 7.52521 16.9405L11.8565 12.5929C13.1491 11.3003 13.8753 9.54716 13.8753 7.71915C13.8753 5.89114 13.1491 4.138 11.8565 2.8454V2.8454ZM10.6901 11.4265L6.96238 15.1705L3.23467 11.4265C2.49822 10.6893 1.99684 9.75042 1.79392 8.7284C1.59099 7.70637 1.69562 6.64712 2.09459 5.68456C2.49355 4.72199 3.16894 3.89931 4.03538 3.32052C4.90182 2.74173 5.9204 2.43281 6.96238 2.43281C8.00436 2.43281 9.02294 2.74173 9.88938 3.32052C10.7558 3.89931 11.4312 4.72199 11.8302 5.68456C12.2291 6.64712 12.3338 7.70637 12.1308 8.7284C11.9279 9.75042 11.4265 10.6893 10.6901 11.4265V11.4265ZM4.51531 5.23537C3.85681 5.89589 3.48704 6.79054 3.48704 7.72323C3.48704 8.65592 3.85681 9.55056 4.51531 10.2111C5.00453 10.7011 5.62757 11.0358 6.30628 11.1731C6.98499 11.3104 7.68912 11.2442 8.33035 10.9829C8.97158 10.7215 9.52135 10.2766 9.91068 9.70393C10.3 9.13129 10.5116 8.45643 10.5188 7.76401C10.5225 7.30168 10.4334 6.84331 10.2569 6.41599C10.0803 5.98867 9.81993 5.60109 9.49102 5.27616C9.16774 4.94546 8.78225 4.68196 8.35674 4.50081C7.93123 4.31967 7.4741 4.22447 7.01165 4.22067C6.5492 4.21688 6.09057 4.30458 5.66215 4.47873C5.23372 4.65287 4.84397 4.91002 4.51531 5.23537V5.23537ZM8.3409 9.0528C8.03179 9.36663 7.62326 9.56335 7.18517 9.60931C6.74707 9.65527 6.30662 9.54763 5.9391 9.30479C5.57159 9.06195 5.29984 8.69899 5.17031 8.27797C5.04079 7.85694 5.06154 7.404 5.229 6.99657C5.39647 6.58915 5.70026 6.25255 6.08844 6.04432C6.47661 5.83609 6.92506 5.76917 7.35712 5.85498C7.78918 5.9408 8.17801 6.17403 8.45714 6.51481C8.73627 6.85558 8.88836 7.28273 8.88741 7.72323C8.87554 8.22673 8.66431 8.70493 8.30011 9.0528H8.3409Z" fill="#888888"/>
</svg>
