<svg width="14" height="18" viewBox="0 0 14 18" fill="none" xmlns="http://www.w3.org/2000/svg">
<path d="M7.00016 9.83317C6.77915 9.83317 6.56719 9.92097 6.41091 10.0772C6.25463 10.2335 6.16683 10.4455 6.16683 10.6665V13.1665C6.16683 13.3875 6.25463 13.5995 6.41091 13.7558C6.56719 13.912 6.77915 13.9998 7.00016 13.9998C7.22118 13.9998 7.43314 13.912 7.58942 13.7558C7.7457 13.5995 7.8335 13.3875 7.8335 13.1665V10.6665C7.8335 10.4455 7.7457 10.2335 7.58942 10.0772C7.43314 9.92097 7.22118 9.83317 7.00016 9.83317ZM11.1668 6.49984V4.83317C11.1668 3.7281 10.7278 2.66829 9.94644 1.88689C9.16504 1.10549 8.10523 0.666504 7.00016 0.666504C5.89509 0.666504 4.83529 1.10549 4.05388 1.88689C3.27248 2.66829 2.8335 3.7281 2.8335 4.83317V6.49984C2.17045 6.49984 1.53457 6.76323 1.06573 7.23207C0.596888 7.70091 0.333496 8.3368 0.333496 8.99984V14.8332C0.333496 15.4962 0.596888 16.1321 1.06573 16.6009C1.53457 17.0698 2.17045 17.3332 2.8335 17.3332H11.1668C11.8299 17.3332 12.4658 17.0698 12.9346 16.6009C13.4034 16.1321 13.6668 15.4962 13.6668 14.8332V8.99984C13.6668 8.3368 13.4034 7.70091 12.9346 7.23207C12.4658 6.76323 11.8299 6.49984 11.1668 6.49984ZM4.50016 4.83317C4.50016 4.17013 4.76355 3.53424 5.2324 3.0654C5.70124 2.59656 6.33712 2.33317 7.00016 2.33317C7.6632 2.33317 8.29909 2.59656 8.76793 3.0654C9.23677 3.53424 9.50016 4.17013 9.50016 4.83317V6.49984H4.50016V4.83317ZM12.0002 14.8332C12.0002 15.0542 11.9124 15.2661 11.7561 15.4224C11.5998 15.5787 11.3878 15.6665 11.1668 15.6665H2.8335C2.61248 15.6665 2.40052 15.5787 2.24424 15.4224C2.08796 15.2661 2.00016 15.0542 2.00016 14.8332V8.99984C2.00016 8.77882 2.08796 8.56686 2.24424 8.41058C2.40052 8.2543 2.61248 8.1665 2.8335 8.1665H11.1668C11.3878 8.1665 11.5998 8.2543 11.7561 8.41058C11.9124 8.56686 12.0002 8.77882 12.0002 8.99984V14.8332Z" fill="#444444"/>
</svg>
