<svg width="14" height="18" viewBox="0 0 14 18" fill="none" xmlns="http://www.w3.org/2000/svg">
<path d="M11.1663 6.49993H4.49967V4.83327C4.49846 4.33842 4.64412 3.85435 4.91822 3.44235C5.19232 3.03036 5.58252 2.70897 6.03941 2.5189C6.49629 2.32883 6.99931 2.27862 7.48475 2.37464C7.97019 2.47065 8.41621 2.70858 8.76634 3.05827C9.07963 3.37832 9.30372 3.77479 9.41634 4.20827C9.4437 4.31442 9.4917 4.41414 9.5576 4.50174C9.62349 4.58935 9.706 4.66311 9.80041 4.71883C9.89481 4.77454 9.99927 4.81112 10.1078 4.82646C10.2164 4.84181 10.3269 4.83563 10.433 4.80827C10.5392 4.78091 10.6389 4.73291 10.7265 4.66701C10.8141 4.60111 10.8878 4.5186 10.9436 4.4242C10.9993 4.32979 11.0359 4.22534 11.0512 4.11679C11.0665 4.00825 11.0604 3.89775 11.033 3.7916C10.8432 3.0706 10.4666 2.41238 9.94134 1.88327C9.35816 1.3019 8.61579 0.90638 7.80797 0.746636C7.00016 0.586892 6.16312 0.670092 5.40256 0.98573C4.64199 1.30137 3.99201 1.83529 3.53468 2.52008C3.07735 3.20486 2.83318 4.00981 2.83301 4.83327V6.49993C2.16997 6.49993 1.53408 6.76333 1.06524 7.23217C0.5964 7.70101 0.333008 8.33689 0.333008 8.99993V14.8333C0.333008 15.4963 0.5964 16.1322 1.06524 16.601C1.53408 17.0699 2.16997 17.3333 2.83301 17.3333H11.1663C11.8294 17.3333 12.4653 17.0699 12.9341 16.601C13.4029 16.1322 13.6663 15.4963 13.6663 14.8333V8.99993C13.6663 8.33689 13.4029 7.70101 12.9341 7.23217C12.4653 6.76333 11.8294 6.49993 11.1663 6.49993ZM11.9997 14.8333C11.9997 15.0543 11.9119 15.2662 11.7556 15.4225C11.5993 15.5788 11.3874 15.6666 11.1663 15.6666H2.83301C2.61199 15.6666 2.40003 15.5788 2.24375 15.4225C2.08747 15.2662 1.99967 15.0543 1.99967 14.8333V8.99993C1.99967 8.77892 2.08747 8.56696 2.24375 8.41068C2.40003 8.2544 2.61199 8.1666 2.83301 8.1666H11.1663C11.3874 8.1666 11.5993 8.2544 11.7556 8.41068C11.9119 8.56696 11.9997 8.77892 11.9997 8.99993V14.8333Z" fill="#888888"/>
</svg>
