<svg width="14" height="18" viewBox="0 0 14 18" fill="none" xmlns="http://www.w3.org/2000/svg">
<path d="M0.333173 9C0.333173 9.22101 0.42097 9.43297 0.577249 9.58925C0.73353 9.74553 0.945492 9.83333 1.16651 9.83333L7.49151 9.83333L5.57484 11.7417C5.49714 11.8194 5.43551 11.9116 5.39346 12.0131C5.3514 12.1146 5.32976 12.2234 5.32976 12.3333C5.32976 12.4432 5.3514 12.552 5.39345 12.6535C5.43551 12.7551 5.49714 12.8473 5.57484 12.925C5.65254 13.0027 5.74478 13.0643 5.8463 13.1064C5.94782 13.1484 6.05662 13.1701 6.16651 13.1701C6.27639 13.1701 6.38519 13.1484 6.48671 13.1064C6.58823 13.0643 6.68047 13.0027 6.75817 12.925L10.0915 9.59166C10.1674 9.51241 10.2268 9.41896 10.2665 9.31666C10.3499 9.11378 10.3499 8.88622 10.2665 8.68333C10.2268 8.58104 10.1674 8.48758 10.0915 8.40833L6.75817 5.075C6.6807 4.99689 6.58854 4.93489 6.48699 4.89259C6.38544 4.85028 6.27652 4.8285 6.16651 4.8285C6.0565 4.8285 5.94757 4.85028 5.84603 4.89259C5.74448 4.93489 5.65231 4.99689 5.57484 5.075C5.49673 5.15247 5.43474 5.24463 5.39243 5.34618C5.35012 5.44773 5.32834 5.55665 5.32834 5.66666C5.32834 5.77667 5.35012 5.8856 5.39243 5.98714C5.43474 6.08869 5.49673 6.18086 5.57484 6.25833L7.49151 8.16666L1.16651 8.16666C0.945493 8.16666 0.73353 8.25446 0.577249 8.41074C0.42097 8.56702 0.333173 8.77898 0.333173 9ZM2.83317 17.3333L11.1665 17.3333C11.8295 17.3333 12.4654 17.0699 12.9343 16.6011C13.4031 16.1323 13.6665 15.4964 13.6665 14.8333L13.6665 3.16667C13.6665 2.50362 13.4031 1.86774 12.9343 1.3989C12.4654 0.930056 11.8295 0.666664 11.1665 0.666664L2.83317 0.666663C2.17013 0.666663 1.53425 0.930055 1.06541 1.3989C0.596565 1.86774 0.333173 2.50362 0.333173 3.16666L0.333173 5.66666C0.333173 5.88768 0.42097 6.09964 0.57725 6.25592C0.73353 6.4122 0.945493 6.5 1.16651 6.5C1.38752 6.5 1.59948 6.4122 1.75576 6.25592C1.91204 6.09964 1.99984 5.88768 1.99984 5.66666L1.99984 3.16666C1.99984 2.94565 2.08764 2.73369 2.24392 2.57741C2.4002 2.42113 2.61216 2.33333 2.83317 2.33333L11.1665 2.33333C11.3875 2.33333 11.5995 2.42113 11.7558 2.57741C11.912 2.73369 11.9998 2.94565 11.9998 3.16666L11.9998 14.8333C11.9998 15.0543 11.912 15.2663 11.7558 15.4226C11.5995 15.5789 11.3875 15.6667 11.1665 15.6667L2.83317 15.6667C2.61216 15.6667 2.4002 15.5789 2.24392 15.4226C2.08764 15.2663 1.99984 15.0543 1.99984 14.8333L1.99984 12.3333C1.99984 12.1123 1.91204 11.9004 1.75576 11.7441C1.59948 11.5878 1.38752 11.5 1.16651 11.5C0.945492 11.5 0.73353 11.5878 0.577249 11.7441C0.420969 11.9004 0.333172 12.1123 0.333172 12.3333L0.333172 14.8333C0.333172 15.4964 0.596563 16.1323 1.0654 16.6011C1.53425 17.0699 2.17013 17.3333 2.83317 17.3333Z" fill="#888888"/>
</svg>
