<svg width="264" height="90" viewBox="0 0 264 90" fill="none" xmlns="http://www.w3.org/2000/svg">
<g clip-path="url(#clip0_1499_2813)">
<path d="M35.0112 36.0755C34.9364 35.5752 34.6715 35.1229 34.2717 34.8129C32.3871 33.4532 30.4236 32.2064 28.3914 31.0791C27.7094 30.7796 26.9514 30.6986 26.2215 30.8471C25.4916 30.9957 24.8256 31.3666 24.3149 31.9088L23.9361 32.3417C23.7076 32.5433 23.5339 32.7995 23.4312 33.0863C23.3285 33.3732 23.3002 33.6814 23.3488 33.9822C23.3974 34.283 23.5215 34.5665 23.7093 34.8064C23.8972 35.0463 24.1428 35.2347 24.4231 35.354C26.0893 36.0985 27.7095 36.9418 29.2753 37.8793C29.5458 39.5027 29.8344 41.108 30.1952 42.6953C30.3581 43.2468 30.7043 43.7262 31.1766 44.0541C31.6489 44.3821 32.219 44.5391 32.7926 44.4991H33.2616C33.8182 44.4665 34.3403 44.2186 34.7173 43.8079C35.0944 43.3972 35.2968 42.8559 35.2818 42.2985C35.2818 40.3324 35.1014 38.3302 35.0293 36.31C35.0329 36.2314 35.0269 36.1526 35.0112 36.0755Z" fill="url(#paint0_linear_1499_2813)"/>
<path d="M38.3663 36.0755C38.4077 35.809 38.5046 35.5541 38.6506 35.3273C38.7966 35.1005 38.9885 34.9068 39.214 34.7588C41.1009 33.4135 43.0643 32.1788 45.0943 31.061C45.7741 30.7657 46.5284 30.6869 47.2545 30.8353C47.9807 30.9838 48.6435 31.3523 49.1528 31.8908L49.5496 32.3237C49.7781 32.5253 49.9518 32.7814 50.0545 33.0683C50.1572 33.3551 50.1855 33.6634 50.1369 33.9641C50.0883 34.2649 49.9643 34.5485 49.7764 34.7884C49.5885 35.0283 49.343 35.2167 49.0626 35.336C47.3701 36.0932 45.7202 36.9422 44.1203 37.8793C43.8497 39.5027 43.5611 41.1261 43.2184 42.6954C43.0555 43.2468 42.7093 43.7262 42.237 44.0541C41.7647 44.3821 41.1946 44.5391 40.621 44.4991H40.152C39.5954 44.4665 39.0733 44.2186 38.6963 43.8079C38.3192 43.3972 38.1168 42.8559 38.1318 42.2985C38.2219 40.3324 38.2941 38.3302 38.3482 36.31C38.3482 36.2739 38.3663 36.2018 38.3663 36.0755Z" fill="url(#paint1_linear_1499_2813)"/>
<path d="M39.3042 24.8198C40.03 24.6959 40.7765 24.8142 41.4284 25.1565C42.0803 25.4987 42.6016 26.046 42.9117 26.7138C42.9515 26.8785 42.9997 27.041 43.056 27.2008C43.4348 28.4454 42.4247 29.5096 40.8554 29.7081C38.1987 30.0266 35.5697 30.5452 32.991 31.2593C32.3447 31.4905 31.64 31.5008 30.9872 31.2886C30.3344 31.0765 29.7704 30.6538 29.3835 30.0869L29.2031 29.6539C28.698 28.5356 29.5819 27.1647 31.1872 26.6597C33.8451 25.8519 36.5578 25.237 39.3042 24.8198Z" fill="url(#paint2_linear_1499_2813)"/>
<path d="M33.5502 0.108309C33.8071 0.0286719 34.0774 0.00162631 34.3451 0.0287873C34.6127 0.0559482 34.8721 0.136759 35.1078 0.266394C35.3435 0.396029 35.5507 0.57183 35.7169 0.7833C35.8832 0.994771 36.0051 1.23757 36.0754 1.49721L36.1837 1.93012C36.2489 2.22339 36.2535 2.52693 36.1969 2.82202C36.1404 3.11711 36.0241 3.3975 35.8551 3.64592C35.6861 3.89434 35.4681 4.10552 35.2143 4.26645C34.9606 4.42738 34.6766 4.53466 34.3799 4.58166C32.0105 5.23036 29.6798 6.01326 27.3993 6.92657C25.9743 7.48573 24.7297 7.0889 24.7478 5.95253V5.50159C24.8652 4.81349 25.1551 4.16638 25.5904 3.62068C26.0257 3.07498 26.5922 2.6485 27.237 2.38106C29.4736 1.47918 31.566 0.721591 33.5502 0.108309Z" fill="url(#paint3_linear_1499_2813)"/>
<path d="M48.7019 17.6589C49.4815 17.7344 50.2269 18.0165 50.8611 18.4763C51.4953 18.9361 51.9952 19.5568 52.3094 20.2743C52.3094 20.4367 52.4357 20.617 52.5078 20.7974C53.0129 22.1503 52.129 23.0702 50.5598 22.9439C41.6446 22.3047 32.7096 23.8785 24.5494 27.5255C22.9981 28.2109 21.3387 28.0125 20.9418 26.9663L20.7614 26.5695C20.3105 25.5233 21.2304 23.9721 22.8177 23.2145C30.8804 19.3281 39.7546 17.4234 48.7019 17.6589Z" fill="url(#paint4_linear_1499_2813)"/>
<path d="M47.8721 10.8225C48.6383 10.8948 49.3729 11.1635 50.0049 11.6028C50.6368 12.042 51.1448 12.6368 51.4796 13.3298C51.5698 13.4921 51.642 13.6725 51.7322 13.8528C52.3455 15.2237 51.7322 16.2158 50.1629 16.1256C41.3851 15.6553 32.6205 17.2685 24.5854 20.8334C22.9801 21.5189 21.3927 21.3024 21.0861 20.2202C21.0357 20.0784 20.9936 19.9339 20.9598 19.7873C20.6532 18.705 21.7174 17.1177 23.2867 16.3781C30.9817 12.7644 39.3709 10.8687 47.8721 10.8225Z" fill="url(#paint5_linear_1499_2813)"/>
<path d="M46.375 4.04053C47.0887 4.09315 47.7765 4.33029 48.3709 4.72871C48.9654 5.12713 49.4461 5.67315 49.7661 6.31328C49.8729 6.48155 49.9693 6.65625 50.0547 6.83637C50.7942 8.17116 50.3252 9.23539 49.0085 9.21735C40.8426 9.14932 32.7522 10.7834 25.2528 14.0154C23.7016 14.6828 22.2586 14.3942 22.1143 13.2758V12.8249C22.1774 12.0921 22.4438 11.3914 22.8836 10.8019C23.3234 10.2123 23.919 9.75725 24.6035 9.48792C31.4763 6.3842 38.8504 4.53916 46.375 4.04053Z" fill="url(#paint6_linear_1499_2813)"/>
<path d="M21.3567 74.3334H18.7592H2.59743H0V72.2952V49.1708V47.1145H2.59743H4.22083H6.81826V49.1708V69.0123H18.7592H21.3567V71.0505V72.2952V74.3334Z" fill="white"/>
<path d="M37.3741 74.3695C33.6703 74.4401 30.0456 73.2931 27.0566 71.1047C25.7733 70.1995 24.7188 69.0076 23.9767 67.6236C23.2346 66.2397 22.8254 64.7017 22.7816 63.132V47.1145H29.5999V63.132C29.5999 66.3607 33.0812 69.0844 37.2118 69.0844H37.5545C41.6851 69.0844 44.8959 66.2706 44.8959 62.8795V47.1867H51.7141V62.8795C51.7141 69.1386 45.6354 74.2071 37.8431 74.4416L37.3741 74.3695Z" fill="white"/>
<path d="M97.7284 74.2974H90.9462V56.404C90.8257 55.1151 90.2316 53.9167 89.2787 53.0404C88.3259 52.1642 87.0819 51.6724 85.7874 51.6601C82.3783 51.6601 79.7989 53.5721 79.7989 56.0974V74.1351H72.9446V55.6465C72.9446 54.0231 70.3471 51.8766 67.425 51.7503H67.1003C66.4752 51.6715 65.8406 51.7256 65.2378 51.9092C64.6351 52.0927 64.0779 52.4015 63.6028 52.8153C63.1277 53.2291 62.7454 53.7386 62.4809 54.3104C62.2163 54.8822 62.0756 55.5035 62.0678 56.1335V72.0608V74.1171H55.2856V56.0794C55.2856 50.5237 60.3542 46.339 67.0643 46.339H67.7858C70.8752 46.4073 73.863 47.4559 76.3176 49.3333C79.028 47.2494 82.3694 46.1547 85.7874 46.2308C92.263 46.2308 97.7284 50.8484 97.7284 56.3319V74.2253V74.2974Z" fill="white"/>
<path d="M123.739 74.2431H121.141H103.897H101.3V72.2049V49.0986V47.0603H103.897H121.141H123.739V49.0986V50.3792V52.4175H121.141H108.118V55.7004H121.177H123.775V57.7386V58.9652V61.0215H121.177H108.118V68.8859H121.141H123.739V70.9242V72.2049V74.2431Z" fill="white"/>
<path d="M157.289 74.1711H150.507V58.4783C150.436 56.5437 149.604 54.7153 148.192 53.3911C146.78 52.0668 144.902 51.3539 142.967 51.4075H142.588C138.277 51.4075 134.634 54.5461 134.634 58.2438V74.1892H127.797V58.2258C127.797 51.5157 134.471 46.0684 142.678 46.0684H143.256C151.138 46.3209 157.289 51.7683 157.289 58.4603V74.1531V74.1711Z" fill="white"/>
<path d="M174.93 74.1711H172.314H170.709H168.094V72.1328V52.4356H160.031H157.433V50.3973V49.1347V47.0964H160.031H183.029H185.626V49.1347V50.3973V52.4356H183.029H174.93V72.1328V74.1711Z" fill="white"/>
<path d="M203.628 74.3695C199.942 74.4282 196.339 73.2818 193.364 71.1047C192.071 70.2053 191.006 69.016 190.254 67.6317C189.503 66.2474 189.085 64.7064 189.035 63.132V47.1145H195.854V63.132C195.854 66.3607 199.353 69.0664 203.483 69.0664H203.826C207.975 69.0664 211.168 66.2525 211.168 62.8614V47.1686H218.004V62.8614C218.004 69.1205 211.907 74.1891 204.115 74.4236L203.628 74.3695Z" fill="white"/>
<path d="M264 74.3155H257.2V56.404C257.079 55.1151 256.485 53.9167 255.532 53.0404C254.579 52.1642 253.335 51.6724 252.041 51.6601C248.632 51.6601 246.053 53.5721 246.053 56.0974V74.1351H239.198V55.6465C239.198 54.0231 236.601 51.8766 233.697 51.7503H233.354C232.73 51.6713 232.096 51.7254 231.494 51.9091C230.892 52.0928 230.336 52.4018 229.862 52.8159C229.389 53.23 229.008 53.7397 228.746 54.3115C228.483 54.8834 228.345 55.5043 228.339 56.1335V72.0608V74.1171H221.503V56.0794C221.503 50.5237 226.572 46.339 233.282 46.339H234.003C237.093 46.4073 240.081 47.4559 242.535 49.3333C245.246 47.2494 248.587 46.1547 252.005 46.2308C258.48 46.2308 263.964 50.8484 263.964 56.3319V74.3155H264Z" fill="white"/>
<path d="M5.08664 87.2484C4.54519 87.3879 3.98539 87.4427 3.42717 87.4107H0V78.5723H3.42717C5.0686 78.5723 6.52965 79.1495 6.52965 80.8811C6.51368 81.302 6.36049 81.706 6.09344 82.0317C5.82639 82.3574 5.46014 82.5868 5.05056 82.6849C5.5584 82.7815 6.01655 83.0525 6.34588 83.451C6.67521 83.8495 6.85504 84.3505 6.85433 84.8674C6.87574 85.4065 6.71205 85.9366 6.39048 86.3697C6.06891 86.8029 5.60881 87.1129 5.08664 87.2484ZM2.97622 79.6184H1.33479V82.3061H2.97622C4.23886 82.3061 5.14075 82.1257 5.14075 80.9532C5.14075 79.7808 4.23886 79.6184 2.97622 79.6184ZM3.60754 83.3523H1.33479V86.3646H3.60754C4.63569 86.3646 5.41131 85.9317 5.41131 84.8494C5.41131 83.7671 4.58158 83.3523 3.60754 83.3523Z" fill="#FFF200"/>
<path d="M12.0492 82.0897C11.7836 82.0613 11.515 82.0883 11.2604 82.169C11.0058 82.2498 10.7708 82.3824 10.5701 82.5587C10.2099 83.053 10.0489 83.6647 10.1192 84.2723V87.4109H8.82043V81.1698H10.1192V82.1979C10.325 81.8412 10.6226 81.546 10.981 81.3431C11.3394 81.1401 11.7456 81.0367 12.1574 81.0435H12.6264V82.1979L12.0492 82.0897Z" fill="#FFF200"/>
<path d="M14.1416 79.6726V78.3018H15.6387V79.6726H14.1416ZM14.2498 87.4108V81.1698H15.5485V87.501L14.2498 87.4108Z" fill="#FFF200"/>
<path d="M24.1345 82.216V86.6713C24.1345 89.1244 23.1785 89.9361 20.6532 89.9361C19.1381 89.9361 17.9836 89.3589 17.9656 87.8979H19.3365C19.3365 88.7456 20.0219 89.0703 20.9418 89.0703C22.7456 89.0703 22.7456 87.7355 22.8358 86.2925C22.5626 86.6318 22.2119 86.9006 21.8133 87.0764C21.4147 87.2521 20.9798 87.3297 20.545 87.3026C20.1336 87.3337 19.7204 87.272 19.3359 87.1223C18.9514 86.9726 18.6054 86.7385 18.3233 86.4374C18.0412 86.1363 17.8303 85.7757 17.7059 85.3823C17.5816 84.9889 17.547 84.5726 17.6049 84.164C17.568 83.7314 17.6245 83.2958 17.7706 82.8868C17.9167 82.4779 18.1491 82.1052 18.4518 81.7938C18.7546 81.4825 19.1207 81.2399 19.5254 81.0824C19.9301 80.925 20.364 80.8563 20.7975 80.8812C21.1936 80.8725 21.5859 80.9598 21.9408 81.1357C22.2958 81.3116 22.6029 81.5709 22.8358 81.8913V81.0796H24.1525C24.1706 81.4404 24.1345 81.8372 24.1345 82.216ZM20.9058 81.765C19.3906 81.765 18.9757 83.0998 18.9757 84.0919C18.9757 85.084 19.3906 86.4368 20.9058 86.4368C22.4209 86.4368 22.8358 85.3185 22.8358 84.0919C22.8358 82.8653 22.2405 81.765 20.9058 81.765Z" fill="#FFF200"/>
<path d="M31.3496 87.4108V83.659C31.3496 82.5587 31.0429 81.8552 29.8164 81.8552C29.2862 81.8874 28.786 82.1119 28.4094 82.4865C28.0745 83.0243 27.9404 83.6632 28.0306 84.2903V87.5371H26.7319V78.3018H28.0306V81.9093C28.3235 81.5648 28.6931 81.2939 29.1098 81.1184C29.5265 80.943 29.9786 80.8679 30.4297 80.8992C30.7296 80.871 31.0321 80.9096 31.3153 81.0123C31.5986 81.115 31.8555 81.2792 32.0677 81.4931C32.2799 81.707 32.442 81.9652 32.5424 82.2493C32.6428 82.5334 32.679 82.8361 32.6483 83.1359V87.4288L31.3496 87.4108Z" fill="#FFF200"/>
<path d="M36.7788 81.9093V86.0218C36.7788 86.5089 37.1216 86.6532 37.6266 86.6532C37.8547 86.6711 38.0839 86.6711 38.3121 86.6532V87.5731C38.1317 87.5731 37.6447 87.5731 37.2839 87.5731C37.0291 87.6053 36.7704 87.5869 36.5228 87.5188C36.2751 87.4507 36.0434 87.3343 35.8409 87.1763C35.704 87.0086 35.6017 86.8154 35.5398 86.608C35.4779 86.4006 35.4576 86.183 35.4801 85.9677V81.9093H34.2716V81.1697H35.4621V79.7267L36.7608 79.3479V81.1517H38.3481V81.9814L36.7788 81.9093Z" fill="#FFF200"/>
<path d="M47.2047 87.6093C45.0221 87.6093 43.5972 86.8156 43.5972 84.7233H44.968C44.968 86.022 45.906 86.527 47.2769 86.527C48.3411 86.527 49.5135 86.1843 49.5135 85.066C49.5135 83.9477 48.756 83.7853 47.9803 83.6049L46.393 83.2081C45.0763 82.9015 43.8136 82.3603 43.8136 80.755C43.8136 79.1496 45.4911 78.356 47.2227 78.356C48.9544 78.356 50.8303 78.9873 50.8303 80.755H49.4594C49.4594 79.7809 48.305 79.3841 47.2227 79.3841C46.1405 79.3841 45.2747 79.6366 45.2747 80.6648C45.2747 81.6929 46.0142 81.8372 46.862 82.0537L48.0344 82.3784C49.5135 82.7752 50.9926 83.154 50.9926 84.9758C50.9926 86.7976 49.1347 87.6093 47.2047 87.6093Z" fill="#FFF200"/>
<path d="M55.7907 87.6092C55.3282 87.643 54.8637 87.5812 54.4262 87.4275C53.9887 87.2738 53.5876 87.0315 53.2479 86.7158C52.9082 86.4002 52.6373 86.0178 52.452 85.5927C52.2668 85.1676 52.1711 84.7089 52.1711 84.2451C52.1711 83.7814 52.2668 83.3227 52.452 82.8975C52.6373 82.4724 52.9082 82.0901 53.2479 81.7744C53.5876 81.4587 53.9887 81.2164 54.4262 81.0627C54.8637 80.909 55.3282 80.8472 55.7907 80.8811C56.2532 80.8472 56.7177 80.909 57.1552 81.0627C57.5927 81.2164 57.9938 81.4587 58.3335 81.7744C58.6732 82.0901 58.9441 82.4724 59.1294 82.8975C59.3146 83.3227 59.4102 83.7814 59.4102 84.2451C59.4102 84.7089 59.3146 85.1676 59.1294 85.5927C58.9441 86.0178 58.6732 86.4002 58.3335 86.7158C57.9938 87.0315 57.5927 87.2738 57.1552 87.4275C56.7177 87.5812 56.2532 87.643 55.7907 87.6092ZM55.7907 81.7649C54.3477 81.7649 53.7344 82.9013 53.7344 84.2541C53.7344 85.607 54.3116 86.7434 55.7907 86.7434C57.2698 86.7434 57.847 85.5889 57.847 84.2541C57.847 82.9194 57.2698 81.7649 55.7907 81.7649Z" fill="#FFF200"/>
<path d="M61.3282 87.4108V78.3018H62.627V87.4108H61.3282Z" fill="#FFF200"/>
<path d="M69.7879 87.4107V86.6531C69.4829 86.9689 69.1149 87.2172 68.7079 87.3818C68.3009 87.5465 67.8638 87.6239 67.425 87.6091C67.1179 87.6302 66.8098 87.5856 66.5214 87.4782C66.2329 87.3708 65.9707 87.203 65.7522 86.9862C65.5337 86.7694 65.3639 86.5085 65.2542 86.2209C65.1446 85.9333 65.0975 85.6256 65.1162 85.3184V81.1697H66.4149V84.7772C66.4149 85.8775 66.6855 86.581 67.9481 86.581C68.1937 86.5916 68.4387 86.5488 68.666 86.4553C68.8934 86.3619 69.0977 86.2201 69.2649 86.0399C69.6103 85.5043 69.7746 84.8721 69.7338 84.2361V81.1697H71.0325V86.4367C71.0325 86.6892 71.0325 87.2484 71.0325 87.5009L69.7879 87.4107Z" fill="#FFF200"/>
<path d="M75.1632 81.9093V86.0218C75.1632 86.5089 75.5059 86.6532 76.0109 86.6532C76.2391 86.6711 76.4682 86.6711 76.6964 86.6532V87.5731C76.516 87.5731 76.029 87.5731 75.6682 87.5731C75.4134 87.6053 75.1547 87.5869 74.9071 87.5188C74.6594 87.4507 74.4277 87.3343 74.2252 87.1763C74.0884 87.0086 73.986 86.8154 73.9241 86.608C73.8622 86.4006 73.8419 86.183 73.8644 85.9677V81.9093H72.674V81.1697H73.9546V79.7267L75.2533 79.3479V81.1517H76.8407V81.9814L75.1632 81.9093Z" fill="#FFF200"/>
<path d="M78.5542 79.6726V78.3018H80.0513V79.6726H78.5542ZM78.6624 87.4108V81.1698H79.9611V87.501L78.6624 87.4108Z" fill="#FFF200"/>
<path d="M85.4446 87.6092C84.7791 87.5985 84.1317 87.3912 83.5838 87.0133C83.0359 86.6355 82.612 86.1039 82.3655 85.4857C82.1191 84.8674 82.061 84.1901 82.1987 83.5389C82.3363 82.8877 82.6636 82.2918 83.1392 81.8262C83.6148 81.3606 84.2175 81.0462 84.8715 80.9224C85.5254 80.7986 86.2014 80.871 86.8143 81.1306C87.4271 81.3902 87.9495 81.8253 88.3156 82.3811C88.6818 82.9369 88.8753 83.5886 88.8718 84.2542C88.9085 84.7104 88.8445 85.169 88.6842 85.5977C88.5239 86.0264 88.2713 86.4145 87.9443 86.7347C87.6173 87.0548 87.2238 87.2991 86.7918 87.4503C86.3599 87.6014 85.8999 87.6557 85.4446 87.6092ZM85.4446 81.765C84.0016 81.765 83.3883 82.9014 83.3883 84.2542C83.3883 85.607 83.9655 86.7434 85.4446 86.7434C86.9237 86.7434 87.5009 85.589 87.5009 84.2542C87.5009 82.9194 86.9057 81.765 85.4446 81.765Z" fill="#FFF200"/>
<path d="M95.5998 87.4108V83.4244C95.5998 82.3782 95.1128 81.801 94.0306 81.801C93.799 81.7866 93.567 81.8209 93.3495 81.9017C93.132 81.9824 92.9339 82.1079 92.7679 82.27C92.5695 82.4504 92.2087 82.8111 92.2087 83.9655V87.4108H90.91V81.1697H92.2087V82.0355C92.4661 81.6932 92.802 81.4178 93.1881 81.2325C93.5743 81.0473 93.9993 80.9577 94.4274 80.9713C94.7232 80.9337 95.0235 80.9562 95.3105 81.0373C95.5974 81.1184 95.8651 81.2566 96.0974 81.4435C96.3298 81.6304 96.5221 81.8622 96.6628 82.125C96.8036 82.3879 96.8899 82.6765 96.9166 82.9735V87.3566L95.5998 87.4108Z" fill="#FFF200"/>
<path d="M101.751 87.6091C100.272 87.6091 98.8828 87.104 98.8828 85.5167H100.236C100.236 86.3284 100.867 86.7433 101.697 86.7433C102.526 86.7433 103.248 86.5629 103.248 85.7692C103.248 84.9756 102.689 84.9395 101.931 84.7771L101.011 84.5787C100.163 84.4164 99.0091 84.0376 99.0091 82.775C99.0091 81.5123 100.452 80.9712 101.679 80.9712C102.905 80.9712 104.384 81.4762 104.384 82.9373H103.031C103.031 82.1436 102.418 81.837 101.643 81.837C100.867 81.837 100.326 82.1076 100.326 82.7569C100.326 83.4063 100.957 83.5506 101.462 83.6588L102.328 83.8572C103.41 84.0917 104.511 84.4705 104.511 85.7873C104.511 87.104 103.122 87.6091 101.751 87.6091Z" fill="#FFF200"/>
<path d="M111.726 79.6184V82.5045H115.82V83.5687H111.726V87.4107H110.391V78.5723H116.091V79.6184H111.726Z" fill="#FFF200"/>
<path d="M120.33 87.6092C119.664 87.5985 119.017 87.3912 118.469 87.0133C117.921 86.6355 117.497 86.1039 117.251 85.4857C117.004 84.8674 116.946 84.1901 117.084 83.5389C117.221 82.8877 117.549 82.2918 118.024 81.8262C118.5 81.3606 119.103 81.0462 119.756 80.9224C120.41 80.7986 121.086 80.871 121.699 81.1306C122.312 81.3902 122.835 81.8253 123.201 82.3811C123.567 82.9369 123.76 83.5886 123.757 84.2542C123.794 84.7104 123.73 85.169 123.569 85.5977C123.409 86.0264 123.156 86.4145 122.829 86.7347C122.502 87.0548 122.109 87.2991 121.677 87.4503C121.245 87.6014 120.785 87.6557 120.33 87.6092ZM120.33 81.765C118.887 81.765 118.273 82.9014 118.273 84.2542C118.273 85.607 118.851 86.7434 120.33 86.7434C121.809 86.7434 122.386 85.589 122.386 84.2542C122.386 82.9194 121.809 81.765 120.33 81.765Z" fill="#FFF200"/>
<path d="M129.042 82.0896C128.776 82.0612 128.508 82.0882 128.253 82.1689C127.999 82.2496 127.763 82.3823 127.563 82.5586C127.21 83.0566 127.05 83.6653 127.112 84.2722V87.4107H125.813V81.1697H127.112V82.1978C127.321 81.8397 127.621 81.5438 127.983 81.3408C128.344 81.1379 128.754 81.0352 129.168 81.0434H129.619V82.1978L129.042 82.0896Z" fill="#FFF200"/>
<path d="M134.652 87.4107V78.5723H135.986V87.4107H134.652Z" fill="#FFF200"/>
<path d="M143.274 87.4108V83.4244C143.274 82.3782 142.805 81.801 141.704 81.801C141.473 81.7888 141.242 81.8241 141.024 81.9048C140.807 81.9854 140.609 82.1097 140.442 82.27C140.243 82.4504 139.9 82.8111 139.9 83.9656V87.4108H138.584V81.1697H139.9V82.0355C140.155 81.6897 140.49 81.4118 140.877 81.2262C141.264 81.0406 141.69 80.9531 142.119 80.9713C142.414 80.9363 142.712 80.9607 142.997 81.0431C143.282 81.1254 143.547 81.264 143.777 81.4506C144.008 81.6373 144.198 81.8682 144.338 82.1298C144.478 82.3913 144.563 82.6782 144.59 82.9735V87.3566L143.274 87.4108Z" fill="#FFF200"/>
<path d="M148.703 81.9093V86.0218C148.703 86.5089 149.046 86.6532 149.569 86.6532C149.791 86.6706 150.014 86.6706 150.236 86.6532V87.5731C150.074 87.5731 149.569 87.5731 149.208 87.5731C148.694 87.6342 148.176 87.4918 147.765 87.1763C147.628 87.0086 147.526 86.8154 147.464 86.608C147.402 86.4006 147.382 86.183 147.404 85.9677V81.9093H146.232V81.1697H147.404V79.7267L148.703 79.3479V81.1517H150.29V81.9814L148.703 81.9093Z" fill="#FFF200"/>
<path d="M153.032 84.5067C153.032 85.625 153.519 86.7434 154.836 86.7434C156.152 86.7434 156.369 86.3646 156.513 85.4447H157.884C157.686 86.8877 156.513 87.6092 154.872 87.6092C154.437 87.636 154.002 87.5669 153.596 87.407C153.191 87.247 152.826 87.0001 152.527 86.6835C152.227 86.367 152.001 85.9886 151.864 85.575C151.727 85.1615 151.682 84.7229 151.733 84.2903C151.686 83.8479 151.735 83.4006 151.877 82.979C152.018 82.5573 152.25 82.1714 152.555 81.8475C152.86 81.5237 153.231 81.2696 153.644 81.1028C154.056 80.936 154.5 80.8604 154.944 80.8811C155.349 80.8395 155.758 80.8881 156.142 81.0234C156.526 81.1586 156.876 81.3772 157.165 81.6634C157.455 81.9496 157.678 82.2963 157.818 82.6788C157.958 83.0612 158.011 83.4698 157.974 83.8754V84.5067H153.032ZM154.836 81.765C154.357 81.765 153.899 81.955 153.56 82.2933C153.222 82.6316 153.032 83.0904 153.032 83.5687H156.639C156.664 83.3196 156.631 83.0682 156.544 82.8334C156.457 82.5986 156.318 82.3865 156.138 82.213C155.957 82.0395 155.74 81.9091 155.502 81.8315C155.264 81.7539 155.012 81.7312 154.764 81.765H154.836Z" fill="#FFF200"/>
<path d="M159.94 87.4108V78.3018H161.257V87.4108H159.94Z" fill="#FFF200"/>
<path d="M163.855 87.4108V78.3018H165.153V87.4108H163.855Z" fill="#FFF200"/>
<path d="M167.751 79.6726V78.3018H169.23V79.6726H167.751ZM167.751 87.4108V81.1698H169.049V87.501L167.751 87.4108Z" fill="#FFF200"/>
<path d="M177.653 82.2159V86.6712C177.653 89.1243 176.697 89.936 174.172 89.936C172.639 89.936 171.485 89.3588 171.485 87.8977H172.855C172.855 88.7455 173.541 89.0702 174.461 89.0702C176.265 89.0702 176.265 87.7354 176.265 86.2924C175.85 86.7524 175.305 87.0736 174.702 87.2125C174.099 87.3514 173.467 87.3011 172.894 87.0685C172.32 86.836 171.832 86.4324 171.496 85.9127C171.16 85.393 170.992 84.7824 171.016 84.1639C170.982 83.7319 171.04 83.2976 171.188 82.89C171.335 82.4825 171.567 82.1109 171.869 81.8003C172.171 81.4896 172.536 81.2469 172.94 81.0884C173.343 80.9299 173.775 80.8592 174.208 80.8811C174.607 80.8709 175.002 80.9575 175.361 81.1334C175.719 81.3093 176.029 81.5693 176.265 81.8912V81.0795H177.581C177.671 81.4402 177.653 81.8371 177.653 82.2159ZM174.407 81.7649C172.891 81.7649 172.477 83.0997 172.477 84.0918C172.477 85.0839 172.891 86.4367 174.407 86.4367C175.922 86.4367 176.355 85.3183 176.355 84.0918C176.355 82.8652 175.759 81.7649 174.407 81.7649Z" fill="#FFF200"/>
<path d="M181.045 84.5067C181.045 85.625 181.55 86.7434 182.848 86.7434C184.147 86.7434 184.364 86.3646 184.508 85.4447H185.789C185.59 86.8877 184.4 87.6092 182.758 87.6092C182.325 87.6332 181.891 87.5621 181.488 87.401C181.085 87.2398 180.723 86.9924 180.425 86.6762C180.128 86.36 179.903 85.9826 179.767 85.5704C179.631 85.1583 179.587 84.7213 179.638 84.2903C179.591 83.8495 179.639 83.4038 179.78 82.9835C179.921 82.5632 180.15 82.1782 180.453 81.8546C180.756 81.5311 181.125 81.2767 181.536 81.1087C181.946 80.9407 182.387 80.8631 182.83 80.8811C183.235 80.8395 183.645 80.8881 184.029 81.0234C184.413 81.1586 184.762 81.3772 185.052 81.6634C185.342 81.9496 185.564 82.2963 185.704 82.6788C185.844 83.0612 185.897 83.4698 185.861 83.8754V84.5067H181.045ZM182.848 81.765C182.37 81.765 181.911 81.955 181.573 82.2933C181.235 82.6316 181.045 83.0904 181.045 83.5688H184.652C184.672 83.3221 184.638 83.074 184.551 82.8423C184.464 82.6106 184.326 82.401 184.149 82.2286C183.971 82.0562 183.758 81.9252 183.523 81.845C183.289 81.7649 183.04 81.7375 182.794 81.765H182.848Z" fill="#FFF200"/>
<path d="M192.661 87.4108V83.4244C192.661 82.3782 192.174 81.801 191.092 81.801C190.86 81.7866 190.628 81.8209 190.411 81.9017C190.193 81.9824 189.995 82.1079 189.829 82.27C189.631 82.4504 189.27 82.8111 189.27 83.9656V87.4108H187.971V81.1697H189.27V82.0355C189.527 81.6932 189.863 81.4178 190.249 81.2325C190.635 81.0473 191.06 80.9577 191.488 80.9713C191.783 80.9363 192.081 80.9607 192.366 81.0431C192.651 81.1254 192.916 81.264 193.147 81.4506C193.377 81.6373 193.568 81.8682 193.707 82.1298C193.847 82.3913 193.933 82.6782 193.96 82.9735V87.3566L192.661 87.4108Z" fill="#FFF200"/>
<path d="M198.09 81.9093V86.0218C198.09 86.5089 198.433 86.6532 198.938 86.6532C199.166 86.6707 199.395 86.6707 199.623 86.6532V87.5731C199.443 87.5731 198.956 87.5731 198.595 87.5731C198.075 87.6371 197.55 87.4947 197.134 87.1763C196.879 86.8275 196.757 86.3986 196.791 85.9677V81.9093H195.601V81.1697H196.791V79.7267L198.09 79.3479V81.1517H199.677V81.9814L198.09 81.9093Z" fill="#FFF200"/>
<path d="M205.413 87.4107V78.5723H206.73V87.4107H205.413Z" fill="#FFF200"/>
<path d="M214.036 87.4108V83.4244C214.068 83.2069 214.049 82.9849 213.982 82.7757C213.914 82.5665 213.799 82.3759 213.645 82.2186C213.491 82.0614 213.303 81.9419 213.096 81.8695C212.888 81.797 212.666 81.7736 212.448 81.801C212.217 81.7888 211.985 81.8241 211.768 81.9048C211.551 81.9854 211.353 82.1097 211.186 82.27C210.974 82.494 210.816 82.7627 210.722 83.0562C210.628 83.3497 210.602 83.6604 210.644 83.9656V87.4108H209.346V81.1697H210.644V82.0355C210.902 81.6932 211.238 81.4178 211.624 81.2325C212.01 81.0473 212.435 80.9577 212.863 80.9713C213.157 80.9363 213.456 80.9607 213.741 81.0431C214.026 81.1254 214.291 81.264 214.521 81.4506C214.752 81.6373 214.942 81.8682 215.082 82.1298C215.222 82.3913 215.307 82.6782 215.334 82.9735V87.3566L214.036 87.4108Z" fill="#FFF200"/>
<path d="M220.746 87.4107H219.447L216.705 81.1697H218.148L219.844 85.5528C219.934 85.7693 220.078 86.2743 220.15 86.4908C220.15 86.2743 220.349 85.7873 220.439 85.5528L222.243 81.1697H223.668L220.746 87.4107Z" fill="#FFF200"/>
<path d="M225.814 84.5067C225.814 85.6251 226.301 86.7434 227.618 86.7434C228.935 86.7434 229.133 86.3646 229.295 85.4447H230.666C230.468 86.8877 229.295 87.6092 227.654 87.6092C227.219 87.636 226.784 87.567 226.379 87.407C225.973 87.2471 225.608 87.0001 225.309 86.6836C225.009 86.367 224.783 85.9886 224.646 85.5751C224.509 85.1616 224.464 84.723 224.515 84.2903C224.468 83.8495 224.517 83.4038 224.658 82.9835C224.798 82.5632 225.028 82.1782 225.331 81.8547C225.634 81.5311 226.003 81.2767 226.413 81.1087C226.824 80.9407 227.265 80.8631 227.708 80.8812C228.114 80.8362 228.525 80.8825 228.91 81.0165C229.296 81.1506 229.647 81.369 229.937 81.656C230.227 81.9429 230.45 82.2911 230.589 82.6751C230.727 83.0591 230.779 83.4692 230.738 83.8754V84.5067H225.814ZM227.618 81.765C227.14 81.765 226.681 81.9551 226.342 82.2933C226.004 82.6316 225.814 83.0904 225.814 83.5688H229.422C229.446 83.3196 229.413 83.0682 229.326 82.8335C229.239 82.5987 229.101 82.3866 228.92 82.2131C228.74 82.0396 228.522 81.9091 228.284 81.8315C228.046 81.754 227.794 81.7312 227.546 81.765H227.618Z" fill="#FFF200"/>
<path d="M234.941 87.6091C233.462 87.6091 232.091 87.104 232.091 85.5167H233.444C233.444 86.3284 234.075 86.7433 234.905 86.7433C235.735 86.7433 236.456 86.5629 236.456 85.7692C236.456 84.9756 235.897 84.9395 235.14 84.7771L234.256 84.5787C233.426 84.4164 232.272 84.0376 232.272 82.775C232.272 81.5123 233.715 80.9712 234.941 80.9712C236.168 80.9712 237.647 81.4762 237.647 82.9373H236.294C236.294 82.1436 235.681 81.837 234.887 81.837C234.094 81.837 233.588 82.1076 233.588 82.7569C233.588 83.4063 234.202 83.5506 234.725 83.6588L235.573 83.8572C236.673 84.0917 237.773 84.4705 237.773 85.7873C237.773 87.104 236.294 87.6091 234.941 87.6091Z" fill="#FFF200"/>
<path d="M241.309 81.9093V86.0218C241.309 86.5089 241.651 86.6532 242.156 86.6532C242.384 86.6711 242.614 86.6711 242.842 86.6532V87.5731C242.661 87.5731 242.174 87.5731 241.814 87.5731C241.559 87.6053 241.3 87.5869 241.052 87.5188C240.805 87.4507 240.573 87.3343 240.371 87.1763C240.234 87.0086 240.131 86.8154 240.07 86.608C240.008 86.4006 239.987 86.183 240.01 85.9677V81.9093H238.819V81.1697H240.01V79.7267L241.309 79.3479V81.1517H242.896V81.9814L241.309 81.9093Z" fill="#FFF200"/>
<path d="M244.718 79.6726V78.3018H246.197V79.6726H244.718ZM244.808 87.4108V81.1698H246.107V87.501L244.808 87.4108Z" fill="#FFF200"/>
<path d="M253.412 87.4108V83.4244C253.444 83.2069 253.426 82.9849 253.358 82.7757C253.29 82.5665 253.175 82.3759 253.021 82.2186C252.867 82.0614 252.679 81.9419 252.472 81.8695C252.264 81.797 252.043 81.7736 251.824 81.801C251.593 81.7888 251.362 81.8241 251.145 81.9048C250.927 81.9854 250.729 82.1097 250.562 82.27C250.363 82.4504 250.021 82.8111 250.021 83.9656V87.4108H248.704V81.1697H250.021V82.0355C250.275 81.6897 250.61 81.4118 250.997 81.2262C251.384 81.0406 251.811 80.9531 252.239 80.9713C252.534 80.9363 252.832 80.9607 253.117 81.0431C253.402 81.1254 253.667 81.264 253.898 81.4506C254.128 81.6373 254.319 81.8682 254.458 82.1298C254.598 82.3913 254.684 82.6782 254.711 82.9735V87.3566L253.412 87.4108Z" fill="#FFF200"/>
<path d="M263.351 82.216V86.6713C263.351 89.1244 262.395 89.9361 259.869 89.9361C258.354 89.9361 257.2 89.3589 257.182 87.8979H258.553C258.553 88.7456 259.238 89.0703 260.158 89.0703C261.962 89.0703 261.962 87.7355 262.052 86.2925C261.641 86.756 261.096 87.0805 260.493 87.2214C259.889 87.3623 259.257 87.3125 258.683 87.079C258.11 86.8455 257.622 86.4398 257.289 85.9177C256.955 85.3956 256.792 84.7829 256.821 84.164C256.784 83.7314 256.841 83.2958 256.987 82.8868C257.133 82.4779 257.365 82.1052 257.668 81.7938C257.971 81.4825 258.337 81.2399 258.742 81.0824C259.146 80.925 259.58 80.8563 260.014 80.8812C260.41 80.8725 260.802 80.9598 261.157 81.1357C261.512 81.3116 261.819 81.5709 262.052 81.8913V81.0796H263.351C263.351 81.4404 263.351 81.8372 263.351 82.216ZM260.122 81.765C258.589 81.765 258.192 83.0998 258.192 84.0919C258.192 85.084 258.589 86.4368 260.122 86.4368C261.655 86.4368 262.052 85.3185 262.052 84.0919C262.052 82.8653 261.403 81.765 260.068 81.765H260.122Z" fill="#FFF200"/>
</g>
<defs>
<linearGradient id="paint0_linear_1499_2813" x1="23.7196" y1="50.9205" x2="36.0755" y2="22.3668" gradientUnits="userSpaceOnUse">
<stop stop-color="#F7941D"/>
<stop offset="1" stop-color="#FFF200"/>
</linearGradient>
<linearGradient id="paint1_linear_1499_2813" x1="273.179" y1="456.659" x2="375.654" y2="249.076" gradientUnits="userSpaceOnUse">
<stop stop-color="#F7941D"/>
<stop offset="1" stop-color="#FFF200"/>
</linearGradient>
<linearGradient id="paint2_linear_1499_2813" x1="231.596" y1="216.627" x2="256.252" y2="96.2943" gradientUnits="userSpaceOnUse">
<stop stop-color="#F7941D"/>
<stop offset="1" stop-color="#FFF200"/>
</linearGradient>
<linearGradient id="paint3_linear_1499_2813" x1="103.675" y1="182.716" x2="137.492" y2="57.2237" gradientUnits="userSpaceOnUse">
<stop stop-color="#F7941D"/>
<stop offset="1" stop-color="#FFF200"/>
</linearGradient>
<linearGradient id="paint4_linear_1499_2813" x1="459.732" y1="310.61" x2="486.108" y2="120.859" gradientUnits="userSpaceOnUse">
<stop stop-color="#F7941D"/>
<stop offset="1" stop-color="#FFF200"/>
</linearGradient>
<linearGradient id="paint5_linear_1499_2813" x1="401.385" y1="300.46" x2="429.143" y2="108.955" gradientUnits="userSpaceOnUse">
<stop stop-color="#F7941D"/>
<stop offset="1" stop-color="#FFF200"/>
</linearGradient>
<linearGradient id="paint6_linear_1499_2813" x1="326.525" y1="285.013" x2="356.447" y2="95.5125" gradientUnits="userSpaceOnUse">
<stop stop-color="#F7941D"/>
<stop offset="1" stop-color="#FFF200"/>
</linearGradient>
<clipPath id="clip0_1499_2813">
<rect width="264" height="89.9361" fill="white"/>
</clipPath>
</defs>
</svg>
