<svg width="20" height="16" viewBox="0 0 20 16" fill="none" xmlns="http://www.w3.org/2000/svg">
<path d="M16.4173 0.666672H3.58398C2.85464 0.666672 2.15517 0.956403 1.63944 1.47213C1.12372 1.98785 0.833984 2.68733 0.833984 3.41667V12.5833C0.833984 13.3127 1.12372 14.0122 1.63944 14.5279C2.15517 15.0436 2.85464 15.3333 3.58398 15.3333H16.4173C17.1467 15.3333 17.8461 15.0436 18.3619 14.5279C18.8776 14.0122 19.1673 13.3127 19.1673 12.5833V3.41667C19.1673 2.68733 18.8776 1.98785 18.3619 1.47213C17.8461 0.956403 17.1467 0.666672 16.4173 0.666672ZM16.0415 2.50001L10.6515 7.89001C10.5663 7.97592 10.4649 8.04412 10.3532 8.09066C10.2415 8.13719 10.1217 8.16115 10.0007 8.16115C9.87964 8.16115 9.75983 8.13719 9.64812 8.09066C9.53642 8.04412 9.43503 7.97592 9.34982 7.89001L3.95982 2.50001H16.0415ZM17.334 12.5833C17.334 12.8265 17.2374 13.0596 17.0655 13.2315C16.8936 13.4034 16.6604 13.5 16.4173 13.5H3.58398C3.34087 13.5 3.10771 13.4034 2.9358 13.2315C2.76389 13.0596 2.66732 12.8265 2.66732 12.5833V3.79251L8.05732 9.18251C8.57294 9.69749 9.2719 9.98675 10.0007 9.98675C10.7294 9.98675 11.4284 9.69749 11.944 9.18251L17.334 3.79251V12.5833Z" fill="#BBBBBB"/>
</svg>
