<svg width="20" height="16" viewBox="0 0 20 16" fill="none" xmlns="http://www.w3.org/2000/svg">
<path d="M16.4163 0.666748H3.58301C2.85366 0.666748 2.15419 0.956479 1.63846 1.4722C1.12274 1.98793 0.833008 2.6874 0.833008 3.41675V12.5834C0.833008 13.3128 1.12274 14.0122 1.63846 14.528C2.15419 15.0437 2.85366 15.3334 3.58301 15.3334H16.4163C17.1457 15.3334 17.8452 15.0437 18.3609 14.528C18.8766 14.0122 19.1663 13.3128 19.1663 12.5834V3.41675C19.1663 2.6874 18.8766 1.98793 18.3609 1.4722C17.8452 0.956479 17.1457 0.666748 16.4163 0.666748ZM16.0405 2.50008L10.6505 7.89008C10.5653 7.976 10.4639 8.04419 10.3522 8.09073C10.2405 8.13727 10.1207 8.16123 9.99967 8.16123C9.87866 8.16123 9.75885 8.13727 9.64715 8.09073C9.53544 8.04419 9.43406 7.976 9.34884 7.89008L3.95884 2.50008H16.0405ZM17.333 12.5834C17.333 12.8265 17.2364 13.0597 17.0645 13.2316C16.8926 13.4035 16.6595 13.5001 16.4163 13.5001H3.58301C3.33989 13.5001 3.10674 13.4035 2.93483 13.2316C2.76292 13.0597 2.66634 12.8265 2.66634 12.5834V3.79258L8.05634 9.18258C8.57197 9.69757 9.27092 9.98683 9.99967 9.98683C10.7284 9.98683 11.4274 9.69757 11.943 9.18258L17.333 3.79258V12.5834Z" fill="#0056A1"/>
</svg>
