<svg width="17" height="14" viewBox="0 0 17 14" fill="none" xmlns="http://www.w3.org/2000/svg">
<path d="M14.266 0.333496H3.06602C2.4295 0.333496 1.81905 0.586353 1.36896 1.03644C0.918872 1.48653 0.666016 2.09698 0.666016 2.7335V10.7335C0.666016 11.37 0.918872 11.9805 1.36896 12.4306C1.81905 12.8806 2.4295 13.1335 3.06602 13.1335H14.266C14.9025 13.1335 15.513 12.8806 15.9631 12.4306C16.4132 11.9805 16.666 11.37 16.666 10.7335V2.7335C16.666 2.09698 16.4132 1.48653 15.9631 1.03644C15.513 0.586353 14.9025 0.333496 14.266 0.333496ZM13.938 1.9335L9.23402 6.6375C9.15965 6.71248 9.07116 6.77199 8.97368 6.81261C8.87619 6.85322 8.77163 6.87413 8.66602 6.87413C8.56041 6.87413 8.45584 6.85322 8.35835 6.81261C8.26087 6.77199 8.17239 6.71248 8.09802 6.6375L3.39402 1.9335H13.938ZM15.066 10.7335C15.066 10.9457 14.9817 11.1492 14.8317 11.2992C14.6817 11.4492 14.4782 11.5335 14.266 11.5335H3.06602C2.85384 11.5335 2.65036 11.4492 2.50033 11.2992C2.3503 11.1492 2.26602 10.9457 2.26602 10.7335V3.0615L6.97002 7.7655C7.42002 8.21494 8.03001 8.46738 8.66602 8.46738C9.30202 8.46738 9.91201 8.21494 10.362 7.7655L15.066 3.0615V10.7335Z" fill="#888888"/>
</svg>
