<svg width="177" height="50" viewBox="0 0 177 50" fill="none" xmlns="http://www.w3.org/2000/svg">
<g clip-path="url(#clip0_1642_4738)">
<path d="M23.403 24.1146C23.3529 23.7802 23.1759 23.4779 22.9087 23.2706C21.6489 22.3617 20.3364 21.5283 18.978 20.7748C18.5221 20.5746 18.0154 20.5204 17.5275 20.6197C17.0396 20.719 16.5944 20.9669 16.253 21.3294L15.9998 21.6188C15.8471 21.7535 15.731 21.9248 15.6623 22.1165C15.5937 22.3083 15.5747 22.5143 15.6073 22.7153C15.6398 22.9164 15.7227 23.106 15.8482 23.2663C15.9738 23.4267 16.138 23.5526 16.3254 23.6323C17.4391 24.13 18.5222 24.6937 19.5688 25.3204C19.7496 26.4055 19.9426 27.4786 20.1837 28.5397C20.2926 28.9083 20.524 29.2287 20.8397 29.448C21.1554 29.6672 21.5365 29.7721 21.92 29.7454H22.2334C22.6055 29.7236 22.9545 29.5579 23.2065 29.2834C23.4586 29.0088 23.5939 28.647 23.5839 28.2744C23.5839 26.9602 23.4633 25.6218 23.4151 24.2714C23.4175 24.2188 23.4135 24.1662 23.403 24.1146Z" fill="url(#paint0_linear_1642_4738)"/>
<path d="M25.646 24.1147C25.6737 23.9365 25.7385 23.7661 25.8361 23.6145C25.9337 23.4629 26.062 23.3334 26.2127 23.2345C27.474 22.3352 28.7865 21.5099 30.1434 20.7627C30.5978 20.5653 31.102 20.5126 31.5874 20.6119C32.0728 20.7111 32.5158 20.9574 32.8563 21.3174L33.1216 21.6067C33.2743 21.7415 33.3904 21.9127 33.459 22.1045C33.5277 22.2962 33.5466 22.5023 33.5141 22.7033C33.4816 22.9044 33.3987 23.0939 33.2731 23.2543C33.1476 23.4146 32.9834 23.5406 32.796 23.6203C31.6647 24.1265 30.5618 24.694 29.4923 25.3204C29.3115 26.4055 29.1185 27.4907 28.8894 28.5397C28.7806 28.9083 28.5491 29.2287 28.2334 29.448C27.9177 29.6672 27.5366 29.7721 27.1532 29.7454H26.8397C26.4677 29.7236 26.1187 29.5579 25.8666 29.2834C25.6146 29.0088 25.4793 28.647 25.4893 28.2744C25.5496 26.9602 25.5978 25.6218 25.634 24.2714C25.634 24.2473 25.646 24.1991 25.646 24.1147Z" fill="url(#paint1_linear_1642_4738)"/>
<path d="M26.2728 16.5908C26.758 16.508 27.2569 16.5871 27.6927 16.8159C28.1285 17.0446 28.477 17.4104 28.6843 17.8569C28.7109 17.9669 28.7431 18.0756 28.7807 18.1824C29.0339 19.0143 28.3587 19.7257 27.3097 19.8584C25.5338 20.0713 23.7765 20.4179 22.0528 20.8953C21.6207 21.0498 21.1497 21.0567 20.7133 20.9149C20.2769 20.7731 19.8999 20.4906 19.6413 20.1116L19.5207 19.8222C19.1831 19.0746 19.7739 18.1583 20.847 17.8207C22.6237 17.2807 24.437 16.8697 26.2728 16.5908Z" fill="url(#paint2_linear_1642_4738)"/>
<path d="M22.4266 0.0724474C22.5983 0.019214 22.779 0.00113541 22.9579 0.0192911C23.1368 0.0374468 23.3102 0.0914645 23.4678 0.178119C23.6253 0.264773 23.7638 0.382287 23.8749 0.523645C23.9861 0.665002 24.0676 0.827304 24.1146 1.00086L24.1869 1.29023C24.2306 1.48627 24.2336 1.68917 24.1958 1.88642C24.158 2.08368 24.0803 2.2711 23.9673 2.43716C23.8544 2.60321 23.7086 2.74438 23.539 2.85195C23.3694 2.95953 23.1796 3.03124 22.9812 3.06266C21.3974 3.49628 19.8395 4.01961 18.315 4.63011C17.3625 5.00388 16.5306 4.73862 16.5426 3.97901V3.67758C16.6211 3.21762 16.8149 2.78506 17.1059 2.42029C17.3968 2.05552 17.7755 1.77044 18.2065 1.59167C19.7016 0.988802 21.1003 0.482395 22.4266 0.0724474Z" fill="url(#paint3_linear_1642_4738)"/>
<path d="M32.5546 11.804C33.0758 11.8545 33.574 12.0431 33.998 12.3505C34.4219 12.6578 34.7561 13.0727 34.9661 13.5523C34.9661 13.6608 35.0505 13.7814 35.0987 13.902C35.4363 14.8063 34.8455 15.4212 33.7965 15.3368C27.8372 14.9095 21.8646 15.9615 16.4099 18.3994C15.373 18.8575 14.2637 18.7249 13.9984 18.0256L13.8779 17.7603C13.5764 17.061 14.1914 16.0241 15.2524 15.5177C20.6419 12.9198 26.5738 11.6466 32.5546 11.804Z" fill="url(#paint4_linear_1642_4738)"/>
<path d="M31.9998 7.23438C32.512 7.2827 33.003 7.46234 33.4255 7.75593C33.8479 8.04953 34.1875 8.44714 34.4113 8.91034C34.4716 9.01885 34.5198 9.13943 34.5801 9.26C34.99 10.1764 34.5801 10.8395 33.5311 10.7792C27.6636 10.4648 21.8049 11.5432 16.4339 13.9262C15.3608 14.3844 14.2997 14.2397 14.0947 13.5162C14.0611 13.4215 14.0329 13.3249 14.0103 13.2269C13.8054 12.5034 14.5167 11.4424 15.5657 10.948C20.7094 8.53245 26.3172 7.26525 31.9998 7.23438Z" fill="url(#paint5_linear_1642_4738)"/>
<path d="M30.9993 2.70093C31.4764 2.7361 31.9361 2.89462 32.3335 3.16094C32.7308 3.42726 33.0522 3.79225 33.2661 4.22015C33.3375 4.33263 33.4019 4.4494 33.459 4.56981C33.9533 5.46205 33.6398 6.17343 32.7597 6.16137C27.3012 6.11589 21.8931 7.20818 16.8802 9.36861C15.8433 9.81473 14.8787 9.62181 14.7822 8.87426V8.57283C14.8244 8.08298 15.0025 7.61464 15.2965 7.22055C15.5905 6.82646 15.9886 6.52226 16.4461 6.34223C21.0403 4.26756 25.9695 3.03424 30.9993 2.70093Z" fill="url(#paint6_linear_1642_4738)"/>
<path d="M14.2758 49.6881H12.5396H1.73625H0V48.3256V32.8682V31.4937H1.73625H2.82141H4.55766V32.8682V46.1312H12.5396H14.2758V47.4937V48.3256V49.6881Z" fill="white"/>
<path d="M24.9829 49.7122C22.507 49.7594 20.0841 48.9927 18.0861 47.5299C17.2283 46.9248 16.5234 46.1281 16.0273 45.203C15.5313 44.2779 15.2578 43.2498 15.2285 42.2005V31.4937H19.7862V42.2005C19.7862 44.3588 22.1132 46.1794 24.8744 46.1794H25.1034C27.8646 46.1794 30.0108 44.2985 30.0108 42.0317V31.5419H34.5684V42.0317C34.5684 46.2156 30.5051 49.6037 25.2964 49.7605L24.9829 49.7122Z" fill="white"/>
<path d="M65.3264 49.664H60.7928V37.7032C60.7123 36.8416 60.3152 36.0405 59.6782 35.4548C59.0413 34.869 58.2097 34.5403 57.3445 34.5321C55.0656 34.5321 53.3414 35.8102 53.3414 37.4982V49.5555H48.7597V37.1968C48.7597 36.1116 47.0234 34.6768 45.0701 34.5924H44.8531C44.4353 34.5397 44.011 34.5759 43.6081 34.6986C43.2052 34.8213 42.8328 35.0277 42.5152 35.3043C42.1976 35.5809 41.942 35.9215 41.7652 36.3037C41.5884 36.6859 41.4943 37.1012 41.4891 37.5223V48.1689V49.5435H36.9556V37.4862C36.9556 33.7725 40.3437 30.9752 44.829 30.9752H45.3113C47.3764 31.0209 49.3736 31.7218 51.0144 32.9767C52.8261 31.5838 55.0597 30.852 57.3445 30.9029C61.673 30.9029 65.3264 33.9895 65.3264 37.655V49.6158V49.664Z" fill="white"/>
<path d="M82.7131 49.6279H80.9769H69.4501H67.7139V48.2654V32.82V31.4575H69.4501H80.9769H82.7131V32.82V33.6761V35.0385H80.9769H72.2715V37.233H81.001H82.7373V38.5954V39.4153V40.7899H81.001H72.2715V46.0468H80.9769H82.7131V47.4093V48.2654V49.6279Z" fill="white"/>
<path d="M105.139 49.5797H100.606V39.0899C100.559 37.7967 100.003 36.5745 99.0587 35.6893C98.1148 34.8041 96.8595 34.3276 95.566 34.3634H95.3128C92.4311 34.3634 89.9955 36.4614 89.9955 38.9331V49.5918H85.4258V38.921C85.4258 34.4357 89.887 30.7944 95.373 30.7944H95.7589C101.028 30.9632 105.139 34.6045 105.139 39.0778V49.5676V49.5797Z" fill="white"/>
<path d="M116.931 49.5797H115.183H114.11H112.362V48.2172V35.0506H106.972H105.236V33.6882V32.8442V31.4817H106.972H122.345H124.081V32.8442V33.6882V35.0506H122.345H116.931V48.2172V49.5797Z" fill="white"/>
<path d="M136.115 49.7122C133.651 49.7515 131.242 48.9852 129.254 47.5299C128.39 46.9287 127.678 46.1337 127.175 45.2083C126.673 44.283 126.394 43.253 126.36 42.2005V31.4937H130.918V42.2005C130.918 44.3588 133.257 46.1674 136.018 46.1674H136.247C139.021 46.1674 141.155 44.2864 141.155 42.0197V31.5298H145.724V42.0197C145.724 46.2036 141.649 49.5917 136.44 49.7484L136.115 49.7122Z" fill="white"/>
<path d="M176.47 49.6761H171.925V37.7032C171.844 36.8416 171.447 36.0405 170.81 35.4548C170.173 34.869 169.342 34.5403 168.476 34.5321C166.198 34.5321 164.473 35.8102 164.473 37.4982V49.5555H159.892V37.1968C159.892 36.1116 158.155 34.6768 156.214 34.5924H155.985C155.568 34.5396 155.144 34.5758 154.742 34.6986C154.34 34.8213 153.968 35.0279 153.651 35.3047C153.335 35.5815 153.08 35.9222 152.905 36.3045C152.729 36.6867 152.637 37.1018 152.633 37.5223V48.1689V49.5434H148.063V37.4862C148.063 33.7725 151.452 30.9752 155.937 30.9752H156.419C158.484 31.0209 160.482 31.7218 162.122 32.9767C163.934 31.5838 166.168 30.852 168.452 30.9029C172.781 30.9029 176.446 33.9895 176.446 37.655V49.6761H176.47Z" fill="white"/>
</g>
<defs>
<linearGradient id="paint0_linear_1642_4738" x1="15.8551" y1="34.0378" x2="24.1144" y2="14.9511" gradientUnits="userSpaceOnUse">
<stop stop-color="#F7941D"/>
<stop offset="1" stop-color="#FFF200"/>
</linearGradient>
<linearGradient id="paint1_linear_1642_4738" x1="182.606" y1="305.253" x2="251.105" y2="166.495" gradientUnits="userSpaceOnUse">
<stop stop-color="#F7941D"/>
<stop offset="1" stop-color="#FFF200"/>
</linearGradient>
<linearGradient id="paint2_linear_1642_4738" x1="154.81" y1="144.804" x2="171.291" y2="64.3678" gradientUnits="userSpaceOnUse">
<stop stop-color="#F7941D"/>
<stop offset="1" stop-color="#FFF200"/>
</linearGradient>
<linearGradient id="paint3_linear_1642_4738" x1="69.3012" y1="122.137" x2="91.9063" y2="38.2512" gradientUnits="userSpaceOnUse">
<stop stop-color="#F7941D"/>
<stop offset="1" stop-color="#FFF200"/>
</linearGradient>
<linearGradient id="paint4_linear_1642_4738" x1="307.307" y1="207.627" x2="324.938" y2="80.7883" gradientUnits="userSpaceOnUse">
<stop stop-color="#F7941D"/>
<stop offset="1" stop-color="#FFF200"/>
</linearGradient>
<linearGradient id="paint5_linear_1642_4738" x1="268.305" y1="200.842" x2="286.86" y2="72.8313" gradientUnits="userSpaceOnUse">
<stop stop-color="#F7941D"/>
<stop offset="1" stop-color="#FFF200"/>
</linearGradient>
<linearGradient id="paint6_linear_1642_4738" x1="218.265" y1="190.517" x2="238.267" y2="63.8453" gradientUnits="userSpaceOnUse">
<stop stop-color="#F7941D"/>
<stop offset="1" stop-color="#FFF200"/>
</linearGradient>
<clipPath id="clip0_1642_4738">
<rect width="176.471" height="50" fill="white"/>
</clipPath>
</defs>
</svg>
