<svg width="403" height="300" viewBox="0 0 403 300" fill="none" xmlns="http://www.w3.org/2000/svg">
<path d="M402.116 263.635H0V263.837H402.116V263.635Z" fill="#E0E0E0"/>
<path d="M87.9986 273.29H41.5381V273.491H87.9986V273.29Z" fill="#E0E0E0"/>
<path d="M189.525 268.917H168.357V269.118H189.525V268.917Z" fill="#E0E0E0"/>
<path d="M238.503 268.813H197.262V269.014H238.503V268.813Z" fill="#E0E0E0"/>
<path d="M317.005 271.228H306.96V271.429H317.005V271.228Z" fill="#E0E0E0"/>
<path d="M272.273 271.228H232.206V271.429H272.273V271.228Z" fill="#E0E0E0"/>
<path d="M103.746 273.29H95.7842V273.491H103.746V273.29Z" fill="#E0E0E0"/>
<path d="M358.349 271.229H323.566V271.43H358.349V271.229Z" fill="#E0E0E0"/>
<path d="M190.604 227.722H35.3146C34.0981 227.719 32.9321 227.234 32.0726 226.372C31.2132 225.51 30.7305 224.342 30.7305 223.124V4.55765C30.7411 3.34659 31.2284 2.18862 32.0868 1.33526C32.9451 0.481902 34.105 0.00207461 35.3146 0H190.604C191.822 0 192.99 0.484422 193.851 1.3467C194.712 2.20897 195.196 3.37847 195.196 4.59791V223.124C195.196 224.343 194.712 225.513 193.851 226.375C192.99 227.237 191.822 227.722 190.604 227.722ZM35.3146 0.161048C34.1514 0.163181 33.0366 0.627334 32.2148 1.45163C31.3931 2.27592 30.9315 3.39299 30.9315 4.55765V223.124C30.9315 224.288 31.3931 225.405 32.2148 226.23C33.0366 227.054 34.1514 227.518 35.3146 227.52H190.604C191.768 227.518 192.883 227.054 193.706 226.23C194.529 225.406 194.993 224.289 194.995 223.124V4.55765C194.993 3.39225 194.529 2.2752 193.706 1.45113C192.883 0.627072 191.768 0.163177 190.604 0.161048H35.3146Z" fill="#E0E0E0"/>
<path d="M364.566 227.722H209.269C208.052 227.719 206.885 227.234 206.024 226.373C205.163 225.511 204.679 224.342 204.677 223.124V4.55765C204.689 3.34586 205.179 2.1879 206.038 1.33476C206.898 0.48162 208.059 0.00205198 209.269 0H364.566C365.774 0.00419086 366.932 0.484954 367.789 1.33809C368.645 2.19122 369.132 3.34798 369.142 4.55765V223.124C369.142 224.34 368.661 225.507 367.803 226.369C366.945 227.231 365.781 227.717 364.566 227.722ZM209.269 0.161048C208.105 0.163177 206.989 0.627072 206.166 1.45113C205.343 2.2752 204.88 3.39225 204.878 4.55765V223.124C204.88 224.289 205.343 225.406 206.166 226.23C206.989 227.054 208.105 227.518 209.269 227.52H364.566C365.73 227.518 366.846 227.054 367.669 226.23C368.492 225.406 368.955 224.289 368.957 223.124V4.55765C368.955 3.39225 368.492 2.2752 367.669 1.45113C366.846 0.627072 365.73 0.163177 364.566 0.161048H209.269Z" fill="#E0E0E0"/>
<path d="M61.6196 65.8764C58.1132 58.2911 60.8958 52.896 69.4609 52.896C74.8412 52.896 81.5244 55.0218 87.9583 58.4763C88.6982 56.5035 90.757 55.3278 94.0785 55.3278C99.9252 55.3278 107.992 58.9755 114.313 64.1291C116.262 62.8279 118.557 62.1433 120.9 62.1643C126.529 61.9308 133.269 64.0324 139.164 67.4467C139.51 67.1186 139.918 66.8629 140.364 66.6942C140.81 66.5255 141.285 66.4474 141.761 66.4643C144.978 66.3354 149.345 68.4532 151.517 71.191C151.653 71.3682 151.766 71.5292 151.887 71.6983H59.9147C59.7328 70.662 59.792 69.5976 60.0877 68.5879C60.3834 67.5782 60.9076 66.6503 61.6196 65.8764Z" fill="#F5F5F5"/>
<path d="M165.93 29.7941C166.213 29.7617 166.498 29.7456 166.782 29.7458C166.517 26.7825 168.053 24.9144 171.326 24.9144C173.691 24.9144 176.586 25.9048 179.546 27.5797C178.701 21.8303 181.403 18.0859 187.54 18.0859C192.486 18.0859 198.743 20.5017 204.927 24.5279C205.466 22.2732 207.292 20.9204 210.356 20.9204C215.728 20.9204 223.376 25.0915 229.504 30.9859C231.131 29.5222 233.245 28.7183 235.432 28.7312C240.555 28.4655 246.908 30.8651 252.546 34.7785C252.815 34.4159 253.167 34.1239 253.573 33.9276C253.98 33.7313 254.427 33.6364 254.878 33.6512C257.677 33.5143 261.537 35.6643 263.773 38.5551H161.426C159.022 34.1344 160.936 30.3014 165.93 29.7941Z" fill="#F5F5F5"/>
<path d="M303.195 17.2402C300.943 12.4088 302.736 8.90601 308.229 8.90601C311.679 8.90601 315.958 10.2669 320.124 12.4893C320.59 11.2251 321.917 10.4601 324.048 10.4601C327.804 10.4601 332.975 12.8114 337.029 16.0968C338.282 15.2639 339.755 14.8264 341.259 14.8406C344.846 14.6876 349.197 16.0324 352.977 18.2307C353.198 18.0187 353.459 17.8532 353.745 17.744C354.031 17.6347 354.335 17.5839 354.641 17.5945C355.839 17.6378 357.014 17.93 358.093 18.4526C359.171 18.9752 360.129 19.7168 360.906 20.6303L361.148 20.9524H300.388C298.466 19.2453 300.589 17.3207 303.195 17.2402Z" fill="#F5F5F5"/>
<path d="M99.0894 175.961H71.6973V263.635H99.0894V175.961Z" fill="#EBEBEB"/>
<path d="M90.1383 263.635H135.055L135.055 145.451H90.1383L90.1383 263.635Z" fill="#F5F5F5"/>
<path d="M158.369 145.45H135.055V263.635H158.369V145.45Z" fill="#EBEBEB"/>
<path d="M96.1781 145.45H135.055V133.702H96.1781V145.45Z" fill="#F5F5F5"/>
<path d="M96.1781 145.45H135.055V142.809H96.1781V145.45Z" fill="#EBEBEB"/>
<path d="M152.322 133.702H135.055V145.45H152.322V133.702Z" fill="#EBEBEB"/>
<path d="M102.218 133.702H135.047V121.953H102.218V133.702Z" fill="#F5F5F5"/>
<path d="M102.218 133.702H135.047V131.06H102.218V133.702Z" fill="#EBEBEB"/>
<path d="M146.282 121.953H135.055V133.702H146.282V121.953Z" fill="#EBEBEB"/>
<path d="M125.34 105.543H123.16V121.962H125.34V105.543Z" fill="#EBEBEB"/>
<path d="M150.922 263.635H183.727V166H150.922V263.635Z" fill="#F5F5F5"/>
<path d="M200.752 166H183.727V263.635H200.752V166Z" fill="#EBEBEB"/>
<path d="M192.235 193.894L217.11 215.248V263.635H192.235V193.894Z" fill="#F5F5F5"/>
<path d="M230.027 215.24H217.119V263.627H230.027V215.24Z" fill="#EBEBEB"/>
<path d="M230.026 215.248H217.11L192.235 193.894H205.151L230.026 215.248Z" fill="#EBEBEB"/>
<path d="M346.625 263.635C346.97 261.701 347.791 259.883 349.014 258.346C350.237 256.809 351.824 255.602 353.63 254.834C352.044 257.481 351.324 260.558 351.571 263.635H346.625Z" fill="#EBEBEB"/>
<path d="M114.628 263.635C114.283 261.701 113.462 259.883 112.239 258.346C111.016 256.81 109.429 255.602 107.623 254.834C109.209 257.481 109.929 260.558 109.682 263.635H114.628Z" fill="#EBEBEB"/>
<path d="M57.1889 263.635C57.1889 263.635 56.7948 253.328 52.4922 250.333C54.2534 254.544 53.8835 263.635 53.8835 263.635H57.1889Z" fill="#EBEBEB"/>
<path d="M55.5723 263.635C55.5723 263.635 55.9663 257.716 60.269 256.001C58.5077 258.417 58.8937 263.635 58.8937 263.635H55.5723Z" fill="#EBEBEB"/>
<path d="M118.311 263.635C118.311 263.635 117.876 253.876 110.075 250.333C113.566 255.341 113.365 263.635 113.365 263.635H118.311Z" fill="#EBEBEB"/>
<path d="M310.666 250.429H290.955C290.741 250.429 290.537 250.345 290.386 250.194C290.235 250.043 290.15 249.838 290.15 249.624V229.912C290.15 229.698 290.235 229.494 290.386 229.343C290.537 229.192 290.741 229.107 290.955 229.107H310.666C310.88 229.107 311.084 229.192 311.235 229.343C311.386 229.494 311.471 229.698 311.471 229.912V249.624C311.471 249.838 311.386 250.043 311.235 250.194C311.084 250.345 310.88 250.429 310.666 250.429ZM291.759 248.819H309.862V230.717H291.759V248.819Z" fill="#E0E0E0"/>
<path d="M310.666 230.717H290.955C290.741 230.717 290.537 230.632 290.386 230.481C290.235 230.33 290.15 230.125 290.15 229.911V210.167C290.15 209.953 290.235 209.749 290.386 209.598C290.537 209.447 290.741 209.362 290.955 209.362H310.666C310.88 209.362 311.084 209.447 311.235 209.598C311.386 209.749 311.471 209.953 311.471 210.167V229.911C311.471 230.125 311.386 230.33 311.235 230.481C311.084 230.632 310.88 230.717 310.666 230.717ZM291.759 229.106H309.862V210.972H291.759V229.106Z" fill="#E0E0E0"/>
<path d="M310.667 250.429C310.455 250.426 310.252 250.339 310.104 250.188L290.384 230.451C290.233 230.3 290.147 230.094 290.147 229.88C290.147 229.665 290.233 229.459 290.384 229.308C290.535 229.156 290.741 229.071 290.955 229.071C291.169 229.071 291.375 229.156 291.526 229.308L311.238 249.085C311.388 249.235 311.472 249.439 311.472 249.652C311.472 249.865 311.388 250.069 311.238 250.22C311.082 250.362 310.877 250.437 310.667 250.429Z" fill="#E0E0E0"/>
<path d="M310.667 230.717C310.456 230.716 310.254 230.632 310.104 230.483L290.384 210.739C290.234 210.588 290.15 210.384 290.15 210.171C290.15 209.958 290.234 209.754 290.384 209.603C290.459 209.528 290.548 209.468 290.646 209.427C290.744 209.386 290.849 209.365 290.955 209.365C291.061 209.365 291.167 209.386 291.265 209.427C291.363 209.468 291.451 209.528 291.526 209.603L311.238 229.34C311.351 229.452 311.429 229.596 311.46 229.753C311.492 229.91 311.476 230.073 311.414 230.22C311.353 230.368 311.249 230.494 311.116 230.583C310.983 230.671 310.827 230.718 310.667 230.717Z" fill="#E0E0E0"/>
<path d="M310.666 210.973H290.955C290.741 210.973 290.537 210.888 290.386 210.737C290.235 210.586 290.15 210.381 290.15 210.167V190.431C290.15 190.217 290.235 190.013 290.386 189.862C290.537 189.711 290.741 189.626 290.955 189.626H310.666C310.88 189.626 311.084 189.711 311.235 189.862C311.386 190.013 311.471 190.217 311.471 190.431V210.167C311.471 210.381 311.386 210.586 311.235 210.737C311.084 210.888 310.88 210.973 310.666 210.973ZM291.759 209.362H309.862V191.236H291.759V209.362Z" fill="#E0E0E0"/>
<path d="M310.666 191.236H290.955C290.741 191.236 290.537 191.151 290.386 191C290.235 190.849 290.15 190.644 290.15 190.431V170.711C290.15 170.497 290.235 170.292 290.386 170.141C290.537 169.99 290.741 169.905 290.955 169.905H310.666C310.88 169.905 311.084 169.99 311.235 170.141C311.386 170.292 311.471 170.497 311.471 170.711V190.455C311.464 190.664 311.377 190.863 311.227 191.009C311.077 191.155 310.876 191.236 310.666 191.236ZM291.759 189.626H309.862V171.516H291.759V189.626Z" fill="#E0E0E0"/>
<path d="M310.667 210.973C310.456 210.972 310.254 210.888 310.104 210.739L290.384 190.995C290.234 190.844 290.15 190.64 290.15 190.427C290.15 190.214 290.234 190.01 290.384 189.859C290.459 189.784 290.548 189.724 290.646 189.683C290.744 189.642 290.849 189.621 290.955 189.621C291.061 189.621 291.167 189.642 291.265 189.683C291.363 189.724 291.451 189.784 291.526 189.859L311.238 209.604C311.388 209.755 311.472 209.959 311.472 210.171C311.472 210.384 311.388 210.588 311.238 210.739C311.163 210.814 311.074 210.873 310.976 210.913C310.878 210.953 310.773 210.973 310.667 210.973Z" fill="#E0E0E0"/>
<path d="M310.667 191.236C310.455 191.233 310.252 191.146 310.104 190.995L290.384 171.258C290.233 171.107 290.147 170.901 290.147 170.686C290.147 170.472 290.233 170.266 290.384 170.115C290.535 169.963 290.741 169.878 290.955 169.878C291.169 169.878 291.375 169.963 291.526 170.115L311.238 189.859C311.388 190.01 311.472 190.214 311.472 190.427C311.472 190.64 311.388 190.844 311.238 190.995C311.163 191.071 311.074 191.131 310.976 191.173C310.878 191.214 310.773 191.236 310.667 191.236Z" fill="#E0E0E0"/>
<path d="M310.666 171.516H290.955C290.741 171.516 290.537 171.431 290.386 171.28C290.235 171.129 290.15 170.924 290.15 170.711V150.942C290.15 150.728 290.235 150.524 290.386 150.373C290.537 150.222 290.741 150.137 290.955 150.137H310.666C310.88 150.137 311.084 150.222 311.235 150.373C311.386 150.524 311.471 150.728 311.471 150.942V170.711C311.471 170.924 311.386 171.129 311.235 171.28C311.084 171.431 310.88 171.516 310.666 171.516ZM291.759 169.905H309.862V151.747H291.759V169.905Z" fill="#E0E0E0"/>
<path d="M310.666 151.747H290.955C290.741 151.747 290.537 151.662 290.386 151.511C290.235 151.36 290.15 151.156 290.15 150.942V131.206C290.15 130.992 290.235 130.787 290.386 130.636C290.537 130.485 290.741 130.4 290.955 130.4H310.666C310.88 130.4 311.084 130.485 311.235 130.636C311.386 130.787 311.471 130.992 311.471 131.206V150.942C311.471 151.156 311.386 151.36 311.235 151.511C311.084 151.662 310.88 151.747 310.666 151.747ZM291.759 150.137H309.862V132.011H291.759V150.137Z" fill="#E0E0E0"/>
<path d="M310.667 171.516C310.456 171.515 310.254 171.431 310.104 171.283L290.384 151.538C290.234 151.387 290.15 151.183 290.15 150.97C290.15 150.758 290.234 150.554 290.384 150.403C290.459 150.327 290.548 150.267 290.646 150.226C290.744 150.186 290.849 150.165 290.955 150.165C291.061 150.165 291.167 150.186 291.265 150.226C291.363 150.267 291.451 150.327 291.526 150.403L311.238 170.115C311.351 170.228 311.429 170.372 311.46 170.528C311.492 170.685 311.476 170.848 311.414 170.996C311.353 171.143 311.249 171.269 311.116 171.358C310.983 171.446 310.827 171.493 310.667 171.492V171.516Z" fill="#E0E0E0"/>
<path d="M290.955 85.7983H271.235C271.022 85.7983 270.817 85.7134 270.666 85.5624C270.515 85.4114 270.431 85.2066 270.431 84.993V65.2244C270.431 65.0109 270.515 64.806 270.666 64.655C270.817 64.504 271.022 64.4192 271.235 64.4192H290.955C291.168 64.4192 291.373 64.504 291.523 64.655C291.674 64.806 291.759 65.0109 291.759 65.2244V84.9608C291.763 85.0693 291.746 85.1774 291.707 85.2789C291.669 85.3803 291.61 85.4729 291.535 85.5512C291.46 85.6294 291.37 85.6916 291.27 85.7341C291.17 85.7765 291.063 85.7984 290.955 85.7983ZM272.039 84.1878H290.15V66.0297H272.039V84.1878Z" fill="#E0E0E0"/>
<path d="M310.666 85.7979H290.955C290.741 85.7979 290.537 85.7131 290.386 85.562C290.235 85.411 290.15 85.2062 290.15 84.9927C290.15 84.7791 290.235 84.5743 290.386 84.4233C290.537 84.2723 290.741 84.1874 290.955 84.1874H309.862V45.536C309.862 45.3224 309.947 45.1176 310.098 44.9666C310.249 44.8155 310.453 44.7307 310.666 44.7307C310.88 44.7307 311.084 44.8155 311.235 44.9666C311.386 45.1176 311.471 45.3224 311.471 45.536V84.9927C311.471 85.2062 311.386 85.411 311.235 85.562C311.084 85.7131 310.88 85.7979 310.666 85.7979Z" fill="#E0E0E0"/>
<path d="M290.954 85.7979C290.817 85.7989 290.681 85.7644 290.56 85.6977C290.44 85.6311 290.338 85.5346 290.265 85.4173C290.193 85.3001 290.151 85.1662 290.145 85.0284C290.139 84.8906 290.169 84.7535 290.231 84.6303L309.95 45.1736C310.047 44.9839 310.214 44.8402 310.416 44.7738C310.618 44.7074 310.838 44.7238 311.028 44.8193C311.219 44.9144 311.364 45.0815 311.432 45.2838C311.5 45.4861 311.485 45.7072 311.39 45.8983L291.67 85.355C291.603 85.4878 291.501 85.5995 291.375 85.6777C291.248 85.7558 291.103 85.7975 290.954 85.7979Z" fill="#E0E0E0"/>
<path d="M271.235 85.7983H251.523C251.31 85.7983 251.105 85.7134 250.954 85.5624C250.803 85.4114 250.719 85.2066 250.719 84.993V65.2244C250.719 65.0109 250.803 64.806 250.954 64.655C251.105 64.504 251.31 64.4192 251.523 64.4192H271.235C271.448 64.4192 271.653 64.504 271.803 64.655C271.954 64.806 272.039 65.0109 272.039 65.2244V84.9608C272.043 85.0693 272.026 85.1774 271.987 85.2789C271.949 85.3803 271.89 85.4729 271.815 85.5512C271.74 85.6294 271.65 85.6916 271.55 85.7341C271.45 85.7765 271.343 85.7984 271.235 85.7983ZM252.327 84.1878H270.43V66.0297H252.327V84.1878Z" fill="#E0E0E0"/>
<path d="M271.235 85.7978C271.078 85.7956 270.925 85.7472 270.794 85.6586C270.664 85.57 270.563 85.445 270.503 85.2993C270.443 85.1535 270.427 84.9934 270.457 84.8387C270.487 84.684 270.562 84.5415 270.672 84.4289L290.384 64.6845C290.459 64.609 290.548 64.5491 290.646 64.5082C290.744 64.4673 290.849 64.4463 290.955 64.4463C291.061 64.4463 291.166 64.4673 291.264 64.5082C291.362 64.5491 291.451 64.609 291.526 64.6845C291.676 64.8354 291.76 65.0394 291.76 65.2522C291.76 65.4649 291.676 65.669 291.526 65.8199L271.83 85.5643C271.752 85.6419 271.659 85.7027 271.557 85.7428C271.455 85.783 271.345 85.8017 271.235 85.7978Z" fill="#E0E0E0"/>
<path d="M330.387 85.7983H310.668C310.454 85.7983 310.25 85.7134 310.099 85.5624C309.948 85.4114 309.863 85.2066 309.863 84.993V65.2244C309.863 65.0109 309.948 64.806 310.099 64.655C310.25 64.504 310.454 64.4192 310.668 64.4192H330.387C330.601 64.4192 330.805 64.504 330.956 64.655C331.107 64.806 331.192 65.0109 331.192 65.2244V84.9608C331.196 85.0693 331.178 85.1774 331.14 85.2789C331.101 85.3803 331.043 85.4729 330.968 85.5512C330.893 85.6294 330.802 85.6916 330.703 85.7341C330.603 85.7765 330.496 85.7984 330.387 85.7983ZM311.472 84.1878H329.583V66.0297H311.472V84.1878Z" fill="#E0E0E0"/>
<path d="M310.667 85.7978C310.51 85.7956 310.356 85.7472 310.226 85.6586C310.096 85.57 309.995 85.445 309.935 85.2993C309.875 85.1535 309.859 84.9934 309.889 84.8387C309.919 84.6839 309.994 84.5415 310.104 84.4289L329.816 64.6845C329.89 64.609 329.979 64.5491 330.077 64.5082C330.175 64.4673 330.281 64.4463 330.387 64.4463C330.493 64.4463 330.598 64.4673 330.696 64.5082C330.794 64.5491 330.883 64.609 330.958 64.6845C331.107 64.8354 331.192 65.0394 331.192 65.2522C331.192 65.4649 331.107 65.669 330.958 65.8199L311.238 85.5643C311.163 85.6389 311.074 85.698 310.976 85.7381C310.878 85.7781 310.773 85.7985 310.667 85.7978Z" fill="#E0E0E0"/>
<path d="M192.371 85.7982C192.265 85.7988 192.161 85.7785 192.063 85.7384C191.965 85.6983 191.875 85.6393 191.8 85.5647C191.65 85.4138 191.566 85.2097 191.566 84.997C191.566 84.7842 191.65 84.5802 191.8 84.4293L211.512 64.6848C211.622 64.5697 211.766 64.4934 211.922 64.4674L310.513 44.7229C310.642 44.697 310.776 44.7033 310.902 44.7412C311.028 44.7791 311.143 44.8475 311.237 44.9404L350.644 84.3971C350.728 84.4693 350.797 84.5581 350.845 84.658C350.893 84.7579 350.92 84.8667 350.925 84.9776C350.929 85.0885 350.91 85.1991 350.87 85.3024C350.829 85.4058 350.768 85.4996 350.69 85.5781C350.611 85.6566 350.518 85.718 350.414 85.7584C350.311 85.7989 350.201 85.8176 350.09 85.8133C349.979 85.809 349.871 85.7819 349.771 85.7336C349.671 85.6852 349.582 85.6168 349.51 85.5325L310.433 46.3898L212.485 66.0296L192.934 85.5969C192.779 85.7339 192.578 85.806 192.371 85.7982Z" fill="#E0E0E0"/>
<path d="M251.523 85.7982C251.417 85.7988 251.312 85.7785 251.214 85.7384C251.116 85.6983 251.027 85.6393 250.952 85.5647C250.802 85.4138 250.718 85.2097 250.718 84.997C250.718 84.7842 250.802 84.5802 250.952 84.4293L270.671 64.6848C270.825 64.5529 271.023 64.484 271.226 64.4918C271.428 64.4996 271.62 64.5836 271.763 64.7271C271.906 64.8705 271.99 65.0627 271.998 65.2654C272.006 65.468 271.937 65.6662 271.805 65.8202L252.086 85.5647C251.936 85.7134 251.734 85.7973 251.523 85.7982Z" fill="#E0E0E0"/>
<path d="M251.524 85.7983H231.804C231.591 85.7983 231.386 85.7134 231.236 85.5624C231.085 85.4114 231 85.2066 231 84.993V65.2244C231 65.0109 231.085 64.806 231.236 64.655C231.386 64.504 231.591 64.4192 231.804 64.4192H251.524C251.737 64.4192 251.942 64.504 252.093 64.655C252.244 64.806 252.328 65.0109 252.328 65.2244V84.9608C252.333 85.0693 252.315 85.1774 252.277 85.2789C252.238 85.3803 252.179 85.4729 252.104 85.5512C252.029 85.6294 251.939 85.6916 251.839 85.7341C251.74 85.7765 251.632 85.7984 251.524 85.7983ZM232.608 84.1878H250.72V66.0297H232.608V84.1878Z" fill="#E0E0E0"/>
<path d="M231.804 85.7983H212.085C211.871 85.7983 211.667 85.7134 211.516 85.5624C211.365 85.4114 211.28 85.2066 211.28 84.993V65.2244C211.28 65.0109 211.365 64.806 211.516 64.655C211.667 64.504 211.871 64.4192 212.085 64.4192H231.804C232.018 64.4192 232.222 64.504 232.373 64.655C232.524 64.806 232.609 65.0109 232.609 65.2244V84.9608C232.613 85.0693 232.595 85.1774 232.557 85.2789C232.518 85.3803 232.46 85.4729 232.385 85.5512C232.31 85.6294 232.219 85.6916 232.12 85.7341C232.02 85.7765 231.913 85.7984 231.804 85.7983ZM212.889 84.1878H231V66.0297H212.889V84.1878Z" fill="#E0E0E0"/>
<path d="M231.804 85.7982C231.698 85.7988 231.593 85.7785 231.495 85.7384C231.397 85.6983 231.308 85.6393 231.233 85.5647C231.083 85.4138 230.999 85.2097 230.999 84.997C230.999 84.7842 231.083 84.5802 231.233 84.4293L250.92 64.6848C251.074 64.5529 251.272 64.484 251.475 64.4918C251.677 64.4996 251.869 64.5836 252.012 64.7271C252.155 64.8705 252.239 65.0627 252.247 65.2654C252.255 65.468 252.186 65.6662 252.054 65.8202L232.343 85.5647C232.199 85.7077 232.006 85.7911 231.804 85.7982Z" fill="#E0E0E0"/>
<path d="M212.084 85.7978C211.927 85.7956 211.773 85.7472 211.643 85.6586C211.513 85.57 211.412 85.445 211.352 85.2993C211.292 85.1535 211.276 84.9934 211.306 84.8387C211.336 84.6839 211.411 84.5415 211.521 84.4289L231.233 64.6845C231.307 64.609 231.396 64.5491 231.494 64.5082C231.592 64.4673 231.698 64.4463 231.804 64.4463C231.91 64.4463 232.015 64.4673 232.113 64.5082C232.211 64.5491 232.3 64.609 232.375 64.6845C232.524 64.8354 232.609 65.0394 232.609 65.2522C232.609 65.4649 232.524 65.669 232.375 65.8199L212.655 85.5643C212.58 85.6389 212.491 85.698 212.393 85.7381C212.295 85.7781 212.19 85.7985 212.084 85.7978Z" fill="#E0E0E0"/>
<path d="M212.083 85.7983H192.372C192.158 85.7983 191.954 85.7134 191.803 85.5624C191.652 85.4114 191.567 85.2066 191.567 84.993C191.567 84.7795 191.652 84.5747 191.803 84.4237C191.954 84.2726 192.158 84.1878 192.372 84.1878H211.279V65.2244C211.279 65.0109 211.364 64.806 211.515 64.655C211.666 64.504 211.87 64.4192 212.083 64.4192C212.297 64.4192 212.501 64.504 212.652 64.655C212.803 64.806 212.888 65.0109 212.888 65.2244V84.9608C212.892 85.0693 212.874 85.1774 212.836 85.2789C212.797 85.3803 212.739 85.4729 212.664 85.5512C212.589 85.6294 212.498 85.6916 212.399 85.7341C212.299 85.7765 212.192 85.7984 212.083 85.7983Z" fill="#E0E0E0"/>
<path d="M310.667 151.747C310.456 151.746 310.254 151.662 310.104 151.514L290.384 131.777C290.309 131.702 290.249 131.613 290.209 131.515C290.168 131.417 290.147 131.312 290.147 131.206C290.147 131.099 290.168 130.994 290.209 130.896C290.249 130.798 290.309 130.709 290.384 130.634C290.459 130.559 290.548 130.499 290.646 130.459C290.744 130.418 290.849 130.397 290.955 130.397C291.061 130.397 291.166 130.418 291.264 130.459C291.362 130.499 291.451 130.559 291.526 130.634L311.238 150.378C311.388 150.529 311.472 150.733 311.472 150.946C311.472 151.159 311.388 151.363 311.238 151.514C311.163 151.588 311.073 151.647 310.975 151.687C310.877 151.727 310.773 151.748 310.667 151.747Z" fill="#E0E0E0"/>
<path d="M310.666 132.011H290.955C290.741 132.011 290.537 131.926 290.386 131.775C290.235 131.624 290.15 131.419 290.15 131.206V111.461C290.15 111.248 290.235 111.043 290.386 110.892C290.537 110.741 290.741 110.656 290.955 110.656H310.666C310.88 110.656 311.084 110.741 311.235 110.892C311.386 111.043 311.471 111.248 311.471 111.461V131.206C311.471 131.419 311.386 131.624 311.235 131.775C311.084 131.926 310.88 132.011 310.666 132.011ZM291.759 130.4H309.862V112.266H291.759V130.4Z" fill="#E0E0E0"/>
<path d="M310.666 112.267H290.955C290.741 112.267 290.537 112.182 290.386 112.031C290.235 111.88 290.15 111.675 290.15 111.461V91.7249C290.15 91.5114 290.235 91.3065 290.386 91.1555C290.537 91.0045 290.741 90.9197 290.955 90.9197H310.666C310.88 90.9197 311.084 91.0045 311.235 91.1555C311.386 91.3065 311.471 91.5114 311.471 91.7249V111.461C311.471 111.675 311.386 111.88 311.235 112.031C311.084 112.182 310.88 112.267 310.666 112.267ZM291.759 110.656H309.862V92.5302H291.759V110.656Z" fill="#E0E0E0"/>
<path d="M310.667 132.011C310.456 132.01 310.254 131.926 310.104 131.777L290.384 112.033C290.309 111.958 290.249 111.869 290.209 111.771C290.168 111.672 290.147 111.567 290.147 111.461C290.147 111.355 290.168 111.25 290.209 111.152C290.249 111.054 290.309 110.964 290.384 110.889C290.459 110.814 290.548 110.755 290.646 110.714C290.744 110.674 290.849 110.653 290.955 110.653C291.061 110.653 291.166 110.674 291.264 110.714C291.362 110.755 291.451 110.814 291.526 110.889L311.238 130.634C311.351 130.746 311.428 130.89 311.46 131.047C311.491 131.204 311.475 131.367 311.414 131.514C311.353 131.662 311.249 131.788 311.116 131.877C310.983 131.965 310.826 132.012 310.667 132.011Z" fill="#E0E0E0"/>
<path d="M310.667 112.266C310.456 112.265 310.254 112.182 310.104 112.033L290.384 92.2884C290.234 92.1375 290.15 91.9334 290.15 91.7207C290.15 91.5079 290.234 91.3038 290.384 91.153C290.459 91.0775 290.548 91.0176 290.646 90.9767C290.744 90.9358 290.849 90.9148 290.955 90.9148C291.061 90.9148 291.167 90.9358 291.265 90.9767C291.363 91.0176 291.451 91.0775 291.526 91.153L311.238 110.889C311.351 111.002 311.429 111.146 311.46 111.303C311.492 111.46 311.476 111.622 311.414 111.77C311.353 111.918 311.249 112.044 311.116 112.132C310.983 112.221 310.827 112.267 310.667 112.266Z" fill="#E0E0E0"/>
<path d="M350.106 84.9932H192.372L212.084 91.725H350.106V84.9932Z" fill="#E0E0E0"/>
<path d="M350.107 92.5299H212.084C211.996 92.5294 211.909 92.5131 211.827 92.4816L192.107 85.7578C191.924 85.6977 191.769 85.5739 191.669 85.4088C191.57 85.2438 191.533 85.0485 191.565 84.8584C191.597 84.6683 191.696 84.496 191.845 84.373C191.993 84.2499 192.18 84.1841 192.373 84.1876H350.107C350.32 84.1876 350.525 84.2725 350.675 84.4235C350.826 84.5745 350.911 84.7793 350.911 84.9929V91.7247C350.911 91.9382 350.826 92.1431 350.675 92.2941C350.525 92.4451 350.32 92.5299 350.107 92.5299ZM212.221 90.9194H349.302V85.7981H197.222L212.221 90.9194Z" fill="#E0E0E0"/>
<path d="M276.358 119.417H290.955V88.3589H276.358V119.417Z" fill="#E0E0E0"/>
<path d="M276.35 88.3586H269.562V119.417H276.35V88.3586Z" fill="#F5F5F5"/>
<path d="M293.127 263.627H321.87V249.648H293.127V263.627Z" fill="#E0E0E0"/>
<path d="M293.126 249.656H279.752V263.635H293.126V249.656Z" fill="#F5F5F5"/>
<path d="M330.387 119.691C330.174 119.691 329.969 119.606 329.819 119.455C329.668 119.304 329.583 119.099 329.583 118.886V88.3589C329.583 88.1454 329.668 87.9406 329.819 87.7896C329.969 87.6385 330.174 87.5537 330.387 87.5537C330.601 87.5537 330.805 87.6385 330.956 87.7896C331.107 87.9406 331.192 88.1454 331.192 88.3589V118.886C331.192 119.099 331.107 119.304 330.956 119.455C330.805 119.606 330.601 119.691 330.387 119.691Z" fill="#E0E0E0"/>
<path d="M330.386 123.395C329.861 123.395 329.348 123.239 328.912 122.947C328.475 122.655 328.135 122.24 327.934 121.754C327.734 121.269 327.681 120.734 327.783 120.219C327.886 119.703 328.139 119.23 328.51 118.858C328.881 118.487 329.354 118.234 329.869 118.131C330.383 118.029 330.917 118.081 331.402 118.282C331.887 118.483 332.301 118.824 332.593 119.261C332.885 119.698 333.04 120.212 333.04 120.737C333.04 121.086 332.972 121.432 332.838 121.754C332.705 122.077 332.509 122.37 332.263 122.616C332.017 122.863 331.724 123.059 331.402 123.192C331.08 123.326 330.735 123.395 330.386 123.395ZM330.386 119.691C330.18 119.691 329.977 119.752 329.806 119.867C329.634 119.982 329.5 120.145 329.42 120.337C329.341 120.528 329.321 120.739 329.361 120.942C329.401 121.145 329.501 121.331 329.647 121.478C329.793 121.624 329.98 121.724 330.182 121.764C330.385 121.804 330.595 121.784 330.786 121.704C330.978 121.625 331.141 121.491 331.256 121.319C331.371 121.147 331.432 120.944 331.432 120.737C331.432 120.6 331.405 120.464 331.352 120.337C331.3 120.21 331.223 120.094 331.126 119.997C331.029 119.9 330.913 119.823 330.786 119.77C330.66 119.718 330.524 119.691 330.386 119.691Z" fill="#E0E0E0"/>
<path d="M214.561 135.715C214.348 135.715 214.143 135.63 213.992 135.479C213.842 135.328 213.757 135.123 213.757 134.91V88.3589C213.757 88.1454 213.842 87.9406 213.992 87.7896C214.143 87.6385 214.348 87.5537 214.561 87.5537C214.774 87.5537 214.979 87.6385 215.13 87.7896C215.281 87.9406 215.365 88.1454 215.365 88.3589V134.91C215.365 135.123 215.281 135.328 215.13 135.479C214.979 135.63 214.774 135.715 214.561 135.715Z" fill="#E0E0E0"/>
<path d="M222.113 140.538C221.922 140.541 221.736 140.475 221.588 140.353C221.441 140.23 221.342 140.059 221.309 139.87C220.714 138.936 215.479 135.844 214.521 135.715C213.621 135.836 208.385 138.936 207.79 139.87C207.772 140.084 207.67 140.281 207.506 140.419C207.343 140.558 207.131 140.625 206.917 140.607C206.704 140.589 206.507 140.486 206.369 140.323C206.231 140.159 206.163 139.947 206.182 139.733C206.182 137.921 213.476 134.096 214.53 134.096C215.583 134.096 222.886 137.913 222.886 139.733C222.886 139.941 222.805 140.141 222.661 140.291C222.518 140.442 222.321 140.53 222.113 140.538Z" fill="#E0E0E0"/>
<path d="M230.814 198.741L242.612 186.928L240.095 182.096C240.312 181.613 240.513 181.13 240.698 180.631L245.87 179.02V162.336L240.698 160.725C240.505 160.234 240.312 159.743 240.095 159.26L242.604 154.428L230.814 142.64L225.989 145.152C225.506 144.935 225.024 144.733 224.533 144.548L222.925 139.37H206.221L204.612 144.548C204.122 144.733 203.639 144.935 203.157 145.152L198.331 142.64L186.582 154.444L189.099 159.276C188.874 159.759 188.681 160.25 188.488 160.741L183.316 162.352V179.053L188.488 180.663C188.681 181.162 188.874 181.645 189.091 182.129L186.582 186.96L198.38 198.773L203.205 196.252C203.688 196.47 204.178 196.671 204.669 196.856L206.277 202.034H222.965L224.573 196.856C225.064 196.671 225.547 196.47 226.029 196.252L230.814 198.741ZM223.375 179.471C221.639 181.211 219.426 182.395 217.017 182.876C214.609 183.356 212.111 183.11 209.842 182.169C207.573 181.228 205.633 179.635 204.268 177.59C202.904 175.545 202.175 173.141 202.175 170.682C202.175 168.223 202.904 165.819 204.268 163.774C205.633 161.729 207.573 160.136 209.842 159.195C212.111 158.254 214.609 158.008 217.017 158.489C219.426 158.969 221.639 160.153 223.375 161.893C224.527 163.048 225.441 164.42 226.063 165.929C226.685 167.439 227.004 169.056 227.001 170.689C226.998 172.322 226.673 173.938 226.045 175.445C225.418 176.952 224.499 178.32 223.343 179.471H223.375Z" fill="#E0E0E0"/>
<path d="M201.059 300C287.178 300 356.991 295.919 356.991 290.885C356.991 285.851 287.178 281.77 201.059 281.77C114.939 281.77 45.126 285.851 45.126 290.885C45.126 295.919 114.939 300 201.059 300Z" fill="#F5F5F5"/>
<path d="M141.457 87.0864H131.421C130.962 87.0869 130.511 87.2075 130.113 87.4364C129.715 87.6652 129.384 87.9943 129.153 88.3909L124.134 97.0955C123.905 97.4949 123.784 97.9475 123.784 98.4081C123.784 98.8687 123.905 99.3213 124.134 99.7206L129.153 108.417C129.382 108.816 129.712 109.148 130.111 109.378C130.509 109.609 130.961 109.73 131.421 109.73H141.457C141.917 109.73 142.369 109.609 142.767 109.378C143.166 109.148 143.496 108.816 143.725 108.417L148.744 99.7206C148.973 99.3213 149.094 98.8687 149.094 98.4081C149.094 97.9475 148.973 97.4949 148.744 97.0955L143.725 88.3909C143.494 87.9943 143.163 87.6652 142.765 87.4364C142.367 87.2075 141.916 87.0869 141.457 87.0864Z" fill="#0056A1"/>
<path opacity="0.5" d="M141.457 87.0864H131.421C130.962 87.0869 130.511 87.2075 130.113 87.4364C129.715 87.6652 129.384 87.9943 129.153 88.3909L124.134 97.0955C123.905 97.4949 123.784 97.9475 123.784 98.4081C123.784 98.8687 123.905 99.3213 124.134 99.7206L129.153 108.417C129.382 108.816 129.712 109.148 130.111 109.378C130.509 109.609 130.961 109.73 131.421 109.73H141.457C141.917 109.73 142.369 109.609 142.767 109.378C143.166 109.148 143.496 108.816 143.725 108.417L148.744 99.7206C148.973 99.3213 149.094 98.8687 149.094 98.4081C149.094 97.9475 148.973 97.4949 148.744 97.0955L143.725 88.3909C143.494 87.9943 143.163 87.6652 142.765 87.4364C142.367 87.2075 141.916 87.0869 141.457 87.0864Z" fill="white"/>
<path d="M77.2077 58.2427L76.6367 57.6709L81.4621 52.8395L82.0331 53.4112L77.2077 58.2427ZM85.5154 49.9245L84.9444 49.3528L95.0295 39.2551L95.6005 39.8188L85.5154 49.9245Z" fill="#0056A1"/>
<path opacity="0.5" d="M77.2077 58.2427L76.6367 57.6709L81.4621 52.8395L82.0331 53.4112L77.2077 58.2427ZM85.5154 49.9245L84.9444 49.3528L95.0295 39.2551L95.6005 39.8188L85.5154 49.9245Z" fill="white"/>
<path d="M204.678 116.631V80.1855L193.419 76.6505C193.017 75.5714 192.575 74.5085 192.108 73.4295L197.585 62.9614L171.85 37.1938L161.395 42.6855C160.341 42.2104 159.288 41.7675 158.178 41.3568L154.647 30.0835H118.223L114.701 41.3568C113.615 41.7675 112.562 42.2104 111.484 42.6855L101.029 37.1938L75.2935 62.9614L80.7784 73.4295C80.3039 74.4844 79.8616 75.5392 79.4594 76.6505L68.2002 80.1855V116.631L79.4594 120.158C79.8696 121.237 80.3119 122.299 80.7784 123.378L75.2935 133.847L101.029 159.614L111.484 154.122C112.529 154.598 113.583 155.04 114.701 155.451L118.223 166.724H154.623L158.154 155.451C159.231 155.04 160.285 154.598 161.37 154.122L171.826 159.614L197.561 133.847L192.076 123.378C192.543 122.332 192.993 121.269 193.395 120.158L204.678 116.631ZM163.526 98.4C163.526 103.764 161.937 109.007 158.961 113.467C155.985 117.927 151.754 121.403 146.805 123.456C141.855 125.509 136.409 126.046 131.155 124.999C125.901 123.953 121.074 121.37 117.286 117.577C113.498 113.784 110.918 108.952 109.873 103.691C108.828 98.4301 109.364 92.977 111.415 88.0214C113.465 83.0658 116.936 78.8302 121.391 75.8501C125.845 72.8701 131.082 71.2795 136.439 71.2795C143.622 71.2817 150.511 74.1397 155.59 79.2253C160.669 84.3109 163.524 91.2078 163.526 98.4Z" fill="#0056A1"/>
<path opacity="0.5" d="M204.678 116.631V80.1855L193.419 76.6505C193.017 75.5714 192.575 74.5085 192.108 73.4295L197.585 62.9614L171.85 37.1938L161.395 42.6855C160.341 42.2104 159.288 41.7675 158.178 41.3568L154.647 30.0835H118.223L114.701 41.3568C113.615 41.7675 112.562 42.2104 111.484 42.6855L101.029 37.1938L75.2935 62.9614L80.7784 73.4295C80.3039 74.4844 79.8616 75.5392 79.4594 76.6505L68.2002 80.1855V116.631L79.4594 120.158C79.8696 121.237 80.3119 122.299 80.7784 123.378L75.2935 133.847L101.029 159.614L111.484 154.122C112.529 154.598 113.583 155.04 114.701 155.451L118.223 166.724H154.623L158.154 155.451C159.231 155.04 160.285 154.598 161.37 154.122L171.826 159.614L197.561 133.847L192.076 123.378C192.543 122.332 192.993 121.269 193.395 120.158L204.678 116.631ZM163.526 98.4C163.526 103.764 161.937 109.007 158.961 113.467C155.985 117.927 151.754 121.403 146.805 123.456C141.855 125.509 136.409 126.046 131.155 124.999C125.901 123.953 121.074 121.37 117.286 117.577C113.498 113.784 110.918 108.952 109.873 103.691C108.828 98.4301 109.364 92.977 111.415 88.0214C113.465 83.0658 116.936 78.8302 121.391 75.8501C125.845 72.8701 131.082 71.2795 136.439 71.2795C143.622 71.2817 150.511 74.1397 155.59 79.2253C160.669 84.3109 163.524 91.2078 163.526 98.4Z" fill="white"/>
<path d="M152.87 164.518H120.017C119.974 164.518 119.932 164.504 119.897 164.478C119.862 164.452 119.837 164.415 119.824 164.373L116.608 154.211C116.592 154.16 116.596 154.105 116.621 154.057C116.646 154.009 116.689 153.974 116.74 153.958C116.791 153.942 116.847 153.947 116.894 153.972C116.942 153.996 116.978 154.039 116.994 154.09L120.122 164.116H152.677L156.023 153.535C156.032 153.506 156.048 153.479 156.069 153.457C156.09 153.435 156.115 153.417 156.144 153.406L157.245 152.995C158.178 152.641 159.167 152.23 160.285 151.731L161.355 151.248C161.404 151.227 161.46 151.226 161.509 151.245C161.559 151.265 161.599 151.304 161.62 151.353C161.642 151.402 161.643 151.457 161.623 151.507C161.603 151.557 161.565 151.597 161.516 151.618L160.446 152.094C159.328 152.601 158.323 153.011 157.39 153.366L156.377 153.752L153.063 164.373C153.05 164.415 153.024 164.451 152.99 164.477C152.955 164.503 152.914 164.517 152.87 164.518ZM171.368 156.844C171.314 156.843 171.263 156.823 171.223 156.788C171.203 156.769 171.188 156.747 171.177 156.722C171.167 156.697 171.161 156.67 171.161 156.643C171.161 156.616 171.167 156.589 171.177 156.564C171.188 156.539 171.203 156.517 171.223 156.498L194.353 133.348L189.214 123.524C189.199 123.496 189.192 123.466 189.192 123.435C189.192 123.404 189.199 123.374 189.214 123.346L189.696 122.276C190.179 121.188 190.589 120.19 190.951 119.24L191.361 118.137C191.372 118.108 191.39 118.083 191.412 118.062C191.434 118.041 191.461 118.025 191.49 118.016L202.065 114.706V82.1343L191.61 78.8651C191.581 78.8608 191.554 78.8504 191.529 78.8344C191.505 78.8184 191.484 78.7973 191.469 78.7725C191.453 78.7477 191.443 78.7199 191.44 78.6909C191.436 78.6619 191.439 78.6325 191.448 78.6047C191.457 78.5769 191.472 78.5513 191.491 78.5298C191.511 78.5083 191.535 78.4913 191.562 78.4801C191.589 78.4688 191.618 78.4636 191.647 78.4647C191.676 78.4659 191.705 78.4733 191.731 78.4866L202.298 81.7881C202.338 81.8027 202.372 81.829 202.397 81.8635C202.421 81.898 202.434 81.9391 202.435 81.9814V114.875C202.436 114.918 202.423 114.96 202.398 114.994C202.374 115.029 202.339 115.055 202.298 115.069L191.707 118.37L191.329 119.385C190.967 120.343 190.524 121.341 190.058 122.445L189.624 123.427L194.779 133.291C194.804 133.325 194.818 133.366 194.818 133.408C194.818 133.45 194.804 133.491 194.779 133.525L171.553 156.788C171.503 156.829 171.44 156.849 171.376 156.844H171.368ZM101.504 156.844C101.451 156.843 101.4 156.823 101.359 156.788L78.133 133.525C78.1099 133.49 78.0975 133.45 78.0975 133.408C78.0975 133.366 78.1099 133.326 78.133 133.291L83.3364 123.338C83.3621 123.291 83.4047 123.256 83.4555 123.24C83.5064 123.223 83.5616 123.227 83.6099 123.25C83.6331 123.262 83.6537 123.28 83.6704 123.3C83.687 123.321 83.6994 123.345 83.7069 123.37C83.7144 123.395 83.7167 123.422 83.7139 123.448C83.711 123.475 83.703 123.5 83.6903 123.524L78.5593 133.348L101.681 156.498C101.7 156.517 101.716 156.539 101.726 156.564C101.737 156.589 101.742 156.616 101.742 156.643C101.742 156.67 101.737 156.697 101.726 156.722C101.716 156.747 101.7 156.769 101.681 156.788C101.658 156.808 101.631 156.824 101.602 156.834C101.573 156.843 101.543 156.847 101.512 156.844H101.504ZM115.176 153.229H115.104C114.299 152.915 113.423 152.544 112.45 152.11C112.421 152.103 112.395 152.089 112.372 152.071C112.349 152.052 112.33 152.029 112.318 152.003C112.305 151.976 112.298 151.947 112.297 151.918C112.297 151.889 112.303 151.859 112.314 151.833C112.326 151.806 112.344 151.782 112.366 151.762C112.388 151.743 112.414 151.729 112.443 151.721C112.471 151.713 112.5 151.711 112.529 151.715C112.558 151.72 112.586 151.731 112.61 151.747C113.576 152.174 114.436 152.552 115.248 152.85C115.273 152.86 115.296 152.875 115.316 152.894C115.335 152.912 115.35 152.935 115.361 152.959C115.371 152.984 115.377 153.011 115.377 153.038C115.377 153.065 115.371 153.091 115.361 153.116C115.344 153.154 115.315 153.186 115.279 153.206C115.243 153.226 115.201 153.234 115.16 153.229H115.176ZM136.456 128.154C128.574 128.139 121.02 124.993 115.451 119.407C109.883 113.822 106.756 106.252 106.756 98.3599C106.756 98.3065 106.777 98.2553 106.815 98.2176C106.852 98.1798 106.903 98.1586 106.957 98.1586C107.01 98.1586 107.061 98.1798 107.099 98.2176C107.137 98.2553 107.158 98.3065 107.158 98.3599C107.158 104.162 108.876 109.833 112.095 114.657C115.315 119.482 119.89 123.242 125.244 125.462C130.598 127.682 136.488 128.263 142.172 127.131C147.855 125.999 153.075 123.205 157.173 119.103C161.27 115 164.061 109.773 165.191 104.083C166.322 98.3925 165.741 92.4942 163.524 87.134C161.306 81.7737 157.551 77.1922 152.733 73.9689C147.915 70.7455 142.251 69.0251 136.456 69.0251C136.403 69.0251 136.351 69.0038 136.314 68.9661C136.276 68.9283 136.255 68.8771 136.255 68.8237C136.255 68.7704 136.276 68.7192 136.314 68.6814C136.351 68.6437 136.403 68.6224 136.456 68.6224C144.335 68.6224 151.892 71.7563 157.463 77.3347C163.034 82.9131 166.164 90.479 166.164 98.368C166.164 106.257 163.034 113.823 157.463 119.401C151.892 124.98 144.335 128.114 136.456 128.114V128.154ZM81.7682 119.514C81.7262 119.512 81.6857 119.498 81.6514 119.474C81.6172 119.449 81.5907 119.416 81.5752 119.377L81.1972 118.37L70.5733 115.044C70.533 115.031 70.4981 115.005 70.4735 114.97C70.449 114.935 70.436 114.894 70.4365 114.851V81.9572C70.4372 81.9149 70.4506 81.8738 70.475 81.8394C70.4994 81.8049 70.5336 81.7786 70.5733 81.7639L80.7307 78.5913C80.7819 78.5757 80.8372 78.5804 80.885 78.6044C80.9329 78.6283 80.9698 78.6698 80.9881 78.7201C81.0012 78.7724 80.9945 78.8277 80.9693 78.8754C80.944 78.923 80.902 78.9595 80.8513 78.9778L70.8145 82.1343V114.73L81.3902 118.04C81.4185 118.049 81.4442 118.065 81.4652 118.086C81.4862 118.107 81.5019 118.132 81.5108 118.161L81.929 119.264C81.9476 119.313 81.9462 119.368 81.9251 119.416C81.9041 119.464 81.8651 119.502 81.8164 119.522L81.7682 119.514ZM81.7682 77.6411H81.6958C81.6466 77.6198 81.6074 77.5803 81.5864 77.5308C81.5655 77.4813 81.5643 77.4257 81.5832 77.3754C81.9692 76.3447 82.3874 75.3623 82.8298 74.3638C82.8524 74.316 82.893 74.2791 82.9427 74.261C82.9923 74.2429 83.0471 74.2451 83.0951 74.2672C83.1195 74.2777 83.1415 74.2929 83.16 74.312C83.1784 74.331 83.1929 74.3535 83.2026 74.3783C83.2124 74.4029 83.2171 74.4293 83.2166 74.4559C83.2161 74.4824 83.2103 74.5086 83.1997 74.5329C82.7493 75.5153 82.3472 76.4977 81.9612 77.5203C81.9471 77.5641 81.919 77.6021 81.8812 77.6283C81.8434 77.6545 81.798 77.6675 81.7521 77.6653L81.7682 77.6411ZM189.688 73.0432H189.592C189.568 73.0306 189.548 73.0134 189.531 72.9928C189.514 72.9722 189.502 72.9485 189.495 72.923C189.487 72.8976 189.485 72.8709 189.488 72.8446C189.49 72.8182 189.498 72.7927 189.511 72.7694L194.337 63.4689L190.476 59.5877C190.453 59.5704 190.434 59.5483 190.42 59.523C190.407 59.4976 190.398 59.4696 190.396 59.4409C190.394 59.4121 190.398 59.3832 190.408 59.3562C190.419 59.3292 190.434 59.3047 190.455 59.2843C190.475 59.2639 190.5 59.2481 190.527 59.238C190.554 59.2279 190.582 59.2238 190.611 59.2258C190.64 59.2279 190.668 59.2361 190.693 59.2499C190.718 59.2637 190.74 59.2827 190.758 59.3058L194.779 63.332C194.804 63.3656 194.818 63.4066 194.818 63.4488C194.818 63.4909 194.804 63.5319 194.779 63.5655L189.849 72.9949C189.828 73.0207 189.8 73.0409 189.77 73.0535C189.739 73.0662 189.705 73.0709 189.672 73.0674L189.688 73.0432ZM78.2778 63.6139C78.2241 63.6144 78.1723 63.5942 78.133 63.5575C78.098 63.5189 78.0786 63.4687 78.0786 63.4166C78.0786 63.3645 78.098 63.3142 78.133 63.2757L101.335 40.0284C101.368 40.0016 101.409 39.987 101.452 39.987C101.494 39.987 101.535 40.0016 101.568 40.0284L111.42 45.19L112.401 44.7552C113.35 44.3284 114.219 43.9499 115.055 43.6359C115.08 43.6254 115.107 43.6201 115.134 43.6201C115.16 43.6202 115.187 43.6256 115.212 43.6361C115.237 43.6466 115.259 43.662 115.278 43.6813C115.296 43.7006 115.311 43.7235 115.321 43.7486C115.339 43.7988 115.336 43.8541 115.314 43.9024C115.291 43.9508 115.25 43.9881 115.2 44.0063C114.396 44.3364 113.511 44.6988 112.57 45.1175L111.501 45.6007C111.473 45.6126 111.443 45.6188 111.412 45.6188C111.382 45.6188 111.352 45.6126 111.324 45.6007L101.512 40.4552L78.4226 63.6139C78.3761 63.6327 78.3242 63.6327 78.2778 63.6139ZM187.267 56.2701C187.214 56.2706 187.162 56.2504 187.123 56.2137L171.303 40.4149L161.492 45.5604C161.466 45.5745 161.437 45.5819 161.407 45.5819C161.378 45.5819 161.349 45.5745 161.323 45.5604L160.253 45.0773C159.151 44.5861 158.154 44.1754 157.213 43.813L156.111 43.4024C156.083 43.391 156.058 43.3736 156.037 43.3513C156.016 43.329 156 43.3025 155.991 43.2735L152.685 32.6927H120.162L117.315 41.7999C117.308 41.8252 117.296 41.8487 117.279 41.869C117.262 41.8894 117.242 41.9061 117.218 41.9181C117.195 41.9302 117.169 41.9374 117.143 41.9392C117.117 41.941 117.091 41.9375 117.066 41.9288C117.016 41.9122 116.975 41.8768 116.951 41.8301C116.927 41.7835 116.922 41.7293 116.937 41.6791L119.832 32.435C119.846 32.3947 119.872 32.3597 119.907 32.3351C119.941 32.3105 119.983 32.2976 120.025 32.2981H152.878C152.921 32.2988 152.962 32.3122 152.996 32.3366C153.031 32.361 153.057 32.3953 153.071 32.435L156.385 43.0642L157.398 43.4507C158.347 43.805 159.344 44.2559 160.454 44.7229L161.435 45.1578L171.303 39.9962C171.337 39.9707 171.378 39.9569 171.42 39.9569C171.462 39.9569 171.503 39.9707 171.537 39.9962L187.388 55.9399C187.407 55.9587 187.423 55.9812 187.433 56.0061C187.444 56.031 187.449 56.0578 187.449 56.0849C187.449 56.1119 187.444 56.1387 187.433 56.1636C187.423 56.1885 187.407 56.211 187.388 56.2298C187.355 56.2613 187.313 56.2811 187.267 56.2862V56.2701Z" fill="#FAFAFA"/>
<path d="M251.999 104.995C254.516 108.216 256.872 111.437 259.173 114.763C261.473 118.089 263.66 121.487 265.727 125.03C266.25 125.907 266.748 126.825 267.255 127.727C267.986 129.094 268.417 130.601 268.518 132.148C268.649 134.496 268.421 136.85 267.842 139.129C266.841 143.227 265.322 147.181 263.322 150.894L259.181 149.284C260.003 145.566 260.596 141.801 260.958 138.01C261.118 136.373 261.064 134.722 260.797 133.098C260.731 132.648 260.564 132.218 260.307 131.842C259.776 131.037 259.261 130.232 258.698 129.426C256.519 126.205 254.21 123.057 251.886 119.892L244.897 110.407L251.999 104.995Z" fill="#FF8B7B"/>
<path d="M258.891 148.816L256.752 152.649L264.215 153.753C264.215 153.753 265.019 150.532 263.146 148.309L258.891 148.816Z" fill="#FF8B7B"/>
<path d="M255.626 157.747L261.843 158.375L264.215 153.753L256.752 152.649L255.626 157.747Z" fill="#FF8B7B"/>
<path d="M275.853 180.615L278.072 168.786C278.33 167.414 279.121 166.2 280.271 165.411C281.421 164.621 282.837 164.321 284.209 164.575L302.843 168.07C301.731 164.342 299.754 160.931 297.073 158.115C294.393 155.299 291.085 153.157 287.419 151.866C283.754 150.575 279.836 150.171 275.985 150.686C272.134 151.202 268.459 152.622 265.261 154.832L180.72 104.73C181.159 99.4325 179.877 94.1351 177.065 89.627C174.252 85.1189 170.06 81.6415 165.113 79.7131C160.166 77.7847 154.729 77.5086 149.613 78.9259C144.496 80.3432 139.974 83.378 136.72 87.578L155.354 91.0727C156.723 91.3365 157.932 92.131 158.719 93.2833C159.505 94.4355 159.805 95.8522 159.553 97.2247L157.333 109.062C157.073 110.433 156.282 111.646 155.132 112.435C153.983 113.224 152.568 113.525 151.197 113.273L132.562 109.77C133.679 113.521 135.671 116.951 138.374 119.778C141.077 122.605 144.413 124.747 148.106 126.027C151.8 127.307 155.744 127.688 159.614 127.14C163.484 126.591 167.168 125.128 170.361 122.872L254.733 172.877C254.247 178.185 255.491 183.509 258.281 188.049C261.07 192.589 265.254 196.102 270.206 198.062C275.157 200.021 280.609 200.32 285.745 198.916C290.881 197.511 295.424 194.478 298.693 190.27L280.059 186.767C278.689 186.505 277.477 185.712 276.689 184.559C275.901 183.407 275.601 181.989 275.853 180.615Z" fill="#0056A1"/>
<path d="M254.797 154.527L186.252 113.907C185.006 113.168 183.398 113.581 182.661 114.829L179.867 119.555C179.13 120.802 179.542 122.412 180.788 123.151L249.333 163.771C250.579 164.51 252.187 164.097 252.924 162.849L255.718 158.123C256.456 156.876 256.043 155.266 254.797 154.527Z" fill="#0056A1"/>
<path opacity="0.2" d="M254.797 154.527L186.252 113.907C185.006 113.168 183.398 113.581 182.661 114.829L179.867 119.555C179.13 120.802 179.542 122.412 180.788 123.151L249.333 163.771C250.579 164.51 252.187 164.097 252.924 162.849L255.718 158.123C256.456 156.876 256.043 155.266 254.797 154.527Z" fill="white"/>
<path d="M223.368 79.9683C223.288 80.4434 222.982 80.7736 222.677 80.7736C222.371 80.7736 222.178 80.2985 222.251 79.8315C222.323 79.3644 222.637 79.0262 222.942 79.0665C223.248 79.1067 223.441 79.5013 223.368 79.9683Z" fill="#263238"/>
<path d="M223.023 80.7898C222.236 82.1427 221.267 83.3809 220.144 84.4697C220.428 84.7552 220.771 84.9752 221.148 85.1143C221.526 85.2533 221.93 85.3082 222.331 85.275L223.023 80.7898Z" fill="#FF5652"/>
<path d="M225.485 77.625C225.449 77.6253 225.413 77.6184 225.38 77.6046C225.347 77.5907 225.317 77.5703 225.292 77.5445C225.05 77.2895 224.751 77.096 224.419 76.9797C224.088 76.8635 223.734 76.828 223.386 76.8761C223.349 76.8844 223.311 76.8853 223.275 76.8788C223.238 76.8723 223.203 76.8586 223.171 76.8383C223.14 76.8181 223.113 76.7918 223.092 76.7609C223.07 76.7301 223.055 76.6953 223.048 76.6587C223.04 76.6227 223.039 76.5854 223.045 76.5491C223.052 76.5127 223.066 76.4781 223.086 76.4472C223.106 76.4164 223.133 76.39 223.163 76.3696C223.194 76.3492 223.229 76.3352 223.265 76.3286C223.702 76.2591 224.15 76.296 224.57 76.4362C224.99 76.5763 225.37 76.8156 225.678 77.1338C225.728 77.1887 225.756 77.2606 225.756 77.3351C225.756 77.4096 225.728 77.4815 225.678 77.5364C225.626 77.5875 225.557 77.6188 225.485 77.625Z" fill="#263238"/>
<path d="M239.074 85.1624C238.27 89.4945 237.386 97.4262 240.409 100.309C240.409 100.309 239.227 104.697 231.193 104.697C222.346 104.697 226.971 100.309 226.971 100.309C231.796 99.1574 231.667 95.5741 230.831 92.2565L239.074 85.1624Z" fill="#FF8B7B"/>
<path d="M244.488 103.562C244.391 103.419 244.317 103.261 244.271 103.095C243.596 100.526 240.757 98.521 237.073 98.4163C233.189 98.3197 228.806 98.7867 226.216 100.929C225.074 101.871 226.337 103.248 226.337 103.248L244.488 103.562Z" fill="#0056A1"/>
<path opacity="0.5" d="M244.488 103.562C244.391 103.419 244.317 103.261 244.271 103.095C243.596 100.526 240.757 98.521 237.073 98.4163C233.189 98.3197 228.806 98.7867 226.216 100.929C225.074 101.871 226.337 103.248 226.337 103.248L244.488 103.562Z" fill="white"/>
<path d="M272.885 265.592H272.828C272.71 265.576 272.6 265.523 272.513 265.44C272.427 265.358 272.368 265.251 272.346 265.133C272.318 265.042 272.31 264.946 272.322 264.851C272.335 264.757 272.367 264.666 272.418 264.586C272.869 263.821 274.831 263.418 274.887 263.402C274.914 263.397 274.942 263.399 274.968 263.409C274.993 263.419 275.016 263.436 275.032 263.458C275.045 263.482 275.052 263.508 275.052 263.535C275.052 263.562 275.045 263.588 275.032 263.611C274.734 264.119 273.633 265.592 272.885 265.592ZM274.614 263.748C273.97 263.917 272.925 264.264 272.66 264.723C272.634 264.771 272.621 264.825 272.621 264.88C272.621 264.934 272.634 264.988 272.66 265.037C272.732 265.286 272.861 265.302 272.893 265.31C273.255 265.359 274.107 264.489 274.614 263.748Z" fill="#0056A1"/>
<path d="M273.954 263.781C273.223 263.781 272.402 263.644 272.153 263.289C272.094 263.202 272.067 263.096 272.076 262.991C272.085 262.886 272.129 262.787 272.201 262.71C272.266 262.625 272.347 262.555 272.44 262.503C272.532 262.45 272.634 262.416 272.74 262.404C273.625 262.307 274.952 263.378 275.008 263.426C275.028 263.442 275.044 263.463 275.053 263.487C275.062 263.511 275.064 263.537 275.059 263.562C275.054 263.587 275.042 263.611 275.025 263.629C275.007 263.648 274.984 263.661 274.96 263.668C274.631 263.751 274.293 263.789 273.954 263.781ZM272.877 262.677H272.772C272.704 262.682 272.637 262.701 272.577 262.735C272.517 262.768 272.466 262.815 272.426 262.871C272.314 263.016 272.362 263.088 272.386 263.112C272.611 263.442 273.842 263.571 274.59 263.45C274.094 263.05 273.504 262.784 272.877 262.677Z" fill="#0056A1"/>
<path d="M214.475 285.143C213.719 285.143 212.987 285.039 212.737 284.7C212.674 284.611 212.641 284.504 212.641 284.394C212.641 284.285 212.674 284.178 212.737 284.088C212.787 284.006 212.852 283.934 212.929 283.878C213.007 283.821 213.094 283.78 213.188 283.758C214.169 283.493 216.236 284.668 216.324 284.725C216.349 284.739 216.368 284.761 216.38 284.787C216.391 284.813 216.394 284.842 216.389 284.87C216.383 284.897 216.369 284.923 216.349 284.943C216.329 284.963 216.304 284.977 216.276 284.982C215.681 285.087 215.079 285.141 214.475 285.143ZM213.534 284C213.446 283.987 213.356 283.987 213.268 284C213.212 284.011 213.158 284.034 213.111 284.067C213.064 284.101 213.024 284.143 212.995 284.193C212.89 284.37 212.93 284.459 212.995 284.507C213.268 284.886 214.764 284.894 215.866 284.741C215.144 284.344 214.352 284.093 213.534 284Z" fill="#0056A1"/>
<path d="M216.259 284.982H216.203C215.487 284.66 214.071 283.372 214.184 282.712C214.184 282.551 214.321 282.357 214.707 282.317C214.85 282.3 214.996 282.312 215.134 282.353C215.273 282.395 215.401 282.465 215.511 282.559C216.267 283.179 216.42 284.773 216.428 284.837C216.431 284.862 216.427 284.887 216.417 284.91C216.408 284.932 216.392 284.952 216.372 284.966C216.338 284.986 216.297 284.992 216.259 284.982ZM214.819 282.567H214.731C214.482 282.567 214.466 282.687 214.458 282.72C214.393 283.122 215.358 284.129 216.066 284.564C215.992 283.888 215.711 283.253 215.262 282.744C215.136 282.643 214.98 282.587 214.819 282.583V282.567Z" fill="#0056A1"/>
<path d="M222.757 284.845H216.846L216.259 271.148H222.17L222.757 284.845Z" fill="#FF8B7B"/>
<path d="M280.204 259.327L275.411 262.79L264.104 254.061L268.897 250.606L280.204 259.327Z" fill="#FF8B7B"/>
<path d="M274.727 262.742L279.327 257.91C279.408 257.826 279.515 257.771 279.631 257.757C279.747 257.742 279.864 257.768 279.963 257.83L284.563 260.624C284.673 260.694 284.766 260.787 284.836 260.897C284.905 261.008 284.95 261.132 284.965 261.262C284.98 261.392 284.967 261.523 284.925 261.647C284.883 261.77 284.815 261.883 284.724 261.977C283.115 263.627 282.207 264.344 280.188 266.454C278.941 267.75 275.564 272.308 273.843 274.104C272.122 275.899 270.135 274.426 270.674 273.54C273.087 269.562 274.261 265.616 274.325 263.652C274.348 263.31 274.491 262.988 274.727 262.742Z" fill="#263238"/>
<path d="M216.886 284.161H223.32C223.438 284.16 223.552 284.199 223.645 284.273C223.737 284.346 223.801 284.449 223.827 284.564L224.993 289.822C225.021 289.949 225.02 290.08 224.99 290.207C224.96 290.333 224.902 290.451 224.82 290.552C224.738 290.652 224.634 290.733 224.516 290.788C224.399 290.843 224.27 290.87 224.141 290.869C221.816 290.869 218.455 290.699 215.527 290.699C212.101 290.699 209.15 290.885 205.137 290.885C202.724 290.885 202.04 288.429 203.054 288.203C207.678 287.197 211.45 287.084 215.447 284.62C215.874 284.335 216.373 284.176 216.886 284.161Z" fill="#263238"/>
<path d="M243.731 112.798C244.535 114.288 245.444 115.729 246.321 117.074C247.833 119.401 249.296 121.414 250.342 122.799C251.283 124.047 251.886 124.78 251.886 124.78L263.789 116.655C263.789 116.655 256.55 102.548 250.977 101.646C245.243 100.736 239.991 106.115 243.731 112.798Z" fill="#0056A1"/>
<path opacity="0.5" d="M243.731 112.798C244.535 114.288 245.444 115.729 246.321 117.074C247.833 119.401 249.296 121.414 250.342 122.799C251.283 124.047 251.886 124.78 251.886 124.78L263.789 116.655C263.789 116.655 256.55 102.548 250.977 101.646C245.243 100.736 239.991 106.115 243.731 112.798Z" fill="black"/>
<path d="M246.321 117.074C247.833 119.401 249.297 121.414 250.342 122.799C250.222 120.029 249.651 115.552 247.504 112.138C246.723 112.911 246.41 114.908 246.321 117.074Z" fill="#0056A1"/>
<path opacity="0.6" d="M246.321 117.074C247.833 119.401 249.297 121.414 250.342 122.799C250.222 120.029 249.651 115.552 247.504 112.138C246.723 112.911 246.41 114.908 246.321 117.074Z" fill="black"/>
<path d="M214.98 121.237C214.98 123.25 215.029 125.464 215.141 127.904C215.431 134.539 216.155 142.809 217.554 153.084H249.152C249.369 148.253 246.321 124.53 251.002 101.645C247.507 100.972 243.971 100.526 240.418 100.309C235.945 100.051 231.461 100.051 226.988 100.309C223.922 100.612 220.884 101.15 217.9 101.919C217.9 101.919 214.972 105.245 214.98 121.237Z" fill="#0056A1"/>
<path opacity="0.5" d="M214.98 121.237C214.98 123.25 215.029 125.464 215.141 127.904C215.431 134.539 216.155 142.809 217.554 153.084H249.152C249.369 148.253 246.321 124.53 251.002 101.645C247.507 100.972 243.971 100.526 240.418 100.309C235.945 100.051 231.461 100.051 226.988 100.309C223.922 100.612 220.884 101.15 217.9 101.919C217.9 101.919 214.972 105.245 214.98 121.237Z" fill="black"/>
<path d="M214.98 121.237C214.98 123.25 215.029 125.464 215.141 127.904C218.849 124.281 219.098 116.881 219.098 116.881L214.98 121.237Z" fill="#0056A1"/>
<path opacity="0.6" d="M214.98 121.237C214.98 123.25 215.029 125.464 215.141 127.904C218.849 124.281 219.098 116.881 219.098 116.881L214.98 121.237Z" fill="black"/>
<path d="M221.566 112.049C220.958 113.068 220.287 114.046 219.556 114.98C218.888 115.85 218.221 116.671 217.537 117.484C216.178 119.095 214.722 120.649 213.242 122.155C210.211 125.237 206.853 127.98 203.23 130.336C202.255 130.947 201.248 131.506 200.214 132.011L199.804 132.204L199.603 132.301L199.353 132.406C198.956 132.574 198.548 132.714 198.131 132.824L197.544 132.977L196.981 133.074C196.622 133.136 196.259 133.177 195.895 133.195C193.474 133.275 191.058 132.934 188.754 132.188C184.68 130.919 180.797 129.101 177.213 126.785L179.119 122.759C182.776 123.855 186.503 124.705 190.274 125.303C191.869 125.572 193.497 125.593 195.099 125.368C195.236 125.345 195.371 125.31 195.501 125.263L195.678 125.215L195.807 125.158C195.911 125.158 195.935 125.078 196 125.054L196.482 124.772C197.223 124.341 197.94 123.871 198.63 123.363C201.598 121.127 204.357 118.626 206.873 115.89C208.184 114.513 209.447 113.072 210.677 111.638C211.288 110.914 211.883 110.189 212.438 109.456C212.993 108.723 213.564 107.975 213.894 107.459L221.566 112.049Z" fill="#FF8B7B"/>
<path d="M179.987 123.846L176.063 119.175L173.393 126.004C173.393 126.004 176.778 127.614 179.416 126.68L179.987 123.846Z" fill="#FF8B7B"/>
<path d="M170.306 118.153L169.212 123.604L173.394 125.996L176.064 119.167L170.306 118.153Z" fill="#FF8B7B"/>
<path d="M226.303 108.844C225.604 114.481 212.833 126.358 212.833 126.358L201.332 117.227C204.223 112.948 207.602 109.022 211.401 105.527C219.733 98.2957 227.148 102.113 226.303 108.844Z" fill="#0056A1"/>
<path opacity="0.5" d="M226.303 108.844C225.604 114.481 212.833 126.358 212.833 126.358L201.332 117.227C204.223 112.948 207.602 109.022 211.401 105.527C219.733 98.2957 227.148 102.113 226.303 108.844Z" fill="black"/>
<path d="M216.34 146.892C227.816 146.892 230.438 133.895 231.041 128.315C229.592 118.878 226.234 109.835 221.173 101.742C221.111 101.643 221.074 101.531 221.065 101.414C221.056 101.297 221.076 101.18 221.123 101.073C221.17 100.966 221.242 100.871 221.333 100.799C221.425 100.726 221.533 100.677 221.648 100.655L224.165 100.188C224.308 100.165 224.455 100.183 224.588 100.242C224.721 100.3 224.834 100.397 224.913 100.518C231.821 111.59 234.081 120.979 234.813 125.811H236.872C238.979 121.221 243.619 110.761 243.241 100.961C243.234 100.856 243.251 100.751 243.29 100.653C243.328 100.555 243.389 100.467 243.466 100.395C243.543 100.323 243.635 100.27 243.735 100.238C243.835 100.207 243.941 100.198 244.046 100.212L246.748 100.478C246.922 100.49 247.085 100.565 247.207 100.69C247.328 100.815 247.4 100.98 247.407 101.154C247.801 110.6 242.469 123.701 240.419 127.864C241.118 143.276 249.683 145.942 249.683 145.942C249.894 149.774 249.724 153.618 249.177 157.416C231.041 160.364 222.002 158.568 216.83 156.426C217.233 152.553 216.509 149.839 216.34 146.892Z" fill="#0056A1"/>
<path opacity="0.3" d="M216.34 146.892C227.816 146.892 230.438 133.895 231.041 128.315C229.592 118.878 226.234 109.835 221.173 101.742C221.111 101.643 221.074 101.531 221.065 101.414C221.056 101.297 221.076 101.18 221.123 101.073C221.17 100.966 221.242 100.871 221.333 100.799C221.425 100.726 221.533 100.677 221.648 100.655L224.165 100.188C224.308 100.165 224.455 100.183 224.588 100.242C224.721 100.3 224.834 100.397 224.913 100.518C231.821 111.59 234.081 120.979 234.813 125.811H236.872C238.979 121.221 243.619 110.761 243.241 100.961C243.234 100.856 243.251 100.751 243.29 100.653C243.328 100.555 243.389 100.467 243.466 100.395C243.543 100.323 243.635 100.27 243.735 100.238C243.835 100.207 243.941 100.198 244.046 100.212L246.748 100.478C246.922 100.49 247.085 100.565 247.207 100.69C247.328 100.815 247.4 100.98 247.407 101.154C247.801 110.6 242.469 123.701 240.419 127.864C241.118 143.276 249.683 145.942 249.683 145.942C249.894 149.774 249.724 153.618 249.177 157.416C231.041 160.364 222.002 158.568 216.83 156.426C217.233 152.553 216.509 149.839 216.34 146.892Z" fill="black"/>
<path d="M216.259 271.148L216.564 278.21H222.475L222.17 271.148H216.259Z" fill="#FF5652"/>
<path d="M268.905 250.606L264.111 254.069L269.942 258.562L274.735 255.1L268.905 250.606Z" fill="#FF5652"/>
<path d="M239.228 81.4342C237.965 87.1675 237.515 90.5897 234.129 93.1021C229.038 96.8867 222.315 93.1021 221.841 87.1191C221.414 81.724 223.546 73.2529 229.569 71.8196C230.895 71.5124 232.277 71.5471 233.586 71.9205C234.895 72.2938 236.087 72.9935 237.053 73.9542C238.018 74.9148 238.723 76.105 239.104 77.4132C239.484 78.7214 239.527 80.1049 239.228 81.4342Z" fill="#FF8B7B"/>
<path d="M244.334 72.536C249.361 72.6729 247.294 75.3221 244.777 76.7796C244.777 76.7796 247.68 78.1727 246.184 81.4983C243.916 86.5471 239.573 92.0952 235.142 91.7892C229.625 91.4108 228.057 85.4037 228.258 79.4771C225.347 76.7313 224.856 75.2174 224.406 71.9159C223.497 65.3693 227.598 61.7699 244.334 72.536Z" fill="#263238"/>
<path d="M237.861 61.5044C241.302 62.3881 244.252 64.604 246.061 67.6648C247.871 70.7256 248.393 74.3807 247.512 77.8265L221.543 71.1914C221.978 69.482 222.746 67.8753 223.802 66.4632C224.858 65.051 226.181 63.8611 227.697 62.9614C229.212 62.0617 230.89 61.47 232.634 61.22C234.378 60.97 236.154 61.0666 237.861 61.5044Z" fill="#0056A1"/>
<path opacity="0.5" d="M237.861 61.5044C241.302 62.3881 244.252 64.604 246.061 67.6648C247.871 70.7256 248.393 74.3807 247.512 77.8265L221.543 71.1914C221.978 69.482 222.746 67.8753 223.802 66.4632C224.858 65.051 226.181 63.8611 227.697 62.9614C229.212 62.0617 230.89 61.47 232.634 61.22C234.378 60.97 236.154 61.0666 237.861 61.5044Z" fill="white"/>
<path d="M242.992 77.8426C242.812 77.8452 242.635 77.806 242.473 77.728C242.311 77.65 242.169 77.5355 242.059 77.3933C241.949 77.2512 241.874 77.0853 241.839 76.909C241.804 76.7326 241.811 76.5505 241.858 76.3771C242.219 74.9146 242.269 73.3925 242.004 71.9095C241.74 70.4265 241.166 69.0158 240.322 67.769C238.515 65.0465 235.75 63.1058 232.577 62.3337C232.275 62.2568 232.016 62.063 231.857 61.795C231.698 61.5269 231.652 61.2066 231.729 60.9044C231.805 60.6022 231.999 60.3429 232.267 60.1836C232.534 60.0243 232.854 59.978 233.156 60.0549C236.9 60.9758 240.159 63.2761 242.284 66.4968C243.307 68.0147 244.001 69.7309 244.319 71.5341C244.638 73.3374 244.575 75.1876 244.134 76.9649C244.068 77.2173 243.92 77.4406 243.713 77.5995C243.506 77.7584 243.253 77.844 242.992 77.8426Z" fill="#0056A1"/>
<path opacity="0.3" d="M242.992 77.8426C242.812 77.8452 242.635 77.806 242.473 77.728C242.311 77.65 242.169 77.5355 242.059 77.3933C241.949 77.2512 241.874 77.0853 241.839 76.909C241.804 76.7326 241.811 76.5505 241.858 76.3771C242.219 74.9146 242.269 73.3925 242.004 71.9095C241.74 70.4265 241.166 69.0158 240.322 67.769C238.515 65.0465 235.75 63.1058 232.577 62.3337C232.275 62.2568 232.016 62.063 231.857 61.795C231.698 61.5269 231.652 61.2066 231.729 60.9044C231.805 60.6022 231.999 60.3429 232.267 60.1836C232.534 60.0243 232.854 59.978 233.156 60.0549C236.9 60.9758 240.159 63.2761 242.284 66.4968C243.307 68.0147 244.001 69.7309 244.319 71.5341C244.638 73.3374 244.575 75.1876 244.134 76.9649C244.068 77.2173 243.92 77.4406 243.713 77.5995C243.506 77.7584 243.253 77.844 242.992 77.8426Z" fill="white"/>
<path d="M217.948 71.5377L248.509 79.3485C248.827 79.4291 249.163 79.3803 249.445 79.2128C249.727 79.0452 249.931 78.7726 250.013 78.4546C250.093 78.1354 250.045 77.7972 249.878 77.5137C249.711 77.2301 249.438 77.0242 249.12 76.9408L218.559 69.13C218.239 69.0494 217.901 69.0991 217.617 69.2681C217.334 69.4372 217.129 69.7118 217.047 70.0319C217.007 70.19 216.999 70.3543 217.023 70.5156C217.047 70.6769 217.102 70.8319 217.186 70.9718C217.269 71.1116 217.38 71.2336 217.511 71.3307C217.641 71.4278 217.79 71.4981 217.948 71.5377Z" fill="#0056A1"/>
<path opacity="0.3" d="M217.948 71.5377L248.509 79.3485C248.827 79.4291 249.163 79.3803 249.445 79.2128C249.727 79.0452 249.931 78.7726 250.013 78.4546C250.093 78.1354 250.045 77.7972 249.878 77.5137C249.711 77.2301 249.438 77.0242 249.12 76.9408L218.559 69.13C218.239 69.0494 217.901 69.0991 217.617 69.2681C217.334 69.4372 217.129 69.7118 217.047 70.0319C217.007 70.19 216.999 70.3543 217.023 70.5156C217.047 70.6769 217.102 70.8319 217.186 70.9718C217.269 71.1116 217.38 71.2336 217.511 71.3307C217.641 71.4278 217.79 71.4981 217.948 71.5377Z" fill="white"/>
<path d="M231.275 80.8946C231.124 82.3457 230.496 83.7055 229.489 84.7597C228.154 86.1367 226.835 85.2106 226.666 83.4713C226.513 81.9092 227.028 79.3082 228.629 78.5835C230.229 77.8588 231.443 79.1472 231.275 80.8946Z" fill="#FF8B7B"/>
<path d="M228.749 153.084C228.749 153.084 228.065 195.182 233.349 211.69C241.721 237.836 267.006 259.013 267.006 259.013L276.045 252.483C276.045 252.483 254.991 234.59 251.13 212.583C247.664 192.799 249.136 169.261 249.136 153.1L228.749 153.084Z" fill="#0056A1"/>
<path opacity="0.3" d="M228.749 153.084C228.749 153.084 228.065 195.182 233.349 211.69C241.721 237.836 267.006 259.013 267.006 259.013L276.045 252.483C276.045 252.483 254.991 234.59 251.13 212.583C247.664 192.799 249.136 169.261 249.136 153.1L228.749 153.084Z" fill="black"/>
<path d="M234.644 160.315C235.762 167.901 231.813 189.022 230.446 195.939C229.014 183.007 228.749 167.667 228.725 159.293C231.62 157.328 234.129 156.82 234.644 160.315Z" fill="#0056A1"/>
<path opacity="0.4" d="M234.644 160.315C235.762 167.901 231.813 189.022 230.446 195.939C229.014 183.007 228.749 167.667 228.725 159.293C231.62 157.328 234.129 156.82 234.644 160.315Z" fill="black"/>
<path d="M263.138 257.105C263.098 257.105 266.854 259.319 266.854 259.319L276.721 252.185L273.44 249.665L263.138 257.105Z" fill="#0056A1"/>
<path opacity="0.4" d="M263.138 257.105C263.098 257.105 266.854 259.319 266.854 259.319L276.721 252.185L273.44 249.665L263.138 257.105Z" fill="white"/>
<path d="M217.539 153.084C217.539 153.084 208.636 190.85 208.009 208.887C207.309 229.123 214.362 276.841 214.362 276.841H224.383C224.383 276.841 225.621 228.753 226.064 210.321C226.546 190.23 238.328 153.084 238.328 153.084H217.539Z" fill="#0056A1"/>
<path opacity="0.3" d="M217.539 153.084C217.539 153.084 208.636 190.85 208.009 208.887C207.309 229.123 214.362 276.841 214.362 276.841H224.383C224.383 276.841 225.621 228.753 226.064 210.321C226.546 190.23 238.328 153.084 238.328 153.084H217.539Z" fill="black"/>
<path d="M212.432 272.847C212.391 272.847 213.003 277.01 213.003 277.01H225.187L225.516 273.298L212.432 272.847Z" fill="#0056A1"/>
<path opacity="0.4" d="M212.432 272.847C212.391 272.847 213.003 277.01 213.003 277.01H225.187L225.516 273.298L212.432 272.847Z" fill="white"/>
</svg>
