<svg width="17" height="18" viewBox="0 0 17 18" fill="none" xmlns="http://www.w3.org/2000/svg">
<path d="M16.6728 7.51859L9.05697 0.748933C8.90255 0.61327 8.70403 0.538452 8.49848 0.538452C8.29293 0.538452 8.0944 0.61327 7.93998 0.748933L0.324113 7.51859C0.194673 7.63309 0.103395 7.78448 0.0625495 7.9524C0.0217043 8.12032 0.0332508 8.29672 0.0956368 8.45788C0.157002 8.61692 0.264967 8.75371 0.40539 8.85034C0.545814 8.94698 0.712149 8.99895 0.88261 8.99946H1.72882V16.6153C1.72882 16.8398 1.81797 17.055 1.97667 17.2137C2.13536 17.3724 2.3506 17.4615 2.57502 17.4615H14.4219C14.6464 17.4615 14.8616 17.3724 15.0203 17.2137C15.179 17.055 15.2681 16.8398 15.2681 16.6153V8.99946H16.1143C16.2848 8.99895 16.4511 8.94698 16.5916 8.85034C16.732 8.75371 16.84 8.61692 16.9013 8.45788C16.9637 8.29672 16.9752 8.12032 16.9344 7.9524C16.8936 7.78448 16.8023 7.63309 16.6728 7.51859ZM9.34468 15.7691H7.65227V13.2305C7.65227 13.0061 7.74142 12.7908 7.90012 12.6321C8.05881 12.4734 8.27405 12.3843 8.49848 12.3843C8.72291 12.3843 8.93814 12.4734 9.09684 12.6321C9.25553 12.7908 9.34468 13.0061 9.34468 13.2305V15.7691ZM13.5757 15.7691H11.0371V13.2305C11.0371 12.5572 10.7696 11.9115 10.2936 11.4354C9.81747 10.9593 9.17176 10.6919 8.49848 10.6919C7.82519 10.6919 7.17948 10.9593 6.7034 11.4354C6.22731 11.9115 5.95985 12.5572 5.95985 13.2305V15.7691H3.42123V8.99946H13.5757V15.7691ZM3.10814 7.30704L8.49848 2.51751L13.8888 7.30704H3.10814Z" fill="white"/>
</svg>
