<svg width="18" height="16" viewBox="0 0 18 16" fill="none" xmlns="http://www.w3.org/2000/svg">
<path d="M7.33366 9.66667H10.667C10.888 9.66667 11.1 9.57887 11.2562 9.42259C11.4125 9.26631 11.5003 9.05435 11.5003 8.83333C11.5003 8.61232 11.4125 8.40036 11.2562 8.24408C11.1 8.0878 10.888 8 10.667 8H7.33366C7.11265 8 6.90068 8.0878 6.7444 8.24408C6.58812 8.40036 6.50033 8.61232 6.50033 8.83333C6.50033 9.05435 6.58812 9.26631 6.7444 9.42259C6.90068 9.57887 7.11265 9.66667 7.33366 9.66667ZM14.8337 0.5H3.16699C2.50395 0.5 1.86807 0.763392 1.39923 1.23223C0.930384 1.70107 0.666992 2.33696 0.666992 3V5.5C0.666992 5.72101 0.75479 5.93297 0.91107 6.08926C1.06735 6.24554 1.27931 6.33333 1.50033 6.33333H2.33366V13C2.33366 13.663 2.59705 14.2989 3.06589 14.7678C3.53473 15.2366 4.17062 15.5 4.83366 15.5H13.167C13.83 15.5 14.4659 15.2366 14.9348 14.7678C15.4036 14.2989 15.667 13.663 15.667 13V6.33333H16.5003C16.7213 6.33333 16.9333 6.24554 17.0896 6.08926C17.2459 5.93297 17.3337 5.72101 17.3337 5.5V3C17.3337 2.33696 17.0703 1.70107 16.6014 1.23223C16.1326 0.763392 15.4967 0.5 14.8337 0.5ZM14.0003 13C14.0003 13.221 13.9125 13.433 13.7562 13.5893C13.6 13.7455 13.388 13.8333 13.167 13.8333H4.83366C4.61265 13.8333 4.40068 13.7455 4.2444 13.5893C4.08812 13.433 4.00033 13.221 4.00033 13V6.33333H14.0003V13ZM15.667 4.66667H2.33366V3C2.33366 2.77899 2.42146 2.56702 2.57774 2.41074C2.73402 2.25446 2.94598 2.16667 3.16699 2.16667H14.8337C15.0547 2.16667 15.2666 2.25446 15.4229 2.41074C15.5792 2.56702 15.667 2.77899 15.667 3V4.66667Z" fill="#0056A1"/>
</svg>
