<svg width="16" height="16" viewBox="0 0 16 16" fill="none" xmlns="http://www.w3.org/2000/svg">
<path opacity="0.8" d="M9.30626 7.95596L15.7863 1.47596C15.9319 1.30592 16.008 1.08718 15.9993 0.863469C15.9907 0.639757 15.898 0.427545 15.7397 0.269239C15.5813 0.110933 15.3691 0.0181922 15.1454 0.00955116C14.9217 0.000910139 14.703 0.0770048 14.5329 0.222628L8.05293 6.70263L1.57293 0.213739C1.40288 0.0681157 1.18415 -0.00797811 0.960436 0.00066292C0.736724 0.00930395 0.524512 0.102043 0.366205 0.26035C0.207899 0.418656 0.115159 0.630868 0.106518 0.85458C0.0978767 1.07829 0.173971 1.29703 0.319595 1.46707L6.79959 7.95596L0.310706 14.436C0.217655 14.5156 0.142082 14.6137 0.0887276 14.724C0.0353736 14.8343 0.00539082 14.9544 0.000662382 15.0768C-0.00406606 15.1992 0.0165614 15.3213 0.0612499 15.4354C0.105938 15.5494 0.173724 15.653 0.26035 15.7397C0.346976 15.8263 0.450574 15.8941 0.564641 15.9387C0.678708 15.9834 0.800781 16.0041 0.923198 15.9993C1.04561 15.9946 1.16573 15.9646 1.27601 15.9113C1.38629 15.8579 1.48435 15.7823 1.56404 15.6893L8.05293 9.20929L14.5329 15.6893C14.703 15.8349 14.9217 15.911 15.1454 15.9024C15.3691 15.8937 15.5813 15.801 15.7397 15.6427C15.898 15.4844 15.9907 15.2722 15.9993 15.0485C16.008 14.8247 15.9319 14.606 15.7863 14.436L9.30626 7.95596Z" fill="white"/>
</svg>
