<svg width="18" height="18" viewBox="0 0 18 18" fill="none" xmlns="http://www.w3.org/2000/svg">
<g clip-path="url(#clip0_15175_16791)">
<g clip-path="url(#clip1_15175_16791)">
<path d="M7.35008 8.31425L2.98193 8.31837L3.63777 7.66253C3.74717 7.55314 3.80863 7.40476 3.80863 7.25005C3.80863 7.09534 3.74717 6.94697 3.63777 6.83758C3.52838 6.72818 3.38 6.66672 3.22529 6.66672C3.07058 6.66672 2.92221 6.72818 2.81282 6.83758L1.1629 8.48749C1.10965 8.54204 1.06761 8.60651 1.03916 8.67723C0.980223 8.81988 0.980223 8.98006 1.03916 9.12271C1.06761 9.19343 1.10965 9.2579 1.1629 9.31245L2.81282 10.9624C2.92221 11.0718 3.07058 11.1332 3.22529 11.1332C3.38 11.1332 3.52838 11.0718 3.63777 10.9624C3.74717 10.853 3.80863 10.7046 3.80863 10.5499C3.80863 10.3952 3.74717 10.2468 3.63777 10.1374L2.98193 9.48157L7.35008 9.48569C7.50543 9.48569 7.65441 9.42398 7.76425 9.31414C7.87409 9.20429 7.9358 9.05531 7.9358 8.89997C7.9358 8.74463 7.87409 8.59565 7.76425 8.4858C7.65441 8.37596 7.50543 8.31425 7.35008 8.31425V8.31425ZM9.5816 2.8819L10.2374 3.53774C10.3468 3.64714 10.4952 3.7086 10.6499 3.7086C10.8046 3.7086 10.953 3.64714 11.0624 3.53774C11.1718 3.42835 11.2332 3.27997 11.2332 3.12526C11.2332 2.97055 11.1718 2.82218 11.0624 2.71279L9.41248 1.06287C9.35793 1.00962 9.29346 0.967579 9.22274 0.939126C9.08009 0.880193 8.91991 0.880193 8.77726 0.939126C8.70654 0.967579 8.64207 1.00962 8.58752 1.06287L6.93761 2.71279C6.82821 2.82218 6.76675 2.97055 6.76675 3.12526C6.76675 3.27997 6.82821 3.42835 6.93761 3.53774C7.047 3.64714 7.19537 3.7086 7.35008 3.7086C7.50479 3.7086 7.65317 3.64714 7.76256 3.53774L8.4184 2.8819L8.41428 7.25005C8.41396 7.32706 8.4289 7.40337 8.45822 7.47457C8.48755 7.54578 8.53068 7.61047 8.58513 7.66492C8.63958 7.71938 8.70428 7.76251 8.77548 7.79183C8.84669 7.82116 8.92299 7.83609 9 7.83577C9.07701 7.83609 9.15331 7.82116 9.22452 7.79183C9.29572 7.76251 9.36042 7.71938 9.41487 7.66492C9.46932 7.61047 9.51245 7.54578 9.54178 7.47457C9.5711 7.40337 9.58604 7.32706 9.58572 7.25005L9.5816 2.8819ZM11.0624 14.2622C10.953 14.1528 10.8046 14.0913 10.6499 14.0913C10.4952 14.0913 10.3468 14.1528 10.2374 14.2622L9.5816 14.918L9.58572 10.5499C9.58572 10.3945 9.52401 10.2456 9.41417 10.1357C9.30432 10.0259 9.15534 9.96417 9 9.96417C8.84466 9.96417 8.69568 10.0259 8.58583 10.1357C8.47599 10.2456 8.41428 10.3945 8.41428 10.5499L8.4184 14.918L7.76256 14.2622C7.65317 14.1528 7.50479 14.0913 7.35008 14.0913C7.19537 14.0913 7.047 14.1528 6.93761 14.2622C6.82821 14.3716 6.76675 14.52 6.76675 14.6747C6.76675 14.8294 6.82821 14.9778 6.93761 15.0872L8.58752 16.7371C8.64207 16.7903 8.70654 16.8324 8.77726 16.8608C8.91991 16.9197 9.08009 16.9197 9.22274 16.8608C9.29346 16.8324 9.35793 16.7903 9.41248 16.7371L11.0624 15.0872C11.1718 14.9778 11.2332 14.8294 11.2332 14.6747C11.2332 14.52 11.1718 14.3716 11.0624 14.2622ZM16.9608 9.12271C17.0198 8.98006 17.0198 8.81988 16.9608 8.67723C16.9324 8.60651 16.8904 8.54204 16.8371 8.48749L15.1872 6.83758C15.0778 6.72818 14.9294 6.66672 14.7747 6.66672C14.62 6.66672 14.4716 6.72818 14.3622 6.83758C14.2528 6.94697 14.1914 7.09534 14.1914 7.25005C14.1914 7.40476 14.2528 7.55314 14.3622 7.66253L15.0181 8.31837L10.6499 8.31425C10.5729 8.31393 10.4966 8.32887 10.4254 8.35819C10.3542 8.38752 10.2895 8.43065 10.235 8.4851C10.1806 8.53955 10.1375 8.60425 10.1081 8.67545C10.0788 8.74666 10.0639 8.82296 10.0642 8.89997C10.0639 8.97698 10.0788 9.05328 10.1081 9.12449C10.1375 9.19569 10.1806 9.26039 10.235 9.31484C10.2895 9.36929 10.3542 9.41242 10.4254 9.44175C10.4966 9.47107 10.5729 9.48601 10.6499 9.48569L15.0181 9.48157L14.3622 10.1374C14.2528 10.2468 14.1914 10.3952 14.1914 10.5499C14.1914 10.7046 14.2528 10.853 14.3622 10.9624C14.4716 11.0718 14.62 11.1332 14.7747 11.1332C14.9294 11.1332 15.0778 11.0718 15.1872 10.9624L16.8371 9.31245C16.8904 9.2579 16.9324 9.19343 16.9608 9.12271V9.12271Z" fill="#888888"/>
</g>
</g>
<defs>
<clipPath id="clip0_15175_16791">
<rect width="18" height="18" fill="white"/>
</clipPath>
<clipPath id="clip1_15175_16791">
<rect width="14" height="14" fill="white" transform="translate(9 -1) rotate(45)"/>
</clipPath>
</defs>
</svg>
