<svg width="14" height="18" viewBox="0 0 14 18" fill="none" xmlns="http://www.w3.org/2000/svg">
<path d="M13.9803 6.45002C13.9716 6.37347 13.9549 6.29805 13.9303 6.22502V6.15002C13.8902 6.06434 13.8368 5.98557 13.772 5.91669L8.77197 0.916687C8.70308 0.851867 8.62432 0.798421 8.53864 0.758354C8.51376 0.75482 8.48851 0.75482 8.46364 0.758354C8.37898 0.709805 8.28549 0.678641 8.18864 0.666687H3.14697C2.48393 0.666687 1.84805 0.930079 1.37921 1.39892C0.910365 1.86776 0.646973 2.50365 0.646973 3.16669V14.8334C0.646973 15.4964 0.910365 16.1323 1.37921 16.6011C1.84805 17.07 2.48393 17.3334 3.14697 17.3334H11.4803C12.1433 17.3334 12.7792 17.07 13.2481 16.6011C13.7169 16.1323 13.9803 15.4964 13.9803 14.8334V6.50002C13.9803 6.50002 13.9803 6.50002 13.9803 6.45002ZM8.9803 3.50835L11.1386 5.66669H9.81364C9.59262 5.66669 9.38066 5.57889 9.22438 5.42261C9.0681 5.26633 8.9803 5.05437 8.9803 4.83335V3.50835ZM12.3136 14.8334C12.3136 15.0544 12.2258 15.2663 12.0696 15.4226C11.9133 15.5789 11.7013 15.6667 11.4803 15.6667H3.14697C2.92596 15.6667 2.714 15.5789 2.55772 15.4226C2.40144 15.2663 2.31364 15.0544 2.31364 14.8334V3.16669C2.31364 2.94567 2.40144 2.73371 2.55772 2.57743C2.714 2.42115 2.92596 2.33335 3.14697 2.33335H7.31364V4.83335C7.31364 5.4964 7.57703 6.13228 8.04587 6.60112C8.51471 7.06996 9.1506 7.33335 9.81364 7.33335H12.3136V14.8334ZM9.22197 9.24169L6.48031 11.9917L5.40531 10.9084C5.24839 10.7514 5.03556 10.6633 4.81364 10.6633C4.59172 10.6633 4.37889 10.7514 4.22197 10.9084C4.06505 11.0653 3.9769 11.2781 3.9769 11.5C3.9769 11.7219 4.06505 11.9348 4.22197 12.0917L5.88864 13.7584C5.96611 13.8365 6.05828 13.8985 6.15982 13.9408C6.26137 13.9831 6.3703 14.0049 6.48031 14.0049C6.59032 14.0049 6.69924 13.9831 6.80079 13.9408C6.90234 13.8985 6.9945 13.8365 7.07197 13.7584L10.4053 10.425C10.5622 10.2681 10.6504 10.0553 10.6504 9.83335C10.6504 9.61144 10.5622 9.39861 10.4053 9.24169C10.2484 9.08477 10.0356 8.99661 9.81364 8.99661C9.59172 8.99661 9.37889 9.08477 9.22197 9.24169Z" fill="#888888"/>
</svg>
