<svg width="14" height="18" viewBox="0 0 14 18" fill="none" xmlns="http://www.w3.org/2000/svg">
<path d="M13.9798 6.45001C13.9711 6.37345 13.9544 6.29803 13.9298 6.22501V6.15001C13.8897 6.06432 13.8363 5.98556 13.7715 5.91667L8.77148 0.916672C8.70259 0.851852 8.62383 0.798406 8.53815 0.758338C8.51327 0.754805 8.48802 0.754805 8.46315 0.758338C8.37849 0.709789 8.285 0.678625 8.18815 0.666672H3.14648C2.48344 0.666672 1.84756 0.930064 1.37872 1.39891C0.909876 1.86775 0.646484 2.50363 0.646484 3.16667V14.8333C0.646484 15.4964 0.909876 16.1323 1.37872 16.6011C1.84756 17.07 2.48344 17.3333 3.14648 17.3333H11.4798C12.1429 17.3333 12.7787 17.07 13.2476 16.6011C13.7164 16.1323 13.9798 15.4964 13.9798 14.8333V6.50001C13.9798 6.50001 13.9798 6.50001 13.9798 6.45001ZM8.97982 3.50834L11.1381 5.66667H9.81315C9.59214 5.66667 9.38017 5.57888 9.22389 5.4226C9.06761 5.26631 8.97982 5.05435 8.97982 4.83334V3.50834ZM12.3131 14.8333C12.3131 15.0544 12.2254 15.2663 12.0691 15.4226C11.9128 15.5789 11.7008 15.6667 11.4798 15.6667H3.14648C2.92547 15.6667 2.71351 15.5789 2.55723 15.4226C2.40095 15.2663 2.31315 15.0544 2.31315 14.8333V3.16667C2.31315 2.94566 2.40095 2.7337 2.55723 2.57742C2.71351 2.42114 2.92547 2.33334 3.14648 2.33334H7.31315V4.83334C7.31315 5.49638 7.57654 6.13227 8.04538 6.60111C8.51422 7.06995 9.15011 7.33334 9.81315 7.33334H12.3131V14.8333ZM9.22148 9.24167L6.47982 11.9917L5.40482 10.9083C5.2479 10.7514 5.03507 10.6633 4.81315 10.6633C4.59123 10.6633 4.3784 10.7514 4.22148 10.9083C4.06456 11.0653 3.97641 11.2781 3.97641 11.5C3.97641 11.7219 4.06456 11.9348 4.22148 12.0917L5.88815 13.7583C5.96562 13.8364 6.05779 13.8984 6.15934 13.9408C6.26089 13.9831 6.36981 14.0048 6.47982 14.0048C6.58983 14.0048 6.69875 13.9831 6.8003 13.9408C6.90185 13.8984 6.99401 13.8364 7.07148 13.7583L10.4048 10.425C10.5617 10.2681 10.6499 10.0553 10.6499 9.83334C10.6499 9.61142 10.5617 9.39859 10.4048 9.24167C10.2479 9.08475 10.0351 8.9966 9.81315 8.9966C9.59123 8.9966 9.3784 9.08475 9.22148 9.24167Z" fill="#0056A1"/>
</svg>
