<svg width="20" height="24" viewBox="0 0 20 24" fill="none" xmlns="http://www.w3.org/2000/svg">
<path d="M16.7423 13.171V9.51949C16.7406 7.89253 16.1632 6.31865 15.1124 5.07658C14.0616 3.8345 12.6051 3.00438 11.0009 2.73322V1.48161C11.0009 1.17707 10.8799 0.885005 10.6646 0.669663C10.4493 0.454321 10.1572 0.333344 9.85265 0.333344C9.54811 0.333344 9.25604 0.454321 9.0407 0.669663C8.82536 0.885005 8.70438 1.17707 8.70438 1.48161V2.73322C7.10018 3.00438 5.6437 3.8345 4.59287 5.07658C3.54205 6.31865 2.96469 7.89253 2.96304 9.51949V13.171C2.29297 13.4079 1.71257 13.8462 1.30143 14.426C0.890277 15.0057 0.668501 15.6984 0.666504 16.4091V18.7056C0.666504 19.0102 0.787482 19.3022 1.00282 19.5176C1.21817 19.7329 1.51023 19.8539 1.81477 19.8539H5.42033C5.68476 20.8269 6.26201 21.6859 7.06304 22.2983C7.86407 22.9106 8.84435 23.2424 9.85265 23.2424C10.8609 23.2424 11.8412 22.9106 12.6423 22.2983C13.4433 21.6859 14.0205 20.8269 14.285 19.8539H17.8905C18.1951 19.8539 18.4871 19.7329 18.7025 19.5176C18.9178 19.3022 19.0388 19.0102 19.0388 18.7056V16.4091C19.0368 15.6984 18.815 15.0057 18.4039 14.426C17.9927 13.8462 17.4123 13.4079 16.7423 13.171ZM5.25957 9.51949C5.25957 8.30133 5.74349 7.13306 6.60485 6.27169C7.46622 5.41033 8.63449 4.92641 9.85265 4.92641C11.0708 4.92641 12.2391 5.41033 13.1004 6.27169C13.9618 7.13306 14.4457 8.30133 14.4457 9.51949V12.9643H5.25957V9.51949ZM9.85265 21.0022C9.45187 20.9997 9.0587 20.8925 8.71222 20.691C8.36574 20.4896 8.07801 20.201 7.87762 19.8539H11.8277C11.6273 20.201 11.3396 20.4896 10.9931 20.691C10.6466 20.8925 10.2534 20.9997 9.85265 21.0022ZM16.7423 17.5574H2.96304V16.4091C2.96304 16.1046 3.08402 15.8125 3.29936 15.5971C3.5147 15.3818 3.80677 15.2608 4.11131 15.2608H15.594C15.8985 15.2608 16.1906 15.3818 16.4059 15.5971C16.6213 15.8125 16.7423 16.1046 16.7423 16.4091V17.5574Z" fill="white"/>
</svg>
