<svg width="19" height="20" viewBox="0 0 19 20" fill="none" xmlns="http://www.w3.org/2000/svg">
<path d="M9.57118 6.14365C10.218 6.14365 10.7424 5.61928 10.7424 4.97246C10.7424 4.32563 10.218 3.80127 9.57118 3.80127C8.92436 3.80127 8.39999 4.32563 8.39999 4.97246C8.39999 5.61928 8.92436 6.14365 9.57118 6.14365Z" fill="white"/>
<path d="M10.6425 0.408271C9.97303 -0.136051 9.01353 -0.136098 8.344 0.408177L0.533041 6.75779C-0.417527 7.53052 0.128872 9.06889 1.35389 9.06889H1.68477V15.6274C0.7578 16.1013 0.123187 17.0656 0.123187 18.1781V19.2192C0.123187 19.6504 0.472764 20 0.90398 20H18.0814C18.5126 20 18.8622 19.6504 18.8622 19.2192V18.1781C18.8622 17.0656 18.2276 16.1013 17.3006 15.6274V9.06889H17.6311C18.8561 9.06889 19.4025 7.53063 18.4521 6.75786L10.6425 0.408271ZM9.32902 1.6199C9.42466 1.54214 9.56174 1.54215 9.65739 1.6199L16.8985 7.5073H2.08666L9.32902 1.6199ZM15.739 15.3152H14.1775V9.06889H15.739V15.3152ZM12.6159 15.3152H10.2735V9.06889H12.6159V15.3152ZM8.71191 15.3152H6.36953V9.06889H8.71191V15.3152ZM15.9994 16.8768C16.718 16.8768 17.3006 17.4595 17.3006 18.1781V18.4384H1.68477V18.1781C1.68477 17.4595 2.2674 16.8768 2.98609 16.8768H15.9994ZM4.80794 15.3152H3.24636V9.06889H4.80794V15.3152Z" fill="white"/>
</svg>
