<svg width="22" height="22" viewBox="0 0 22 22" fill="none" xmlns="http://www.w3.org/2000/svg">
<path fill-rule="evenodd" clip-rule="evenodd" d="M1.64926 20.3507V0.870133C1.64926 0.440003 1.99757 0.0909119 2.42848 0.0909119H11.7791C12.2093 0.0909119 12.5584 0.440003 12.5584 0.870133V4.76624H19.5713C20.0015 4.76624 20.3506 5.11533 20.3506 5.54546V20.3507H21.1298C21.5591 20.3507 21.909 20.6997 21.909 21.1299C21.909 21.56 21.5591 21.9091 21.1298 21.9091H0.870041C0.439911 21.9091 0.0908203 21.56 0.0908203 21.1299C0.0908203 20.6997 0.439911 20.3507 0.870041 20.3507H1.64926ZM10.9999 20.3507V1.64935H3.2077V20.3507H4.76381V16.4545C4.76381 16.0244 5.1129 15.6753 5.54303 15.6753H8.65991C9.09004 15.6753 9.43913 16.0244 9.43913 16.4545V20.3507H10.9999ZM6.32225 17.2338V20.3507H7.88069V17.2338H6.32225ZM12.5584 6.32468V20.3507H18.7921V6.32468H12.5584ZM14.8937 18.7922H16.4521C16.8822 18.7922 17.2313 18.4431 17.2313 18.013C17.2313 17.5829 16.8822 17.2338 16.4521 17.2338H14.8937C14.4635 17.2338 14.1145 17.5829 14.1145 18.013C14.1145 18.4431 14.4635 18.7922 14.8937 18.7922ZM14.8937 15.6753H16.4521C16.8822 15.6753 17.2313 15.3262 17.2313 14.8961C17.2313 14.466 16.8822 14.1169 16.4521 14.1169H14.8937C14.4635 14.1169 14.1145 14.466 14.1145 14.8961C14.1145 15.3262 14.4635 15.6753 14.8937 15.6753ZM5.54303 14.1169H8.65991C9.09004 14.1169 9.43913 13.7678 9.43913 13.3377C9.43913 12.9075 9.09004 12.5584 8.65991 12.5584H5.54303C5.1129 12.5584 4.76381 12.9075 4.76381 13.3377C4.76381 13.7678 5.1129 14.1169 5.54303 14.1169ZM14.8937 12.5584H16.4521C16.8822 12.5584 17.2313 12.2094 17.2313 11.7792C17.2313 11.3491 16.8822 11 16.4521 11H14.8937C14.4635 11 14.1145 11.3491 14.1145 11.7792C14.1145 12.2094 14.4635 12.5584 14.8937 12.5584ZM5.54303 11H8.65991C9.09004 11 9.43913 10.6509 9.43913 10.2208C9.43913 9.79065 9.09004 9.44156 8.65991 9.44156H5.54303C5.1129 9.44156 4.76381 9.79065 4.76381 10.2208C4.76381 10.6509 5.1129 11 5.54303 11ZM14.8937 9.44156H16.4521C16.8822 9.44156 17.2313 9.09247 17.2313 8.66234C17.2313 8.23221 16.8822 7.88312 16.4521 7.88312H14.8937C14.4635 7.88312 14.1145 8.23221 14.1145 8.66234C14.1145 9.09247 14.4635 9.44156 14.8937 9.44156ZM5.54303 7.88312H8.65991C9.09004 7.88312 9.43913 7.53403 9.43913 7.1039C9.43913 6.67377 9.09004 6.32468 8.65991 6.32468H5.54303C5.1129 6.32468 4.76381 6.67377 4.76381 7.1039C4.76381 7.53403 5.1129 7.88312 5.54303 7.88312ZM8.65991 3.20779C9.09004 3.20779 9.43913 3.55689 9.43913 3.98702C9.43913 4.41715 9.09004 4.76624 8.65991 4.76624H5.54303H5.51575L5.4916 4.76467L5.46667 4.76234L5.44251 4.75999L5.41757 4.75611L5.3942 4.75221L5.36537 4.74598L5.33887 4.73896L5.3116 4.73116L5.28433 4.7226L5.26173 4.71403L5.23991 4.70467L5.21809 4.69532L5.19705 4.68519L5.17602 4.67428L5.15498 4.66338L5.13472 4.6509L5.11523 4.63844L5.09576 4.6252L5.07705 4.61117L5.05835 4.59714L5.03653 4.57922L5.01549 4.56052L4.99523 4.54104L4.97576 4.52155L4.9555 4.49896L4.93757 4.47792L4.92043 4.45533L4.90407 4.43272L4.89082 4.41402L4.87836 4.39376L4.86667 4.3735L4.85497 4.35324L4.84407 4.3322L4.83238 4.30649L4.82069 4.28L4.81056 4.25272L4.80199 4.22779L4.79342 4.20051L4.78718 4.17714L4.78173 4.15376L4.77705 4.12961L4.77316 4.10545L4.76927 4.08129L4.76692 4.05714L4.76537 4.03221L4.76381 4.00726V3.98L4.76459 3.95507L4.76614 3.93091L4.7677 3.90675L4.76927 3.89273C4.81602 3.50701 5.14485 3.20779 5.54303 3.20779H8.65991Z" fill="#fff"/>
</svg>
