<svg width="24" height="24" viewBox="0 0 24 24" fill="none" xmlns="http://www.w3.org/2000/svg">
<g clip-path="url(#clip0_2294_13176)">
<path fill-rule="evenodd" clip-rule="evenodd" d="M0 12C0 8.8174 1.26428 5.76516 3.51472 3.51472C5.76516 1.26428 8.8174 0 12 0C15.1826 0 18.2348 1.26428 20.4853 3.51472C22.7357 5.76516 24 8.8174 24 12C24 15.1826 22.7357 18.2348 20.4853 20.4853C18.2348 22.7357 15.1826 24 12 24C8.8174 24 5.76516 22.7357 3.51472 20.4853C1.26428 18.2348 0 15.1826 0 12Z" fill="#FF6464"/>
<path d="M12.8812 11.9995L16.8163 8.07065C16.9339 7.95303 17 7.79351 17 7.62717C17 7.46083 16.9339 7.30131 16.8163 7.18369C16.6987 7.06608 16.5392 7 16.3728 7C16.2065 7 16.047 7.06608 15.9294 7.18369L12.0005 11.1188L8.07171 7.18369C7.95409 7.06608 7.79457 7 7.62824 7C7.4619 7 7.30238 7.06608 7.18476 7.18369C7.06714 7.30131 7.00107 7.46083 7.00107 7.62717C7.00107 7.79351 7.06714 7.95303 7.18476 8.07065L11.1198 11.9995L7.18476 15.9283C7.12622 15.9864 7.07975 16.0554 7.04804 16.1316C7.01633 16.2077 7 16.2893 7 16.3718C7 16.4542 7.01633 16.5359 7.04804 16.612C7.07975 16.6881 7.12622 16.7572 7.18476 16.8152C7.24283 16.8738 7.31191 16.9203 7.38802 16.952C7.46414 16.9837 7.54578 17 7.62824 17C7.71069 17 7.79233 16.9837 7.86845 16.952C7.94456 16.9203 8.01365 16.8738 8.07171 16.8152L12.0005 12.8802L15.9294 16.8152C15.9874 16.8738 16.0565 16.9203 16.1326 16.952C16.2087 16.9837 16.2904 17 16.3728 17C16.4553 17 16.5369 16.9837 16.613 16.952C16.6892 16.9203 16.7582 16.8738 16.8163 16.8152C16.8749 16.7572 16.9213 16.6881 16.953 16.612C16.9847 16.5359 17.0011 16.4542 17.0011 16.3718C17.0011 16.2893 16.9847 16.2077 16.953 16.1316C16.9213 16.0554 16.8749 15.9864 16.8163 15.9283L12.8812 11.9995Z" fill="white"/>
</g>
<defs>
<clipPath id="clip0_2294_13176">
<rect width="24" height="24" fill="white"/>
</clipPath>
</defs>
</svg>
