<svg width="20" height="16" viewBox="0 0 20 16" fill="none" xmlns="http://www.w3.org/2000/svg">
<path d="M19.2426 7.4457C17.2059 3.15527 14.1272 0.996094 10 0.996094C5.87071 0.996094 2.79415 3.15527 0.757424 7.44785C0.67573 7.62084 0.633362 7.80977 0.633362 8.00107C0.633362 8.19238 0.67573 8.38131 0.757424 8.5543C2.79415 12.8447 5.87286 15.0039 10 15.0039C14.1293 15.0039 17.2059 12.8447 19.2426 8.55215C19.408 8.2041 19.408 7.8002 19.2426 7.4457ZM10 13.457C6.53458 13.457 3.99727 11.6996 2.20762 8C3.99727 4.30039 6.53458 2.54297 10 2.54297C13.4654 2.54297 16.0028 4.30039 17.7924 8C16.0049 11.6996 13.4676 13.457 10 13.457ZM9.91408 4.21875C7.82579 4.21875 6.13282 5.91172 6.13282 8C6.13282 10.0883 7.82579 11.7812 9.91408 11.7812C12.0024 11.7812 13.6953 10.0883 13.6953 8C13.6953 5.91172 12.0024 4.21875 9.91408 4.21875ZM9.91408 10.4062C8.58419 10.4062 7.50782 9.32988 7.50782 8C7.50782 6.67012 8.58419 5.59375 9.91408 5.59375C11.244 5.59375 12.3203 6.67012 12.3203 8C12.3203 9.32988 11.244 10.4062 9.91408 10.4062Z" fill="#888888"/>
</svg>
