<svg width="22" height="22" viewBox="0 0 22 22" fill="none" xmlns="http://www.w3.org/2000/svg">
<path d="M20.2426 10.4457C19.4874 8.85458 18.5886 7.55693 17.5463 6.55275L16.4532 7.64587C17.3446 8.49773 18.121 9.61212 18.7924 11C17.0049 14.6996 14.4676 16.4571 11 16.4571C9.95916 16.4571 9.00046 16.2968 8.1239 15.9762L6.93946 17.1607C8.15691 17.7228 9.51043 18.0039 11 18.0039C15.1293 18.0039 18.2102 15.8533 20.2426 11.5522C20.3243 11.3792 20.3667 11.1902 20.3667 10.9989C20.3667 10.8076 20.3243 10.6187 20.2426 10.4457ZM18.8768 3.55696L17.961 2.64001C17.945 2.62403 17.926 2.61135 17.9052 2.6027C17.8843 2.59405 17.8619 2.5896 17.8394 2.5896C17.8168 2.5896 17.7944 2.59405 17.7735 2.6027C17.7527 2.61135 17.7337 2.62403 17.7178 2.64001L15.368 4.98868C14.0725 4.32696 12.6165 3.9961 11 3.9961C6.87071 3.9961 3.78985 6.14669 1.75742 10.4479C1.67573 10.6209 1.63336 10.8098 1.63336 11.0011C1.63336 11.1924 1.67573 11.3813 1.75742 11.5543C2.56939 13.2645 3.54693 14.6352 4.69004 15.6666L2.41657 17.9395C2.38436 17.9717 2.36626 18.0154 2.36626 18.061C2.36626 18.1065 2.38436 18.1502 2.41657 18.1825L3.33373 19.0996C3.36596 19.1318 3.40966 19.1499 3.45523 19.1499C3.50079 19.1499 3.54449 19.1318 3.57672 19.0996L18.8768 3.80017C18.8928 3.7842 18.9055 3.76525 18.9141 3.74438C18.9228 3.72352 18.9272 3.70115 18.9272 3.67856C18.9272 3.65598 18.9228 3.63361 18.9141 3.61275C18.9055 3.59188 18.8928 3.57292 18.8768 3.55696ZM3.20762 11C4.99727 7.3004 7.53458 5.54298 11 5.54298C12.1718 5.54298 13.2372 5.74407 14.2038 6.15292L12.6934 7.66327C11.9781 7.28163 11.1591 7.13999 10.3572 7.25925C9.5553 7.37851 8.81295 7.75235 8.23968 8.32562C7.66641 8.89889 7.29257 9.64124 7.17331 10.4432C7.05405 11.2451 7.19569 12.0641 7.57733 12.7794L5.7851 14.5716C4.79317 13.6961 3.93809 12.5099 3.20762 11ZM8.50782 11C8.5082 10.6212 8.59793 10.2478 8.76974 9.9101C8.94155 9.57245 9.19058 9.28009 9.4966 9.05677C9.80263 8.83345 10.157 8.68546 10.531 8.62483C10.9049 8.56421 11.2879 8.59265 11.6488 8.70785L8.6219 11.7348C8.54604 11.4972 8.50755 11.2494 8.50782 11Z" fill="#888888"/>
<path d="M10.914 13.4063C10.8397 13.4063 10.7664 13.4028 10.6938 13.3962L9.55902 14.531C10.2416 14.7924 10.9852 14.8505 11.7 14.6982C12.4149 14.546 13.0703 14.1899 13.5871 13.6731C14.1039 13.1563 14.46 12.5009 14.6122 11.786C14.7645 11.0712 14.7064 10.3276 14.445 9.64502L13.3102 10.7798C13.3168 10.8524 13.3203 10.9257 13.3203 11C13.3205 11.3161 13.2583 11.6291 13.1375 11.9211C13.0166 12.2131 12.8394 12.4784 12.6159 12.7019C12.3924 12.9254 12.1271 13.1026 11.8351 13.2235C11.5431 13.3443 11.2301 13.4064 10.914 13.4063Z" fill="#888888"/>
</svg>
