<svg width="26" height="30" viewBox="0 0 26 30" fill="none" xmlns="http://www.w3.org/2000/svg">
<path fill-rule="evenodd" clip-rule="evenodd" d="M4.68742 0H16.7174L25.2182 8.86058V26.0945C25.2182 28.2534 23.4715 30 21.3201 30H4.68742C2.52851 30 0.781891 28.2534 0.781891 26.0945V3.90553C0.781853 1.74662 2.52847 0 4.68742 0Z" fill="#E5252A"/>
<path opacity="0.302" fill-rule="evenodd" clip-rule="evenodd" d="M16.7099 0V8.79311H25.2182L16.7099 0Z" fill="white"/>
<path d="M6.12219 22.9041V16.9041H8.67488C9.3069 16.9041 9.8076 17.0764 10.1852 17.4294C10.5627 17.7741 10.7515 18.242 10.7515 18.8247C10.7515 19.4075 10.5627 19.8753 10.1852 20.2201C9.8076 20.573 9.3069 20.7454 8.67488 20.7454H7.65708V22.9041H6.12219ZM7.65708 19.4403H8.50251C8.73232 19.4403 8.9129 19.3911 9.03604 19.2762C9.15914 19.1695 9.22485 19.0217 9.22485 18.8248C9.22485 18.6278 9.15919 18.48 9.03604 18.3733C8.91294 18.2584 8.73236 18.2092 8.50251 18.2092H7.65708V19.4403ZM11.3835 22.9041V16.9041H13.5094C13.928 16.9041 14.322 16.9615 14.6913 17.0846C15.0606 17.2077 15.3972 17.3801 15.6927 17.6182C15.9882 17.848 16.2262 18.1599 16.3986 18.5539C16.5627 18.9479 16.653 19.3993 16.653 19.9082C16.653 20.4089 16.5627 20.8603 16.3986 21.2542C16.2262 21.6482 15.9882 21.9601 15.6927 22.1899C15.3972 22.428 15.0606 22.6003 14.6913 22.7235C14.322 22.8466 13.928 22.9041 13.5094 22.9041H11.3835ZM12.8856 21.599H13.3288C13.5668 21.599 13.7884 21.5744 13.9936 21.5169C14.1906 21.4595 14.3794 21.3692 14.56 21.2461C14.7323 21.123 14.8719 20.9506 14.9704 20.7208C15.0689 20.491 15.1181 20.2201 15.1181 19.9082C15.1181 19.588 15.0689 19.3172 14.9704 19.0874C14.8719 18.8576 14.7323 18.6852 14.56 18.5621C14.3794 18.439 14.1906 18.3487 13.9936 18.2912C13.7884 18.2338 13.5668 18.2091 13.3288 18.2091H12.8856V21.599ZM17.4246 22.9041V16.9041H21.6927V18.2091H18.9595V19.1694H21.1428V20.4663H18.9595V22.9041H17.4246Z" fill="white"/>
</svg>
