<svg width="16" height="17" viewBox="0 0 16 17" fill="none" xmlns="http://www.w3.org/2000/svg">
<path d="M7.72727 13.9091C7.8801 13.9091 8.0295 13.8638 8.15658 13.7789C8.28365 13.694 8.38269 13.5733 8.44118 13.4321C8.49967 13.2909 8.51497 13.1355 8.48515 12.9856C8.45534 12.8357 8.38174 12.698 8.27367 12.59C8.16561 12.4819 8.02792 12.4083 7.87802 12.3785C7.72813 12.3487 7.57276 12.364 7.43156 12.4225C7.29037 12.4809 7.16968 12.58 7.08477 12.7071C6.99987 12.8341 6.95455 12.9835 6.95455 13.1364C6.95455 13.3413 7.03596 13.5379 7.18087 13.6828C7.32579 13.8277 7.52233 13.9091 7.72727 13.9091ZM11.5909 13.9091C11.7437 13.9091 11.8931 13.8638 12.0202 13.7789C12.1473 13.694 12.2463 13.5733 12.3048 13.4321C12.3633 13.2909 12.3786 13.1355 12.3488 12.9856C12.319 12.8357 12.2454 12.698 12.1373 12.59C12.0292 12.4819 11.8916 12.4083 11.7417 12.3785C11.5918 12.3487 11.4364 12.364 11.2952 12.4225C11.154 12.4809 11.0333 12.58 10.9484 12.7071C10.8635 12.8341 10.8182 12.9835 10.8182 13.1364C10.8182 13.3413 10.8996 13.5379 11.0445 13.6828C11.1894 13.8277 11.386 13.9091 11.5909 13.9091ZM11.5909 10.8182C11.7437 10.8182 11.8931 10.7729 12.0202 10.688C12.1473 10.603 12.2463 10.4824 12.3048 10.3412C12.3633 10.2 12.3786 10.0446 12.3488 9.8947C12.319 9.74481 12.2454 9.60712 12.1373 9.49905C12.0292 9.39099 11.8916 9.31739 11.7417 9.28757C11.5918 9.25776 11.4364 9.27306 11.2952 9.33155C11.154 9.39003 11.0333 9.48908 10.9484 9.61615C10.8635 9.74322 10.8182 9.89262 10.8182 10.0455C10.8182 10.2504 10.8996 10.4469 11.0445 10.5919C11.1894 10.7368 11.386 10.8182 11.5909 10.8182ZM7.72727 10.8182C7.8801 10.8182 8.0295 10.7729 8.15658 10.688C8.28365 10.603 8.38269 10.4824 8.44118 10.3412C8.49967 10.2 8.51497 10.0446 8.48515 9.8947C8.45534 9.74481 8.38174 9.60712 8.27367 9.49905C8.16561 9.39099 8.02792 9.31739 7.87802 9.28757C7.72813 9.25776 7.57276 9.27306 7.43156 9.33155C7.29037 9.39003 7.16968 9.48908 7.08477 9.61615C6.99987 9.74322 6.95455 9.89262 6.95455 10.0455C6.95455 10.2504 7.03596 10.4469 7.18087 10.5919C7.32579 10.7368 7.52233 10.8182 7.72727 10.8182ZM13.1364 1.54545H12.3636V0.772727C12.3636 0.567787 12.2822 0.371241 12.1373 0.226327C11.9924 0.0814121 11.7958 0 11.5909 0C11.386 0 11.1894 0.0814121 11.0445 0.226327C10.8996 0.371241 10.8182 0.567787 10.8182 0.772727V1.54545H4.63636V0.772727C4.63636 0.567787 4.55495 0.371241 4.41004 0.226327C4.26512 0.0814121 4.06858 0 3.86364 0C3.6587 0 3.46215 0.0814121 3.31724 0.226327C3.17232 0.371241 3.09091 0.567787 3.09091 0.772727V1.54545H2.31818C1.70336 1.54545 1.11372 1.78969 0.67898 2.22443C0.244236 2.65918 0 3.24882 0 3.86364V14.6818C0 15.2966 0.244236 15.8863 0.67898 16.321C1.11372 16.7558 1.70336 17 2.31818 17H13.1364C13.7512 17 14.3408 16.7558 14.7756 16.321C15.2103 15.8863 15.4545 15.2966 15.4545 14.6818V3.86364C15.4545 3.24882 15.2103 2.65918 14.7756 2.22443C14.3408 1.78969 13.7512 1.54545 13.1364 1.54545ZM13.9091 14.6818C13.9091 14.8868 13.8277 15.0833 13.6828 15.2282C13.5379 15.3731 13.3413 15.4545 13.1364 15.4545H2.31818C2.11324 15.4545 1.9167 15.3731 1.77178 15.2282C1.62687 15.0833 1.54545 14.8868 1.54545 14.6818V7.72727H13.9091V14.6818ZM13.9091 6.18182H1.54545V3.86364C1.54545 3.6587 1.62687 3.46215 1.77178 3.31724C1.9167 3.17232 2.11324 3.09091 2.31818 3.09091H3.09091V3.86364C3.09091 4.06858 3.17232 4.26512 3.31724 4.41004C3.46215 4.55495 3.6587 4.63636 3.86364 4.63636C4.06858 4.63636 4.26512 4.55495 4.41004 4.41004C4.55495 4.26512 4.63636 4.06858 4.63636 3.86364V3.09091H10.8182V3.86364C10.8182 4.06858 10.8996 4.26512 11.0445 4.41004C11.1894 4.55495 11.386 4.63636 11.5909 4.63636C11.7958 4.63636 11.9924 4.55495 12.1373 4.41004C12.2822 4.26512 12.3636 4.06858 12.3636 3.86364V3.09091H13.1364C13.3413 3.09091 13.5379 3.17232 13.6828 3.31724C13.8277 3.46215 13.9091 3.6587 13.9091 3.86364V6.18182ZM3.86364 10.8182C4.01647 10.8182 4.16587 10.7729 4.29294 10.688C4.42002 10.603 4.51906 10.4824 4.57754 10.3412C4.63603 10.2 4.65133 10.0446 4.62152 9.8947C4.5917 9.74481 4.51811 9.60712 4.41004 9.49905C4.30197 9.39099 4.16428 9.31739 4.01439 9.28757C3.86449 9.25776 3.70912 9.27306 3.56793 9.33155C3.42673 9.39003 3.30605 9.48908 3.22114 9.61615C3.13623 9.74322 3.09091 9.89262 3.09091 10.0455C3.09091 10.2504 3.17232 10.4469 3.31724 10.5919C3.46215 10.7368 3.6587 10.8182 3.86364 10.8182ZM3.86364 13.9091C4.01647 13.9091 4.16587 13.8638 4.29294 13.7789C4.42002 13.694 4.51906 13.5733 4.57754 13.4321C4.63603 13.2909 4.65133 13.1355 4.62152 12.9856C4.5917 12.8357 4.51811 12.698 4.41004 12.59C4.30197 12.4819 4.16428 12.4083 4.01439 12.3785C3.86449 12.3487 3.70912 12.364 3.56793 12.4225C3.42673 12.4809 3.30605 12.58 3.22114 12.7071C3.13623 12.8341 3.09091 12.9835 3.09091 13.1364C3.09091 13.3413 3.17232 13.5379 3.31724 13.6828C3.46215 13.8277 3.6587 13.9091 3.86364 13.9091Z" fill="#0056A1"/>
</svg>
