<svg width="20" height="20" viewBox="0 0 20 20" fill="none" xmlns="http://www.w3.org/2000/svg">
<path d="M16.8197 10.9167C16.6181 10.9167 16.4072 10.8525 16.2056 10.8067C15.7972 10.7167 15.3958 10.5972 15.0047 10.4492C14.5795 10.2945 14.112 10.3025 13.6923 10.4717C13.2727 10.641 12.9304 10.9594 12.7314 11.3658L12.5297 11.7783C11.6369 11.2817 10.8165 10.6648 10.0914 9.94501C9.3716 9.21994 8.75473 8.39951 8.25806 7.50668L8.64306 7.25001C9.04948 7.05102 9.36794 6.70875 9.53717 6.28906C9.7064 5.86938 9.71443 5.40193 9.55973 4.97668C9.41418 4.58473 9.29475 4.18358 9.20223 3.77585C9.15639 3.57418 9.11973 3.36335 9.09223 3.15251C8.98091 2.50683 8.64272 1.92211 8.13855 1.50365C7.63438 1.08519 6.99736 0.860486 6.34223 0.870011H3.59223C3.19717 0.866302 2.80596 0.947757 2.44521 1.10883C2.08446 1.2699 1.76266 1.50682 1.5017 1.80344C1.24075 2.10006 1.04677 2.44942 0.932965 2.82775C0.819164 3.20608 0.788216 3.60448 0.842226 3.99584C1.33057 7.83611 3.08442 11.4042 5.82674 14.1366C8.56906 16.869 12.1435 18.6098 15.9856 19.0842H16.3339C17.0099 19.0852 17.6625 18.8372 18.1672 18.3875C18.4572 18.1281 18.6889 17.8102 18.8469 17.4546C19.0049 17.0991 19.0857 16.7141 19.0839 16.325V13.575C19.0727 12.9383 18.8408 12.3252 18.4279 11.8404C18.0149 11.3556 17.4466 11.0291 16.8197 10.9167ZM17.2781 16.4167C17.2779 16.5468 17.25 16.6755 17.1963 16.794C17.1425 16.9125 17.0642 17.0183 16.9664 17.1042C16.8643 17.1931 16.7445 17.2595 16.615 17.299C16.4855 17.3385 16.3491 17.3502 16.2147 17.3333C12.7817 16.8932 9.59294 15.3226 7.15138 12.8694C4.70982 10.4163 3.15444 7.22007 2.73056 3.78501C2.71597 3.65074 2.72876 3.5149 2.76814 3.3857C2.80753 3.25651 2.87271 3.13664 2.95973 3.03334C3.04563 2.93557 3.15137 2.8572 3.26991 2.80346C3.38845 2.74972 3.51707 2.72184 3.64723 2.72168H6.39723C6.61039 2.71693 6.81855 2.78665 6.98586 2.91883C7.15317 3.051 7.26917 3.23737 7.31389 3.44584C7.35056 3.6964 7.39639 3.9439 7.45139 4.18834C7.55729 4.67156 7.69821 5.14643 7.87306 5.60918L6.58973 6.20501C6.48 6.25536 6.3813 6.32688 6.29929 6.41547C6.21728 6.50407 6.15358 6.60799 6.11184 6.72127C6.07011 6.83456 6.05116 6.95497 6.05609 7.07559C6.06102 7.19622 6.08972 7.31468 6.14056 7.42418C7.45983 10.25 9.73137 12.5216 12.5572 13.8408C12.7804 13.9325 13.0307 13.9325 13.2539 13.8408C13.3682 13.8 13.4733 13.7368 13.563 13.6549C13.6527 13.5731 13.7252 13.4743 13.7764 13.3642L14.3447 12.0808C14.8186 12.2503 15.3023 12.3911 15.7931 12.5025C16.0375 12.5575 16.285 12.6033 16.5356 12.64C16.744 12.6847 16.9304 12.8007 17.0626 12.968C17.1948 13.1354 17.2645 13.3435 17.2597 13.5567L17.2781 16.4167Z" fill="#BBBBBB"/>
</svg>
