<svg width="16" height="15" viewBox="0 0 16 15" fill="none" xmlns="http://www.w3.org/2000/svg">
<path d="M13.1791 8.27389C13.013 8.27389 12.8394 8.22104 12.6733 8.1833C12.337 8.10919 12.0065 8.01079 11.6844 7.88889C11.3342 7.76149 10.9492 7.7681 10.6036 7.90746C10.258 8.04683 9.97612 8.30909 9.81225 8.64378L9.64617 8.98349C8.9109 8.57447 8.23526 8.06646 7.63815 7.4737C7.04538 6.87659 6.53738 6.20094 6.12836 5.46568L6.44542 5.25431C6.78011 5.09043 7.04237 4.80856 7.18174 4.46294C7.3211 4.11732 7.32772 3.73237 7.20031 3.38217C7.08045 3.05939 6.9821 2.72903 6.9059 2.39326C6.86816 2.22718 6.83796 2.05355 6.81532 1.87993C6.72364 1.34819 6.44513 0.866664 6.02994 0.522052C5.61474 0.177441 5.09015 -0.00760469 4.55063 0.00023953H2.28595C1.96061 -0.00281518 1.63844 0.0642647 1.34135 0.196913C1.04427 0.32956 0.779261 0.524662 0.564357 0.768935C0.349454 1.01321 0.189706 1.30092 0.0959888 1.61248C0.00227125 1.92404 -0.0232156 2.25213 0.0212633 2.57443C0.423425 5.73697 1.86776 8.6754 4.12612 10.9256C6.38448 13.1757 9.32814 14.6093 12.4921 15H12.779C13.3357 15.0008 13.8731 14.7966 14.2888 14.4263C14.5276 14.2127 14.7184 13.9508 14.8485 13.658C14.9786 13.3652 15.0452 13.0482 15.0437 12.7278V10.4631C15.0344 9.93872 14.8435 9.43382 14.5034 9.03457C14.1634 8.63531 13.6953 8.36646 13.1791 8.27389ZM13.5565 12.8033C13.5564 12.9104 13.5334 13.0164 13.4892 13.114C13.4449 13.2116 13.3804 13.2987 13.2999 13.3694C13.2158 13.4427 13.1172 13.4973 13.0105 13.5298C12.9038 13.5624 12.7915 13.572 12.6808 13.5581C9.85369 13.1957 7.22767 11.9023 5.21699 9.88203C3.20631 7.86178 1.92542 5.22965 1.57635 2.4008C1.56433 2.29023 1.57486 2.17836 1.6073 2.07197C1.63974 1.96557 1.69341 1.86686 1.76507 1.78179C1.83581 1.70127 1.92289 1.63673 2.02051 1.59248C2.11813 1.54822 2.22406 1.52526 2.33124 1.52513H4.59592C4.77147 1.52122 4.94289 1.57863 5.08068 1.68748C5.21846 1.79633 5.31399 1.94981 5.35082 2.12149C5.38102 2.32783 5.41876 2.53165 5.46405 2.73296C5.55126 3.1309 5.66732 3.52196 5.81131 3.90304L4.75445 4.39373C4.66409 4.43519 4.58281 4.49409 4.51527 4.56705C4.44773 4.64001 4.39527 4.72559 4.3609 4.81888C4.32653 4.91217 4.31093 5.01133 4.31499 5.11067C4.31905 5.21 4.34269 5.30756 4.38455 5.39774C5.471 7.72489 7.34166 9.59556 9.66882 10.682C9.8526 10.7575 10.0588 10.7575 10.2425 10.682C10.3367 10.6483 10.4232 10.5963 10.4971 10.5289C10.5709 10.4615 10.6307 10.3801 10.6728 10.2895L11.1409 9.2326C11.5311 9.37216 11.9294 9.48812 12.3336 9.57985C12.5349 9.62515 12.7387 9.66289 12.9451 9.69309C13.1167 9.72992 13.2702 9.82545 13.3791 9.96323C13.4879 10.101 13.5453 10.2724 13.5414 10.448L13.5565 12.8033Z" fill="#888888"/>
</svg>
