<svg width="16" height="16" viewBox="0 0 16 16" fill="none" xmlns="http://www.w3.org/2000/svg">
<path opacity="0.4" d="M9.17481 7.99997L15.2498 1.92497C15.3863 1.76556 15.4577 1.56049 15.4496 1.35076C15.4415 1.14103 15.3545 0.942083 15.2061 0.793671C15.0577 0.645259 14.8588 0.558315 14.649 0.550214C14.4393 0.542113 14.2342 0.613452 14.0748 0.749974L7.99981 6.82497L1.92482 0.74164C1.7654 0.605118 1.56033 0.53378 1.3506 0.541881C1.14087 0.549982 0.941925 0.636925 0.793513 0.785338C0.645101 0.93375 0.558157 1.1327 0.550056 1.34243C0.541955 1.55216 0.613293 1.75722 0.749815 1.91664L6.82482 7.99997L0.741482 14.075C0.654247 14.1497 0.583397 14.2416 0.533377 14.345C0.483358 14.4484 0.455249 14.561 0.450816 14.6758C0.446383 14.7905 0.465722 14.905 0.507617 15.0119C0.549513 15.1188 0.613061 15.216 0.694273 15.2972C0.775486 15.3784 0.872608 15.4419 0.979546 15.4838C1.08648 15.5257 1.20093 15.5451 1.31569 15.5406C1.43046 15.5362 1.54307 15.5081 1.64646 15.4581C1.74984 15.4081 1.84178 15.3372 1.91648 15.25L7.99981 9.17497L14.0748 15.25C14.2342 15.3865 14.4393 15.4578 14.649 15.4497C14.8588 15.4416 15.0577 15.3547 15.2061 15.2063C15.3545 15.0579 15.4415 14.8589 15.4496 14.6492C15.4577 14.4395 15.3863 14.2344 15.2498 14.075L9.17481 7.99997Z" fill="black"/>
</svg>
