<svg width="18" height="18" viewBox="0 0 18 18" fill="none" xmlns="http://www.w3.org/2000/svg">
<path d="M15.3 3.6H12.6V2.7C12.6 1.98392 12.3155 1.29716 11.8092 0.790812C11.3028 0.284464 10.6161 0 9.9 0H8.1C7.38392 0 6.69716 0.284464 6.19081 0.790812C5.68446 1.29716 5.4 1.98392 5.4 2.7V3.6H2.7C1.98392 3.6 1.29716 3.88446 0.790812 4.39081C0.284464 4.89716 0 5.58391 0 6.3V14.4C0 15.1161 0.284464 15.8028 0.790812 16.3092C1.29716 16.8155 1.98392 17.1 2.7 17.1H15.3C16.0161 17.1 16.7028 16.8155 17.2092 16.3092C17.7155 15.8028 18 15.1161 18 14.4V6.3C18 5.58391 17.7155 4.89716 17.2092 4.39081C16.7028 3.88446 16.0161 3.6 15.3 3.6ZM7.2 2.7C7.2 2.4613 7.29482 2.23239 7.4636 2.0636C7.63239 1.89482 7.8613 1.8 8.1 1.8H9.9C10.1387 1.8 10.3676 1.89482 10.5364 2.0636C10.7052 2.23239 10.8 2.4613 10.8 2.7V3.6H7.2V2.7ZM16.2 14.4C16.2 14.6387 16.1052 14.8676 15.9364 15.0364C15.7676 15.2052 15.5387 15.3 15.3 15.3H2.7C2.46131 15.3 2.23239 15.2052 2.0636 15.0364C1.89482 14.8676 1.8 14.6387 1.8 14.4V9.45C4.09163 10.3591 6.53462 10.8263 9 10.827C11.4653 10.8255 13.9081 10.3583 16.2 9.45V14.4ZM16.2 7.479C13.9306 8.476 11.4788 8.9908 9 8.9908C6.52121 8.9908 4.06944 8.476 1.8 7.479V6.3C1.8 6.0613 1.89482 5.83239 2.0636 5.6636C2.23239 5.49482 2.46131 5.4 2.7 5.4H15.3C15.5387 5.4 15.7676 5.49482 15.9364 5.6636C16.1052 5.83239 16.2 6.0613 16.2 6.3V7.479Z" fill="white"/>
</svg>
