<svg width="248" height="191" viewBox="0 0 248 191" fill="none" xmlns="http://www.w3.org/2000/svg">
<path d="M116.088 189.597C124.196 189.597 130.769 183.024 130.769 174.915C130.769 166.806 124.196 160.232 116.088 160.232C107.98 160.232 101.407 166.806 101.407 174.915C101.407 183.024 107.98 189.597 116.088 189.597Z" fill="#0056A1"/>
<path d="M203.795 188.772C212.008 186.306 220.74 183.733 227.254 177.869C233.074 172.628 237.004 164.626 234.593 156.767C232.186 148.924 224.978 143.694 217.536 141.093C213.315 139.618 208.9 138.799 204.485 138.156C199.687 137.457 194.867 136.885 190.05 136.334C170.543 134.102 150.964 132.739 131.311 132.245C121.613 132 111.917 132.006 102.218 132.147C93.5567 132.273 84.4343 132.27 76.3989 128.588C70.1502 125.725 64.4789 120.516 62.7378 113.671C60.728 105.77 64.4351 97.7233 69.7529 92.0009C72.556 88.9845 75.832 86.4458 79.2116 84.1114C82.8779 81.5789 86.672 79.2258 90.5483 77.0292C98.183 72.7051 106.165 69.0251 114.411 66.0273C118.479 64.548 122.607 63.2718 126.771 62.0944C130.287 61.1003 133.814 60.1047 137.213 58.7502C143.782 56.1316 150.03 51.6962 151.701 44.4246C153.284 37.5329 150.615 30.0514 145.935 24.9316C140.521 19.0085 132.358 16.4119 124.532 15.9918C115.746 15.5202 107.163 17.7193 98.9049 20.5102C90.0971 23.4869 81.4793 26.9097 72.4855 29.3208C63.5668 31.7094 54.4756 33.3995 45.2945 34.3756C40.8 34.8542 36.1697 35.3947 31.6484 35.0283C27.8592 34.7212 24.0894 33.6067 21.2968 30.9173C18.9023 28.6112 17.4759 25.4419 17.9663 22.0973C18.0554 21.4899 18.9781 21.7481 18.8896 22.3519C18.2926 26.4232 21.0598 30.1748 24.4698 32.0965C28.4108 34.3175 33.2065 34.3205 37.5942 34.0665C47.108 33.4918 56.5574 32.1257 65.8444 29.9823C74.9699 27.8978 83.7696 24.918 92.5592 21.7348C100.907 18.7116 109.442 15.761 118.36 15.1061C126.098 14.538 134.239 15.6654 140.98 19.7098C146.905 23.2643 151.262 29.192 152.65 35.9942C154.007 42.6411 152.128 49.3314 147.097 53.9699C141.888 58.7725 134.745 60.8258 128.089 62.7168C119.646 65.1153 111.385 67.919 103.388 71.5593C95.2827 75.2388 87.509 79.6095 80.1534 84.623C73.0533 89.4754 66.0464 95.5809 63.8008 104.237C62.7548 108.27 62.9479 112.547 64.6982 116.355C66.2544 119.742 68.8174 122.591 71.8032 124.788C78.927 130.03 87.9056 131.107 96.5106 131.214C106.175 131.334 115.84 131.008 125.508 131.166C145.21 131.49 164.872 132.689 184.494 134.765C189.411 135.285 194.322 135.86 199.226 136.49C203.637 137.057 208.063 137.621 212.4 138.627C220.112 140.417 227.616 143.859 232.409 150.398C234.536 153.233 235.854 156.591 236.222 160.116C236.557 163.794 235.657 167.48 233.994 170.752C230.314 177.994 223.419 182.601 216.098 185.627C212.176 187.248 208.109 188.477 204.049 189.696C203.458 189.873 203.205 188.95 203.795 188.772L203.795 188.772Z" fill="#F2F2F2"/>
<path d="M18.5846 29.844C22.815 29.844 26.2444 26.4143 26.2444 22.1835C26.2444 17.9527 22.815 14.523 18.5846 14.523C14.3542 14.523 10.9248 17.9527 10.9248 22.1835C10.9248 26.4143 14.3542 29.844 18.5846 29.844Z" fill="#F2F2F2"/>
<path d="M71.7247 44.367C75.9551 44.367 79.3846 40.9373 79.3846 36.7065C79.3846 32.4757 75.9551 29.046 71.7247 29.046C67.4944 29.046 64.0649 32.4757 64.0649 36.7065C64.0649 40.9373 67.4944 44.367 71.7247 44.367Z" fill="#F2F2F2"/>
<path d="M116.726 15.321C120.957 15.321 124.386 11.8913 124.386 7.6605C124.386 3.42972 120.957 0 116.726 0C112.496 0 109.066 3.42972 109.066 7.6605C109.066 11.8913 112.496 15.321 116.726 15.321Z" fill="#F2F2F2"/>
<path d="M144.812 47.8781C149.043 47.8781 152.472 44.4484 152.472 40.2176C152.472 35.9869 149.043 32.5571 144.812 32.5571C140.582 32.5571 137.152 35.9869 137.152 40.2176C137.152 44.4484 140.582 47.8781 144.812 47.8781Z" fill="#F2F2F2"/>
<path d="M106.832 85.5422C111.063 85.5422 114.492 82.1125 114.492 77.8817C114.492 73.6509 111.063 70.2212 106.832 70.2212C102.602 70.2212 99.1724 73.6509 99.1724 77.8817C99.1724 82.1125 102.602 85.5422 106.832 85.5422Z" fill="#F2F2F2"/>
<path d="M58.6398 103.736C62.8702 103.736 66.2996 100.306 66.2996 96.0755C66.2996 91.8447 62.8702 88.415 58.6398 88.415C54.4094 88.415 50.98 91.8447 50.98 96.0755C50.98 100.306 54.4094 103.736 58.6398 103.736Z" fill="#F2F2F2"/>
<path d="M109.705 132.144C113.935 132.144 117.365 128.714 117.365 124.483C117.365 120.252 113.935 116.823 109.705 116.823C105.474 116.823 102.045 120.252 102.045 124.483C102.045 128.714 105.474 132.144 109.705 132.144Z" fill="#F2F2F2"/>
<path d="M164.6 148.103C168.831 148.103 172.26 144.673 172.26 140.442C172.26 136.212 168.831 132.782 164.6 132.782C160.37 132.782 156.94 136.212 156.94 140.442C156.94 144.673 160.37 148.103 164.6 148.103Z" fill="#F2F2F2"/>
<path d="M228.751 144.592C232.981 144.592 236.41 141.162 236.41 136.931C236.41 132.701 232.981 129.271 228.751 129.271C224.52 129.271 221.091 132.701 221.091 136.931C221.091 141.162 224.52 144.592 228.751 144.592Z" fill="#F2F2F2"/>
<path d="M114.515 21.7058C91.5699 21.8679 72.7828 40.5155 72.4569 63.4608C72.4539 63.6726 72.4525 65.1622 72.4527 67.1104C72.4528 69.967 73.5875 72.7065 75.6071 74.7265C77.6268 76.7464 80.366 77.8814 83.2223 77.8817H83.2223C84.6382 77.8814 86.0402 77.6021 87.3481 77.0597C88.6561 76.5173 89.8443 75.7225 90.845 74.7206C91.8456 73.7188 92.6391 72.5296 93.18 71.221C93.7209 69.9123 93.9987 68.5099 93.9975 67.0939C93.9964 65.7686 93.9957 64.8513 93.9957 64.795C93.995 61.2489 94.9173 57.7636 96.6719 54.682C98.4266 51.6005 100.953 49.0288 104.003 47.22C107.053 45.4112 110.521 44.4275 114.066 44.3658C117.612 44.304 121.112 45.1663 124.223 46.8678C127.334 48.5693 129.948 51.0515 131.809 54.07C133.67 57.0886 134.713 60.5397 134.836 64.0837C134.959 67.6277 134.157 71.1427 132.509 74.2828C130.862 77.4229 128.425 80.08 125.439 81.9927L125.443 81.9972C125.443 81.9972 110.114 91.8663 105.441 105.405L105.445 105.406C104.623 108.179 104.207 111.057 104.209 113.95C104.209 115.139 104.279 125.543 104.414 133.988C104.461 136.901 105.652 139.68 107.729 141.723C109.806 143.767 112.604 144.912 115.517 144.911H115.518C116.982 144.911 118.431 144.621 119.783 144.059C121.135 143.496 122.362 142.672 123.394 141.634C124.426 140.595 125.243 139.363 125.797 138.007C126.351 136.652 126.631 135.2 126.622 133.736C126.575 126.003 126.55 116.997 126.55 116.344C126.55 108.031 134.569 99.7477 141.156 94.3462C148.741 88.1262 154.199 79.6499 156.392 70.0883C156.877 68.1197 157.144 66.1038 157.189 64.0769C157.189 58.4867 156.083 52.9518 153.935 47.7911C151.786 42.6303 148.638 37.9457 144.671 34.0072C140.705 30.0687 135.998 26.9541 130.822 24.8428C125.647 22.7316 120.104 21.6654 114.515 21.7058Z" fill="#0056A1"/>
<path d="M178.98 87.1368C184.268 87.1368 188.555 82.8497 188.555 77.5612C188.555 72.2727 184.268 67.9856 178.98 67.9856C173.692 67.9856 169.405 72.2727 169.405 77.5612C169.405 82.8497 173.692 87.1368 178.98 87.1368Z" fill="#2F2E41"/>
<path d="M161.286 185.808H157.374L155.512 170.715H161.287L161.286 185.808Z" fill="#A0616A"/>
<path d="M154.579 184.69H162.126V189.442H149.828C149.828 188.818 149.951 188.2 150.19 187.623C150.429 187.047 150.779 186.523 151.22 186.082C151.661 185.641 152.185 185.291 152.761 185.052C153.338 184.813 153.955 184.69 154.579 184.69Z" fill="#888888"/>
<path d="M191.607 185.808H187.694L185.833 170.715H191.608L191.607 185.808Z" fill="#A0616A"/>
<path d="M184.9 184.69H192.446V189.442H180.148C180.148 188.818 180.271 188.2 180.51 187.623C180.749 187.047 181.099 186.523 181.54 186.082C181.981 185.641 182.505 185.291 183.081 185.052C183.658 184.813 184.276 184.69 184.9 184.69Z" fill="#888888"/>
<path d="M177.525 87.1928C181.854 87.1928 185.364 83.6829 185.364 79.3532C185.364 75.0235 181.854 71.5136 177.525 71.5136C173.196 71.5136 169.686 75.0235 169.686 79.3532C169.686 83.6829 173.196 87.1928 177.525 87.1928Z" fill="#A0616A"/>
<path d="M182.197 112.483L185.704 104.424C186.556 102.533 186.8 100.425 186.403 98.3895C186.006 96.3542 184.987 94.4924 183.486 93.0609C183.178 92.7563 182.851 92.4716 182.506 92.2087C180.776 90.8547 178.643 90.1167 176.446 90.1116C174.968 90.1174 173.51 90.4418 172.169 91.0628C172.054 91.1139 171.942 91.1681 171.827 91.2224C171.607 91.3277 171.39 91.4426 171.18 91.5607C169.806 92.3497 168.636 93.4506 167.766 94.7746C166.895 96.0986 166.348 97.6086 166.169 99.1829L164.621 112.155C164.231 113.173 150.342 149.943 155.199 178.016C155.251 178.316 155.397 178.591 155.617 178.802C155.836 179.013 156.117 179.148 156.418 179.187L161.343 179.858C161.703 179.907 162.068 179.818 162.364 179.609C162.661 179.4 162.867 179.086 162.942 178.731L171.205 139.34C171.257 139.095 171.389 138.875 171.58 138.714C171.772 138.553 172.012 138.461 172.261 138.453C172.511 138.444 172.757 138.52 172.959 138.667C173.161 138.815 173.307 139.026 173.375 139.266L185.05 180.691C185.133 180.992 185.313 181.257 185.561 181.446C185.81 181.635 186.114 181.738 186.426 181.738C186.519 181.737 186.612 181.728 186.703 181.712L192.72 180.553C193.069 180.488 193.382 180.294 193.596 180.01C193.811 179.726 193.911 179.372 193.878 179.018C192.994 169.158 188.296 119.771 182.197 112.483Z" fill="#1B79CB"/>
<path d="M147.061 85.8774C147.007 86.3435 147.055 86.8158 147.203 87.2611C147.351 87.7064 147.595 88.1139 147.917 88.4548C148.239 88.7958 148.633 89.0619 149.069 89.2344C149.505 89.4069 149.974 89.4817 150.442 89.4534L154.824 99.9841L158.139 95.0704L153.47 85.8236C153.37 85.0399 152.986 84.32 152.391 83.8003C151.796 83.2806 151.031 82.9972 150.241 83.0038C149.452 83.0105 148.692 83.3066 148.105 83.8363C147.519 84.3659 147.148 85.0921 147.061 85.8774L147.061 85.8774Z" fill="#A0616A"/>
<path d="M177.09 123.087C177.556 123.031 178.004 122.874 178.403 122.627C178.801 122.379 179.141 122.047 179.397 121.654C179.654 121.261 179.821 120.817 179.887 120.352C179.953 119.888 179.916 119.414 179.78 118.965L188.999 112.25L183.449 110.172L175.545 116.867C174.806 117.147 174.195 117.687 173.829 118.387C173.462 119.087 173.365 119.897 173.555 120.664C173.746 121.43 174.211 122.1 174.862 122.547C175.514 122.994 176.307 123.186 177.09 123.087Z" fill="#A0616A"/>
<path d="M162.062 107.005C161.708 107.004 161.356 106.97 161.009 106.901C160.171 106.741 159.384 106.378 158.719 105.843C158.054 105.307 157.531 104.617 157.196 103.832L151.057 96.3456C150.927 96.1874 150.833 96.0032 150.78 95.8054C150.727 95.6077 150.717 95.4009 150.751 95.199C150.784 94.9971 150.861 94.8047 150.975 94.6347C151.089 94.4647 151.238 94.321 151.412 94.2133L155.779 91.5095C155.94 91.4097 156.12 91.3427 156.307 91.3126C156.494 91.2825 156.686 91.2897 156.87 91.334C157.055 91.3782 157.228 91.4585 157.382 91.5703C157.535 91.682 157.664 91.8231 157.763 91.9852L162.09 99.1139L170.375 92.9898C171.035 92.6439 171.797 92.5468 172.523 92.7165C173.248 92.8861 173.888 93.311 174.326 93.9137C174.764 94.5163 174.97 95.2564 174.908 95.9987C174.845 96.7411 174.518 97.4361 173.985 97.9568L165.715 105.501C164.743 106.465 163.43 107.005 162.062 107.005Z" fill="#1B79CB"/>
<path d="M184.451 118.263C184.439 118.263 184.428 118.263 184.417 118.263C184.215 118.258 184.017 118.211 183.835 118.124C183.653 118.038 183.491 117.915 183.36 117.762L179.477 113.231C179.345 113.077 179.247 112.896 179.19 112.701C179.132 112.506 179.117 112.302 179.145 112.1C179.173 111.899 179.243 111.706 179.351 111.534C179.459 111.361 179.602 111.214 179.771 111.101L187.042 106.254L180.455 98.3339C180.072 97.6951 179.931 96.9397 180.059 96.2057C180.187 95.4718 180.574 94.8083 181.151 94.3366C181.727 93.8648 182.454 93.6161 183.199 93.6361C183.943 93.6561 184.656 93.9434 185.206 94.4454L193.212 102.27C193.842 102.845 194.323 103.565 194.614 104.368C194.904 105.17 194.996 106.031 194.88 106.877C194.765 107.722 194.446 108.527 193.951 109.223C193.456 109.918 192.8 110.483 192.039 110.869L185.496 117.812C185.361 117.954 185.199 118.068 185.02 118.145C184.84 118.223 184.646 118.263 184.451 118.263Z" fill="#1B79CB"/>
<path d="M175.532 101.57C175.47 101.57 175.407 101.566 175.346 101.558C175.075 101.525 174.82 101.416 174.61 101.242C174.4 101.068 174.244 100.838 174.161 100.579L171.243 91.6321C171.17 91.4059 171.182 91.1609 171.275 90.9423C171.369 90.7238 171.538 90.5465 171.752 90.4432L171.847 90.3985C171.933 90.3576 172.018 90.3173 172.105 90.2786C173.465 89.6476 174.946 89.3184 176.446 89.3137C178.393 89.3173 180.297 89.8894 181.923 90.9597C182.141 91.1048 182.294 91.3298 182.348 91.5862C182.401 91.8426 182.352 92.1098 182.211 92.3304L176.737 100.906C176.609 101.11 176.431 101.278 176.22 101.394C176.009 101.51 175.773 101.57 175.532 101.57Z" fill="#E6E6E6"/>
<path d="M186.529 73.2864C188.259 73.2864 189.662 71.8835 189.662 70.153C189.662 68.4225 188.259 67.0197 186.529 67.0197C184.798 67.0197 183.396 68.4225 183.396 70.153C183.396 71.8835 184.798 73.2864 186.529 73.2864Z" fill="#2F2E41"/>
<path d="M175.788 66.7088C173.588 66.7088 171.477 67.5831 169.921 69.1395C168.365 70.6958 167.49 72.8067 167.49 75.0077V78.5188H171.808L173.873 75.0077L174.493 78.5188H187.597L184.087 75.0077C184.087 72.8067 183.212 70.6958 181.656 69.1395C180.1 67.5831 177.989 66.7088 175.788 66.7088Z" fill="#2F2E41"/>
<path d="M188.139 68.0066C188.485 66.9232 189.202 65.9965 190.165 65.3897C191.127 64.7828 192.272 64.5345 193.399 64.6885C195.395 65.0223 196.974 66.6274 197.915 68.4201C198.855 70.2129 199.29 72.2193 199.922 74.1425C200.554 76.0658 201.451 77.9995 203.047 79.2444C204.644 80.4894 207.093 80.8271 208.661 79.5464C208.482 80.8811 207.888 82.1257 206.963 83.1042C206.038 84.0827 204.828 84.7455 203.506 84.9989C202.183 85.2524 200.815 85.0836 199.593 84.5164C198.372 83.9493 197.36 83.0125 196.7 81.8385C195.873 80.3665 195.659 78.6413 195.414 76.9706C195.169 75.2999 194.85 73.5713 193.862 72.2018C192.875 70.8323 191.026 69.9378 189.457 70.5616L188.139 68.0066Z" fill="#2F2E41"/>
<path d="M86.2636 72.7869C83.4073 72.7866 80.6681 71.6516 78.6484 69.6317C76.6287 67.6117 75.494 64.8722 75.4939 62.0156C75.4937 60.0674 75.4951 58.5778 75.4981 58.366C75.5888 51.6928 77.2693 45.1375 80.4 39.2438C75.2563 46.286 72.428 54.7529 72.3065 63.473C72.3035 63.6848 72.3021 65.1744 72.3023 67.1226C72.3024 69.9792 73.4371 72.7187 75.4568 74.7387C77.4765 76.7586 80.2157 77.8936 83.072 77.8939C85.4191 77.893 87.7018 77.126 89.5732 75.7093C91.4447 74.2927 92.8027 72.3038 93.4408 70.0449C91.4688 71.8135 88.9124 72.7901 86.2636 72.7869Z" fill="#3F3D56"/>
<path d="M115.245 44.4019C118.547 44.5596 121.762 45.5165 124.613 47.1903C127.464 48.8641 129.866 51.2049 131.613 54.0117C133.36 56.8184 134.4 60.0073 134.643 63.3045C134.886 66.6016 134.326 69.9086 133.01 72.9414C134.913 70.7054 136.313 68.0851 137.112 65.2592C137.911 62.4334 138.092 59.4683 137.642 56.5663C137.191 53.6642 136.121 50.8934 134.503 48.4427C132.885 45.9919 130.757 43.919 128.265 42.3651C125.774 40.8112 122.976 39.8129 120.063 39.4383C117.151 39.0637 114.192 39.3215 111.388 40.1943C108.584 41.0671 106.001 42.5342 103.816 44.4957C101.63 46.4572 99.8935 48.8669 98.7236 51.5606C100.746 49.1818 103.287 47.2992 106.151 46.058C109.016 44.8169 112.127 44.2502 115.245 44.4019Z" fill="#3F3D56"/>
<path d="M118.558 139.816C115.645 139.817 112.847 138.672 110.77 136.628C108.693 134.585 107.502 131.807 107.455 128.893C107.32 120.448 107.25 110.044 107.25 108.855C107.248 105.962 107.664 103.085 108.486 100.311L108.482 100.31C108.967 98.9181 109.553 97.5631 110.236 96.2562C108.141 99.0473 106.475 102.135 105.29 105.417L105.294 105.418C104.473 108.192 104.056 111.069 104.058 113.962C104.058 115.151 104.128 125.555 104.263 134C104.31 136.914 105.501 139.692 107.578 141.735C109.656 143.779 112.453 144.924 115.367 144.923C117.769 144.923 120.107 144.143 122.029 142.702C123.951 141.26 125.354 139.235 126.027 136.928C123.986 138.79 121.321 139.82 118.558 139.816Z" fill="#3F3D56"/>
<path d="M18.7915 185.954L22.704 185.953L24.5657 170.86L18.7905 170.86L18.7915 185.954Z" fill="#FFB8B8"/>
<path d="M30.251 189.587L17.9536 189.587L17.9533 184.836L25.4995 184.835C26.7596 184.835 27.9681 185.336 28.8592 186.227C29.7503 187.118 30.2509 188.327 30.251 189.587Z" fill="#888888"/>
<path d="M4.749 185.954L8.66158 185.953L10.5232 170.86L4.74805 170.86L4.749 185.954Z" fill="#FFB8B8"/>
<path d="M16.2075 189.587L3.9101 189.587L3.90989 184.836L11.456 184.835C12.7161 184.835 13.9247 185.336 14.8158 186.227C15.7068 187.118 16.2075 188.327 16.2075 189.587L16.2075 189.587Z" fill="#888888"/>
<path d="M8.16783 181.312L4.3459 181.111C4.14882 181.1 3.95576 181.051 3.7779 180.965C3.60004 180.88 3.44092 180.76 3.30976 180.612C3.17859 180.465 3.07799 180.293 3.01378 180.106C2.94957 179.92 2.92303 179.722 2.93569 179.525L7.50371 128.945L28.5398 134.622L30.5665 134.069L24.2286 178.846C24.1746 179.183 24.0073 179.491 23.7544 179.72C23.5015 179.949 23.1781 180.085 22.8376 180.105L18.7176 180.297C18.5116 180.309 18.3055 180.277 18.1122 180.205C17.919 180.133 17.7428 180.021 17.5949 179.877C17.447 179.733 17.3305 179.56 17.2529 179.369C17.1752 179.178 17.138 178.973 17.1437 178.766L17.8902 151.892C17.8937 151.768 17.8505 151.647 17.7692 151.553C17.6879 151.459 17.5743 151.398 17.4508 151.384C17.3273 151.37 17.2029 151.402 17.1021 151.475C17.0013 151.547 16.9314 151.655 16.9062 151.777L9.70694 180.125C9.63898 180.461 9.45649 180.764 9.19057 180.98C8.92465 181.197 8.59176 181.315 8.24866 181.314C8.22189 181.314 8.19494 181.313 8.16783 181.312Z" fill="#1B79CB"/>
<path d="M19.4941 87.5594C23.8234 87.5594 27.333 84.0495 27.333 79.7199C27.333 75.3902 23.8234 71.8803 19.4941 71.8803C15.1649 71.8803 11.6553 75.3902 11.6553 79.7199C11.6553 84.0495 15.1649 87.5594 19.4941 87.5594Z" fill="#FFB8B8"/>
<path d="M6.44294 102.752L7.30485 121.35L7.61643 128.117C7.62885 128.411 7.72884 128.695 7.90363 128.933C8.07842 129.17 8.32006 129.35 8.59762 129.449L28.8119 136.773C28.9752 136.833 29.1482 136.864 29.3224 136.862C29.5215 136.863 29.7188 136.824 29.9024 136.747C30.086 136.67 30.2523 136.557 30.3912 136.414C30.5301 136.272 30.6389 136.102 30.711 135.917C30.7831 135.731 30.817 135.533 30.8109 135.334L29.9821 101.894C29.9277 99.1499 28.9178 96.5113 27.1267 94.4325C25.3355 92.3537 22.8752 90.965 20.17 90.5058C19.9745 90.476 19.7755 90.4461 19.5766 90.4196C17.8992 90.2114 16.1964 90.3733 14.5883 90.8939C12.9801 91.4145 11.5055 92.2813 10.2683 93.4331C8.98724 94.6115 7.9806 96.0569 7.31957 97.6672C6.65855 99.2776 6.35929 101.013 6.44293 102.752L6.44294 102.752Z" fill="#CCCCCC"/>
<path d="M38.4683 133.061C37.9902 132.913 37.5534 132.655 37.1927 132.308C36.8321 131.961 36.5576 131.534 36.3911 131.062C36.2246 130.59 36.1708 130.085 36.234 129.588C36.2971 129.092 36.4755 128.617 36.7548 128.201L29.8999 119.085L35.8153 118.719L41.4179 127.432C42.0177 127.896 42.4351 128.556 42.5968 129.297C42.7585 130.038 42.6543 130.812 42.3024 131.483C41.9505 132.155 41.3734 132.681 40.6723 132.97C39.9713 133.258 39.191 133.291 38.4683 133.061H38.4683Z" fill="#FFB8B8"/>
<path d="M33.6483 126.552C33.4667 126.478 33.3015 126.369 33.1623 126.231C33.0231 126.093 32.9126 125.929 32.8373 125.748L22.5099 101.14C22.3073 100.659 22.2015 100.142 22.1988 99.6189C22.196 99.0962 22.2963 98.5781 22.4938 98.0942C22.6914 97.6103 22.9824 97.1701 23.3501 96.7987C23.7179 96.4273 24.1552 96.132 24.6371 95.9298C25.119 95.7275 25.636 95.6221 26.1587 95.6198C26.6813 95.6174 27.1993 95.7181 27.683 95.9161C28.1667 96.114 28.6066 96.4053 28.9777 96.7734C29.3488 97.1415 29.6437 97.5791 29.8456 98.0612L40.173 122.669C40.3256 123.034 40.3273 123.444 40.1777 123.81C40.0281 124.177 39.7394 124.468 39.3749 124.622L34.7901 126.546C34.6096 126.623 34.4157 126.662 34.2197 126.663C34.0238 126.664 33.8295 126.626 33.6483 126.552L33.6483 126.552Z" fill="#CCCCCC"/>
<path d="M16.9744 125.684L26.8936 106.689C27.0849 106.324 27.4133 106.05 27.8067 105.926C28.2001 105.803 28.6264 105.84 28.9921 106.031L43.3898 113.551C43.7551 113.742 44.0296 114.07 44.153 114.464C44.2765 114.857 44.2388 115.284 44.0484 115.649L34.1292 134.644C33.9379 135.009 33.6095 135.284 33.2161 135.407C32.8227 135.531 32.3964 135.493 32.0307 135.303L17.633 127.782C17.2677 127.591 16.9932 127.263 16.8698 126.869C16.7463 126.476 16.7839 126.05 16.9744 125.684Z" fill="#1B79CB"/>
<path d="M23.6264 117.006C23.4501 116.537 23.1667 116.116 22.7988 115.777C22.4309 115.437 21.9888 115.188 21.5077 115.05C21.0266 114.912 20.5198 114.888 20.0278 114.98C19.5358 115.073 19.0722 115.279 18.674 115.582L9.16997 109.277L9.15381 115.204L18.1815 120.283C18.6798 120.854 19.3634 121.232 20.1124 121.35C20.8614 121.467 21.6278 121.318 22.2774 120.927C22.927 120.536 23.4182 119.928 23.6649 119.211C23.9116 118.495 23.8979 117.714 23.6264 117.006Z" fill="#FFB8B8"/>
<path d="M11.6098 118.339L3.84255 112.185C3.00228 111.903 2.24303 111.421 1.62996 110.781C1.0169 110.141 0.568344 109.361 0.322792 108.51C0.0772409 107.658 0.0420308 106.759 0.220187 105.891C0.398342 105.023 0.784543 104.21 1.34563 103.524L8.39813 94.2806C8.88822 93.6817 9.57747 93.2791 10.3399 93.1466C11.1023 93.014 11.887 93.1603 12.5504 93.5586C13.2139 93.957 13.7118 94.5809 13.9532 95.3162C14.1947 96.0515 14.1634 96.8491 13.8652 97.5633L8.28508 106.692L16.4855 110.582C16.6762 110.672 16.8456 110.802 16.9823 110.963C17.1191 111.124 17.2202 111.312 17.279 111.514C17.3378 111.717 17.3529 111.93 17.3233 112.139C17.2937 112.348 17.2201 112.548 17.1073 112.727L13.7971 117.966C13.6852 118.143 13.5374 118.294 13.3633 118.41C13.1892 118.526 12.9926 118.604 12.7864 118.64C12.7782 118.641 12.77 118.642 12.7617 118.644C12.5591 118.674 12.3523 118.663 12.1542 118.611C11.956 118.558 11.7708 118.466 11.6098 118.339Z" fill="#CCCCCC"/>
<path d="M13.5712 84.9694C13.5376 84.871 13.5269 84.7662 13.54 84.663C13.5531 84.5598 13.5897 84.461 13.6469 84.3742C13.7041 84.2873 13.7804 84.2147 13.8699 84.1619C13.9595 84.1091 14.06 84.0775 14.1637 84.0696C14.376 84.0811 14.5838 84.1356 14.7744 84.2297C14.9651 84.3237 15.1347 84.4555 15.2731 84.6169C15.5568 84.9441 15.8871 85.2277 16.2533 85.4587C16.6325 85.6498 17.1468 85.6226 17.363 85.2582C17.566 84.9159 17.4269 84.4576 17.304 84.0601C16.9912 83.0487 16.8163 81.9998 16.7838 80.9416C16.7484 79.7605 16.915 78.5279 17.5688 77.6067C18.4126 76.4178 19.9215 75.9665 21.3494 75.9992C22.7773 76.032 24.1821 76.4728 25.5965 76.7514C26.0848 76.8476 26.6587 76.8968 26.9853 76.5184C27.3326 76.1159 27.205 75.4646 27.0573 74.9212C26.674 73.5112 26.2674 72.0534 25.3769 70.9147C24.414 69.7314 23.0385 68.957 21.5275 68.7474C20.0769 68.5677 18.6044 68.7349 17.2309 69.2352C14.9932 69.9406 13.0243 71.3124 11.5873 73.1671C10.106 75.1396 9.46587 77.6185 9.80697 80.0617C10.1402 82.1895 11.2677 84.112 12.9621 85.4414L13.5712 84.9694Z" fill="#2F2E41"/>
<path d="M112.854 186.016C110.768 185.108 108.922 183.727 107.462 181.983C106.001 180.239 104.966 178.179 104.437 175.966C103.909 173.753 103.902 171.448 104.417 169.232C104.932 167.016 105.955 164.951 107.405 163.198C105.724 164.425 104.323 165.997 103.295 167.807C102.268 169.618 101.637 171.627 101.445 173.7C101.252 175.773 101.503 177.863 102.181 179.832C102.858 181.801 103.946 183.603 105.373 185.119C106.8 186.635 108.533 187.83 110.457 188.625C112.381 189.42 114.453 189.796 116.533 189.729C118.614 189.663 120.657 189.154 122.526 188.237C124.395 187.32 126.048 186.017 127.375 184.412C125.305 185.925 122.876 186.869 120.328 187.15C117.78 187.432 115.203 187.041 112.854 186.016Z" fill="#3F3D56"/>
<path d="M235.667 190H0.331713C0.243649 190 0.159281 189.947 0.0971005 189.853C0.0349199 189.759 0 189.632 0 189.5C0 189.368 0.0349199 189.241 0.0971005 189.147C0.159281 189.053 0.243649 189 0.331713 189H235.667C235.756 189 235.84 189.053 235.903 189.146C235.965 189.24 236 189.367 236 189.5C236 189.633 235.965 189.76 235.903 189.854C235.84 189.947 235.756 190 235.667 190Z" fill="#888888"/>
</svg>
