<svg width="22" height="22" viewBox="0 0 22 22" fill="none" xmlns="http://www.w3.org/2000/svg">
<path d="M10.7241 13.8048C10.7217 13.8048 10.7193 13.8048 10.7168 13.8048C10.2683 13.8008 9.90758 13.4339 9.91164 12.985L9.9153 12.5788C9.9153 12.5556 9.91651 12.532 9.91895 12.5089C10.0315 11.3271 10.816 10.6028 11.4469 10.0206C11.6605 9.82316 11.8629 9.63669 12.0351 9.4421C12.2451 9.20525 12.5498 8.72019 12.2293 8.13478C11.86 7.45878 10.9581 7.26744 10.2574 7.42791C9.5253 7.59528 9.25554 8.2205 9.15967 8.578C9.04348 9.01147 8.59783 9.26863 8.16436 9.15285C7.73089 9.03666 7.47373 8.591 7.58951 8.15753C7.91329 6.94813 8.75342 6.10516 9.89417 5.84394C11.4294 5.49335 12.9756 6.11369 13.6544 7.35478C14.2195 8.38828 14.0647 9.60094 13.2502 10.5199C13.0239 10.775 12.7822 10.9984 12.5482 11.2142C11.9652 11.7524 11.6008 12.1124 11.5391 12.632L11.5358 12.9988C11.5326 13.4461 11.1694 13.8048 10.7241 13.8048Z" fill="#888888"/>
<path d="M10.7236 16.2407C10.5124 16.2407 10.3011 16.1554 10.1508 16.005C9.99645 15.8547 9.91113 15.6435 9.91113 15.4282C9.91113 15.2169 9.99645 15.0057 10.1508 14.8554C10.4514 14.5547 10.9958 14.5547 11.2964 14.8554C11.4508 15.0057 11.5361 15.2169 11.5361 15.4282C11.5361 15.6435 11.4508 15.8507 11.3005 16.005C11.1461 16.1554 10.9389 16.2407 10.7236 16.2407Z" fill="#888888"/>
<path d="M10.9687 21.5613C10.0445 21.5613 9.1284 21.4411 8.24561 21.2034C4.44149 20.1801 1.46287 17.0288 0.657272 13.1747C-0.163759 9.24827 1.35155 5.12077 4.51827 2.6593C6.34883 1.23621 8.65755 0.452148 11.0195 0.452148C12.6546 0.452148 14.2784 0.832399 15.7157 1.55105C19.2651 3.32677 21.5584 7.03665 21.5584 11.0029C21.5584 14.2391 20.0313 17.3582 17.4736 19.3464C15.6365 20.7748 13.3262 21.5613 10.9687 21.5613ZM11.0199 2.07715C9.01749 2.07715 7.06262 2.73934 5.51602 3.94224C2.83599 6.02549 1.55305 9.51884 2.24815 12.842C2.92983 16.1021 5.4498 18.7683 8.66811 19.6341C9.41318 19.8343 10.1875 19.9363 10.9687 19.9363H10.9691C12.9671 19.9363 14.9227 19.2713 16.4766 18.0635C18.6416 16.3808 19.9338 13.7414 19.9338 11.0029C19.9338 7.64684 17.9932 4.50734 14.9894 3.00462C13.7763 2.39809 12.404 2.07715 11.0199 2.07715Z" fill="#888888"/>
</svg>
