<svg width="22" height="22" viewBox="0 0 22 22" fill="none" xmlns="http://www.w3.org/2000/svg">
<path d="M10.7249 13.8048C10.7224 13.8048 10.72 13.8048 10.7176 13.8048C10.2691 13.8008 9.90831 13.4339 9.91237 12.985L9.91603 12.5788C9.91603 12.5556 9.91725 12.532 9.91968 12.5089C10.0322 11.3271 10.8167 10.6028 11.4476 10.0206C11.6613 9.82316 11.8636 9.63669 12.0358 9.4421C12.2459 9.20525 12.5506 8.72019 12.23 8.13478C11.8607 7.45878 10.9589 7.26744 10.2581 7.42791C9.52603 7.59528 9.25628 8.2205 9.1604 8.578C9.04421 9.01147 8.59856 9.26863 8.16509 9.15285C7.73162 9.03666 7.47446 8.591 7.59024 8.15753C7.91403 6.94813 8.75415 6.10516 9.8949 5.84394C11.4301 5.49335 12.9763 6.11369 13.6552 7.35478C14.2203 8.38828 14.0655 9.60094 13.2509 10.5199C13.0247 10.775 12.7829 10.9984 12.5489 11.2142C11.966 11.7524 11.6016 12.1124 11.5398 12.632L11.5366 12.9988C11.5333 13.4461 11.1701 13.8048 10.7249 13.8048Z" fill="#888888"/>
<path d="M10.7246 16.2407C10.5134 16.2407 10.3021 16.1554 10.1518 16.005C9.99742 15.8547 9.91211 15.6435 9.91211 15.4282C9.91211 15.2169 9.99742 15.0057 10.1518 14.8554C10.4524 14.5547 10.9968 14.5547 11.2974 14.8554C11.4518 15.0057 11.5371 15.2169 11.5371 15.4282C11.5371 15.6435 11.4518 15.8507 11.3015 16.005C11.1471 16.1554 10.9399 16.2407 10.7246 16.2407Z" fill="#888888"/>
<path d="M10.9692 21.5613C10.045 21.5613 9.12888 21.4411 8.2461 21.2034C4.44198 20.1801 1.46335 17.0288 0.65776 13.1747C-0.163271 9.24827 1.35204 5.12077 4.51876 2.6593C6.34932 1.23621 8.65804 0.452148 11.02 0.452148C12.6551 0.452148 14.2789 0.832399 15.7162 1.55105C19.2656 3.32677 21.5589 7.03665 21.5589 11.0029C21.5589 14.2391 20.0318 17.3582 17.4741 19.3464C15.637 20.7748 13.3267 21.5613 10.9692 21.5613ZM11.0204 2.07715C9.01798 2.07715 7.0631 2.73934 5.51651 3.94224C2.83648 6.02549 1.55354 9.51884 2.24864 12.842C2.93032 16.1021 5.45029 18.7683 8.6686 19.6341C9.41367 19.8343 10.188 19.9363 10.9692 19.9363H10.9696C12.9675 19.9363 14.9232 19.2713 16.4771 18.0635C18.642 16.3808 19.9343 13.7414 19.9343 11.0029C19.9343 7.64684 17.9937 4.50734 14.9899 3.00462C13.7768 2.39809 12.4045 2.07715 11.0204 2.07715Z" fill="#888888"/>
</svg>
