<svg width="20" height="18" viewBox="0 0 20 18" fill="none" xmlns="http://www.w3.org/2000/svg">
<path d="M10.0002 8.99984C9.50571 8.99984 9.02236 9.14646 8.61124 9.42116C8.20011 9.69587 7.87968 10.0863 7.69046 10.5431C7.50124 10.9999 7.45174 11.5026 7.5482 11.9876C7.64466 12.4725 7.88276 12.918 8.23239 13.2676C8.58203 13.6172 9.02748 13.8553 9.51244 13.9518C9.99739 14.0483 10.5001 13.9988 10.9569 13.8095C11.4137 13.6203 11.8041 13.2999 12.0788 12.8888C12.3535 12.4776 12.5002 11.9943 12.5002 11.4998C12.5002 10.8368 12.2368 10.2009 11.7679 9.73207C11.2991 9.26323 10.6632 8.99984 10.0002 8.99984ZM10.0002 12.3332C9.83534 12.3332 9.67423 12.2843 9.53719 12.1927C9.40015 12.1012 9.29333 11.971 9.23026 11.8187C9.16719 11.6665 9.15069 11.4989 9.18284 11.3373C9.215 11.1756 9.29436 11.0271 9.41091 10.9106C9.52745 10.794 9.67594 10.7147 9.83759 10.6825C9.99924 10.6504 10.1668 10.6669 10.3191 10.7299C10.4713 10.793 10.6015 10.8998 10.6931 11.0369C10.7846 11.1739 10.8335 11.335 10.8335 11.4998C10.8335 11.7209 10.7457 11.9328 10.5894 12.0891C10.4331 12.2454 10.2212 12.3332 10.0002 12.3332ZM9.40849 7.0915C9.48775 7.16737 9.5812 7.22684 9.6835 7.2665C9.78325 7.31059 9.8911 7.33336 10.0002 7.33336C10.1092 7.33336 10.2171 7.31059 10.3168 7.2665C10.4191 7.22684 10.5126 7.16737 10.5918 7.0915L12.5002 5.2165C12.6615 5.05516 12.7521 4.83634 12.7521 4.60817C12.7521 4.38 12.6615 4.16118 12.5002 3.99984C12.3388 3.8385 12.12 3.74786 11.8918 3.74786C11.6637 3.74786 11.4448 3.8385 11.2835 3.99984L10.8335 4.4915V1.49984C10.8335 1.27882 10.7457 1.06686 10.5894 0.910582C10.4331 0.754301 10.2212 0.666504 10.0002 0.666504C9.77915 0.666504 9.56719 0.754301 9.41091 0.910582C9.25463 1.06686 9.16683 1.27882 9.16683 1.49984V4.4915L8.71683 3.99984C8.55549 3.8385 8.33666 3.74786 8.1085 3.74786C7.88033 3.74786 7.6615 3.8385 7.50016 3.99984C7.33882 4.16118 7.24818 4.38 7.24818 4.60817C7.24818 4.83634 7.33882 5.05516 7.50016 5.2165L9.40849 7.0915ZM15.8335 11.4998C15.8335 11.335 15.7846 11.1739 15.6931 11.0369C15.6015 10.8998 15.4713 10.793 15.3191 10.7299C15.1668 10.6669 14.9992 10.6504 14.8376 10.6825C14.6759 10.7147 14.5274 10.794 14.4109 10.9106C14.2944 11.0271 14.215 11.1756 14.1828 11.3373C14.1507 11.4989 14.1672 11.6665 14.2303 11.8187C14.2933 11.971 14.4001 12.1012 14.5372 12.1927C14.6742 12.2843 14.8353 12.3332 15.0002 12.3332C15.2212 12.3332 15.4331 12.2454 15.5894 12.0891C15.7457 11.9328 15.8335 11.7209 15.8335 11.4998ZM16.6668 5.6665H14.1668C13.9458 5.6665 13.7339 5.7543 13.5776 5.91058C13.4213 6.06686 13.3335 6.27882 13.3335 6.49984C13.3335 6.72085 13.4213 6.93281 13.5776 7.08909C13.7339 7.24537 13.9458 7.33317 14.1668 7.33317H16.6668C16.8878 7.33317 17.0998 7.42097 17.2561 7.57725C17.4124 7.73353 17.5002 7.94549 17.5002 8.1665V14.8332C17.5002 15.0542 17.4124 15.2661 17.2561 15.4224C17.0998 15.5787 16.8878 15.6665 16.6668 15.6665H3.3335C3.11248 15.6665 2.90052 15.5787 2.74424 15.4224C2.58796 15.2661 2.50016 15.0542 2.50016 14.8332V8.1665C2.50016 7.94549 2.58796 7.73353 2.74424 7.57725C2.90052 7.42097 3.11248 7.33317 3.3335 7.33317H5.8335C6.05451 7.33317 6.26647 7.24537 6.42275 7.08909C6.57903 6.93281 6.66683 6.72085 6.66683 6.49984C6.66683 6.27882 6.57903 6.06686 6.42275 5.91058C6.26647 5.7543 6.05451 5.6665 5.8335 5.6665H3.3335C2.67045 5.6665 2.03457 5.9299 1.56573 6.39874C1.09689 6.86758 0.833496 7.50346 0.833496 8.1665V14.8332C0.833496 15.4962 1.09689 16.1321 1.56573 16.6009C2.03457 17.0698 2.67045 17.3332 3.3335 17.3332H16.6668C17.3299 17.3332 17.9658 17.0698 18.4346 16.6009C18.9034 16.1321 19.1668 15.4962 19.1668 14.8332V8.1665C19.1668 7.50346 18.9034 6.86758 18.4346 6.39874C17.9658 5.9299 17.3299 5.6665 16.6668 5.6665ZM4.16683 11.4998C4.16683 11.6647 4.2157 11.8258 4.30727 11.9628C4.39884 12.0999 4.52899 12.2067 4.68126 12.2697C4.83353 12.3328 5.00109 12.3493 5.16274 12.3172C5.32439 12.285 5.47287 12.2056 5.58942 12.0891C5.70596 11.9725 5.78533 11.8241 5.81748 11.6624C5.84964 11.5008 5.83314 11.3332 5.77006 11.1809C5.70699 11.0287 5.60018 10.8985 5.46314 10.8069C5.3261 10.7154 5.16498 10.6665 5.00016 10.6665C4.77915 10.6665 4.56719 10.7543 4.41091 10.9106C4.25463 11.0669 4.16683 11.2788 4.16683 11.4998Z" fill="#888888"/>
</svg>
