<svg width="18" height="18" viewBox="0 0 18 18" fill="none" xmlns="http://www.w3.org/2000/svg">
<path d="M15.592 11.9248H11.817C11.596 11.9248 11.384 12.0126 11.2277 12.1689C11.0715 12.3252 10.9837 12.5372 10.9837 12.7582C10.9837 12.9792 11.0715 13.1911 11.2277 13.3474C11.384 13.5037 11.596 13.5915 11.817 13.5915H13.817C12.8978 14.5521 11.7123 15.2159 10.413 15.4977C9.1136 15.7794 7.75967 15.6662 6.52514 15.1725C5.29061 14.6789 4.23188 13.8274 3.48498 12.7275C2.73809 11.6275 2.33714 10.3294 2.33366 8.99984C2.33366 8.77882 2.24586 8.56686 2.08958 8.41058C1.9333 8.2543 1.72134 8.1665 1.50033 8.1665C1.27931 8.1665 1.06735 8.2543 0.91107 8.41058C0.75479 8.56686 0.666992 8.77882 0.666992 8.99984C0.671398 10.6272 1.15218 12.2176 2.05 13.5749C2.94781 14.9321 4.22338 15.9968 5.71928 16.6375C7.21517 17.2782 8.86594 17.467 10.4678 17.1804C12.0697 16.8938 13.5527 16.1445 14.7337 15.0248V16.4998C14.7337 16.7209 14.8215 16.9328 14.9777 17.0891C15.134 17.2454 15.346 17.3332 15.567 17.3332C15.788 17.3332 16 17.2454 16.1562 17.0891C16.3125 16.9328 16.4003 16.7209 16.4003 16.4998V12.7498C16.3983 12.5345 16.313 12.3284 16.1623 12.1746C16.0116 12.0208 15.8072 11.9313 15.592 11.9248ZM9.00033 0.666504C6.86398 0.672597 4.81157 1.49893 3.26699 2.97484V1.49984C3.26699 1.27882 3.1792 1.06686 3.02291 0.910582C2.86663 0.754301 2.65467 0.666504 2.43366 0.666504C2.21265 0.666504 2.00068 0.754301 1.8444 0.910582C1.68812 1.06686 1.60033 1.27882 1.60033 1.49984V5.24984C1.60033 5.47085 1.68812 5.68281 1.8444 5.83909C2.00068 5.99537 2.21265 6.08317 2.43366 6.08317H6.18366C6.40467 6.08317 6.61663 5.99537 6.77291 5.83909C6.92919 5.68281 7.01699 5.47085 7.01699 5.24984C7.01699 5.02882 6.92919 4.81686 6.77291 4.66058C6.61663 4.5043 6.40467 4.4165 6.18366 4.4165H4.18366C5.10238 3.4564 6.28707 2.79275 7.58566 2.51076C8.88425 2.22877 10.2375 2.34129 11.4717 2.83389C12.7058 3.32649 13.7647 4.17668 14.5122 5.27534C15.2597 6.374 15.6619 7.67099 15.667 8.99984C15.667 9.22085 15.7548 9.43281 15.9111 9.58909C16.0674 9.74537 16.2793 9.83317 16.5003 9.83317C16.7213 9.83317 16.9333 9.74537 17.0896 9.58909C17.2459 9.43281 17.3337 9.22085 17.3337 8.99984C17.3337 7.90549 17.1181 6.82186 16.6993 5.81081C16.2805 4.79976 15.6667 3.8811 14.8929 3.10728C14.1191 2.33346 13.2004 1.71963 12.1894 1.30084C11.1783 0.882052 10.0947 0.666504 9.00033 0.666504Z" fill="white"/>
</svg>
