<svg width="21" height="21" viewBox="0 0 21 21" fill="none" xmlns="http://www.w3.org/2000/svg">
<path d="M20.7597 9.92001C20.2092 9.36951 11.4836 0.643913 11.08 0.240326C10.7597 -0.0801086 10.2403 -0.0801086 9.92001 0.240326C9.47861 0.681725 0.7817 9.37848 0.240326 9.92001C-0.0801086 10.2403 -0.0801086 10.7597 0.240326 11.0801C0.5606 11.4004 1.08002 11.4004 1.4003 11.0801L1.61323 10.8672V20.1797C1.61323 20.6328 1.98061 21 2.43354 21H18.5665C19.0194 21 19.3868 20.6328 19.3868 20.1797V10.8672L19.5995 11.0801C19.92 11.4004 20.4394 11.4004 20.7597 11.0801C21.0801 10.7597 21.0801 10.2403 20.7597 9.92001ZM12.9063 19.3594H8.09385V14.5469H12.9063V19.3594ZM17.7461 19.3594H14.5469V13.7266C14.5469 13.2735 14.1797 12.9063 13.7266 12.9063H7.27354C6.82045 12.9063 6.45323 13.2735 6.45323 13.7266V19.3594H3.25401V9.22659L10.5 1.98045L17.7461 9.22659V19.3594Z" fill="#fff"/>
</svg>
