<svg width="17" height="18" viewBox="0 0 17 18" fill="none" xmlns="http://www.w3.org/2000/svg">
<path d="M15.5831 9.55048C15.4495 9.39841 15.3758 9.20291 15.3758 9.00048C15.3758 8.79806 15.4495 8.60256 15.5831 8.45048L16.6498 7.25048C16.7673 7.11937 16.8403 6.9544 16.8582 6.77924C16.8762 6.60407 16.8382 6.42772 16.7498 6.27548L15.0831 3.39215C14.9955 3.24008 14.8622 3.11955 14.702 3.04772C14.5419 2.9759 14.3632 2.95645 14.1914 2.99215L12.6248 3.30882C12.4254 3.35001 12.2179 3.31681 12.0413 3.21548C11.8648 3.11416 11.7314 2.95172 11.6664 2.75882L11.1581 1.23382C11.1022 1.0683 10.9957 0.924536 10.8536 0.822851C10.7115 0.721165 10.5411 0.666698 10.3664 0.667149H7.03308C6.85136 0.657664 6.67153 0.707921 6.52105 0.810244C6.37058 0.912567 6.25773 1.06133 6.19975 1.23382L5.73308 2.75882C5.66808 2.95172 5.53473 3.11416 5.35818 3.21548C5.18163 3.31681 4.9741 3.35001 4.77475 3.30882L3.16642 2.99215C3.00354 2.96913 2.8375 2.99483 2.68921 3.06602C2.54091 3.1372 2.417 3.25067 2.33308 3.39215L0.666417 6.27548C0.575718 6.42602 0.534936 6.60139 0.549903 6.7765C0.56487 6.95162 0.634819 7.11752 0.749751 7.25048L1.80808 8.45048C1.94168 8.60256 2.01536 8.79806 2.01536 9.00048C2.01536 9.20291 1.94168 9.39841 1.80808 9.55048L0.749751 10.7505C0.634819 10.8834 0.56487 11.0493 0.549903 11.2245C0.534936 11.3996 0.575718 11.5749 0.666417 11.7255L2.33308 14.6088C2.42067 14.7609 2.55402 14.8814 2.71413 14.9532C2.87424 15.0251 3.05294 15.0445 3.22475 15.0088L4.79142 14.6921C4.99077 14.651 5.1983 14.6842 5.37484 14.7855C5.55139 14.8868 5.68475 15.0492 5.74975 15.2421L6.25808 16.7671C6.31607 16.9396 6.42891 17.0884 6.57939 17.1907C6.72986 17.293 6.9097 17.3433 7.09142 17.3338H10.4248C10.5995 17.3343 10.7699 17.2798 10.9119 17.1781C11.054 17.0764 11.1605 16.9327 11.2164 16.7671L11.7248 15.2421C11.7898 15.0492 11.9231 14.8868 12.0997 14.7855C12.2762 14.6842 12.4837 14.651 12.6831 14.6921L14.2498 15.0088C14.4216 15.0445 14.6003 15.0251 14.7604 14.9532C14.9205 14.8814 15.0538 14.7609 15.1414 14.6088L16.8081 11.7255C16.8966 11.5732 16.9345 11.3969 16.9166 11.2217C16.8986 11.0466 16.8256 10.8816 16.7081 10.7505L15.5831 9.55048ZM14.3414 10.6671L15.0081 11.4171L13.9414 13.2671L12.9581 13.0671C12.3579 12.9445 11.7336 13.0464 11.2036 13.3537C10.6736 13.6609 10.2749 14.152 10.0831 14.7338L9.76642 15.6671H7.63308L7.33308 14.7171C7.1413 14.1354 6.74257 13.6442 6.21259 13.337C5.68261 13.0297 5.05827 12.9278 4.45808 13.0505L3.47475 13.2505L2.39142 11.4088L3.05808 10.6588C3.46805 10.2005 3.69469 9.60709 3.69469 8.99215C3.69469 8.37721 3.46805 7.78383 3.05808 7.32548L2.39142 6.57548L3.45808 4.74215L4.44142 4.94215C5.0416 5.06483 5.66594 4.96288 6.19592 4.65565C6.7259 4.34841 7.12463 3.85728 7.31642 3.27548L7.63308 2.33382H9.76642L10.0831 3.28382C10.2749 3.86561 10.6736 4.35675 11.2036 4.66398C11.7336 4.97122 12.3579 5.07317 12.9581 4.95048L13.9414 4.75048L15.0081 6.60048L14.3414 7.35048C13.9361 7.80778 13.7122 8.39772 13.7122 9.00882C13.7122 9.61992 13.9361 10.2098 14.3414 10.6671ZM8.69975 5.66715C8.04048 5.66715 7.39601 5.86265 6.84785 6.22892C6.29969 6.59519 5.87244 7.11578 5.62015 7.72487C5.36786 8.33396 5.30185 9.00418 5.43047 9.65078C5.55908 10.2974 5.87655 10.8913 6.34273 11.3575C6.8089 11.8237 7.40285 12.1411 8.04945 12.2698C8.69605 12.3984 9.36627 12.3324 9.97536 12.0801C10.5844 11.8278 11.105 11.4005 11.4713 10.8524C11.8376 10.3042 12.0331 9.65975 12.0331 9.00048C12.0331 8.11643 11.6819 7.26858 11.0568 6.64346C10.4317 6.01834 9.58381 5.66715 8.69975 5.66715ZM8.69975 10.6671C8.37012 10.6671 8.04788 10.5694 7.7738 10.3863C7.49972 10.2031 7.2861 9.94283 7.15995 9.63829C7.03381 9.33375 7.0008 8.99863 7.06511 8.67533C7.12942 8.35203 7.28815 8.05506 7.52124 7.82197C7.75433 7.58888 8.0513 7.43015 8.3746 7.36584C8.6979 7.30153 9.03301 7.33454 9.33756 7.46068C9.6421 7.58683 9.9024 7.80045 10.0855 8.07453C10.2687 8.34861 10.3664 8.67085 10.3664 9.00048C10.3664 9.44251 10.1908 9.86643 9.87826 10.179C9.5657 10.4916 9.14178 10.6671 8.69975 10.6671Z" fill="#0056A1"/>
</svg>
