<svg width="18" height="18" viewBox="0 0 18 18" fill="none" xmlns="http://www.w3.org/2000/svg">
<mask id="mask0_6663_9611" style="mask-type:alpha" maskUnits="userSpaceOnUse" x="0" y="0" width="18" height="18">
<rect width="18" height="18" fill="#D9D9D9"/>
</mask>
<g mask="url(#mask0_6663_9611)">
<path d="M6.93789 16.5L6.63789 14.1C6.47539 14.0375 6.32227 13.9625 6.17852 13.875C6.03477 13.7875 5.89414 13.6938 5.75664 13.5938L3.52539 14.5312L1.46289 10.9688L3.39414 9.50625C3.38164 9.41875 3.37539 9.33438 3.37539 9.25313V8.74688C3.37539 8.66563 3.38164 8.58125 3.39414 8.49375L1.46289 7.03125L3.52539 3.46875L5.75664 4.40625C5.89414 4.30625 6.03789 4.2125 6.18789 4.125C6.33789 4.0375 6.48789 3.9625 6.63789 3.9L6.93789 1.5H11.0629L11.3629 3.9C11.5254 3.9625 11.6785 4.0375 11.8223 4.125C11.966 4.2125 12.1066 4.30625 12.2441 4.40625L14.4754 3.46875L16.5379 7.03125L14.6066 8.49375C14.6191 8.58125 14.6254 8.66563 14.6254 8.74688V9.25313C14.6254 9.33438 14.6129 9.41875 14.5879 9.50625L16.5191 10.9688L14.4566 14.5312L12.2441 13.5938C12.1066 13.6938 11.9629 13.7875 11.8129 13.875C11.6629 13.9625 11.5129 14.0375 11.3629 14.1L11.0629 16.5H6.93789ZM9.03789 11.625C9.76289 11.625 10.3816 11.3688 10.8941 10.8563C11.4066 10.3438 11.6629 9.725 11.6629 9C11.6629 8.275 11.4066 7.65625 10.8941 7.14375C10.3816 6.63125 9.76289 6.375 9.03789 6.375C8.30039 6.375 7.67852 6.63125 7.17227 7.14375C6.66602 7.65625 6.41289 8.275 6.41289 9C6.41289 9.725 6.66602 10.3438 7.17227 10.8563C7.67852 11.3688 8.30039 11.625 9.03789 11.625ZM9.03789 10.125C8.72539 10.125 8.45977 10.0156 8.24102 9.79688C8.02227 9.57812 7.91289 9.3125 7.91289 9C7.91289 8.6875 8.02227 8.42188 8.24102 8.20312C8.45977 7.98438 8.72539 7.875 9.03789 7.875C9.35039 7.875 9.61602 7.98438 9.83477 8.20312C10.0535 8.42188 10.1629 8.6875 10.1629 9C10.1629 9.3125 10.0535 9.57812 9.83477 9.79688C9.61602 10.0156 9.35039 10.125 9.03789 10.125ZM8.25039 15H9.73164L9.99414 13.0125C10.3816 12.9125 10.741 12.7656 11.0723 12.5719C11.4035 12.3781 11.7066 12.1438 11.9816 11.8687L13.8379 12.6375L14.5691 11.3625L12.9566 10.1438C13.0191 9.96875 13.0629 9.78438 13.0879 9.59063C13.1129 9.39688 13.1254 9.2 13.1254 9C13.1254 8.8 13.1129 8.60313 13.0879 8.40938C13.0629 8.21563 13.0191 8.03125 12.9566 7.85625L14.5691 6.6375L13.8379 5.3625L11.9816 6.15C11.7066 5.8625 11.4035 5.62188 11.0723 5.42813C10.741 5.23438 10.3816 5.0875 9.99414 4.9875L9.75039 3H8.26914L8.00664 4.9875C7.61914 5.0875 7.25977 5.23438 6.92852 5.42813C6.59727 5.62188 6.29414 5.85625 6.01914 6.13125L4.16289 5.3625L3.43164 6.6375L5.04414 7.8375C4.98164 8.025 4.93789 8.2125 4.91289 8.4C4.88789 8.5875 4.87539 8.7875 4.87539 9C4.87539 9.2 4.88789 9.39375 4.91289 9.58125C4.93789 9.76875 4.98164 9.95625 5.04414 10.1438L3.43164 11.3625L4.16289 12.6375L6.01914 11.85C6.29414 12.1375 6.59727 12.3781 6.92852 12.5719C7.25977 12.7656 7.61914 12.9125 8.00664 13.0125L8.25039 15Z" fill="#0056A1"/>
</g>
</svg>
