<svg width="17" height="18" viewBox="0 0 17 18" fill="none" xmlns="http://www.w3.org/2000/svg">
<path d="M15.5836 9.55C15.45 9.39793 15.3763 9.20243 15.3763 9C15.3763 8.79758 15.45 8.60208 15.5836 8.45L16.6502 7.25C16.7678 7.11889 16.8408 6.95392 16.8587 6.77876C16.8767 6.60359 16.8387 6.42724 16.7502 6.275L15.0836 3.39167C14.996 3.2396 14.8626 3.11907 14.7025 3.04724C14.5424 2.97541 14.3637 2.95597 14.1919 2.99167L12.6252 3.30834C12.4259 3.34953 12.2184 3.31633 12.0418 3.215C11.8653 3.11368 11.7319 2.95124 11.6669 2.75834L11.1586 1.23334C11.1027 1.06782 10.9962 0.924056 10.8541 0.82237C10.712 0.720684 10.5416 0.666217 10.3669 0.666668H7.03357C6.85185 0.657183 6.67202 0.70744 6.52154 0.809763C6.37107 0.912086 6.25822 1.06085 6.20024 1.23334L5.73357 2.75834C5.66857 2.95124 5.53522 3.11368 5.35867 3.215C5.18212 3.31633 4.97459 3.34953 4.77524 3.30834L3.16691 2.99167C3.00403 2.96865 2.83799 2.99435 2.6897 3.06553C2.5414 3.13672 2.41749 3.25019 2.33357 3.39167L0.666906 6.275C0.576206 6.42554 0.535424 6.60091 0.550391 6.77602C0.565358 6.95114 0.635308 7.11704 0.750239 7.25L1.80857 8.45C1.94217 8.60208 2.01585 8.79758 2.01585 9C2.01585 9.20243 1.94217 9.39793 1.80857 9.55L0.750239 10.75C0.635308 10.883 0.565358 11.0489 0.550391 11.224C0.535424 11.3991 0.576206 11.5745 0.666906 11.725L2.33357 14.6083C2.42115 14.7604 2.5545 14.8809 2.71462 14.9528C2.87473 15.0246 3.05343 15.044 3.22524 15.0083L4.79191 14.6917C4.99125 14.6505 5.19878 14.6837 5.37533 14.785C5.55188 14.8863 5.68524 15.0488 5.75024 15.2417L6.25857 16.7667C6.31656 16.9392 6.4294 17.0879 6.57988 17.1902C6.73035 17.2926 6.91018 17.3428 7.09191 17.3333H10.4252C10.5999 17.3338 10.7704 17.2793 10.9124 17.1776C11.0545 17.0759 11.161 16.9322 11.2169 16.7667L11.7252 15.2417C11.7902 15.0488 11.9236 14.8863 12.1001 14.785C12.2767 14.6837 12.4842 14.6505 12.6836 14.6917L14.2502 15.0083C14.4221 15.044 14.6008 15.0246 14.7609 14.9528C14.921 14.8809 15.0543 14.7604 15.1419 14.6083L16.8086 11.725C16.8971 11.5728 16.935 11.3964 16.9171 11.2212C16.8991 11.0461 16.8261 10.8811 16.7086 10.75L15.5836 9.55ZM14.3419 10.6667L15.0086 11.4167L13.9419 13.2667L12.9586 13.0667C12.3584 12.944 11.734 13.0459 11.2041 13.3532C10.6741 13.6604 10.2754 14.1515 10.0836 14.7333L9.76691 15.6667H7.63357L7.33357 14.7167C7.14178 14.1349 6.74306 13.6437 6.21308 13.3365C5.6831 13.0293 5.05876 12.9273 4.45857 13.05L3.47524 13.25L2.39191 11.4083L3.05857 10.6583C3.46853 10.2 3.69518 9.60661 3.69518 8.99167C3.69518 8.37672 3.46853 7.78335 3.05857 7.325L2.39191 6.575L3.45857 4.74167L4.44191 4.94167C5.04209 5.06435 5.66643 4.9624 6.19641 4.65517C6.72639 4.34793 7.12512 3.8568 7.31691 3.275L7.63357 2.33334H9.76691L10.0836 3.28333C10.2754 3.86513 10.6741 4.35627 11.2041 4.6635C11.734 4.97074 12.3584 5.07269 12.9586 4.95L13.9419 4.75L15.0086 6.6L14.3419 7.35C13.9365 7.8073 13.7127 8.39724 13.7127 9.00834C13.7127 9.61943 13.9365 10.2094 14.3419 10.6667ZM8.70024 5.66667C8.04097 5.66667 7.3965 5.86217 6.84834 6.22844C6.30017 6.59471 5.87293 7.1153 5.62064 7.72439C5.36835 8.33348 5.30234 9.0037 5.43095 9.6503C5.55957 10.2969 5.87704 10.8909 6.34322 11.357C6.80939 11.8232 7.40333 12.1407 8.04994 12.2693C8.69654 12.3979 9.36676 12.3319 9.97585 12.0796C10.5849 11.8273 11.1055 11.4001 11.4718 10.8519C11.8381 10.3037 12.0336 9.65927 12.0336 9C12.0336 8.11595 11.6824 7.2681 11.0573 6.64298C10.4321 6.01786 9.58429 5.66667 8.70024 5.66667ZM8.70024 10.6667C8.3706 10.6667 8.04837 10.5689 7.77429 10.3858C7.50021 10.2026 7.28659 9.94235 7.16044 9.63781C7.03429 9.33326 7.00129 8.99815 7.0656 8.67485C7.12991 8.35155 7.28864 8.05458 7.52173 7.82149C7.75481 7.5884 8.05179 7.42967 8.37509 7.36536C8.69839 7.30105 9.0335 7.33406 9.33804 7.4602C9.64259 7.58635 9.90289 7.79997 10.086 8.07405C10.2692 8.34813 10.3669 8.67037 10.3669 9C10.3669 9.44203 10.1913 9.86595 9.87875 10.1785C9.56619 10.4911 9.14227 10.6667 8.70024 10.6667Z" fill="#888888"/>
</svg>
