<svg width="16" height="16" viewBox="0 0 16 16" fill="none" xmlns="http://www.w3.org/2000/svg">
<path d="M12.5 9.49999C12.0569 9.50292 11.6199 9.60398 11.2205 9.79591C10.8211 9.98783 10.4692 10.2659 10.19 10.61L6.36499 8.84749C6.54483 8.29681 6.54483 7.70318 6.36499 7.15249L10.19 5.38999C10.6412 5.93447 11.2702 6.30205 11.9661 6.42787C12.662 6.55369 13.3799 6.42966 13.9932 6.07767C14.6065 5.72568 15.0758 5.16835 15.3182 4.50405C15.5605 3.83975 15.5605 3.11118 15.318 2.44692C15.0755 1.78267 14.6061 1.22543 13.9927 0.873545C13.3794 0.521664 12.6614 0.397764 11.9656 0.523712C11.2697 0.64966 10.6408 1.01736 10.1896 1.56191C9.73853 2.10647 9.49428 2.79288 9.49999 3.49999C9.50225 3.67867 9.51981 3.85682 9.55249 4.03249L5.59249 5.85499C5.1703 5.44218 4.63567 5.16313 4.05559 5.05282C3.47552 4.9425 2.87578 5.00582 2.33153 5.23484C1.78728 5.46387 1.32271 5.84841 0.996041 6.34029C0.669369 6.83217 0.495117 7.40952 0.495117 7.99999C0.495117 8.59047 0.669369 9.16782 0.996041 9.6597C1.32271 10.1516 1.78728 10.5361 2.33153 10.7651C2.87578 10.9942 3.47552 11.0575 4.05559 10.9472C4.63567 10.8369 5.1703 10.5578 5.59249 10.145L9.55249 11.9675C9.51981 12.1432 9.50225 12.3213 9.49999 12.5C9.49999 13.0933 9.67594 13.6734 10.0056 14.1667C10.3352 14.6601 10.8038 15.0446 11.3519 15.2716C11.9001 15.4987 12.5033 15.5581 13.0853 15.4424C13.6672 15.3266 14.2018 15.0409 14.6213 14.6213C15.0409 14.2018 15.3266 13.6672 15.4423 13.0853C15.5581 12.5033 15.4987 11.9001 15.2716 11.3519C15.0446 10.8038 14.66 10.3352 14.1667 10.0056C13.6734 9.67594 13.0933 9.49999 12.5 9.49999ZM12.5 1.99999C12.7967 1.99999 13.0867 2.08797 13.3333 2.25279C13.58 2.41761 13.7723 2.65188 13.8858 2.92597C13.9993 3.20006 14.029 3.50166 13.9712 3.79263C13.9133 4.0836 13.7704 4.35088 13.5607 4.56065C13.3509 4.77043 13.0836 4.91329 12.7926 4.97117C12.5017 5.02905 12.2001 4.99935 11.926 4.88581C11.6519 4.77228 11.4176 4.58002 11.2528 4.33335C11.088 4.08668 11 3.79667 11 3.49999C11 3.10217 11.158 2.72064 11.4393 2.43933C11.7206 2.15803 12.1022 1.99999 12.5 1.99999ZM3.49999 9.49999C3.20332 9.49999 2.91331 9.41202 2.66664 9.2472C2.41996 9.08238 2.2277 8.84811 2.11417 8.57402C2.00064 8.29993 1.97093 7.99833 2.02881 7.70736C2.08669 7.41639 2.22955 7.14911 2.43933 6.93933C2.64911 6.72956 2.91638 6.58669 3.20736 6.52882C3.49833 6.47094 3.79993 6.50064 4.07402 6.61417C4.3481 6.72771 4.58237 6.91997 4.74719 7.16664C4.91202 7.41331 4.99999 7.70332 4.99999 7.99999C4.99999 8.39782 4.84196 8.77935 4.56065 9.06065C4.27935 9.34196 3.89782 9.49999 3.49999 9.49999ZM12.5 14C12.2033 14 11.9133 13.912 11.6666 13.7472C11.42 13.5824 11.2277 13.3481 11.1142 13.074C11.0006 12.7999 10.9709 12.4983 11.0288 12.2074C11.0867 11.9164 11.2296 11.6491 11.4393 11.4393C11.6491 11.2296 11.9164 11.0867 12.2074 11.0288C12.4983 10.9709 12.7999 11.0006 13.074 11.1142C13.3481 11.2277 13.5824 11.42 13.7472 11.6666C13.912 11.9133 14 12.2033 14 12.5C14 12.8978 13.842 13.2793 13.5607 13.5607C13.2793 13.842 12.8978 14 12.5 14Z" fill="white"/>
</svg>
