<svg width="16" height="16" viewBox="0 0 16 16" fill="none" xmlns="http://www.w3.org/2000/svg">
<path d="M9.8157 10.219C9.75895 10.3453 9.72882 10.4833 9.72882 10.6262C9.72882 10.8915 9.83176 11.1405 10.0187 11.3274L10.4424 11.7511C10.6357 11.9444 10.8896 12.041 11.1435 12.041C11.3974 12.041 11.6514 11.9443 11.8447 11.7511L15.1799 8.41601C15.5664 8.02935 15.5664 7.40032 15.1798 7.0137L14.7561 6.59001C14.457 6.29092 14.0127 6.22345 13.6479 6.3872C12.9303 5.86651 12.1916 5.23142 11.4946 4.53442C10.8657 3.90548 10.2829 3.23757 9.79267 2.58542C9.86057 2.44954 9.89676 2.29867 9.89676 2.14201C9.89676 1.87676 9.79382 1.62773 9.60692 1.44083L9.18323 1.01714C8.99636 0.830232 8.74732 0.727295 8.48204 0.727295C8.21676 0.727295 7.96776 0.830232 7.78085 1.01714L4.44579 4.35217C4.25888 4.53907 4.15595 4.78807 4.15595 5.05332C4.15595 5.31857 4.25888 5.5676 4.44579 5.75448L4.86951 6.1782C5.06285 6.37151 5.31676 6.46813 5.5707 6.46813C5.72279 6.46813 5.87482 6.43317 6.01392 6.36379C6.29285 6.57345 6.57463 6.80001 6.85507 7.03995L1.23097 12.2945C1.22682 12.2984 1.22276 12.3023 1.21876 12.3063C0.563474 12.9616 0.563474 14.0278 1.21876 14.683L1.51382 14.9781C1.84141 15.3057 2.27179 15.4695 2.70213 15.4695C3.13248 15.4695 3.56288 15.3057 3.89048 14.9781C3.89448 14.9741 3.89841 14.97 3.90229 14.9659L9.14307 9.35663C9.38314 9.64482 9.60857 9.93357 9.8157 10.219ZM14.4667 7.71485L11.1435 11.038L10.7317 10.6262L14.0549 7.30301L14.4667 7.71485ZM12.88 7.06367L10.4924 9.45138C9.96748 8.74901 9.34564 8.03429 8.67014 7.35882C8.04801 6.7367 7.41038 6.17435 6.76876 5.68126L9.10995 3.34007C9.60301 3.9817 10.1654 4.61932 10.7875 5.24148C11.4629 5.91692 12.1777 6.53876 12.88 7.06367ZM5.57063 5.46514L5.15882 5.05332L8.48201 1.73014L8.89382 2.14195L5.57063 5.46514ZM3.17819 14.2761C3.05026 14.4014 2.88151 14.4703 2.70216 14.4703C2.52041 14.4703 2.34951 14.3995 2.22094 14.271L1.92588 13.9759C1.66226 13.7123 1.66057 13.2844 1.92073 13.0187L7.60007 7.71242C7.7222 7.82845 7.84339 7.94623 7.96304 8.06591C8.13948 8.24235 8.31167 8.42154 8.47932 8.60229L3.17819 14.2761Z" fill="white"/>
</svg>
