<svg width="21" height="21" viewBox="0 0 21 21" fill="none" xmlns="http://www.w3.org/2000/svg">
<path d="M8.19216 9.83277L2.57596 9.83807L3.41919 8.99484C3.55984 8.85419 3.63886 8.66343 3.63886 8.46451C3.63886 8.2656 3.55984 8.07484 3.41919 7.93418C3.27853 7.79353 3.08777 7.71451 2.88886 7.71451C2.68994 7.71451 2.49918 7.79353 2.35853 7.93418L0.237205 10.0555C0.168741 10.1256 0.114689 10.2085 0.0781061 10.2995C0.00233564 10.4829 0.00233564 10.6888 0.0781056 10.8722C0.114689 10.9631 0.168741 11.046 0.237205 11.1162L2.35853 13.2375C2.49918 13.3781 2.68994 13.4572 2.88885 13.4572C3.08777 13.4572 3.27853 13.3781 3.41919 13.2375C3.55984 13.0968 3.63886 12.9061 3.63886 12.7072C3.63886 12.5082 3.55984 12.3175 3.41919 12.1768L2.57596 11.3336L8.19216 11.3389C8.39188 11.3389 8.58343 11.2596 8.72466 11.1183C8.86588 10.9771 8.94523 10.7856 8.94523 10.5858C8.94523 10.3861 8.86588 10.1946 8.72466 10.0533C8.58343 9.91211 8.39188 9.83277 8.19216 9.83277ZM11.0612 2.84832L11.9045 3.69154C12.0451 3.8322 12.2359 3.91121 12.4348 3.91121C12.6337 3.91121 12.8245 3.8322 12.9651 3.69154C13.1058 3.55089 13.1848 3.36013 13.1848 3.16121C13.1848 2.9623 13.1058 2.77154 12.9651 2.63088L10.8438 0.509563C10.7737 0.441099 10.6908 0.387047 10.5999 0.350464C10.4165 0.274693 10.2105 0.274693 10.0271 0.350464C9.93617 0.387047 9.85329 0.441099 9.78315 0.509563L7.66183 2.63088C7.52117 2.77154 7.44216 2.9623 7.44216 3.16121C7.44216 3.36013 7.52117 3.55089 7.66183 3.69154C7.80248 3.8322 7.99324 3.91121 8.19216 3.91121C8.39107 3.91121 8.58183 3.8322 8.72249 3.69154L9.56571 2.84832L9.56041 8.46451C9.56 8.56352 9.5792 8.66163 9.6169 8.75318C9.65461 8.84473 9.71006 8.92791 9.78007 8.99792C9.85008 9.06793 9.93326 9.12338 10.0248 9.16109C10.1164 9.19879 10.2145 9.21799 10.3135 9.21758C10.4125 9.21799 10.5106 9.19879 10.6021 9.16109C10.6937 9.12338 10.7769 9.06793 10.8469 8.99792C10.9169 8.92791 10.9723 8.84473 11.01 8.75318C11.0477 8.66163 11.067 8.56352 11.0665 8.46451L11.0612 2.84832ZM12.9651 17.4801C12.8245 17.3395 12.6337 17.2605 12.4348 17.2605C12.2359 17.2605 12.0451 17.3395 11.9045 17.4801L11.0612 18.3234L11.0665 12.7072C11.0665 12.5074 10.9872 12.3159 10.846 12.1747C10.7047 12.0334 10.5132 11.9541 10.3135 11.9541C10.1138 11.9541 9.9222 12.0334 9.78098 12.1747C9.63975 12.3159 9.56041 12.5074 9.56041 12.7072L9.56571 18.3234L8.72249 17.4801C8.58183 17.3395 8.39107 17.2605 8.19216 17.2605C7.99324 17.2605 7.80248 17.3395 7.66183 17.4801C7.52117 17.6208 7.44216 17.8115 7.44216 18.0105C7.44216 18.2094 7.52117 18.4001 7.66183 18.5408L9.78315 20.6621C9.85329 20.7306 9.93617 20.7846 10.0271 20.8212C10.2105 20.897 10.4165 20.897 10.5999 20.8212C10.6908 20.7846 10.7737 20.7306 10.8438 20.6621L12.9651 18.5408C13.1058 18.4001 13.1848 18.2094 13.1848 18.0105C13.1848 17.8115 13.1058 17.6208 12.9651 17.4801ZM20.5488 10.8722C20.6246 10.6888 20.6246 10.4829 20.5488 10.2995C20.5123 10.2085 20.4582 10.1256 20.3897 10.0555L18.2684 7.93418C18.1278 7.79353 17.937 7.71451 17.7381 7.71451C17.5392 7.71451 17.3484 7.79353 17.2078 7.93418C17.0671 8.07484 16.9881 8.2656 16.9881 8.46451C16.9881 8.66343 17.0671 8.85419 17.2078 8.99484L18.051 9.83807L12.4348 9.83277C12.3358 9.83236 12.2377 9.85156 12.1461 9.88926C12.0546 9.92696 11.9714 9.98242 11.9014 10.0524C11.8314 10.1224 11.7759 10.2056 11.7382 10.2972C11.7005 10.3887 11.6813 10.4868 11.6817 10.5858C11.6813 10.6848 11.7005 10.783 11.7382 10.8745C11.7759 10.9661 11.8314 11.0492 11.9014 11.1192C11.9714 11.1892 12.0546 11.2447 12.1461 11.2824C12.2377 11.3201 12.3358 11.3393 12.4348 11.3389L18.051 11.3336L17.2078 12.1768C17.0671 12.3175 16.9881 12.5082 16.9881 12.7072C16.9881 12.9061 17.0671 13.0968 17.2078 13.2375C17.3484 13.3781 17.5392 13.4572 17.7381 13.4572C17.937 13.4572 18.1278 13.3781 18.2684 13.2375L20.3897 11.1162C20.4582 11.046 20.5123 10.9631 20.5488 10.8722Z" fill="#0056A1"/>
</svg>
