<svg width="16" height="18" viewBox="0 0 16 18" fill="none" xmlns="http://www.w3.org/2000/svg">
<path d="M11.7497 3.16666C11.016 3.16608 10.2959 3.36482 9.66634 3.74166C9.20989 2.69398 8.40833 1.83428 7.39512 1.30571C6.38192 0.777133 5.21822 0.611592 4.09781 0.836649C2.9774 1.06171 1.96789 1.66378 1.23739 2.54261C0.506888 3.42144 0.0994803 4.52399 0.0830078 5.66666V8.99999C0.0842043 10.1807 0.503213 11.3229 1.26583 12.2243C2.02844 13.1258 3.08546 13.7282 4.24967 13.925V16.5C4.24967 16.721 4.33747 16.933 4.49375 17.0892C4.65003 17.2455 4.86199 17.3333 5.08301 17.3333C5.30402 17.3333 5.51598 17.2455 5.67226 17.0892C5.82854 16.933 5.91634 16.721 5.91634 16.5V13.925C6.76528 13.7777 7.56263 13.4163 8.23301 12.875C8.53052 13.3525 8.92166 13.7648 9.38283 14.087C9.844 14.4093 10.3657 14.6348 10.9163 14.75V16.5C10.9163 16.721 11.0041 16.933 11.1604 17.0892C11.3167 17.2455 11.5287 17.3333 11.7497 17.3333C11.9707 17.3333 12.1827 17.2455 12.3389 17.0892C12.4952 16.933 12.583 16.721 12.583 16.5V14.75C13.5241 14.5579 14.37 14.0465 14.9774 13.3024C15.5849 12.5583 15.9165 11.6272 15.9163 10.6667V7.33333C15.9163 6.22826 15.4774 5.16845 14.696 4.38705C13.9146 3.60565 12.8547 3.16666 11.7497 3.16666ZM7.58301 7.33333V10.6667C7.59098 10.8258 7.60767 10.9844 7.63301 11.1417C7.18733 11.6725 6.58728 12.0511 5.91634 12.225V9.83333C5.91634 9.61231 5.82854 9.40035 5.67226 9.24407C5.51598 9.08779 5.30402 8.99999 5.08301 8.99999C4.86199 8.99999 4.65003 9.08779 4.49375 9.24407C4.33747 9.40035 4.24967 9.61231 4.24967 9.83333V12.2167C3.53595 12.0324 2.90343 11.6167 2.45108 11.0347C1.99873 10.4527 1.75207 9.73712 1.74967 8.99999V5.66666C1.7475 5.0063 1.94152 4.36017 2.30712 3.81024C2.67272 3.26032 3.19343 2.83137 3.80318 2.57783C4.41293 2.32429 5.08425 2.25757 5.73198 2.38614C6.37971 2.51471 6.97466 2.83278 7.44134 3.29999C7.89247 3.75719 8.19959 4.33666 8.32467 4.96666C7.84295 5.66198 7.58427 6.48744 7.58301 7.33333ZM14.2497 10.6667C14.2482 11.1824 14.0873 11.6852 13.7889 12.1059C13.4905 12.5266 13.0693 12.8447 12.583 13.0167V9.83333C12.583 9.61231 12.4952 9.40035 12.3389 9.24407C12.1827 9.08779 11.9707 8.99999 11.7497 8.99999C11.5287 8.99999 11.3167 9.08779 11.1604 9.24407C11.0041 9.40035 10.9163 9.61231 10.9163 9.83333V13.0167C10.43 12.8447 10.0088 12.5266 9.71046 12.1059C9.41207 11.6852 9.25112 11.1824 9.24967 10.6667V7.33333C9.24967 6.67028 9.51307 6.0344 9.98191 5.56556C10.4507 5.09672 11.0866 4.83333 11.7497 4.83333C12.4127 4.83333 13.0486 5.09672 13.5174 5.56556C13.9863 6.0344 14.2497 6.67028 14.2497 7.33333V10.6667Z" fill="#0056A1"/>
</svg>
