<svg width="20" height="15" viewBox="0 0 20 15" fill="none" xmlns="http://www.w3.org/2000/svg">
<path d="M19.303 5.2858L18.3608 4.76759L9.88092 0.0565326H9.77728C9.71951 0.0321093 9.65957 0.0131816 9.59826 0H9.41924H9.24964C9.18526 0.0131902 9.1222 0.0321097 9.0612 0.0565326H8.95755L0.477652 4.76759C0.332648 4.84977 0.212037 4.96894 0.128124 5.11294C0.0442115 5.25695 0 5.42064 0 5.58731C0 5.75398 0.0442115 5.91767 0.128124 6.06168C0.212037 6.20569 0.332648 6.32486 0.477652 6.40704L2.82376 7.70729V12.1734C2.82376 12.923 3.12156 13.642 3.65166 14.1721C4.18176 14.7022 4.90072 15 5.65039 15H13.1881C13.9377 15 14.6567 14.7022 15.1868 14.1721C15.7169 13.642 16.0147 12.923 16.0147 12.1734V7.70729L17.8991 6.65201V9.34673C17.8991 9.59662 17.9984 9.83628 18.1751 10.013C18.3518 10.1897 18.5915 10.2889 18.8413 10.2889C19.0912 10.2889 19.3309 10.1897 19.5076 10.013C19.6843 9.83628 19.7836 9.59662 19.7836 9.34673V6.10553C19.7833 5.93857 19.7386 5.77469 19.6542 5.63066C19.5698 5.48662 19.4486 5.36761 19.303 5.2858ZM14.1303 12.1734C14.1303 12.4233 14.031 12.6629 13.8543 12.8396C13.6776 13.0163 13.438 13.1156 13.1881 13.1156H5.65039C5.4005 13.1156 5.16085 13.0163 4.98415 12.8396C4.80745 12.6629 4.70818 12.4233 4.70818 12.1734V8.75314L8.95755 11.1087L9.09888 11.1652H9.18368C9.26189 11.1751 9.34103 11.1751 9.41924 11.1652C9.49744 11.1751 9.57658 11.1751 9.65479 11.1652H9.73959C9.78961 11.1547 9.83742 11.1355 9.88092 11.1087L14.1303 8.75314V12.1734ZM9.41924 9.21482L2.88029 5.57789L9.41924 1.94095L15.9582 5.57789L9.41924 9.21482Z" fill="#0056A1"/>
</svg>
