<svg width="20" height="20" viewBox="0 0 20 20" fill="none" xmlns="http://www.w3.org/2000/svg">
<path d="M16.9753 5.35098L10.0569 3.04486C9.87972 2.98505 9.68781 2.98505 9.51064 3.04486L2.59226 5.35098C2.42718 5.40566 2.28242 5.50883 2.17687 5.64703C2.07132 5.78523 2.00989 5.95205 2.00059 6.1257C1.9998 6.14082 1.9998 6.15598 2.00059 6.1711V11.9364C2.00059 12.1658 2.0917 12.3857 2.25388 12.5479C2.41607 12.7101 2.63603 12.8012 2.86539 12.8012C3.09475 12.8012 3.31471 12.7101 3.47689 12.5479C3.63907 12.3857 3.73019 12.1658 3.73019 11.9364V7.37101L5.43888 7.94033C4.90859 8.95538 4.751 10.1242 4.99355 11.2435C5.2361 12.3627 5.86342 13.3615 6.76635 14.066C5.58476 14.6486 4.58477 15.543 3.87432 16.6524C3.81034 16.7475 3.7659 16.8544 3.74358 16.9668C3.72127 17.0792 3.72152 17.1949 3.74432 17.3073C3.76712 17.4196 3.81202 17.5262 3.87641 17.6211C3.9408 17.7159 4.02339 17.7969 4.11938 17.8595C4.21538 17.9222 4.32286 17.9651 4.43558 17.9858C4.5483 18.0065 4.66402 18.0046 4.776 17.9802C4.88797 17.9558 4.99399 17.9093 5.08787 17.8436C5.18175 17.7779 5.26162 17.6941 5.32286 17.5972C6.35124 16.0147 7.98211 15.1073 9.78377 15.1073C11.5854 15.1073 13.2163 16.0147 14.2483 17.5972C14.3095 17.6941 14.3894 17.7779 14.4833 17.8436C14.5772 17.9093 14.6832 17.9558 14.7951 17.9802C14.9071 18.0046 15.0228 18.0065 15.1356 17.9858C15.2483 17.9651 15.3558 17.9222 15.4518 17.8595C15.5478 17.7969 15.6303 17.7159 15.6947 17.6211C15.7591 17.5262 15.804 17.4196 15.8268 17.3073C15.8496 17.1949 15.8499 17.0792 15.8276 16.9668C15.8052 16.8544 15.7608 16.7475 15.6968 16.6524C14.9857 15.5417 13.9844 14.6465 12.8012 14.0638C13.7041 13.3594 14.3314 12.3606 14.574 11.2413C14.8165 10.1221 14.659 8.95322 14.1287 7.93817L16.9753 6.98905C17.1473 6.93152 17.2968 6.82138 17.4027 6.67421C17.5087 6.52703 17.5657 6.35028 17.5657 6.16894C17.5657 5.98759 17.5087 5.81084 17.4027 5.66367C17.2968 5.5165 17.1473 5.40636 16.9753 5.34882V5.35098ZM9.78377 4.77445L13.9672 6.1711L9.78377 7.56558L5.60391 6.1711L9.78377 4.77445ZM12.9547 10.2068C12.9548 10.6993 12.8401 11.1851 12.6199 11.6256C12.3996 12.0662 12.0797 12.4493 11.6856 12.7447C11.2915 13.0401 10.834 13.2396 10.3494 13.3275C9.86473 13.4153 9.36629 13.3891 8.89358 13.2508C8.42086 13.1126 7.98685 12.8661 7.62595 12.5309C7.26505 12.1957 6.98719 11.7811 6.8144 11.3199C6.6416 10.8587 6.57862 10.3635 6.63045 9.87374C6.68228 9.38395 6.84749 8.91297 7.11299 8.49813L9.51064 9.29734C9.68785 9.35694 9.87969 9.35694 10.0569 9.29734L12.4546 8.49813C12.7816 9.00799 12.9552 9.60109 12.9547 10.2068Z" fill="#888888"/>
</svg>
