<svg width="48" height="48" viewBox="0 0 48 48" fill="none" xmlns="http://www.w3.org/2000/svg">
<circle cx="24" cy="24" r="23" stroke="#61CF57" stroke-width="2"/>
<path d="M34.4948 16.463C34.3492 16.3163 34.1761 16.1999 33.9854 16.1204C33.7946 16.0409 33.59 16 33.3834 16C33.1768 16 32.9722 16.0409 32.7814 16.1204C32.5907 16.1999 32.4175 16.3163 32.272 16.463L20.6104 28.1403L15.711 23.2252C15.5599 23.0792 15.3816 22.9645 15.1861 22.8874C14.9907 22.8104 14.782 22.7727 14.572 22.7763C14.3619 22.7799 14.1547 22.8249 13.962 22.9086C13.7693 22.9924 13.5951 23.1132 13.4491 23.2643C13.3032 23.4154 13.1884 23.5937 13.1114 23.7892C13.0344 23.9846 12.9966 24.1933 13.0002 24.4033C13.0039 24.6134 13.0488 24.8206 13.1326 25.0133C13.2163 25.206 13.3372 25.3802 13.4883 25.5262L19.4991 31.537C19.6446 31.6837 19.8177 31.8001 20.0085 31.8796C20.1992 31.9591 20.4038 32 20.6104 32C20.8171 32 21.0217 31.9591 21.2124 31.8796C21.4032 31.8001 21.5763 31.6837 21.7218 31.537L34.4948 18.764C34.6536 18.6174 34.7805 18.4395 34.8672 18.2415C34.9539 18.0435 34.9987 17.8297 34.9987 17.6135C34.9987 17.3973 34.9539 17.1835 34.8672 16.9855C34.7805 16.7875 34.6536 16.6096 34.4948 16.463Z" fill="#61CF57"/>
</svg>
