<svg width="18" height="18" viewBox="0 0 18 18" fill="none" xmlns="http://www.w3.org/2000/svg">
<path d="M14.8332 5.66666H13.9998V3.16666C13.9998 2.50362 13.7364 1.86774 13.2676 1.3989C12.7988 0.930056 12.1629 0.666664 11.4998 0.666664H3.1665C2.50346 0.666664 1.86758 0.930056 1.39874 1.3989C0.929896 1.86774 0.666504 2.50362 0.666504 3.16666V13.1667C0.667325 13.3312 0.716827 13.4918 0.808771 13.6282C0.900716 13.7646 1.03099 13.8708 1.18317 13.9333C1.28207 13.98 1.39052 14.0028 1.49984 14C1.60951 14.0006 1.71823 13.9796 1.81976 13.9381C1.92129 13.8967 2.01364 13.8356 2.0915 13.7583L4.43317 11.4083H5.6665V12.6083C5.6665 13.2714 5.9299 13.9073 6.39874 14.3761C6.86758 14.8449 7.50346 15.1083 8.1665 15.1083H13.9332L15.9082 17.0917C15.986 17.1689 16.0784 17.23 16.1799 17.2715C16.2814 17.3129 16.3902 17.334 16.4998 17.3333C16.6092 17.3361 16.7176 17.3133 16.8165 17.2667C16.9687 17.2041 17.099 17.098 17.1909 16.9615C17.2828 16.8251 17.3323 16.6645 17.3332 16.5V8.16666C17.3332 7.50362 17.0698 6.86774 16.6009 6.3989C16.1321 5.93006 15.4962 5.66666 14.8332 5.66666ZM5.6665 8.16666V9.74166H4.0915C3.98183 9.74103 3.87311 9.76205 3.77158 9.80352C3.67005 9.84499 3.5777 9.9061 3.49984 9.98333L2.33317 11.1583V3.16666C2.33317 2.94565 2.42097 2.73369 2.57725 2.57741C2.73353 2.42113 2.94549 2.33333 3.1665 2.33333H11.4998C11.7209 2.33333 11.9328 2.42113 12.0891 2.57741C12.2454 2.73369 12.3332 2.94565 12.3332 3.16666V5.66666H8.1665C7.50346 5.66666 6.86758 5.93006 6.39874 6.3989C5.9299 6.86774 5.6665 7.50362 5.6665 8.16666ZM15.6665 14.4917L14.8332 13.6583C14.756 13.5796 14.664 13.5169 14.5624 13.474C14.4608 13.4311 14.3518 13.4088 14.2415 13.4083H8.1665C7.94549 13.4083 7.73353 13.3205 7.57725 13.1643C7.42097 13.008 7.33317 12.796 7.33317 12.575V8.16666C7.33317 7.94565 7.42097 7.73369 7.57725 7.57741C7.73353 7.42113 7.94549 7.33333 8.1665 7.33333H14.8332C15.0542 7.33333 15.2661 7.42113 15.4224 7.57741C15.5787 7.73369 15.6665 7.94565 15.6665 8.16666V14.4917Z" fill="#888888"/>
</svg>
