<svg width="18" height="19" viewBox="0 0 18 19" fill="none" xmlns="http://www.w3.org/2000/svg">
<mask id="mask0_6508_16476" style="mask-type:alpha" maskUnits="userSpaceOnUse" x="0" y="0" width="18" height="19">
<rect y="0.5" width="18" height="18" fill="#D9D9D9"/>
</mask>
<g mask="url(#mask0_6508_16476)">
<path d="M10.6875 16.55C10.4 16.8375 10.0437 16.9813 9.61875 16.9813C9.19375 16.9813 8.8375 16.8375 8.55 16.55L1.95 9.95C1.8125 9.8125 1.70325 9.65 1.62225 9.4625C1.54075 9.275 1.5 9.075 1.5 8.8625V3.5C1.5 3.0875 1.647 2.73425 1.941 2.44025C2.2345 2.14675 2.5875 2 3 2H8.3625C8.575 2 8.775 2.0405 8.9625 2.1215C9.15 2.203 9.3125 2.3125 9.45 2.45L16.05 9.06875C16.3375 9.35625 16.4813 9.70925 16.4813 10.1277C16.4813 10.5467 16.3375 10.9 16.05 11.1875L10.6875 16.55ZM9.61875 15.5L14.9813 10.1375L8.3625 3.5H3V8.8625L9.61875 15.5ZM4.875 6.5C5.1875 6.5 5.453 6.3905 5.6715 6.1715C5.8905 5.953 6 5.6875 6 5.375C6 5.0625 5.8905 4.797 5.6715 4.5785C5.453 4.3595 5.1875 4.25 4.875 4.25C4.5625 4.25 4.297 4.3595 4.0785 4.5785C3.8595 4.797 3.75 5.0625 3.75 5.375C3.75 5.6875 3.8595 5.953 4.0785 6.1715C4.297 6.3905 4.5625 6.5 4.875 6.5Z" fill="#0056A1"/>
</g>
</svg>
