<svg width="17" height="17" viewBox="0 0 17 17" fill="none" xmlns="http://www.w3.org/2000/svg">
<path d="M8.68668 8.78648C10.0735 8.78648 11.2017 7.65821 11.2017 6.27143C11.2017 4.88465 10.0735 3.75635 8.68668 3.75635C7.29987 3.75635 6.17163 4.88462 6.17163 6.2714C6.17163 7.65818 7.29987 8.78648 8.68668 8.78648ZM8.68668 4.99834C9.38863 4.99834 9.95974 5.56945 9.95974 6.2714C9.95974 6.97335 9.38863 7.54446 8.68668 7.54446C7.98473 7.54446 7.41362 6.97335 7.41362 6.2714C7.41362 5.56945 7.98473 4.99834 8.68668 4.99834Z" fill="#888888"/>
<path d="M14.3676 11.4259H11.7974C13.2977 9.61617 14.0584 7.98434 14.0584 6.57146V6.27185C14.0584 3.30978 11.6486 0.899902 8.68667 0.899902C5.7247 0.899902 3.31498 3.30975 3.31498 6.27188V6.57149C3.31498 7.98437 4.07562 9.61617 5.57595 11.4259H3.00579L0.58667 16.8286H16.7867L14.3676 11.4259ZM4.55703 6.57149V6.27188H4.557C4.557 3.99461 6.40959 2.14189 8.68667 2.14189C10.9638 2.14189 12.8163 3.99461 12.8163 6.27188V6.57149C12.8163 7.73817 12.0516 9.23943 10.6047 10.9129C9.86886 11.764 9.12442 12.4617 8.68654 12.8515C8.25171 12.4646 7.51448 11.7738 6.7807 10.9269C5.32596 9.24772 4.55703 7.74165 4.55703 6.57149ZM3.81047 12.6679H6.69689C7.55941 13.5514 8.25652 14.1217 8.29461 14.1527L8.68667 14.4719L9.0787 14.1527C9.11683 14.1217 9.8139 13.5513 10.6764 12.6679H13.5628L14.8698 15.5866H2.50359L3.81047 12.6679Z" fill="#888888"/>
</svg>
