<svg width="18" height="18" viewBox="0 0 18 18" fill="none" xmlns="http://www.w3.org/2000/svg">
<path d="M15.3121 11.6956H12.4564C14.1234 9.68478 14.9685 7.87162 14.9685 6.30176V5.96886C14.9685 2.67767 12.2911 3.05176e-05 9 3.05176e-05C5.70892 3.05176e-05 3.03145 2.67764 3.03145 5.9689V6.30179C3.03145 7.87166 3.87661 9.68478 5.54365 11.6956H2.68791L0 17.6986H18L15.3121 11.6956ZM4.41151 6.30179V5.9689H4.41148C4.41148 3.43859 6.46991 1.38002 9 1.38002C11.5301 1.38002 13.5885 3.43859 13.5885 5.9689V6.30179C13.5885 7.59811 12.7388 9.26617 11.1311 11.1256C10.3135 12.0713 9.48639 12.8464 8.99986 13.2796C8.51671 12.8497 7.69757 12.0821 6.88226 11.1411C5.26588 9.27538 4.41151 7.60198 4.41151 6.30179ZM3.582 13.0756H6.78913C7.74749 14.0572 8.52205 14.6909 8.56438 14.7254L9 15.08L9.43559 14.7254C9.47795 14.6909 10.2525 14.0572 11.2108 13.0756H14.418L15.8701 16.3186H2.12991L3.582 13.0756Z" fill="#0056A1"/>
</svg>
