<svg width="20" height="20" viewBox="0 0 20 20" fill="none" xmlns="http://www.w3.org/2000/svg">
<path d="M18.3335 14.1668H1.66683C1.44582 14.1668 1.23385 14.2546 1.07757 14.4109C0.921293 14.5672 0.833496 14.7791 0.833496 15.0002C0.833496 15.2212 0.921293 15.4331 1.07757 15.5894C1.23385 15.7457 1.44582 15.8335 1.66683 15.8335H18.3335C18.5545 15.8335 18.7665 15.7457 18.9228 15.5894C19.079 15.4331 19.1668 15.2212 19.1668 15.0002C19.1668 14.7791 19.079 14.5672 18.9228 14.4109C18.7665 14.2546 18.5545 14.1668 18.3335 14.1668ZM18.3335 17.5002H1.66683C1.44582 17.5002 1.23385 17.588 1.07757 17.7442C0.921293 17.9005 0.833496 18.1125 0.833496 18.3335C0.833496 18.5545 0.921293 18.7665 1.07757 18.9228C1.23385 19.079 1.44582 19.1668 1.66683 19.1668H18.3335C18.5545 19.1668 18.7665 19.079 18.9228 18.9228C19.079 18.7665 19.1668 18.5545 19.1668 18.3335C19.1668 18.1125 19.079 17.9005 18.9228 17.7442C18.7665 17.588 18.5545 17.5002 18.3335 17.5002ZM5.00016 5.8335C4.83534 5.8335 4.67423 5.88237 4.53719 5.97394C4.40015 6.06551 4.29334 6.19565 4.23026 6.34793C4.16719 6.5002 4.15069 6.66775 4.18284 6.8294C4.215 6.99106 4.29436 7.13954 4.41091 7.25608C4.52745 7.37263 4.67594 7.452 4.83759 7.48415C4.99924 7.5163 5.16679 7.4998 5.31907 7.43673C5.47134 7.37366 5.60149 7.26685 5.69305 7.1298C5.78462 6.99276 5.8335 6.83165 5.8335 6.66683C5.8335 6.44582 5.7457 6.23385 5.58942 6.07757C5.43314 5.92129 5.22118 5.8335 5.00016 5.8335ZM16.6668 0.833496H3.3335C2.67045 0.833496 2.03457 1.09689 1.56573 1.56573C1.09689 2.03457 0.833496 2.67045 0.833496 3.3335V10.0002C0.833496 10.6632 1.09689 11.2991 1.56573 11.7679C2.03457 12.2368 2.67045 12.5002 3.3335 12.5002H16.6668C17.3299 12.5002 17.9658 12.2368 18.4346 11.7679C18.9034 11.2991 19.1668 10.6632 19.1668 10.0002V3.3335C19.1668 2.67045 18.9034 2.03457 18.4346 1.56573C17.9658 1.09689 17.3299 0.833496 16.6668 0.833496ZM17.5002 10.0002C17.5002 10.2212 17.4124 10.4331 17.2561 10.5894C17.0998 10.7457 16.8878 10.8335 16.6668 10.8335H3.3335C3.11248 10.8335 2.90052 10.7457 2.74424 10.5894C2.58796 10.4331 2.50016 10.2212 2.50016 10.0002V3.3335C2.50016 3.11248 2.58796 2.90052 2.74424 2.74424C2.90052 2.58796 3.11248 2.50016 3.3335 2.50016H16.6668C16.8878 2.50016 17.0998 2.58796 17.2561 2.74424C17.4124 2.90052 17.5002 3.11248 17.5002 3.3335V10.0002ZM10.0002 4.16683C9.50571 4.16683 9.02236 4.31345 8.61124 4.58816C8.20011 4.86286 7.87968 5.2533 7.69046 5.71012C7.50124 6.16694 7.45174 6.6696 7.5482 7.15455C7.64466 7.63951 7.88276 8.08496 8.23239 8.4346C8.58203 8.78423 9.02748 9.02233 9.51244 9.11879C9.99739 9.21525 10.5001 9.16575 10.9569 8.97653C11.4137 8.78731 11.8041 8.46688 12.0788 8.05575C12.3535 7.64463 12.5002 7.16128 12.5002 6.66683C12.5002 6.00379 12.2368 5.3679 11.7679 4.89906C11.2991 4.43022 10.6632 4.16683 10.0002 4.16683ZM10.0002 7.50016C9.83534 7.50016 9.67423 7.45129 9.53719 7.35972C9.40015 7.26815 9.29333 7.138 9.23026 6.98573C9.16719 6.83346 9.15069 6.6659 9.18284 6.50425C9.215 6.3426 9.29436 6.19412 9.41091 6.07757C9.52745 5.96103 9.67594 5.88166 9.83759 5.84951C9.99924 5.81735 10.1668 5.83386 10.3191 5.89693C10.4713 5.96 10.6015 6.06681 10.6931 6.20385C10.7846 6.34089 10.8335 6.50201 10.8335 6.66683C10.8335 6.88784 10.7457 7.0998 10.5894 7.25608C10.4331 7.41236 10.2212 7.50016 10.0002 7.50016ZM15.0002 5.8335C14.8353 5.8335 14.6742 5.88237 14.5372 5.97394C14.4001 6.06551 14.2933 6.19565 14.2303 6.34793C14.1672 6.5002 14.1507 6.66775 14.1828 6.8294C14.215 6.99106 14.2944 7.13954 14.4109 7.25608C14.5274 7.37263 14.6759 7.452 14.8376 7.48415C14.9992 7.5163 15.1668 7.4998 15.3191 7.43673C15.4713 7.37366 15.6015 7.26685 15.6931 7.1298C15.7846 6.99276 15.8335 6.83165 15.8335 6.66683C15.8335 6.44582 15.7457 6.23385 15.5894 6.07757C15.4331 5.92129 15.2212 5.8335 15.0002 5.8335Z" fill="#888888"/>
</svg>
