<svg width="16" height="14" viewBox="0 0 16 14" fill="none" xmlns="http://www.w3.org/2000/svg">
<path d="M5.8125 3.20497H7.25586V9.81239C7.25586 9.89833 7.32617 9.96864 7.41211 9.96864H8.58398C8.66992 9.96864 8.74023 9.89833 8.74023 9.81239V3.20497H10.1875C10.3184 3.20497 10.3906 3.05458 10.3105 2.95302L8.12305 0.183486C8.10843 0.164811 8.08976 0.149707 8.06844 0.13932C8.04712 0.128933 8.02371 0.123535 8 0.123535C7.97629 0.123535 7.95288 0.128933 7.93156 0.13932C7.91024 0.149707 7.89157 0.164811 7.87695 0.183486L5.68945 2.95106C5.60938 3.05458 5.68164 3.20497 5.8125 3.20497ZM15.1484 9.22645H13.9766C13.8906 9.22645 13.8203 9.29677 13.8203 9.3827V12.3905H2.17969V9.3827C2.17969 9.29677 2.10938 9.22645 2.02344 9.22645H0.851562C0.765625 9.22645 0.695312 9.29677 0.695312 9.3827V13.2499C0.695312 13.5956 0.974609 13.8749 1.32031 13.8749H14.6797C15.0254 13.8749 15.3047 13.5956 15.3047 13.2499V9.3827C15.3047 9.29677 15.2344 9.22645 15.1484 9.22645Z" fill="white"/>
</svg>
