<svg width="22" height="22" viewBox="0 0 22 22" fill="none" xmlns="http://www.w3.org/2000/svg">
<path d="M16.25 8.1333H14.45C14.2113 8.1333 13.9824 8.22812 13.8136 8.3969C13.6448 8.56569 13.55 8.79461 13.55 9.0333C13.55 9.272 13.6448 9.50091 13.8136 9.6697C13.9824 9.83848 14.2113 9.9333 14.45 9.9333H16.25C16.4887 9.9333 16.7176 10.0281 16.8864 10.1969C17.0552 10.3657 17.15 10.5946 17.15 10.8333V17.1333C17.15 17.372 17.0552 17.6009 16.8864 17.7697C16.7176 17.9385 16.4887 18.0333 16.25 18.0333H5.45C5.2113 18.0333 4.98239 17.9385 4.8136 17.7697C4.64482 17.6009 4.55 17.372 4.55 17.1333L4.55 10.8333C4.55 10.5946 4.64482 10.3657 4.8136 10.1969C4.98239 10.0281 5.2113 9.9333 5.45 9.9333H7.25C7.48869 9.9333 7.71761 9.83848 7.88639 9.6697C8.05518 9.50091 8.15 9.272 8.15 9.0333C8.15 8.79461 8.05518 8.56569 7.88639 8.3969C7.71761 8.22812 7.48869 8.1333 7.25 8.1333H5.45C4.73392 8.1333 4.04716 8.41776 3.54081 8.92411C3.03446 9.43046 2.75 10.1172 2.75 10.8333L2.75 17.1333C2.75 17.8494 3.03446 18.5361 3.54081 19.0425C4.04716 19.5488 4.73392 19.8333 5.45 19.8333H16.25C16.9661 19.8333 17.6528 19.5488 18.1592 19.0425C18.6655 18.5361 18.95 17.8494 18.95 17.1333V10.8333C18.95 10.1172 18.6655 9.43046 18.1592 8.92411C17.6528 8.41776 16.9661 8.1333 16.25 8.1333Z" fill="white"/>
<path d="M14.4376 6.07753C14.522 5.99386 14.589 5.89432 14.6346 5.78465C14.6803 5.67497 14.7039 5.55734 14.7039 5.43853C14.7039 5.31972 14.6803 5.20208 14.6346 5.09241C14.589 4.98273 14.522 4.88319 14.4376 4.79953L11.7376 2.09953C11.654 2.01517 11.5544 1.94821 11.4448 1.90252C11.3351 1.85683 11.2175 1.83331 11.0986 1.83331C10.9798 1.83331 10.8622 1.85683 10.7525 1.90252C10.6428 1.94821 10.5433 2.01517 10.4596 2.09953L7.75964 4.79953C7.59017 4.969 7.49496 5.19885 7.49496 5.43853C7.49496 5.6782 7.59017 5.90805 7.75964 6.07753C7.92911 6.247 8.15897 6.34221 8.39864 6.34221C8.63831 6.34221 8.86817 6.247 9.03764 6.07753L10.1986 4.90752L10.1986 15.3385C10.1986 15.5772 10.2935 15.8061 10.4622 15.9749C10.631 16.1437 10.8599 16.2385 11.0986 16.2385C11.3373 16.2385 11.5663 16.1437 11.735 15.9749C11.9038 15.8061 11.9986 15.5772 11.9986 15.3385L11.9986 4.90752L13.1596 6.07753C13.2433 6.16188 13.3428 6.22884 13.4525 6.27453C13.5622 6.32022 13.6798 6.34374 13.7986 6.34374C13.9175 6.34374 14.0351 6.32022 14.1448 6.27453C14.2544 6.22884 14.354 6.16188 14.4376 6.07753Z" fill="white"/>
</svg>
