<svg width="18" height="18" viewBox="0 0 18 18" fill="none" xmlns="http://www.w3.org/2000/svg">
<path d="M12.0924 9.59169C12.9094 8.94891 13.5057 8.06746 13.7984 7.06997C14.0911 6.07249 14.0657 5.00858 13.7256 4.02625C13.3854 3.04391 12.7476 2.19202 11.9008 1.58907C11.054 0.986122 10.0403 0.662109 9.00073 0.662109C7.96119 0.662109 6.94749 0.986122 6.10067 1.58907C5.25385 2.19202 4.61602 3.04391 4.27591 4.02625C3.9358 5.00858 3.91032 6.07249 4.20303 7.06997C4.49574 8.06746 5.09207 8.94891 5.90906 9.59169C4.50913 10.1526 3.28764 11.0828 2.37481 12.2833C1.46198 13.4838 0.892032 14.9094 0.72573 16.4084C0.713692 16.5178 0.723327 16.6285 0.754084 16.7342C0.784842 16.84 0.836119 16.9386 0.904989 17.0245C1.04408 17.1979 1.24638 17.309 1.4674 17.3334C1.68841 17.3577 1.91003 17.2932 2.0835 17.1541C2.25697 17.015 2.36809 16.8127 2.3924 16.5917C2.57538 14.9627 3.35214 13.4582 4.57425 12.3657C5.79636 11.2732 7.37815 10.6692 9.0174 10.6692C10.6566 10.6692 12.2384 11.2732 13.4605 12.3657C14.6827 13.4582 15.4594 14.9627 15.6424 16.5917C15.6651 16.7965 15.7628 16.9856 15.9167 17.1225C16.0705 17.2595 16.2697 17.3346 16.4757 17.3334H16.5674C16.7858 17.3082 16.9855 17.1978 17.1229 17.0261C17.2602 16.8544 17.3242 16.6353 17.3007 16.4167C17.1336 14.9135 16.5606 13.4842 15.6431 12.2819C14.7256 11.0795 13.4982 10.1496 12.0924 9.59169ZM9.00073 9.00002C8.34146 9.00002 7.69699 8.80453 7.14883 8.43826C6.60067 8.07198 6.17342 7.55139 5.92113 6.9423C5.66884 6.33321 5.60283 5.66299 5.73145 5.01639C5.86006 4.36979 6.17753 3.77584 6.64371 3.30967C7.10988 2.84349 7.70383 2.52602 8.35043 2.39741C8.99703 2.26879 9.66726 2.3348 10.2763 2.58709C10.8854 2.83938 11.406 3.26662 11.7723 3.81479C12.1386 4.36295 12.3341 5.00742 12.3341 5.66669C12.3341 6.55075 11.9829 7.39859 11.3578 8.02371C10.7326 8.64883 9.88479 9.00002 9.00073 9.00002Z" fill="#0056A1"/>
</svg>
