<svg width="20" height="20" viewBox="0 0 20 20" fill="none" xmlns="http://www.w3.org/2000/svg">
<path d="M13.4014 10.6508C14.3001 9.94377 14.9561 8.97418 15.2781 7.87695C15.6001 6.77972 15.572 5.60941 15.1979 4.52884C14.8238 3.44828 14.1222 2.51119 13.1907 1.84795C12.2592 1.18471 11.1441 0.828293 10.0006 0.828293C8.85711 0.828293 7.74205 1.18471 6.81054 1.84795C5.87904 2.51119 5.17742 3.44828 4.8033 4.52884C4.42918 5.60941 4.40116 6.77972 4.72314 7.87695C5.04512 8.97418 5.70108 9.94377 6.59977 10.6508C5.05985 11.2678 3.7162 12.2911 2.71209 13.6116C1.70798 14.9321 1.08104 16.5004 0.898107 18.1492C0.884866 18.2695 0.895464 18.3914 0.929297 18.5076C0.96313 18.6239 1.01954 18.7324 1.09529 18.8269C1.24829 19.0177 1.47083 19.1399 1.71394 19.1667C1.95706 19.1934 2.20084 19.1225 2.39166 18.9695C2.58247 18.8165 2.7047 18.594 2.73144 18.3508C2.93273 16.5589 3.78715 14.904 5.13147 13.7022C6.4758 12.5005 8.21577 11.8361 10.0189 11.8361C11.8221 11.8361 13.5621 12.5005 14.9064 13.7022C16.2507 14.904 17.1052 16.5589 17.3064 18.3508C17.3314 18.5761 17.4388 18.7841 17.6081 18.9348C17.7774 19.0854 17.9965 19.168 18.2231 19.1667H18.3239C18.5642 19.139 18.7839 19.0175 18.935 18.8286C19.0861 18.6398 19.1564 18.3988 19.1306 18.1583C18.9468 16.5049 18.3165 14.9326 17.3072 13.61C16.2979 12.2875 14.9478 11.2645 13.4014 10.6508ZM10.0006 10C9.27541 10 8.5665 9.78495 7.96352 9.38206C7.36054 8.97916 6.89057 8.4065 6.61305 7.73651C6.33553 7.06651 6.26292 6.32927 6.40439 5.618C6.54587 4.90674 6.89509 4.2534 7.40788 3.74061C7.92068 3.22781 8.57401 2.8786 9.28528 2.73712C9.99654 2.59564 10.7338 2.66825 11.4038 2.94577C12.0738 3.22329 12.6464 3.69326 13.0493 4.29624C13.4522 4.89922 13.6673 5.60813 13.6673 6.33333C13.6673 7.30579 13.281 8.23843 12.5933 8.92606C11.9057 9.61369 10.9731 10 10.0006 10Z" fill="#BBBBBB"/>
</svg>
