<svg width="20" height="16" viewBox="0 0 20 16" fill="none" xmlns="http://www.w3.org/2000/svg">
<path d="M10.2507 8.18317C10.6953 7.79828 11.0519 7.32224 11.2964 6.78736C11.5408 6.25247 11.6673 5.67126 11.6673 5.08317C11.6673 3.9781 11.2283 2.91829 10.4469 2.13689C9.66553 1.35549 8.60572 0.916504 7.50065 0.916504C6.39558 0.916504 5.33577 1.35549 4.55437 2.13689C3.77297 2.91829 3.33398 3.9781 3.33398 5.08317C3.33398 5.67126 3.46049 6.25247 3.70492 6.78736C3.94936 7.32224 4.306 7.79828 4.75065 8.18317C3.5841 8.71141 2.59437 9.56445 1.8998 10.6403C1.20523 11.7161 0.835211 12.9693 0.833984 14.2498C0.833984 14.4709 0.921782 14.6828 1.07806 14.8391C1.23434 14.9954 1.4463 15.0832 1.66732 15.0832C1.88833 15.0832 2.10029 14.9954 2.25657 14.8391C2.41285 14.6828 2.50065 14.4709 2.50065 14.2498C2.50065 12.9238 3.02744 11.652 3.96512 10.7143C4.9028 9.77662 6.17457 9.24984 7.50065 9.24984C8.82673 9.24984 10.0985 9.77662 11.0362 10.7143C11.9739 11.652 12.5007 12.9238 12.5007 14.2498C12.5007 14.4709 12.5885 14.6828 12.7447 14.8391C12.901 14.9954 13.113 15.0832 13.334 15.0832C13.555 15.0832 13.767 14.9954 13.9232 14.8391C14.0795 14.6828 14.1673 14.4709 14.1673 14.2498C14.1661 12.9693 13.7961 11.7161 13.1015 10.6403C12.4069 9.56445 11.4172 8.71141 10.2507 8.18317ZM7.50065 7.58317C7.0062 7.58317 6.52285 7.43655 6.11173 7.16184C5.7006 6.88714 5.38017 6.49669 5.19095 6.03988C5.00173 5.58306 4.95223 5.0804 5.04869 4.59544C5.14515 4.11049 5.38325 3.66504 5.73288 3.3154C6.08252 2.96577 6.52797 2.72767 7.01293 2.63121C7.49788 2.53474 8.00055 2.58425 8.45736 2.77347C8.91418 2.96269 9.30462 3.28312 9.57933 3.69425C9.85403 4.10537 10.0007 4.58872 10.0007 5.08317C10.0007 5.74621 9.73726 6.3821 9.26842 6.85094C8.79958 7.31978 8.16369 7.58317 7.50065 7.58317ZM15.6173 7.84984C16.1506 7.24928 16.499 6.50738 16.6205 5.71345C16.742 4.91952 16.6314 4.1074 16.3021 3.37484C15.9728 2.64228 15.4388 2.0205 14.7644 1.58436C14.0899 1.14821 13.3038 0.916289 12.5007 0.916504C12.2796 0.916504 12.0677 1.0043 11.9114 1.16058C11.7551 1.31686 11.6673 1.52882 11.6673 1.74984C11.6673 1.97085 11.7551 2.18281 11.9114 2.33909C12.0677 2.49537 12.2796 2.58317 12.5007 2.58317C13.1637 2.58317 13.7996 2.84656 14.2684 3.3154C14.7373 3.78425 15.0007 4.42013 15.0007 5.08317C14.9995 5.52087 14.8834 5.95059 14.664 6.32936C14.4447 6.70812 14.1297 7.02266 13.7507 7.2415C13.6271 7.31277 13.5239 7.41456 13.451 7.53712C13.378 7.65968 13.3377 7.79892 13.334 7.9415C13.3305 8.08297 13.3631 8.223 13.4287 8.34839C13.4943 8.47377 13.5908 8.58038 13.709 8.65817L14.034 8.87484L14.1423 8.93317C15.1468 9.4096 15.9942 10.1632 16.5848 11.1051C17.1754 12.047 17.4844 13.1381 17.4757 14.2498C17.4757 14.4709 17.5634 14.6828 17.7197 14.8391C17.876 14.9954 18.088 15.0832 18.309 15.0832C18.53 15.0832 18.742 14.9954 18.8982 14.8391C19.0545 14.6828 19.1423 14.4709 19.1423 14.2498C19.1491 12.971 18.8288 11.7117 18.2119 10.5916C17.5949 9.4714 16.7018 8.5276 15.6173 7.84984Z" fill="#888888"/>
</svg>
