<svg width="17" height="17" viewBox="0 0 17 17" fill="none" xmlns="http://www.w3.org/2000/svg">
<path d="M11.2438 8.90083C12.0277 8.28411 12.5999 7.43841 12.8807 6.48138C13.1615 5.52435 13.1371 4.50358 12.8108 3.56108C12.4844 2.61859 11.8725 1.80124 11.06 1.22274C10.2475 0.644247 9.27494 0.333374 8.27755 0.333374C7.28016 0.333374 6.30758 0.644247 5.4951 1.22274C4.68262 1.80124 4.07065 2.61859 3.74433 3.56108C3.41802 4.50358 3.39358 5.52435 3.67441 6.48138C3.95525 7.43841 4.5274 8.28411 5.31126 8.90083C3.9681 9.43895 2.79614 10.3315 1.92033 11.4833C1.04452 12.6351 0.497686 14.0029 0.338128 15.4411C0.326578 15.5461 0.335823 15.6523 0.365333 15.7537C0.394843 15.8551 0.444041 15.9498 0.510118 16.0322C0.643567 16.1986 0.837667 16.3052 1.04972 16.3285C1.26177 16.3519 1.4744 16.29 1.64084 16.1566C1.80727 16.0231 1.91388 15.829 1.93721 15.617C2.11277 14.054 2.85802 12.6105 4.03057 11.5623C5.20312 10.5141 6.72077 9.93466 8.29354 9.93466C9.86632 9.93466 11.384 10.5141 12.5565 11.5623C13.7291 12.6105 14.4743 14.054 14.6499 15.617C14.6716 15.8134 14.7654 15.9949 14.913 16.1263C15.0607 16.2577 15.2518 16.3297 15.4494 16.3285H15.5374C15.747 16.3044 15.9385 16.1985 16.0703 16.0337C16.2021 15.869 16.2634 15.6588 16.241 15.4491C16.0806 14.0069 15.5309 12.6355 14.6506 11.4819C13.7702 10.3283 12.5926 9.43611 11.2438 8.90083ZM8.27755 8.33316C7.64502 8.33316 7.02668 8.14559 6.50075 7.79417C5.97482 7.44275 5.5649 6.94327 5.32284 6.35888C5.08078 5.7745 5.01744 5.13145 5.14085 4.51107C5.26425 3.89069 5.56884 3.32083 6.01611 2.87356C6.46338 2.42629 7.03324 2.1217 7.65362 1.9983C8.274 1.8749 8.91705 1.93823 9.50143 2.18029C10.0858 2.42235 10.5853 2.83227 10.9367 3.3582C11.2881 3.88414 11.4757 4.50247 11.4757 5.135C11.4757 5.98321 11.1388 6.79667 10.539 7.39644C9.93922 7.99621 9.12575 8.33316 8.27755 8.33316Z" fill="white"/>
</svg>
