<svg width="18" height="18" viewBox="0 0 18 18" fill="none" xmlns="http://www.w3.org/2000/svg">
<g id="Frame 781">
<g id="person">
<mask id="mask0_10960_15914" style="mask-type:alpha" maskUnits="userSpaceOnUse" x="0" y="0" width="20" height="20">
<rect id="Bounding box" width="20" height="20" fill="#D9D9D9"/>
</mask>
<g mask="url(#mask0_10960_15914)">
<path id="person_2" d="M9.00012 9C8.03762 9 7.21366 8.65729 6.52825 7.97188C5.84283 7.28646 5.50012 6.4625 5.50012 5.5C5.50012 4.5375 5.84283 3.71354 6.52825 3.02813C7.21366 2.34271 8.03762 2 9.00012 2C9.96262 2 10.7866 2.34271 11.472 3.02813C12.1574 3.71354 12.5001 4.5375 12.5001 5.5C12.5001 6.4625 12.1574 7.28646 11.472 7.97188C10.7866 8.65729 9.96262 9 9.00012 9ZM2.00012 16V13.55C2.00012 13.0542 2.12773 12.5984 2.38293 12.1828C2.63814 11.7672 2.97721 11.45 3.40012 11.2312C4.30429 10.7792 5.22304 10.4401 6.15637 10.2141C7.08971 9.98802 8.03762 9.875 9.00012 9.875C9.96262 9.875 10.9105 9.98802 11.8439 10.2141C12.7772 10.4401 13.696 10.7792 14.6001 11.2312C15.023 11.45 15.3621 11.7672 15.6173 12.1828C15.8725 12.5984 16.0001 13.0542 16.0001 13.55V16H2.00012ZM3.75012 14.25H14.2501V13.55C14.2501 13.3896 14.21 13.2437 14.1298 13.1125C14.0496 12.9812 13.9439 12.8792 13.8126 12.8063C13.0251 12.4125 12.2303 12.1172 11.4282 11.9203C10.6262 11.7234 9.81679 11.625 9.00012 11.625C8.18346 11.625 7.37408 11.7234 6.572 11.9203C5.76991 12.1172 4.97512 12.4125 4.18762 12.8063C4.05637 12.8792 3.95064 12.9812 3.87043 13.1125C3.79023 13.2437 3.75012 13.3896 3.75012 13.55V14.25ZM9.00012 7.25C9.48137 7.25 9.89335 7.07865 10.2361 6.73594C10.5788 6.39323 10.7501 5.98125 10.7501 5.5C10.7501 5.01875 10.5788 4.60677 10.2361 4.26406C9.89335 3.92135 9.48137 3.75 9.00012 3.75C8.51887 3.75 8.10689 3.92135 7.76418 4.26406C7.42148 4.60677 7.25012 5.01875 7.25012 5.5C7.25012 5.98125 7.42148 6.39323 7.76418 6.73594C8.10689 7.07865 8.51887 7.25 9.00012 7.25Z" fill="#0056A1"/>
</g>
</g>
</g>
</svg>
