<svg width="20" height="20" viewBox="0 0 20 20" fill="none" xmlns="http://www.w3.org/2000/svg">
<path d="M16.7 20H3.3C1.5 20 0 18.48 0 16.66V9.36C0 8.44 0.4 7.54 1.1 6.92L7.8 0.84C9.1 -0.28 10.9 -0.28 12.2 0.84L18.9 6.92C19.6 7.52 20 8.44 20 9.36V16.66C19.9 18.58 18.5 20 16.7 20ZM10 2.06C9.7 2.06 9.4 2.16 9.1 2.36L2.4 8.44C2.1 8.64 2 9.04 2 9.46V16.76C2 17.46 2.6 18.08 3.3 18.08H16.6C17.3 18.08 17.9 17.48 17.9 16.76V9.46C17.9 9.06 17.7 8.76 17.5 8.44L10.8 2.36C10.6 2.16 10.3 2.06 10 2.06Z" fill="#888888"/>
</svg>
