<svg width="44" height="37" viewBox="0 0 44 37" fill="none" xmlns="http://www.w3.org/2000/svg">
<path d="M23.732 0.999912L42.784 33.9999C42.9595 34.304 43.052 34.6488 43.052 34.9999C43.052 35.351 42.9595 35.6959 42.784 35.9999C42.6085 36.3039 42.356 36.5564 42.052 36.7319C41.748 36.9075 41.4031 36.9999 41.052 36.9999H2.94801C2.59694 36.9999 2.25206 36.9075 1.94803 36.7319C1.64399 36.5564 1.39153 36.3039 1.216 35.9999C1.04046 35.6959 0.948057 35.351 0.948059 34.9999C0.948061 34.6488 1.04047 34.304 1.21601 33.9999L20.268 0.999912C20.4436 0.695897 20.696 0.443444 21.0001 0.267923C21.3041 0.092403 21.649 0 22 0C22.3511 0 22.6959 0.092403 23 0.267923C23.304 0.443444 23.5565 0.695897 23.732 0.999912ZM20 26.9999V30.9999H24V26.9999H20ZM20 12.9999V22.9999H24V12.9999H20Z" fill="#FF6464"/>
</svg>
