<svg width="22" height="20" viewBox="0 0 22 20" fill="none" xmlns="http://www.w3.org/2000/svg">
<path d="M10.9999 13.6667C10.8186 13.6667 10.6414 13.7204 10.4907 13.8211C10.3399 13.9219 10.2224 14.065 10.153 14.2325C10.0837 14.4 10.0655 14.5843 10.1009 14.7622C10.1362 14.94 10.2236 15.1033 10.3518 15.2315C10.4799 15.3597 10.6433 15.447 10.8211 15.4824C10.9989 15.5178 11.1832 15.4996 11.3507 15.4302C11.5182 15.3608 11.6614 15.2433 11.7621 15.0926C11.8628 14.9419 11.9166 14.7646 11.9166 14.5833C11.9166 14.3402 11.82 14.1071 11.6481 13.9351C11.4762 13.7632 11.243 13.6667 10.9999 13.6667ZM20.7808 15.0142L13.4016 2.18083C13.1631 1.75322 12.8147 1.39704 12.3925 1.14909C11.9703 0.901143 11.4896 0.770416 10.9999 0.770416C10.5103 0.770416 10.0295 0.901143 9.60734 1.14909C9.18513 1.39704 8.83677 1.75322 8.59826 2.18083L1.26493 15.0142C1.01816 15.4303 0.88556 15.9043 0.88052 16.3881C0.87548 16.8719 0.998178 17.3485 1.23622 17.7697C1.47427 18.1909 1.81924 18.5419 2.23631 18.7872C2.65337 19.0325 3.12777 19.1634 3.6116 19.1667H18.3883C18.876 19.1715 19.3562 19.0465 19.7797 18.8045C20.2032 18.5625 20.5547 18.2123 20.7982 17.7897C21.0417 17.3671 21.1684 16.8873 21.1653 16.3996C21.1623 15.9118 21.0295 15.4337 20.7808 15.0142ZM19.1949 16.8475C19.1146 16.9904 18.9974 17.1092 18.8555 17.1915C18.7136 17.2737 18.5522 17.3163 18.3883 17.315H3.6116C3.44761 17.3163 3.28627 17.2737 3.14439 17.1915C3.00251 17.1092 2.88528 16.9904 2.80493 16.8475C2.72448 16.7081 2.68212 16.5501 2.68212 16.3892C2.68212 16.2283 2.72448 16.0702 2.80493 15.9308L10.1383 3.09749C10.2152 2.94734 10.3321 2.82133 10.476 2.73334C10.62 2.64535 10.7854 2.59879 10.9541 2.59879C11.1228 2.59879 11.2882 2.64535 11.4322 2.73334C11.5761 2.82133 11.693 2.94734 11.7699 3.09749L19.1491 15.9308C19.24 16.0682 19.2923 16.2275 19.3004 16.392C19.3084 16.5566 19.272 16.7202 19.1949 16.8658V16.8475ZM10.9999 6.33333C10.7568 6.33333 10.5237 6.4299 10.3518 6.60181C10.1798 6.77372 10.0833 7.00688 10.0833 7.24999V10.9167C10.0833 11.1598 10.1798 11.3929 10.3518 11.5648C10.5237 11.7368 10.7568 11.8333 10.9999 11.8333C11.243 11.8333 11.4762 11.7368 11.6481 11.5648C11.82 11.3929 11.9166 11.1598 11.9166 10.9167V7.24999C11.9166 7.00688 11.82 6.77372 11.6481 6.60181C11.4762 6.4299 11.243 6.33333 10.9999 6.33333Z" fill="#282828"/>
</svg>
