<svg width="15" height="15" viewBox="0 0 15 15" fill="none" xmlns="http://www.w3.org/2000/svg">
<path d="M8.59317 7.50276L14.2632 1.83276C14.3906 1.68397 14.4572 1.49257 14.4496 1.29683C14.4421 1.10108 14.3609 0.915392 14.2224 0.776874C14.0839 0.638356 13.8982 0.557208 13.7024 0.549648C13.5067 0.542087 13.3153 0.60867 13.1665 0.73609L7.49651 6.40609L1.82651 0.728312C1.67772 0.600892 1.48632 0.534309 1.29058 0.54187C1.09483 0.549431 0.909143 0.630578 0.770625 0.769096C0.632107 0.907614 0.550959 1.0933 0.543398 1.28905C0.535837 1.4848 0.60242 1.67619 0.729841 1.82498L6.39984 7.50276L0.722063 13.1728C0.640644 13.2425 0.574517 13.3283 0.527832 13.4248C0.481147 13.5213 0.454912 13.6264 0.450775 13.7335C0.446638 13.8406 0.464687 13.9474 0.503789 14.0472C0.542891 14.147 0.602203 14.2377 0.678002 14.3135C0.7538 14.3893 0.844448 14.4486 0.944256 14.4877C1.04406 14.5268 1.15088 14.5448 1.25799 14.5407C1.36511 14.5366 1.47021 14.5103 1.56671 14.4637C1.6632 14.417 1.749 14.3508 1.81873 14.2694L7.49651 8.59942L13.1665 14.2694C13.3153 14.3968 13.5067 14.4634 13.7024 14.4559C13.8982 14.4483 14.0839 14.3672 14.2224 14.2286C14.3609 14.0901 14.4421 13.9044 14.4496 13.7087C14.4572 13.5129 14.3906 13.3215 14.2632 13.1728L8.59317 7.50276Z" fill="#282828"/>
</svg>
