<svg width="20" height="20" viewBox="0 0 20 20" fill="none" xmlns="http://www.w3.org/2000/svg">
<path d="M10 0C8.02219 0 6.08879 0.58649 4.4443 1.6853C2.79981 2.78412 1.51809 4.3459 0.761209 6.17316C0.00433284 8.00042 -0.1937 10.0111 0.192152 11.9509C0.578004 13.8907 1.53041 15.6725 2.92894 17.0711C4.32746 18.4696 6.10929 19.422 8.0491 19.8078C9.98891 20.1937 11.9996 19.9957 13.8268 19.2388C15.6541 18.4819 17.2159 17.2002 18.3147 15.5557C19.4135 13.9112 20 11.9778 20 10C20 8.68678 19.7413 7.38642 19.2388 6.17316C18.7362 4.95991 17.9997 3.85752 17.0711 2.92893C16.1425 2.00035 15.0401 1.26375 13.8268 0.761204C12.6136 0.258658 11.3132 0 10 0ZM10 18C8.41775 18 6.87103 17.5308 5.55544 16.6518C4.23985 15.7727 3.21447 14.5233 2.60897 13.0615C2.00347 11.5997 1.84504 9.99112 2.15372 8.43927C2.4624 6.88743 3.22433 5.46196 4.34315 4.34314C5.46197 3.22432 6.88743 2.4624 8.43928 2.15372C9.99113 1.84504 11.5997 2.00346 13.0615 2.60896C14.5233 3.21446 15.7727 4.23984 16.6518 5.55544C17.5308 6.87103 18 8.41775 18 10C18 12.1217 17.1571 14.1566 15.6569 15.6568C14.1566 17.1571 12.1217 18 10 18ZM10 4C9.73479 4 9.48043 4.10536 9.2929 4.29289C9.10536 4.48043 9 4.73478 9 5V8.27L7.9 7.63C7.66926 7.49739 7.3953 7.46187 7.13837 7.53126C6.88145 7.60065 6.66261 7.76926 6.53 8C6.39739 8.23074 6.36188 8.5047 6.43127 8.76163C6.50065 9.01855 6.66926 9.23739 6.9 9.37L9.5 10.87H9.57H9.66C9.76443 10.9338 9.87967 10.9778 10 11C10.1165 10.9967 10.2316 10.973 10.34 10.93H10.42C10.5243 10.8845 10.6192 10.8201 10.7 10.74C10.7548 10.6806 10.805 10.6171 10.85 10.55C10.85 10.55 10.85 10.55 10.85 10.49C10.8745 10.4316 10.8945 10.3714 10.91 10.31C10.9147 10.2434 10.9147 10.1766 10.91 10.11C10.91 10.11 10.91 10.11 10.91 10.05V5C10.911 4.74966 10.8181 4.50805 10.6496 4.3229C10.4811 4.13775 10.2493 4.02253 10 4Z" fill="#FF6464"/>
</svg>
