<svg width="16" height="16" viewBox="0 0 16 16" fill="none" xmlns="http://www.w3.org/2000/svg">
<path d="M15.5962 10.685L12.2062 7.30247C12.2771 6.95701 12.3123 6.60515 12.3112 6.25247C12.3109 5.28546 12.0669 4.33412 11.6016 3.48639C11.1364 2.63865 10.4649 1.92188 9.64936 1.40233C8.83378 0.882779 7.90038 0.577213 6.93545 0.513878C5.97051 0.450544 5.00518 0.631484 4.12869 1.03997C4.01764 1.0907 3.92065 1.16777 3.84615 1.26449C3.77165 1.36121 3.72189 1.47466 3.70119 1.59497C3.68056 1.71376 3.68888 1.83577 3.72544 1.95067C3.76199 2.06556 3.82571 2.16994 3.91119 2.25497L7.17369 5.50997L5.82369 6.85997L2.56869 3.59747C2.48294 3.51333 2.37823 3.45101 2.26337 3.41577C2.14851 3.38053 2.02687 3.3734 1.90869 3.39497C1.78912 3.41492 1.67617 3.46355 1.57952 3.5367C1.48286 3.60984 1.40537 3.70533 1.35369 3.81497C0.943829 4.69435 0.763047 5.66311 0.828154 6.63112C0.893262 7.59914 1.20215 8.53496 1.72607 9.35153C2.24999 10.1681 2.97194 10.8389 3.82474 11.3015C4.67755 11.7641 5.6335 12.0035 6.60369 11.9975C6.95636 11.9986 7.30822 11.9634 7.65369 11.8925L11.0362 15.2825C11.1059 15.3528 11.1889 15.4086 11.2803 15.4466C11.3716 15.4847 11.4697 15.5043 11.5687 15.5043C11.6677 15.5043 11.7657 15.4847 11.8571 15.4466C11.9485 15.4086 12.0315 15.3528 12.1012 15.2825C12.1715 15.2128 12.2273 15.1298 12.2654 15.0384C12.3034 14.947 12.323 14.849 12.323 14.75C12.323 14.651 12.3034 14.5529 12.2654 14.4615C12.2273 14.3701 12.1715 14.2872 12.1012 14.2175L8.42619 10.5425C8.33435 10.4512 8.22046 10.3853 8.09561 10.3512C7.97075 10.317 7.83918 10.3157 7.71369 10.3475C7.35157 10.4444 6.97856 10.4949 6.60369 10.4975C6.04272 10.5024 5.48632 10.3963 4.96654 10.1853C4.44676 9.97428 3.97387 9.6625 3.5751 9.26792C3.17634 8.87334 2.85959 8.40376 2.6431 7.88624C2.42661 7.36871 2.31465 6.81346 2.31369 6.25247C2.31271 6.00124 2.33278 5.75036 2.37369 5.50247L5.31369 8.44997C5.38341 8.52027 5.46636 8.57607 5.55775 8.61414C5.64915 8.65222 5.74718 8.67182 5.84619 8.67182C5.9452 8.67182 6.04322 8.65222 6.13462 8.61414C6.22601 8.57607 6.30896 8.52027 6.37869 8.44997L8.76369 6.04247C8.89887 5.90262 8.97443 5.71573 8.97443 5.52122C8.97443 5.32672 8.89887 5.13982 8.76369 4.99997L5.84619 2.05997C6.09412 2.01948 6.34497 1.99942 6.59619 1.99997C7.72272 2.00196 8.80243 2.45087 9.59831 3.24815C10.3942 4.04543 10.8412 5.12594 10.8412 6.25247C10.8386 6.62735 10.7882 7.00035 10.6912 7.36247C10.6594 7.48797 10.6607 7.61954 10.6949 7.7444C10.7291 7.86925 10.795 7.98314 10.8862 8.07497L14.5612 11.75C14.7024 11.8912 14.894 11.9705 15.0937 11.9705C15.2934 11.9705 15.485 11.8912 15.6262 11.75C15.7674 11.6087 15.8468 11.4172 15.8468 11.2175C15.8468 11.0177 15.7674 10.8262 15.6262 10.685H15.5962Z" fill="#888888"/>
</svg>
