<svg width="18" height="18" viewBox="0 0 18 18" fill="none" xmlns="http://www.w3.org/2000/svg">
<path d="M17.0923 11.9833L13.3256 8.225C13.4044 7.84115 13.4435 7.4502 13.4423 7.05834C13.442 5.98388 13.1708 4.92684 12.6539 3.98491C12.137 3.04298 11.3909 2.24657 10.4847 1.66929C9.57849 1.09201 8.54139 0.752493 7.46924 0.682121C6.39709 0.611749 5.3245 0.812794 4.35061 1.26667C4.22723 1.32304 4.11946 1.40867 4.03669 1.51614C3.95391 1.6236 3.89862 1.74965 3.87561 1.88334C3.8527 2.01533 3.86194 2.15089 3.90256 2.27855C3.94318 2.40621 4.01397 2.52219 4.10895 2.61667L7.73394 6.23334L6.23395 7.73334L2.61728 4.10834C2.522 4.01484 2.40566 3.9456 2.27804 3.90644C2.15042 3.86729 2.01526 3.85936 1.88395 3.88334C1.7511 3.9055 1.6256 3.95953 1.5182 4.04081C1.4108 4.12208 1.3247 4.22818 1.26728 4.35C0.811883 5.32709 0.611013 6.40349 0.683355 7.47906C0.755697 8.55463 1.0989 9.59443 1.68104 10.5017C2.26318 11.409 3.06534 12.1544 4.0129 12.6684C4.96046 13.1824 6.02263 13.4484 7.10061 13.4417C7.49247 13.4429 7.88342 13.4038 8.26728 13.325L12.0256 17.0917C12.1031 17.1698 12.1952 17.2318 12.2968 17.2741C12.3983 17.3164 12.5073 17.3382 12.6173 17.3382C12.7273 17.3382 12.8362 17.3164 12.9378 17.2741C13.0393 17.2318 13.1315 17.1698 13.2089 17.0917C13.2871 17.0142 13.349 16.922 13.3914 16.8205C13.4337 16.7189 13.4554 16.61 13.4554 16.5C13.4554 16.39 13.4337 16.2811 13.3914 16.1795C13.349 16.078 13.2871 15.9858 13.2089 15.9083L9.12561 11.825C9.02357 11.7236 8.89703 11.6504 8.7583 11.6124C8.61958 11.5745 8.47338 11.5731 8.33395 11.6083C7.93159 11.7161 7.51714 11.7721 7.10061 11.775C6.47732 11.7805 5.8591 11.6626 5.28156 11.4282C4.70403 11.1937 4.17859 10.8473 3.73552 10.4088C3.29245 9.97042 2.94051 9.44866 2.69996 8.87363C2.45941 8.2986 2.33502 7.68165 2.33395 7.05834C2.33287 6.77919 2.35517 6.50043 2.40061 6.225L5.66728 9.5C5.74475 9.57811 5.83692 9.64011 5.93846 9.68241C6.04001 9.72472 6.14894 9.7465 6.25895 9.7465C6.36896 9.7465 6.47788 9.72472 6.57943 9.68241C6.68098 9.64011 6.77314 9.57811 6.85061 9.5L9.50061 6.825C9.65081 6.66962 9.73477 6.46195 9.73477 6.24584C9.73477 6.02972 9.65081 5.82206 9.50061 5.66667L6.25895 2.4C6.53443 2.35501 6.81314 2.33272 7.09228 2.33334C8.34398 2.33555 9.54366 2.83433 10.428 3.7202C11.3123 4.60607 11.8089 5.80663 11.8089 7.05834C11.806 7.47486 11.75 7.88931 11.6423 8.29167C11.607 8.43111 11.6084 8.5773 11.6464 8.71603C11.6844 8.85476 11.7576 8.9813 11.8589 9.08334L15.9423 13.1667C16.0992 13.3236 16.312 13.4117 16.5339 13.4117C16.7559 13.4117 16.9687 13.3236 17.1256 13.1667C17.2825 13.0098 17.3707 12.7969 17.3707 12.575C17.3707 12.3531 17.2825 12.1403 17.1256 11.9833H17.0923Z" fill="#0056A1"/>
</svg>
