<svg width="16" height="16" viewBox="0 0 16 16" fill="none" xmlns="http://www.w3.org/2000/svg">
<path d="M15.2714 4.53818C15.272 4.44247 15.2536 4.34759 15.2175 4.25899C15.1813 4.17039 15.1279 4.0898 15.0605 4.02185L11.9771 0.938445C11.9092 0.871045 11.8286 0.817721 11.74 0.781532C11.6514 0.745342 11.5565 0.726998 11.4608 0.727551C11.3651 0.726998 11.2702 0.745342 11.1816 0.781532C11.093 0.817721 11.0124 0.871045 10.9445 0.938445L8.88645 2.99647L0.937956 10.945C0.870557 11.0129 0.817233 11.0935 0.781043 11.1821C0.744854 11.2707 0.72651 11.3656 0.727063 11.4613V14.5447C0.727063 14.7376 0.80368 14.9225 0.94006 15.0589C1.07644 15.1953 1.26141 15.2719 1.45428 15.2719H4.53769C4.63945 15.2775 4.74123 15.2615 4.83644 15.2252C4.93166 15.1889 5.01817 15.1329 5.09037 15.061L12.9952 7.11253L15.0605 5.09086C15.1269 5.02038 15.181 4.93926 15.2205 4.85088C15.2275 4.79291 15.2275 4.73431 15.2205 4.67635C15.2239 4.6425 15.2239 4.60839 15.2205 4.57454L15.2714 4.53818ZM4.23953 13.8175H2.1815V11.7595L9.40278 4.53818L11.4608 6.5962L4.23953 13.8175ZM12.4862 5.57083L10.4282 3.5128L11.4608 2.48742L13.5116 4.53818L12.4862 5.57083Z" fill="white"/>
</svg>
