<svg width="28" height="30" viewBox="0 0 28 30" fill="none" xmlns="http://www.w3.org/2000/svg">
<path d="M25.5 26.24V27.5C25.4991 28.0965 25.2618 28.6682 24.84 29.09C24.4183 29.5118 23.8465 29.7491 23.25 29.75H4.25C3.65354 29.7491 3.08177 29.5118 2.66 29.09C2.23824 28.6682 2.0009 28.0965 2 27.5V26.24C2.08 26.25 25.42 26.25 25.5 26.24Z" fill="#444444"/>
<path d="M18.25 16.75H17.5V18.25H18.25C18.4489 18.25 18.6397 18.171 18.7803 18.0303C18.921 17.8897 19 17.6989 19 17.5C19 17.3011 18.921 17.1103 18.7803 16.9697C18.6397 16.829 18.4489 16.75 18.25 16.75Z" fill="#444444"/>
<path d="M25.25 12.25H2.25C1.65349 12.2507 1.08162 12.488 0.659828 12.9098C0.238032 13.3316 0.00074094 13.9035 0 14.5V22.5C0.00074094 23.0965 0.238032 23.6684 0.659828 24.0902C1.08162 24.512 1.65349 24.7493 2.25 24.75H25.25C25.8465 24.7493 26.4184 24.512 26.8401 24.0902C27.2619 23.6684 27.4992 23.0965 27.5 22.5V14.5C27.4992 13.9035 27.2619 13.3316 26.8401 12.9098C26.4184 12.488 25.8465 12.2507 25.25 12.25ZM10.75 20.25C10.9489 20.25 11.1397 20.329 11.2803 20.4697C11.421 20.6103 11.5 20.8011 11.5 21C11.5 21.1989 11.421 21.3897 11.2803 21.5304C11.1397 21.671 10.9489 21.75 10.75 21.75H7.74999C7.61733 21.7499 7.48707 21.7146 7.37248 21.6478C7.25788 21.5809 7.16305 21.4849 7.09764 21.3695C7.03224 21.2541 6.99859 21.1234 7.00013 20.9907C7.00166 20.8581 7.03833 20.7282 7.10639 20.6143L9.42579 16.75H7.74999C7.55108 16.75 7.36032 16.671 7.21966 16.5303C7.07901 16.3897 6.99999 16.1989 6.99999 16C6.99999 15.8011 7.07901 15.6103 7.21966 15.4697C7.36032 15.329 7.55108 15.25 7.74999 15.25H10.75C10.8827 15.2501 11.0129 15.2854 11.1275 15.3523C11.2421 15.4191 11.3369 15.5151 11.4023 15.6305C11.4677 15.746 11.5014 15.8766 11.4999 16.0093C11.4983 16.142 11.4617 16.2718 11.3936 16.3857L9.07419 20.25H10.75ZM14.5 21C14.5 21.1989 14.421 21.3897 14.2803 21.5304C14.1397 21.671 13.9489 21.75 13.75 21.75C13.5511 21.75 13.3603 21.671 13.2197 21.5304C13.079 21.3897 13 21.1989 13 21V16C13 15.8011 13.079 15.6103 13.2197 15.4697C13.3603 15.329 13.5511 15.25 13.75 15.25C13.9489 15.25 14.1397 15.329 14.2803 15.4697C14.421 15.6103 14.5 15.8011 14.5 16V21ZM18.25 19.75H17.5V21C17.5 21.1989 17.421 21.3897 17.2803 21.5304C17.1397 21.671 16.9489 21.75 16.75 21.75C16.5511 21.75 16.3603 21.671 16.2197 21.5304C16.079 21.3897 16 21.1989 16 21V16C16 15.8011 16.079 15.6103 16.2197 15.4697C16.3603 15.329 16.5511 15.25 16.75 15.25H18.25C18.8467 15.25 19.419 15.4871 19.841 15.909C20.2629 16.331 20.5 16.9033 20.5 17.5C20.5 18.0967 20.2629 18.669 19.841 19.091C19.419 19.513 18.8467 19.75 18.25 19.75Z" fill="#444444"/>
<path d="M18.5 6.49996C18.5003 6.69879 18.5794 6.88938 18.72 7.02997C18.8606 7.17056 19.0512 7.24967 19.25 7.24996H25.0231C24.967 7.17264 24.9057 7.09914 24.8398 7.02996L18.7188 0.907863C18.6498 0.842783 18.5768 0.782223 18.5 0.726562V6.49996Z" fill="#444444"/>
<path d="M25.5 8.74999V10.76C25.42 10.75 2.08 10.75 2 10.76V2.5C2.0009 1.90354 2.23824 1.33176 2.66 0.910002C3.08177 0.48824 3.65354 0.250899 4.25 0.25H17V6.49999C17.0009 7.09645 17.2383 7.66823 17.66 8.08999C18.0818 8.51175 18.6536 8.74909 19.25 8.74999H25.5Z" fill="#444444"/>
</svg>
